<svg version="1.1" viewBox="0.0 0.0 453.8635170603674 159.95800524934384" fill="none" stroke="none" stroke-linecap="square" stroke-miterlimit="10" xmlns:xlink="http://www.w3.org/1999/xlink" xmlns="http://www.w3.org/2000/svg"><clipPath id="p.0"><path d="m0 0l453.86353 0l0 159.95801l-453.86353 0l0 -159.95801z" clip-rule="nonzero"/></clipPath><g clip-path="url(#p.0)"><path fill="#000000" fill-opacity="0.0" d="m0 0l453.86353 0l0 159.95801l-453.86353 0z" fill-rule="evenodd"/><path fill="#b6d7a8" d="m128.12335 84.480316l63.559067 0l0 63.55905l-63.559067 0z" fill-rule="evenodd"/><path stroke="#000000" stroke-width="3.0" stroke-linejoin="round" stroke-linecap="butt" d="m128.12335 84.480316l63.559067 0l0 63.55905l-63.559067 0z" fill-rule="evenodd"/><path fill="#000000" d="m166.68413 127.97984l-12.82811 0l0 -2.53125l5.25 0l0 -14.90625l-4.890625 2.65625l-1.0 -2.3125l6.5 -3.421875l2.4062347 0l0 17.984375l4.5625 0l0 2.53125z" fill-rule="nonzero"/><path fill="#b6d7a8" d="m191.68242 84.480316l63.55905 0l0 63.55905l-63.55905 0z" fill-rule="evenodd"/><path stroke="#000000" stroke-width="3.0" stroke-linejoin="round" stroke-linecap="butt" d="m191.68242 84.480316l63.55905 0l0 63.55905l-63.55905 0z" fill-rule="evenodd"/><path fill="#000000" d="m230.3057 110.08922l-8.5625 17.890625l-3.109375 0l8.890625 -17.890625l-11.03125 0l0 -2.53125l13.8125 0l0 2.53125z" fill-rule="nonzero"/><path fill="#b6d7a8" d="m255.24147 84.480316l63.559067 0l0 63.55905l-63.559067 0z" fill-rule="evenodd"/><path stroke="#000000" stroke-width="3.0" stroke-linejoin="round" stroke-linecap="butt" d="m255.24147 84.480316l63.559067 0l0 63.55905l-63.559067 0z" fill-rule="evenodd"/><path fill="#000000" d="m293.97412 127.97984l-13.453125 0l0 -2.4375l5.28125 -5.25q1.296875 -1.28125 2.109375 -2.21875q0.8125 -0.9375 1.265625 -1.703125q0.453125 -0.78125 0.609375 -1.46875q0.15625 -0.6875 0.15625 -1.484375q0 -0.75 -0.203125 -1.421875q-0.203125 -0.6875 -0.625 -1.203125q-0.421875 -0.515625 -1.09375 -0.8125q-0.671875 -0.296875 -1.609375 -0.296875q-1.296875 0 -2.359375 0.578125q-1.0625 0.578125 -1.953125 1.5l-1.5 -1.796875q1.15625 -1.21875 2.65625 -1.953125q1.515625 -0.734375 3.515625 -0.734375q1.359375 0 2.46875 0.40625q1.125 0.40625 1.9375 1.171875q0.8125 0.765625 1.25 1.875q0.453125 1.109375 0.453125 2.5q0 1.171875 -0.3125 2.171875q-0.3125 1.0 -0.953125 2.0q-0.625 0.984375 -1.59375 2.046875q-0.953125 1.0625 -2.265625 2.328125l-3.703125 3.609375l9.921875 0l0 2.59375z" fill-rule="nonzero"/><path fill="#b6d7a8" d="m318.80054 84.480316l63.55905 0l0 63.55905l-63.55905 0z" fill-rule="evenodd"/><path stroke="#000000" stroke-width="3.0" stroke-linejoin="round" stroke-linecap="butt" d="m318.80054 84.480316l63.55905 0l0 63.55905l-63.55905 0z" fill-rule="evenodd"/><path fill="#000000" d="m346.45505 120.74547l-9.34375 0l0 -2.5625l9.34375 0l0 2.5625zm19.703125 7.234375l-12.828125 0l0 -2.53125l5.25 0l0 -14.90625l-4.890625 2.65625l-1.0 -2.3125l6.5 -3.421875l2.40625 0l0 17.984375l4.5625 0l0 2.53125z" fill-rule="nonzero"/><path fill="#b6d7a8" d="m382.3596 84.480316l63.55905 0l0 63.55905l-63.55905 0z" fill-rule="evenodd"/><path stroke="#000000" stroke-width="3.0" stroke-linejoin="round" stroke-linecap="butt" d="m382.3596 84.480316l63.55905 0l0 63.55905l-63.55905 0z" fill-rule="evenodd"/><path fill="#000000" d="m421.09222 127.97984l-13.453125 0l0 -2.4375l5.28125 -5.25q1.296875 -1.28125 2.109375 -2.21875q0.8125 -0.9375 1.265625 -1.703125q0.453125 -0.78125 0.609375 -1.46875q0.15625 -0.6875 0.15625 -1.484375q0 -0.75 -0.203125 -1.421875q-0.203125 -0.6875 -0.625 -1.203125q-0.421875 -0.515625 -1.09375 -0.8125q-0.671875 -0.296875 -1.609375 -0.296875q-1.296875 0 -2.359375 0.578125q-1.0625 0.578125 -1.953125 1.5l-1.5 -1.796875q1.15625 -1.21875 2.65625 -1.953125q1.515625 -0.734375 3.515625 -0.734375q1.359375 0 2.46875 0.40625q1.125 0.40625 1.9375 1.171875q0.8125 0.765625 1.25 1.875q0.453125 1.109375 0.453125 2.5q0 1.171875 -0.3125 2.171875q-0.3125 1.0 -0.953125 2.0q-0.625 0.984375 -1.59375 2.046875q-0.953125 1.0625 -2.265625 2.328125l-3.703125 3.609375l9.921875 0l0 2.59375z" fill-rule="nonzero"/><path fill="#000000" fill-opacity="0.0" d="m134.07611 44.76378l51.65355 0l0 39.716537l-51.65355 0z" fill-rule="evenodd"/><path fill="#000000" d="m164.22737 65.73065q0 1.375 -0.28125 2.5q-0.265625 1.125 -0.828125 1.9375q-0.546875 0.796875 -1.375 1.234375q-0.8125 0.4375 -1.9375 0.4375q-0.953125 0 -1.734375 -0.359375q-0.78125 -0.359375 -1.34375 -1.09375q-0.546875 -0.75 -0.859375 -1.90625q-0.296875 -1.15625 -0.296875 -2.75q0 -1.359375 0.28125 -2.484375q0.28125 -1.140625 0.828125 -1.9375q0.546875 -0.8125 1.375 -1.25q0.84375 -0.4375 1.9375 -0.4375q0.953125 0 1.734375 0.359375q0.796875 0.359375 1.34375 1.109375q0.5625 0.75 0.859375 1.90625q0.296875 1.15625 0.296875 2.734375zm-1.59375 0.0625q0 -0.3125 -0.03125 -0.609375q-0.015625 -0.3125 -0.046875 -0.609375l-5.046875 3.75q0.140625 0.46875 0.34375 0.875q0.21875 0.390625 0.515625 0.6875q0.296875 0.28125 0.671875 0.453125q0.375 0.15625 0.859375 0.15625q0.625 0 1.125 -0.296875q0.515625 -0.3125 0.859375 -0.90625q0.359375 -0.59375 0.546875 -1.46875q0.203125 -0.875 0.203125 -2.03125zm-5.453125 -0.109375q0 0.28125 0 0.5625q0 0.28125 0.03125 0.546875l5.046875 -3.734375q-0.140625 -0.453125 -0.359375 -0.828125q-0.203125 -0.390625 -0.5 -0.671875q-0.28125 -0.28125 -0.65625 -0.4375q-0.375 -0.15625 -0.84375 -0.15625q-0.609375 0 -1.125 0.3125q-0.5 0.296875 -0.859375 0.890625q-0.359375 0.59375 -0.546875 1.484375q-0.1875 0.875 -0.1875 2.03125z" fill-rule="nonzero"/><path fill="#000000" fill-opacity="0.0" d="m197.63518 44.76378l51.653534 0l0 39.716537l-51.653534 0z" fill-rule="evenodd"/><path fill="#000000" d="m227.41142 71.68378l-7.46875 0l0 -1.46875l3.0625 0l0 -8.703125l-2.859375 1.546875l-0.578125 -1.34375l3.78125 -1.984375l1.40625 0l0 10.484375l2.65625 0l0 1.46875z" fill-rule="nonzero"/><path fill="#000000" fill-opacity="0.0" d="m261.1942 44.76378l51.653564 0l0 39.716537l-51.653564 0z" fill-rule="evenodd"/><path fill="#000000" d="m291.07986 71.68378l-7.84375 0l0 -1.421875l3.078125 -3.0625q0.75 -0.75 1.21875 -1.296875q0.484375 -0.546875 0.75 -0.984375q0.265625 -0.453125 0.34375 -0.859375q0.09375 -0.40625 0.09375 -0.859375q0 -0.4375 -0.125 -0.828125q-0.109375 -0.40625 -0.359375 -0.703125q-0.234375 -0.3125 -0.640625 -0.484375q-0.390625 -0.171875 -0.9375 -0.171875q-0.75 0 -1.375 0.34375q-0.609375 0.328125 -1.125 0.875l-0.875 -1.046875q0.671875 -0.71875 1.546875 -1.140625q0.875 -0.421875 2.046875 -0.421875q0.796875 0 1.4375 0.234375q0.65625 0.234375 1.125 0.6875q0.484375 0.4375 0.734375 1.09375q0.265625 0.640625 0.265625 1.453125q0 0.671875 -0.1875 1.265625q-0.171875 0.578125 -0.546875 1.15625q-0.375 0.578125 -0.9375 1.203125q-0.546875 0.609375 -1.3125 1.359375l-2.171875 2.09375l5.796875 0l0 1.515625z" fill-rule="nonzero"/><path fill="#000000" fill-opacity="0.0" d="m324.7533 44.76378l51.653534 0l0 39.716537l-51.653534 0z" fill-rule="evenodd"/><path fill="#000000" d="m354.40454 68.0744q0 0.78125 -0.328125 1.46875q-0.3125 0.6875 -0.953125 1.203125q-0.625 0.515625 -1.59375 0.8125q-0.96875 0.28125 -2.25 0.28125q-0.71875 0 -1.28125 -0.046875q-0.5625 -0.03125 -1.046875 -0.109375l0 -1.421875q0.5625 0.09375 1.1875 0.15625q0.625 0.046875 1.28125 0.046875q0.890625 0 1.515625 -0.15625q0.640625 -0.15625 1.046875 -0.453125q0.40625 -0.296875 0.578125 -0.71875q0.1875 -0.4375 0.1875 -0.984375q0 -0.484375 -0.21875 -0.84375q-0.21875 -0.375 -0.625 -0.609375q-0.390625 -0.25 -0.9375 -0.375q-0.546875 -0.125 -1.203125 -0.125l-1.359375 0l0 -1.296875l1.375 0q0.53125 0 0.96875 -0.140625q0.453125 -0.140625 0.765625 -0.40625q0.3125 -0.265625 0.484375 -0.65625q0.171875 -0.390625 0.171875 -0.875q0 -0.953125 -0.59375 -1.390625q-0.578125 -0.4375 -1.703125 -0.4375q-0.609375 0 -1.25 0.125q-0.625 0.109375 -1.359375 0.34375l0 -1.390625q0.3125 -0.109375 0.65625 -0.1875q0.359375 -0.09375 0.703125 -0.140625q0.359375 -0.0625 0.703125 -0.09375q0.34375 -0.03125 0.65625 -0.03125q0.953125 0 1.671875 0.203125q0.71875 0.203125 1.203125 0.59375q0.484375 0.375 0.71875 0.921875q0.25 0.546875 0.25 1.21875q0 1.03125 -0.53125 1.71875q-0.515625 0.6875 -1.421875 1.109375q0.46875 0.0625 0.90625 0.28125q0.453125 0.21875 0.8125 0.5625q0.375 0.34375 0.59375 0.8125q0.21875 0.453125 0.21875 1.03125z" fill-rule="nonzero"/><path fill="#000000" fill-opacity="0.0" d="m388.31235 44.76378l51.653534 0l0 39.716537l-51.653534 0z" fill-rule="evenodd"/><path fill="#000000" d="m418.79172 69.05878l-2.03125 0l0 2.625l-1.625 0l0 -2.625l-5.734375 0l0 -1.40625l5.078125 -7.875l2.28125 0l0 7.875l2.03125 0l0 1.40625zm-3.65625 -7.75l-4.140625 6.34375l4.140625 0l0 -6.34375z" fill-rule="nonzero"/><path fill="#9fc5e8" d="m9.060368 11.099737l63.559055 0l0 63.55905l-63.559055 0z" fill-rule="evenodd"/><path stroke="#000000" stroke-width="3.0" stroke-linejoin="round" stroke-linecap="butt" d="m9.060368 11.099737l63.559055 0l0 63.55905l-63.559055 0z" fill-rule="evenodd"/><path fill="#000000" fill-opacity="0.0" d="m15.0131235 74.65879l51.65354 0l0 39.716537l-51.65354 0z" fill-rule="evenodd"/><path fill="#000000" d="m43.03937 101.57879l-0.03125 -1.234375q-0.75 0.75 -1.515625 1.078125q-0.765625 0.3125 -1.625 0.3125q-0.78125 0 -1.34375 -0.1875q-0.546875 -0.203125 -0.90625 -0.546875q-0.359375 -0.359375 -0.53125 -0.828125q-0.15625 -0.484375 -0.15625 -1.03125q0 -1.375 1.015625 -2.15625q1.03125 -0.78125 3.03125 -0.78125l1.890625 0l0 -0.796875q0 -0.8125 -0.515625 -1.296875q-0.515625 -0.5 -1.578125 -0.5q-0.78125 0 -1.53125 0.1875q-0.75 0.171875 -1.546875 0.484375l0 -1.4375q0.296875 -0.109375 0.65625 -0.203125q0.375 -0.109375 0.78125 -0.1875q0.40625 -0.078125 0.859375 -0.125q0.453125 -0.0625 0.90625 -0.0625q0.828125 0 1.484375 0.1875q0.671875 0.171875 1.125 0.546875q0.46875 0.375 0.703125 0.953125q0.25 0.5625 0.25 1.328125l0 6.296875l-1.421875 0zm-0.171875 -4.15625l-2.015625 0q-0.578125 0 -1.015625 0.125q-0.421875 0.109375 -0.703125 0.328125q-0.265625 0.21875 -0.40625 0.53125q-0.125 0.296875 -0.125 0.671875q0 0.265625 0.078125 0.515625q0.078125 0.234375 0.265625 0.421875q0.1875 0.1875 0.46875 0.296875q0.296875 0.109375 0.71875 0.109375q0.546875 0 1.25 -0.328125q0.703125 -0.34375 1.484375 -1.0625l0 -1.609375z" fill-rule="nonzero"/><path fill="#000000" fill-opacity="0.0" d="m41.225723 43.503937l86.89763 72.755905" fill-rule="evenodd"/><path stroke="#000000" stroke-width="3.0" stroke-linejoin="round" stroke-linecap="butt" d="m49.94354 50.803017l64.378525 53.90155" fill-rule="evenodd"/><path fill="#000000" stroke="#000000" stroke-width="3.0" stroke-linecap="butt" d="m42.375828 44.466877c1.7496796 -2.0897675 4.8621597 -2.3654633 6.951927 -0.6157875c2.0897636 1.7496796 2.3654594 4.8621597 0.6157837 6.951927c-1.7496758 2.0897636 -4.8621597 2.3654594 -6.9519234 0.6157837c-2.0897675 -1.7496758 -2.3654633 -4.8621597 -0.6157875 -6.9519234z" fill-rule="nonzero"/><path fill="#000000" stroke="#000000" stroke-width="3.0" stroke-linecap="butt" d="m111.14103 108.503914l13.619637 4.940483l-7.2575684 -12.539162z" fill-rule="evenodd"/></g></svg>