<svg version="1.1" viewBox="0.0 0.0 532.7349081364829 461.7034120734908" fill="none" stroke="none" stroke-linecap="square" stroke-miterlimit="10" xmlns:xlink="http://www.w3.org/1999/xlink" xmlns="http://www.w3.org/2000/svg"><clipPath id="p.0"><path d="m0 0l532.7349 0l0 461.7034l-532.7349 0l0 -461.7034z" clip-rule="nonzero"/></clipPath><g clip-path="url(#p.0)"><path fill="#000000" fill-opacity="0.0" d="m0 0l532.7349 0l0 461.7034l-532.7349 0z" fill-rule="evenodd"/><path fill="#cfe2f3" d="m391.3251 14.527023l61.001923 0l0 61.001915l-61.001923 0z" fill-rule="evenodd"/><path stroke="#000000" stroke-width="1.0" stroke-linejoin="round" stroke-linecap="butt" d="m391.3251 14.527023l61.001923 0l0 61.001915l-61.001923 0z" fill-rule="evenodd"/><path fill="#cfe2f3" d="m266.89313 75.52894l61.001892 0l0 61.001915l-61.001892 0z" fill-rule="evenodd"/><path stroke="#000000" stroke-width="1.0" stroke-linejoin="round" stroke-linecap="butt" d="m266.89313 75.52894l61.001892 0l0 61.001915l-61.001892 0z" fill-rule="evenodd"/><path fill="#cfe2f3" d="m329.1091 75.52894l61.001923 0l0 61.001915l-61.001923 0z" fill-rule="evenodd"/><path stroke="#000000" stroke-width="1.0" stroke-linejoin="round" stroke-linecap="butt" d="m329.1091 75.52894l61.001923 0l0 61.001915l-61.001923 0z" fill-rule="evenodd"/><path fill="#cfe2f3" d="m391.3251 75.52894l61.001923 0l0 61.001915l-61.001923 0z" fill-rule="evenodd"/><path stroke="#000000" stroke-width="1.0" stroke-linejoin="round" stroke-linecap="butt" d="m391.3251 75.52894l61.001923 0l0 61.001915l-61.001923 0z" fill-rule="evenodd"/><path fill="#cfe2f3" d="m18.029125 137.25146l61.00191 0l0 61.001907l-61.00191 0z" fill-rule="evenodd"/><path stroke="#000000" stroke-width="1.0" stroke-linejoin="round" stroke-linecap="butt" d="m18.029125 137.25146l61.00191 0l0 61.001907l-61.00191 0z" fill-rule="evenodd"/><path fill="#cfe2f3" d="m80.245125 137.25146l61.001915 0l0 61.001907l-61.001915 0z" fill-rule="evenodd"/><path stroke="#000000" stroke-width="1.0" stroke-linejoin="round" stroke-linecap="butt" d="m80.245125 137.25146l61.001915 0l0 61.001907l-61.001915 0z" fill-rule="evenodd"/><path fill="#cfe2f3" d="m142.46112 137.25146l61.001907 0l0 61.001907l-61.001907 0z" fill-rule="evenodd"/><path stroke="#000000" stroke-width="1.0" stroke-linejoin="round" stroke-linecap="butt" d="m142.46112 137.25146l61.001907 0l0 61.001907l-61.001907 0z" fill-rule="evenodd"/><path fill="#cfe2f3" d="m204.67712 137.25146l61.001892 0l0 61.001907l-61.001892 0z" fill-rule="evenodd"/><path stroke="#000000" stroke-width="1.0" stroke-linejoin="round" stroke-linecap="butt" d="m204.67712 137.25146l61.001892 0l0 61.001907l-61.001892 0z" fill-rule="evenodd"/><path fill="#cfe2f3" d="m266.89313 137.25146l61.001892 0l0 61.001907l-61.001892 0z" fill-rule="evenodd"/><path stroke="#000000" stroke-width="1.0" stroke-linejoin="round" stroke-linecap="butt" d="m266.89313 137.25146l61.001892 0l0 61.001907l-61.001892 0z" fill-rule="evenodd"/><path fill="#cfe2f3" d="m329.1091 137.25146l61.001923 0l0 61.001907l-61.001923 0z" fill-rule="evenodd"/><path stroke="#000000" stroke-width="1.0" stroke-linejoin="round" stroke-linecap="butt" d="m329.1091 137.25146l61.001923 0l0 61.001907l-61.001923 0z" fill-rule="evenodd"/><path fill="#cfe2f3" d="m391.3251 137.25146l61.001923 0l0 61.001907l-61.001923 0z" fill-rule="evenodd"/><path stroke="#000000" stroke-width="1.0" stroke-linejoin="round" stroke-linecap="butt" d="m391.3251 137.25146l61.001923 0l0 61.001907l-61.001923 0z" fill-rule="evenodd"/><path fill="#cfe2f3" d="m142.46112 198.25337l61.001907 0l0 61.001907l-61.001907 0z" fill-rule="evenodd"/><path stroke="#000000" stroke-width="1.0" stroke-linejoin="round" stroke-linecap="butt" d="m142.46112 198.25337l61.001907 0l0 61.001907l-61.001907 0z" fill-rule="evenodd"/><path fill="#cfe2f3" d="m204.67712 198.25337l61.001892 0l0 61.001907l-61.001892 0z" fill-rule="evenodd"/><path stroke="#000000" stroke-width="1.0" stroke-linejoin="round" stroke-linecap="butt" d="m204.67712 198.25337l61.001892 0l0 61.001907l-61.001892 0z" fill-rule="evenodd"/><path fill="#cfe2f3" d="m266.89313 198.25337l61.001892 0l0 61.001907l-61.001892 0z" fill-rule="evenodd"/><path stroke="#000000" stroke-width="1.0" stroke-linejoin="round" stroke-linecap="butt" d="m266.89313 198.25337l61.001892 0l0 61.001907l-61.001892 0z" fill-rule="evenodd"/><path fill="#cfe2f3" d="m329.1091 198.25337l61.001923 0l0 61.001907l-61.001923 0z" fill-rule="evenodd"/><path stroke="#000000" stroke-width="1.0" stroke-linejoin="round" stroke-linecap="butt" d="m329.1091 198.25337l61.001923 0l0 61.001907l-61.001923 0z" fill-rule="evenodd"/><path fill="#cfe2f3" d="m391.3251 198.25337l61.001923 0l0 61.001907l-61.001923 0z" fill-rule="evenodd"/><path stroke="#000000" stroke-width="1.0" stroke-linejoin="round" stroke-linecap="butt" d="m391.3251 198.25337l61.001923 0l0 61.001907l-61.001923 0z" fill-rule="evenodd"/><path fill="#cfe2f3" d="m266.89313 259.97592l61.001892 0l0 61.001892l-61.001892 0z" fill-rule="evenodd"/><path stroke="#000000" stroke-width="1.0" stroke-linejoin="round" stroke-linecap="butt" d="m266.89313 259.97592l61.001892 0l0 61.001892l-61.001892 0z" fill-rule="evenodd"/><path fill="#cfe2f3" d="m329.1091 259.97592l61.001923 0l0 61.001892l-61.001923 0z" fill-rule="evenodd"/><path stroke="#000000" stroke-width="1.0" stroke-linejoin="round" stroke-linecap="butt" d="m329.1091 259.97592l61.001923 0l0 61.001892l-61.001923 0z" fill-rule="evenodd"/><path fill="#cfe2f3" d="m391.3251 259.97592l61.001923 0l0 61.001892l-61.001923 0z" fill-rule="evenodd"/><path stroke="#000000" stroke-width="1.0" stroke-linejoin="round" stroke-linecap="butt" d="m391.3251 259.97592l61.001923 0l0 61.001892l-61.001923 0z" fill-rule="evenodd"/><path fill="#cfe2f3" d="m391.3251 321.69843l61.001923 0l0 61.001923l-61.001923 0z" fill-rule="evenodd"/><path stroke="#000000" stroke-width="1.0" stroke-linejoin="round" stroke-linecap="butt" d="m391.3251 321.69843l61.001923 0l0 61.001923l-61.001923 0z" fill-rule="evenodd"/><path fill="#cfe2f3" d="m453.5411 321.69843l61.001923 0l0 61.001923l-61.001923 0z" fill-rule="evenodd"/><path stroke="#000000" stroke-width="1.0" stroke-linejoin="round" stroke-linecap="butt" d="m453.5411 321.69843l61.001923 0l0 61.001923l-61.001923 0z" fill-rule="evenodd"/><path fill="#cfe2f3" d="m453.5411 382.40662l61.001923 0l0 61.001923l-61.001923 0z" fill-rule="evenodd"/><path stroke="#000000" stroke-width="1.0" stroke-linejoin="round" stroke-linecap="butt" d="m453.5411 382.40662l61.001923 0l0 61.001923l-61.001923 0z" fill-rule="evenodd"/><path fill="#000000" fill-opacity="0.0" d="m78.27909 166.32684l344.11093 -108.28073" fill-rule="evenodd"/><path stroke="#000000" stroke-width="1.0" stroke-linejoin="round" stroke-linecap="butt" stroke-dasharray="4.0,3.0" d="m78.27909 166.32684l344.11093 -108.28073" fill-rule="evenodd"/><path fill="#000000" fill-opacity="0.0" d="m424.0114 58.06569l59.404022 343.641" fill-rule="evenodd"/><path stroke="#000000" stroke-width="1.0" stroke-linejoin="round" stroke-linecap="butt" stroke-dasharray="4.0,3.0" d="m424.0114 58.06569l59.404022 343.641" fill-rule="evenodd"/><path fill="#000000" fill-opacity="0.0" d="m80.245125 167.75243l402.38702 233.9503" fill-rule="evenodd"/><path stroke="#000000" stroke-width="1.0" stroke-linejoin="round" stroke-linecap="butt" stroke-dasharray="4.0,3.0" d="m80.245125 167.75243l402.38702 233.9503" fill-rule="evenodd"/><path fill="#0000ff" d="m35.84093 167.75633l0 0c0 -7.008026 5.6811256 -12.689148 12.689152 -12.689148l0 0c3.3653717 0 6.592907 1.3368988 8.972584 3.716568c2.3796768 2.3796844 3.7165642 5.6072083 3.7165642 8.97258l0 0c0 7.008026 -5.6811256 12.689148 -12.689148 12.689148l0 0c-7.008026 0 -12.689152 -5.681122 -12.689152 -12.689148z" fill-rule="evenodd"/><path stroke="#000000" stroke-width="1.0" stroke-linejoin="round" stroke-linecap="butt" d="m35.84093 167.75633l0 0c0 -7.008026 5.6811256 -12.689148 12.689152 -12.689148l0 0c3.3653717 0 6.592907 1.3368988 8.972584 3.716568c2.3796768 2.3796844 3.7165642 5.6072083 3.7165642 8.97258l0 0c0 7.008026 -5.6811256 12.689148 -12.689148 12.689148l0 0c-7.008026 0 -12.689152 -5.681122 -12.689152 -12.689148z" fill-rule="evenodd"/><path fill="#0000ff" d="m94.15619 167.75633l0 0c0 -7.008026 5.6811295 -12.689148 12.689148 -12.689148l0 0c3.3653717 0 6.592911 1.3368988 8.972588 3.716568c2.3796768 2.3796844 3.716568 5.6072083 3.716568 8.97258l0 0c0 7.008026 -5.6811295 12.689148 -12.689156 12.689148l0 0c-7.0080185 0 -12.689148 -5.681122 -12.689148 -12.689148z" fill-rule="evenodd"/><path stroke="#000000" stroke-width="1.0" stroke-linejoin="round" stroke-linecap="butt" d="m94.15619 167.75633l0 0c0 -7.008026 5.6811295 -12.689148 12.689148 -12.689148l0 0c3.3653717 0 6.592911 1.3368988 8.972588 3.716568c2.3796768 2.3796844 3.716568 5.6072083 3.716568 8.97258l0 0c0 7.008026 -5.6811295 12.689148 -12.689156 12.689148l0 0c-7.0080185 0 -12.689148 -5.681122 -12.689148 -12.689148z" fill-rule="evenodd"/><path fill="#0000ff" d="m160.27292 167.75633l0 0c0 -7.008026 5.681137 -12.689148 12.689163 -12.689148l0 0c3.3653717 0 6.5928955 1.3368988 8.97258 3.716568c2.3796692 2.3796844 3.716568 5.6072083 3.716568 8.97258l0 0c0 7.008026 -5.681137 12.689148 -12.689148 12.689148l0 0c-7.008026 0 -12.689163 -5.681122 -12.689163 -12.689148z" fill-rule="evenodd"/><path stroke="#000000" stroke-width="1.0" stroke-linejoin="round" stroke-linecap="butt" d="m160.27292 167.75633l0 0c0 -7.008026 5.681137 -12.689148 12.689163 -12.689148l0 0c3.3653717 0 6.5928955 1.3368988 8.97258 3.716568c2.3796692 2.3796844 3.716568 5.6072083 3.716568 8.97258l0 0c0 7.008026 -5.681137 12.689148 -12.689148 12.689148l0 0c-7.008026 0 -12.689163 -5.681122 -12.689163 -12.689148z" fill-rule="evenodd"/><path fill="#0000ff" d="m222.48892 167.75633l0 0c0 -7.008026 5.681122 -12.689148 12.689148 -12.689148l0 0c3.3653717 0 6.592911 1.3368988 8.97258 3.716568c2.3796844 2.3796844 3.716568 5.6072083 3.716568 8.97258l0 0c0 7.008026 -5.681122 12.689148 -12.689148 12.689148l0 0c-7.008026 0 -12.689148 -5.681122 -12.689148 -12.689148z" fill-rule="evenodd"/><path stroke="#000000" stroke-width="1.0" stroke-linejoin="round" stroke-linecap="butt" d="m222.48892 167.75633l0 0c0 -7.008026 5.681122 -12.689148 12.689148 -12.689148l0 0c3.3653717 0 6.592911 1.3368988 8.97258 3.716568c2.3796844 2.3796844 3.716568 5.6072083 3.716568 8.97258l0 0c0 7.008026 -5.681122 12.689148 -12.689148 12.689148l0 0c-7.008026 0 -12.689148 -5.681122 -12.689148 -12.689148z" fill-rule="evenodd"/><path fill="#0000ff" d="m284.70493 167.39603l0 0c0 -7.008026 5.681122 -12.689148 12.689148 -12.689148l0 0c3.3653564 0 6.5928955 1.3368835 8.972595 3.716568c2.3796692 2.3796692 3.7165527 5.6072083 3.7165527 8.97258l0 0c0 7.008026 -5.681122 12.689148 -12.689148 12.689148l0 0c-7.008026 0 -12.689148 -5.681122 -12.689148 -12.689148z" fill-rule="evenodd"/><path stroke="#000000" stroke-width="1.0" stroke-linejoin="round" stroke-linecap="butt" d="m284.70493 167.39603l0 0c0 -7.008026 5.681122 -12.689148 12.689148 -12.689148l0 0c3.3653564 0 6.5928955 1.3368835 8.972595 3.716568c2.3796692 2.3796692 3.7165527 5.6072083 3.7165527 8.97258l0 0c0 7.008026 -5.681122 12.689148 -12.689148 12.689148l0 0c-7.008026 0 -12.689148 -5.681122 -12.689148 -12.689148z" fill-rule="evenodd"/><path fill="#0000ff" d="m346.92093 167.39603l0 0c0 -7.008026 5.681122 -12.689148 12.689148 -12.689148l0 0c3.3653564 0 6.5928955 1.3368835 8.972565 3.716568c2.3796997 2.3796692 3.7165833 5.6072083 3.7165833 8.97258l0 0c0 7.008026 -5.681122 12.689148 -12.689148 12.689148l0 0c-7.008026 0 -12.689148 -5.681122 -12.689148 -12.689148z" fill-rule="evenodd"/><path stroke="#000000" stroke-width="1.0" stroke-linejoin="round" stroke-linecap="butt" d="m346.92093 167.39603l0 0c0 -7.008026 5.681122 -12.689148 12.689148 -12.689148l0 0c3.3653564 0 6.5928955 1.3368835 8.972565 3.716568c2.3796997 2.3796692 3.7165833 5.6072083 3.7165833 8.97258l0 0c0 7.008026 -5.681122 12.689148 -12.689148 12.689148l0 0c-7.008026 0 -12.689148 -5.681122 -12.689148 -12.689148z" fill-rule="evenodd"/><path fill="#0000ff" d="m409.1369 167.39603l0 0c0 -7.008026 5.6811523 -12.689148 12.689148 -12.689148l0 0c3.365387 0 6.592926 1.3368835 8.972595 3.716568c2.3796692 2.3796692 3.7165833 5.6072083 3.7165833 8.97258l0 0c0 7.008026 -5.6811523 12.689148 -12.689178 12.689148l0 0c-7.0079956 0 -12.689148 -5.681122 -12.689148 -12.689148z" fill-rule="evenodd"/><path stroke="#000000" stroke-width="1.0" stroke-linejoin="round" stroke-linecap="butt" d="m409.1369 167.39603l0 0c0 -7.008026 5.6811523 -12.689148 12.689148 -12.689148l0 0c3.365387 0 6.592926 1.3368835 8.972595 3.716568c2.3796692 2.3796692 3.7165833 5.6072083 3.7165833 8.97258l0 0c0 7.008026 -5.6811523 12.689148 -12.689178 12.689148l0 0c-7.0079956 0 -12.689148 -5.681122 -12.689148 -12.689148z" fill-rule="evenodd"/><path fill="#0000ff" d="m160.27292 229.2987l0 0c0 -7.008011 5.681137 -12.689148 12.689163 -12.689148l0 0c3.3653717 0 6.5928955 1.3368988 8.97258 3.716568c2.3796692 2.3796844 3.716568 5.6072083 3.716568 8.97258l0 0c0 7.008026 -5.681137 12.689163 -12.689148 12.689163l0 0c-7.008026 0 -12.689163 -5.681137 -12.689163 -12.689163z" fill-rule="evenodd"/><path stroke="#000000" stroke-width="1.0" stroke-linejoin="round" stroke-linecap="butt" d="m160.27292 229.2987l0 0c0 -7.008011 5.681137 -12.689148 12.689163 -12.689148l0 0c3.3653717 0 6.5928955 1.3368988 8.97258 3.716568c2.3796692 2.3796844 3.716568 5.6072083 3.716568 8.97258l0 0c0 7.008026 -5.681137 12.689163 -12.689148 12.689163l0 0c-7.008026 0 -12.689163 -5.681137 -12.689163 -12.689163z" fill-rule="evenodd"/><path fill="#0000ff" d="m222.48892 229.2987l0 0c0 -7.008011 5.681122 -12.689148 12.689148 -12.689148l0 0c3.3653717 0 6.592911 1.3368988 8.97258 3.716568c2.3796844 2.3796844 3.716568 5.6072083 3.716568 8.97258l0 0c0 7.008026 -5.681122 12.689163 -12.689148 12.689163l0 0c-7.008026 0 -12.689148 -5.681137 -12.689148 -12.689163z" fill-rule="evenodd"/><path stroke="#000000" stroke-width="1.0" stroke-linejoin="round" stroke-linecap="butt" d="m222.48892 229.2987l0 0c0 -7.008011 5.681122 -12.689148 12.689148 -12.689148l0 0c3.3653717 0 6.592911 1.3368988 8.97258 3.716568c2.3796844 2.3796844 3.716568 5.6072083 3.716568 8.97258l0 0c0 7.008026 -5.681122 12.689163 -12.689148 12.689163l0 0c-7.008026 0 -12.689148 -5.681137 -12.689148 -12.689163z" fill-rule="evenodd"/><path fill="#0000ff" d="m284.70493 228.9384l0 0c0 -7.008026 5.681122 -12.689148 12.689148 -12.689148l0 0c3.3653564 0 6.5928955 1.3368835 8.972595 3.716568c2.3796692 2.3796844 3.7165527 5.6072083 3.7165527 8.97258l0 0c0 7.008026 -5.681122 12.689148 -12.689148 12.689148l0 0c-7.008026 0 -12.689148 -5.681122 -12.689148 -12.689148z" fill-rule="evenodd"/><path stroke="#000000" stroke-width="1.0" stroke-linejoin="round" stroke-linecap="butt" d="m284.70493 228.9384l0 0c0 -7.008026 5.681122 -12.689148 12.689148 -12.689148l0 0c3.3653564 0 6.5928955 1.3368835 8.972595 3.716568c2.3796692 2.3796844 3.7165527 5.6072083 3.7165527 8.97258l0 0c0 7.008026 -5.681122 12.689148 -12.689148 12.689148l0 0c-7.008026 0 -12.689148 -5.681122 -12.689148 -12.689148z" fill-rule="evenodd"/><path fill="#0000ff" d="m346.92093 228.9384l0 0c0 -7.008026 5.681122 -12.689148 12.689148 -12.689148l0 0c3.3653564 0 6.5928955 1.3368835 8.972565 3.716568c2.3796997 2.3796844 3.7165833 5.6072083 3.7165833 8.97258l0 0c0 7.008026 -5.681122 12.689148 -12.689148 12.689148l0 0c-7.008026 0 -12.689148 -5.681122 -12.689148 -12.689148z" fill-rule="evenodd"/><path stroke="#000000" stroke-width="1.0" stroke-linejoin="round" stroke-linecap="butt" d="m346.92093 228.9384l0 0c0 -7.008026 5.681122 -12.689148 12.689148 -12.689148l0 0c3.3653564 0 6.5928955 1.3368835 8.972565 3.716568c2.3796997 2.3796844 3.7165833 5.6072083 3.7165833 8.97258l0 0c0 7.008026 -5.681122 12.689148 -12.689148 12.689148l0 0c-7.008026 0 -12.689148 -5.681122 -12.689148 -12.689148z" fill-rule="evenodd"/><path fill="#0000ff" d="m409.1369 228.9384l0 0c0 -7.008026 5.6811523 -12.689148 12.689148 -12.689148l0 0c3.365387 0 6.592926 1.3368835 8.972595 3.716568c2.3796692 2.3796844 3.7165833 5.6072083 3.7165833 8.97258l0 0c0 7.008026 -5.6811523 12.689148 -12.689178 12.689148l0 0c-7.0079956 0 -12.689148 -5.681122 -12.689148 -12.689148z" fill-rule="evenodd"/><path stroke="#000000" stroke-width="1.0" stroke-linejoin="round" stroke-linecap="butt" d="m409.1369 228.9384l0 0c0 -7.008026 5.6811523 -12.689148 12.689148 -12.689148l0 0c3.365387 0 6.592926 1.3368835 8.972595 3.716568c2.3796692 2.3796844 3.7165833 5.6072083 3.7165833 8.97258l0 0c0 7.008026 -5.6811523 12.689148 -12.689178 12.689148l0 0c-7.0079956 0 -12.689148 -5.681122 -12.689148 -12.689148z" fill-rule="evenodd"/><path fill="#0000ff" d="m284.70493 290.30063l0 0c0 -7.008026 5.681122 -12.689148 12.689148 -12.689148l0 0c3.3653564 0 6.5928955 1.3368835 8.972595 3.7165527c2.3796692 2.3796997 3.7165527 5.6072083 3.7165527 8.972595l0 0c0 7.008026 -5.681122 12.689148 -12.689148 12.689148l0 0c-7.008026 0 -12.689148 -5.681122 -12.689148 -12.689148z" fill-rule="evenodd"/><path stroke="#000000" stroke-width="1.0" stroke-linejoin="round" stroke-linecap="butt" d="m284.70493 290.30063l0 0c0 -7.008026 5.681122 -12.689148 12.689148 -12.689148l0 0c3.3653564 0 6.5928955 1.3368835 8.972595 3.7165527c2.3796692 2.3796997 3.7165527 5.6072083 3.7165527 8.972595l0 0c0 7.008026 -5.681122 12.689148 -12.689148 12.689148l0 0c-7.008026 0 -12.689148 -5.681122 -12.689148 -12.689148z" fill-rule="evenodd"/><path fill="#0000ff" d="m346.92093 290.30063l0 0c0 -7.008026 5.681122 -12.689148 12.689148 -12.689148l0 0c3.3653564 0 6.5928955 1.3368835 8.972565 3.7165527c2.3796997 2.3796997 3.7165833 5.6072083 3.7165833 8.972595l0 0c0 7.008026 -5.681122 12.689148 -12.689148 12.689148l0 0c-7.008026 0 -12.689148 -5.681122 -12.689148 -12.689148z" fill-rule="evenodd"/><path stroke="#000000" stroke-width="1.0" stroke-linejoin="round" stroke-linecap="butt" d="m346.92093 290.30063l0 0c0 -7.008026 5.681122 -12.689148 12.689148 -12.689148l0 0c3.3653564 0 6.5928955 1.3368835 8.972565 3.7165527c2.3796997 2.3796997 3.7165833 5.6072083 3.7165833 8.972595l0 0c0 7.008026 -5.681122 12.689148 -12.689148 12.689148l0 0c-7.008026 0 -12.689148 -5.681122 -12.689148 -12.689148z" fill-rule="evenodd"/><path fill="#0000ff" d="m409.1369 290.30063l0 0c0 -7.008026 5.6811523 -12.689148 12.689148 -12.689148l0 0c3.365387 0 6.592926 1.3368835 8.972595 3.7165527c2.3796692 2.3796997 3.7165833 5.6072083 3.7165833 8.972595l0 0c0 7.008026 -5.6811523 12.689148 -12.689178 12.689148l0 0c-7.0079956 0 -12.689148 -5.681122 -12.689148 -12.689148z" fill-rule="evenodd"/><path stroke="#000000" stroke-width="1.0" stroke-linejoin="round" stroke-linecap="butt" d="m409.1369 290.30063l0 0c0 -7.008026 5.6811523 -12.689148 12.689148 -12.689148l0 0c3.365387 0 6.592926 1.3368835 8.972595 3.7165527c2.3796692 2.3796997 3.7165833 5.6072083 3.7165833 8.972595l0 0c0 7.008026 -5.6811523 12.689148 -12.689178 12.689148l0 0c-7.0079956 0 -12.689148 -5.681122 -12.689148 -12.689148z" fill-rule="evenodd"/><path fill="#0000ff" d="m284.70493 106.39412l0 0c0 -7.008026 5.681122 -12.689156 12.689148 -12.689156l0 0c3.3653564 0 6.5928955 1.3368912 8.972595 3.716568c2.3796692 2.3796768 3.7165527 5.607216 3.7165527 8.972588l0 0c0 7.0080185 -5.681122 12.689148 -12.689148 12.689148l0 0c-7.008026 0 -12.689148 -5.6811295 -12.689148 -12.689148z" fill-rule="evenodd"/><path stroke="#000000" stroke-width="1.0" stroke-linejoin="round" stroke-linecap="butt" d="m284.70493 106.39412l0 0c0 -7.008026 5.681122 -12.689156 12.689148 -12.689156l0 0c3.3653564 0 6.5928955 1.3368912 8.972595 3.716568c2.3796692 2.3796768 3.7165527 5.607216 3.7165527 8.972588l0 0c0 7.0080185 -5.681122 12.689148 -12.689148 12.689148l0 0c-7.008026 0 -12.689148 -5.6811295 -12.689148 -12.689148z" fill-rule="evenodd"/><path fill="#0000ff" d="m346.92093 106.39412l0 0c0 -7.008026 5.681122 -12.689156 12.689148 -12.689156l0 0c3.3653564 0 6.5928955 1.3368912 8.972565 3.716568c2.3796997 2.3796768 3.7165833 5.607216 3.7165833 8.972588l0 0c0 7.0080185 -5.681122 12.689148 -12.689148 12.689148l0 0c-7.008026 0 -12.689148 -5.6811295 -12.689148 -12.689148z" fill-rule="evenodd"/><path stroke="#000000" stroke-width="1.0" stroke-linejoin="round" stroke-linecap="butt" d="m346.92093 106.39412l0 0c0 -7.008026 5.681122 -12.689156 12.689148 -12.689156l0 0c3.3653564 0 6.5928955 1.3368912 8.972565 3.716568c2.3796997 2.3796768 3.7165833 5.607216 3.7165833 8.972588l0 0c0 7.0080185 -5.681122 12.689148 -12.689148 12.689148l0 0c-7.008026 0 -12.689148 -5.6811295 -12.689148 -12.689148z" fill-rule="evenodd"/><path fill="#0000ff" d="m409.1369 106.39412l0 0c0 -7.008026 5.6811523 -12.689156 12.689148 -12.689156l0 0c3.365387 0 6.592926 1.3368912 8.972595 3.716568c2.3796692 2.3796768 3.7165833 5.607216 3.7165833 8.972588l0 0c0 7.0080185 -5.6811523 12.689148 -12.689178 12.689148l0 0c-7.0079956 0 -12.689148 -5.6811295 -12.689148 -12.689148z" fill-rule="evenodd"/><path stroke="#000000" stroke-width="1.0" stroke-linejoin="round" stroke-linecap="butt" d="m409.1369 106.39412l0 0c0 -7.008026 5.6811523 -12.689156 12.689148 -12.689156l0 0c3.365387 0 6.592926 1.3368912 8.972595 3.716568c2.3796692 2.3796768 3.7165833 5.607216 3.7165833 8.972588l0 0c0 7.0080185 -5.6811523 12.689148 -12.689178 12.689148l0 0c-7.0079956 0 -12.689148 -5.6811295 -12.689148 -12.689148z" fill-rule="evenodd"/><path fill="#0000ff" d="m409.1369 44.671585l0 0c0 -7.0080223 5.6811523 -12.689148 12.689148 -12.689148l0 0c3.365387 0 6.592926 1.3368874 8.972595 3.7165642c2.3796692 2.3796768 3.7165833 5.607212 3.7165833 8.972584l0 0c0 7.008026 -5.6811523 12.689152 -12.689178 12.689152l0 0c-7.0079956 0 -12.689148 -5.6811256 -12.689148 -12.689152z" fill-rule="evenodd"/><path stroke="#000000" stroke-width="1.0" stroke-linejoin="round" stroke-linecap="butt" d="m409.1369 44.671585l0 0c0 -7.0080223 5.6811523 -12.689148 12.689148 -12.689148l0 0c3.365387 0 6.592926 1.3368874 8.972595 3.7165642c2.3796692 2.3796768 3.7165833 5.607212 3.7165833 8.972584l0 0c0 7.008026 -5.6811523 12.689152 -12.689178 12.689152l0 0c-7.0079956 0 -12.689148 -5.6811256 -12.689148 -12.689152z" fill-rule="evenodd"/><path fill="#0000ff" d="m409.1369 352.02316l0 0c0 -7.008026 5.6811523 -12.689148 12.689148 -12.689148l0 0c3.365387 0 6.592926 1.3368835 8.972595 3.7165527c2.3796692 2.3796692 3.7165833 5.6072083 3.7165833 8.972595l0 0c0 7.008026 -5.6811523 12.689148 -12.689178 12.689148l0 0c-7.0079956 0 -12.689148 -5.681122 -12.689148 -12.689148z" fill-rule="evenodd"/><path stroke="#000000" stroke-width="1.0" stroke-linejoin="round" stroke-linecap="butt" d="m409.1369 352.02316l0 0c0 -7.008026 5.6811523 -12.689148 12.689148 -12.689148l0 0c3.365387 0 6.592926 1.3368835 8.972595 3.7165527c2.3796692 2.3796692 3.7165833 5.6072083 3.7165833 8.972595l0 0c0 7.008026 -5.6811523 12.689148 -12.689178 12.689148l0 0c-7.0079956 0 -12.689148 -5.681122 -12.689148 -12.689148z" fill-rule="evenodd"/><path fill="#0000ff" d="m471.3529 352.2033l0 0c0 -7.008026 5.681122 -12.689148 12.689148 -12.689148l0 0c3.365387 0 6.592926 1.3368835 8.972595 3.7165527c2.3796692 2.3796997 3.7165527 5.607239 3.7165527 8.972595l0 0c0 7.008026 -5.681122 12.689148 -12.689148 12.689148l0 0c-7.008026 0 -12.689148 -5.681122 -12.689148 -12.689148z" fill-rule="evenodd"/><path stroke="#000000" stroke-width="1.0" stroke-linejoin="round" stroke-linecap="butt" d="m471.3529 352.2033l0 0c0 -7.008026 5.681122 -12.689148 12.689148 -12.689148l0 0c3.365387 0 6.592926 1.3368835 8.972595 3.7165527c2.3796692 2.3796997 3.7165527 5.607239 3.7165527 8.972595l0 0c0 7.008026 -5.681122 12.689148 -12.689148 12.689148l0 0c-7.008026 0 -12.689148 -5.681122 -12.689148 -12.689148z" fill-rule="evenodd"/><path fill="#0000ff" d="m471.3529 412.90756l0 0c0 -7.008026 5.681122 -12.689148 12.689148 -12.689148l0 0c3.365387 0 6.592926 1.3369141 8.972595 3.7165833c2.3796692 2.3796692 3.7165527 5.6072083 3.7165527 8.972565l0 0c0 7.008026 -5.681122 12.689148 -12.689148 12.689148l0 0c-7.008026 0 -12.689148 -5.681122 -12.689148 -12.689148z" fill-rule="evenodd"/><path stroke="#000000" stroke-width="1.0" stroke-linejoin="round" stroke-linecap="butt" d="m471.3529 412.90756l0 0c0 -7.008026 5.681122 -12.689148 12.689148 -12.689148l0 0c3.365387 0 6.592926 1.3369141 8.972595 3.7165833c2.3796692 2.3796692 3.7165527 5.6072083 3.7165527 8.972565l0 0c0 7.008026 -5.681122 12.689148 -12.689148 12.689148l0 0c-7.008026 0 -12.689148 -5.681122 -12.689148 -12.689148z" fill-rule="evenodd"/></g></svg>