<?xml version="1.0" encoding="UTF-8" standalone="no"?>
<!DOCTYPE svg PUBLIC "-//W3C//DTD SVG 1.1//EN" "http://www.w3.org/Graphics/SVG/1.1/DTD/svg11.dtd">
<svg width="100%" height="100%" viewBox="0 0 929 861" version="1.1" xmlns="http://www.w3.org/2000/svg" xmlns:xlink="http://www.w3.org/1999/xlink" xml:space="preserve" xmlns:serif="http://www.serif.com/" style="fill-rule:evenodd;clip-rule:evenodd;stroke-linecap:square;stroke-miterlimit:1.5;">
    <g transform="matrix(1,0,0,1,-865,0)">
        <g id="Specular" transform="matrix(1.68644,0,0,1.00209,-413.633,0)">
            <rect x="758.561" y="0" width="550.227" height="858.364" style="fill:none;"/>
            <g transform="matrix(0.592966,0,0,0.99791,309.093,0)">
                <path d="M1490.06,690.544L866.338,545.204" style="fill:none;stroke:black;stroke-width:3.33px;stroke-dasharray:13.96,13.5,0,0;"/>
            </g>
            <g transform="matrix(0.592966,0,0,0.99791,472.623,-67.6088)">
                <path d="M1214.28,758.295C1214.28,758.295 1039.62,211.579 1038.07,210.309" style="fill:none;stroke:black;stroke-width:3.33px;stroke-linecap:round;stroke-linejoin:round;stroke-dasharray:13.96,13.5,0,0;"/>
            </g>
            <g id="Light" transform="matrix(0.592966,0,0,0.99791,472.623,-67.6088)">
                <g transform="matrix(0.998597,-0.052952,0.052952,0.998597,-9.45424,54.9818)">
                    <path d="M1038.07,115.802L1036.9,160.976" style="fill:none;stroke:black;stroke-width:4.17px;stroke-linejoin:round;"/>
                </g>
                <g transform="matrix(0.679702,-0.733488,0.733488,0.679702,179.264,826.129)">
                    <path d="M1038.07,115.802L1036.9,160.976" style="fill:none;stroke:black;stroke-width:4.17px;stroke-linejoin:round;"/>
                </g>
                <g transform="matrix(-0.0231047,-0.999733,0.999733,-0.0231047,851.765,1248.06)">
                    <path d="M1038.07,115.802L1036.9,160.976" style="fill:none;stroke:black;stroke-width:4.17px;stroke-linejoin:round;"/>
                </g>
                <g transform="matrix(-0.712861,-0.701305,0.701305,-0.712861,1628.2,1082.46)">
                    <path d="M1038.07,115.802L1036.9,160.976" style="fill:none;stroke:black;stroke-width:4.17px;stroke-linejoin:round;"/>
                </g>
                <g transform="matrix(-0.999977,-0.00676323,0.00676323,-0.999977,2070.03,422.857)">
                    <path d="M1038.07,115.802L1036.9,160.976" style="fill:none;stroke:black;stroke-width:4.17px;stroke-linejoin:round;"/>
                </g>
                <g transform="matrix(-0.722282,0.691599,-0.691599,-0.722282,1927.69,-358.182)">
                    <path d="M1038.07,115.802L1036.9,160.976" style="fill:none;stroke:black;stroke-width:4.17px;stroke-linejoin:round;"/>
                </g>
                <g transform="matrix(-0.0366251,0.999329,-0.999329,-0.0366251,1281.58,-819.511)">
                    <path d="M1038.07,115.802L1036.9,160.976" style="fill:none;stroke:black;stroke-width:4.17px;stroke-linejoin:round;"/>
                </g>
                <g transform="matrix(0.669719,0.742615,-0.742615,0.669719,496.639,-700.561)">
                    <path d="M1038.07,115.802L1036.9,160.976" style="fill:none;stroke:black;stroke-width:4.17px;stroke-linejoin:round;"/>
                </g>
                <g transform="matrix(0.977983,-0.208686,0.208686,0.977983,-55.0643,199.242)">
                    <circle cx="1065.03" cy="236.066" r="28.076" style="fill:rgb(249,255,0);stroke:black;stroke-width:8.33px;stroke-linecap:round;stroke-linejoin:round;"/>
                </g>
            </g>
            <g transform="matrix(0.592966,0,0,0.99791,472.623,-67.6088)">
                <path d="M1063.75,655.933C1088.47,603.959 1122.6,588.381 1157.18,574.543L1214.28,758.295L1063.75,655.933Z" style="fill:rgb(156,225,255);fill-opacity:0.68;stroke:black;stroke-width:2.08px;stroke-linecap:round;stroke-linejoin:round;"/>
            </g>
            <g transform="matrix(0.331457,-0.45285,0.26537,0.550109,588.938,821.843)">
                <path d="M1063.75,655.933C1088.47,603.959 1122.6,588.381 1157.18,574.543L1214.28,758.295L1063.75,655.933Z" style="fill:rgb(156,225,255);fill-opacity:0.68;stroke:black;stroke-width:2.91px;stroke-linecap:round;stroke-linejoin:round;"/>
            </g>
            <g transform="matrix(0.592966,0,0,0.99791,309.093,0)">
                <path d="M1266.19,710.644L1490.06,690.471L1271.31,641.427C1265.13,660.698 1261.81,682.398 1266.19,710.644Z" style="fill:rgb(255,180,102);fill-opacity:0.8;"/>
                <path d="M1490.52,688.438L1490.25,692.545L1264.42,712.895L1264.03,710.295L1263.93,709.629L1263.83,708.966L1263.74,708.304L1263.64,707.645L1263.56,706.989L1263.47,706.334L1263.39,705.682L1263.31,705.033L1263.23,704.385L1263.16,703.74L1263.08,703.097L1263.02,702.456L1262.95,701.818L1262.88,701.182L1262.82,700.547L1262.77,699.916L1262.71,699.286L1262.65,698.658L1262.6,698.033L1262.56,697.409L1262.51,696.788L1262.47,696.169L1262.43,695.552L1262.39,694.937L1262.35,694.325L1262.32,693.714L1262.29,693.106L1262.26,692.499L1262.23,691.894L1262.21,691.292L1262.19,690.691L1262.17,690.093L1262.15,689.496L1262.14,688.902L1262.13,688.31L1262.12,687.719L1262.11,687.13L1262.11,686.544L1262.11,685.959L1262.11,685.376L1262.11,684.795L1262.12,684.216L1262.12,683.639L1262.13,683.064L1262.14,682.491L1262.16,681.919L1262.17,681.35L1262.19,680.782L1262.21,680.216L1262.23,679.652L1262.26,679.089L1262.29,678.529L1262.31,677.97L1262.35,677.413L1262.38,676.858L1262.41,676.304L1262.45,675.752L1262.49,675.202L1262.53,674.654L1262.57,674.107L1262.62,673.562L1262.67,673.019L1262.71,672.477L1262.77,671.937L1262.82,671.399L1262.88,670.862L1262.93,670.328L1262.99,669.794L1263.05,669.262L1263.11,668.732L1263.18,668.203L1263.25,667.676L1263.31,667.151L1263.38,666.627L1263.45,666.104L1263.53,665.584L1263.6,665.064L1263.68,664.546L1263.76,664.03L1263.84,663.515L1263.92,663.002L1264.01,662.49L1264.09,661.979L1264.18,661.47L1264.27,660.963L1264.36,660.457L1264.45,659.952L1264.55,659.448L1264.64,658.947L1264.74,658.446L1264.84,657.947L1264.94,657.449L1265.04,656.952L1265.14,656.457L1265.25,655.963L1265.36,655.471L1265.46,654.979L1265.57,654.489L1265.68,654.001L1265.8,653.513L1265.91,653.027L1266.03,652.542L1266.14,652.059L1266.26,651.576L1266.38,651.095L1266.5,650.615L1266.62,650.136L1266.75,649.658L1266.87,649.182L1267,648.706L1267.12,648.232L1267.25,647.759L1267.38,647.287L1267.51,646.816L1267.64,646.346L1267.78,645.878L1267.91,645.41L1268.05,644.944L1268.19,644.478L1268.33,644.014L1268.46,643.55L1268.61,643.088L1268.75,642.627L1268.89,642.166L1269.03,641.707L1269.18,641.248L1269.9,638.977L1490.52,688.438ZM1271.16,641.879L1271.02,642.332L1270.88,642.786L1270.74,643.241L1270.6,643.696L1270.46,644.153L1270.32,644.611L1270.18,645.07L1270.05,645.529L1269.91,645.99L1269.78,646.452L1269.65,646.914L1269.52,647.378L1269.39,647.843L1269.26,648.308L1269.13,648.775L1269.01,649.243L1268.88,649.712L1268.76,650.182L1268.64,650.654L1268.52,651.126L1268.4,651.6L1268.28,652.074L1268.17,652.55L1268.05,653.027L1267.94,653.505L1267.83,653.985L1267.71,654.465L1267.61,654.947L1267.5,655.43L1267.39,655.914L1267.29,656.4L1267.18,656.887L1267.08,657.375L1266.98,657.864L1266.88,658.355L1266.78,658.847L1266.69,659.34L1266.59,659.835L1266.5,660.331L1266.41,660.828L1266.32,661.327L1266.23,661.827L1266.15,662.328L1266.06,662.831L1265.98,663.336L1265.9,663.841L1265.82,664.349L1265.74,664.857L1265.66,665.367L1265.59,665.879L1265.52,666.392L1265.45,666.907L1265.38,667.423L1265.31,667.941L1265.25,668.46L1265.18,668.98L1265.12,669.503L1265.06,670.027L1265,670.552L1264.95,671.079L1264.89,671.608L1264.84,672.138L1264.79,672.67L1264.74,673.203L1264.69,673.739L1264.65,674.276L1264.61,674.814L1264.57,675.354L1264.53,675.896L1264.49,676.44L1264.46,676.985L1264.42,677.532L1264.39,678.081L1264.37,678.632L1264.34,679.184L1264.32,679.739L1264.29,680.295L1264.27,680.852L1264.26,681.412L1264.24,681.973L1264.23,682.537L1264.21,683.102L1264.21,683.669L1264.2,684.238L1264.19,684.808L1264.19,685.381L1264.19,685.956L1264.19,686.532L1264.2,687.111L1264.2,687.691L1264.21,688.273L1264.22,688.858L1264.24,689.444L1264.25,690.032L1264.27,690.623L1264.29,691.215L1264.32,691.81L1264.34,692.406L1264.37,693.004L1264.4,693.605L1264.43,694.208L1264.47,694.812L1264.51,695.419L1264.55,696.028L1264.59,696.639L1264.63,697.252L1264.68,697.868L1264.73,698.485L1264.78,699.105L1264.84,699.727L1264.9,700.351L1264.96,700.977L1265.02,701.606L1265.09,702.236L1265.15,702.869L1265.23,703.505L1265.3,704.142L1265.38,704.782L1265.46,705.424L1265.54,706.068L1265.62,706.715L1265.71,707.364L1265.8,708.015L1265.89,708.669L1265.99,709.325L1266.09,709.983L1266.19,710.644L1490.06,690.471L1271.31,641.427L1271.16,641.879Z"/>
            </g>
            <g transform="matrix(0.592966,0,0,0.99791,472.623,-67.6088)">
                <g transform="matrix(1,-0,-0,1,481.584,67.7504)">
                    <path d="M525.417,576.785L503.176,537.987L547.56,543.473C533.696,546.266 522.625,562.922 525.417,576.785Z"/>
                    <path d="M732.696,690.544C732.696,690.544 590.298,595.895 529.826,555.701" style="fill:none;stroke:black;stroke-width:8.33px;stroke-linecap:round;stroke-linejoin:round;"/>
                </g>
            </g>
            <g transform="matrix(0.305738,-0.855034,0.508068,0.514531,436.133,1337.19)">
                <g transform="matrix(0.515609,0.856824,-0.856824,0.515609,1428.17,-225.547)">
                    <path d="M497.524,655.489L463.199,626.822L506.728,616.563C494.695,623.993 490.093,643.457 497.524,655.489Z"/>
                    <path d="M732.696,690.544C732.696,690.544 565.259,650.954 494.341,634.185" style="fill:none;stroke:black;stroke-width:8.33px;stroke-linecap:round;stroke-linejoin:round;"/>
                </g>
            </g>
            <g transform="matrix(0.129084,-0.973978,0.578745,0.217237,597.046,1707.05)">
                <g transform="matrix(0.217692,0.976018,-0.976018,0.217692,1728.76,-107.155)">
                    <path d="M498.528,731.778L456.891,715.457L494.93,691.94C485.87,702.799 487.669,722.718 498.528,731.778Z"/>
                    <path d="M732.696,690.544C732.696,690.544 561.34,706.022 488.761,712.578" style="fill:none;stroke:black;stroke-width:8.33px;stroke-linecap:round;stroke-linejoin:round;"/>
                </g>
            </g>
            <g transform="matrix(0.592966,0,0,0.99791,493.871,-80.3944)">
                <g transform="matrix(1,0,0,1,208.464,167.46)">
                    <text x="727.363px" y="441.028px" style="font-size:45px;">N</text>
                </g>
                <g transform="matrix(1,0,0,-0.00742753,-5.68434e-14,565.764)">
                    <g transform="matrix(1,0,0,-134.634,445.751,65324.7)">
                        <path d="M510.187,476.278L520.186,481.279L510.186,486.278C512.686,483.778 512.686,478.778 510.187,476.278Z"/>
                        <path d="M493.461,481.276C493.461,481.276 504.313,481.277 512.186,481.278" style="fill:none;stroke:black;stroke-width:3.33px;stroke-linecap:butt;stroke-linejoin:round;"/>
                    </g>
                </g>
            </g>
            <g transform="matrix(0.592966,0,0,0.99791,455.894,161.508)">
                <g transform="matrix(1,0,0,1,208.464,167.46)">
                    <text x="727.363px" y="441.028px" style="font-size:45px;">R</text>
                </g>
                <g transform="matrix(1,0,0,-0.0340256,1.7053e-13,579.941)">
                    <g transform="matrix(1,0,0,-29.3896,509.795,21800.8)">
                        <path d="M446.144,718.812L456.141,723.818L446.139,728.812C448.64,726.313 448.643,721.313 446.144,718.812Z"/>
                        <path d="M429.416,723.802C429.416,723.802 440.268,723.809 448.141,723.813" style="fill:none;stroke:black;stroke-width:3.33px;stroke-linecap:butt;stroke-linejoin:round;"/>
                    </g>
                </g>
            </g>
            <g transform="matrix(0.592966,0,0,0.99791,463.818,6.6604)">
                <g transform="matrix(1,0,0,1,208.464,167.46)">
                    <text x="727.363px" y="441.028px" style="font-size:45px;">V</text>
                </g>
                <g transform="matrix(1,0,0,-0.0340256,1.7053e-13,579.941)">
                    <g transform="matrix(1,0,0,-29.3896,496.433,17240.4)">
                        <path d="M459.507,563.641L469.504,568.646L459.501,573.641C462.003,571.142 462.005,566.142 459.507,563.641Z"/>
                        <path d="M442.779,568.631C442.779,568.631 453.63,568.637 461.504,568.642" style="fill:none;stroke:black;stroke-width:3.33px;stroke-linecap:butt;stroke-linejoin:round;"/>
                    </g>
                </g>
            </g>
            <g id="View" transform="matrix(0.592966,0,0,0.99791,309.093,0)">
                <path d="M850.418,569.731L803.508,530.624L866.338,506.793" style="fill:none;stroke:black;stroke-width:8.33px;"/>
                <path d="M848.849,514.583C854.372,529.952 852.4,543.32 837.822,557.593" style="fill:none;stroke:black;stroke-width:8.33px;"/>
                <g transform="matrix(0.97803,0.208462,-0.208462,0.97803,68.6642,-155.654)">
                    <ellipse cx="903.241" cy="514.76" rx="4.911" ry="10.816"/>
                </g>
            </g>
            <g transform="matrix(0.592966,0,0,0.99791,387.446,22.4149)">
                <text x="1143.1px" y="670.499px" style="font-size:45px;">Ω</text>
            </g>
            <g transform="matrix(0.592966,0,0,0.99791,742.349,305.324)">
                <text x="645.986px" y="369.741px" style="font-size:45px;">θ</text>
            </g>
            <g transform="matrix(0.592966,0,0,0.99791,751.459,222.2)">
                <text x="645.986px" y="369.741px" style="font-size:45px;">θ</text>
            </g>
            <g transform="matrix(0.592966,0,0,0.99791,472.623,-67.6088)">
                <g transform="matrix(1,0,0,1,-12.3918,33.8196)">
                    <text x="1169.36px" y="450.482px" style="font-size:45px;">L</text>
                </g>
                <g transform="matrix(4.03148,0,0,0.162671,-2668.18,351.688)">
                    <g transform="matrix(0.248048,-0,-0,6.14736,781.292,-1745.47)">
                        <path d="M692.264,364.901L702.269,369.89L692.275,374.901C694.772,372.398 694.767,367.398 692.264,364.901Z"/>
                        <path d="M678.767,369.916C678.767,369.916 687.457,369.906 694.269,369.899" style="fill:none;stroke:black;stroke-width:3.33px;stroke-linecap:butt;stroke-linejoin:round;"/>
                    </g>
                </g>
            </g>
            <g transform="matrix(0.592966,0,0,0.99791,468.739,-67.6088)">
                <path d="M1183.54,758.295L1208.78,772.642L1194.65,797.327" style="fill:none;stroke:black;stroke-width:4.17px;"/>
            </g>
            <g transform="matrix(0.592966,0,0,0.99791,472.623,-67.6088)">
                <g transform="matrix(1,-0,-0,1,481.584,67.7504)">
                    <path d="M641.475,470.969L648.34,426.777L679.574,458.784C667.003,452.305 647.954,458.398 641.475,470.969Z"/>
                    <path d="M732.696,690.544C732.696,690.544 680.286,526.668 658.088,457.256" style="fill:none;stroke:black;stroke-width:8.33px;stroke-linecap:round;stroke-linejoin:round;"/>
                </g>
            </g>
            <g transform="matrix(1.29885,0,0,2.18585,-389.734,-968.415)">
                <circle cx="1218.3" cy="758.295" r="5.502"/>
            </g>
            <g id="Surface" transform="matrix(0.592966,0,0,0.99791,474.124,-50.0909)">
                <path d="M1082.84,860.598C1101.04,780.525 1149.26,709.684 1204.41,652.908C1290.42,635.67 1332.06,650.542 1364.76,658.536C1292.1,731.687 1267.24,764.863 1245.69,855.392C1161.53,838.606 1082.53,861.972 1082.84,860.598Z" style="fill:none;stroke:black;stroke-width:4.17px;stroke-linecap:round;"/>
            </g>
        </g>
    </g>
</svg>
