<?xml version="1.0" encoding="iso-8859-1"?>
<!-- Generator: Adobe Illustrator 19.0.0, SVG Export Plug-In . SVG Version: 6.00 Build 0)  -->
<svg version="1.1" id="Layer_1" xmlns="http://www.w3.org/2000/svg" xmlns:xlink="http://www.w3.org/1999/xlink" x="0px" y="0px"
	 viewBox="0 0 512 512" style="enable-background:new 0 0 512 512;" xml:space="preserve">
<polyline style="fill:#CCCCCC;" points="350.124,30.828 449.566,30.828 449.566,502.562 62.434,502.562 62.434,30.828 
	161.876,30.828 "/>
<polygon style="fill:#FFFFFF;" points="377.017,90.578 409.227,90.578 409.227,462.223 102.773,462.223 102.773,428.179 
	102.773,395.174 102.773,90.578 161.876,90.578 "/>
<path style="fill:#F9C573;" d="M350.128,33.717v70.532H161.879V33.717c0-13.703,11.112-24.815,24.815-24.815h138.607
	C339.016,8.903,350.128,20.014,350.128,33.717z"/>
<path style="fill:#FCD8A9;" d="M350.128,33.717v70.532H221.593l26.734-95.347h76.974C339.016,8.903,350.128,20.014,350.128,33.717z"
	/>
<path d="M324.455,256.298c-5.064,0-9.168,4.105-9.168,9.168v61.585l-14.07-14.07c-3.582-3.58-9.386-3.58-12.966,0
	c-3.58,3.58-3.58,9.386,0,12.965l29.72,29.72c1.791,1.79,4.138,2.686,6.484,2.686c2.346,0,4.693-0.895,6.484-2.686l29.72-29.72
	c3.58-3.58,3.58-9.386,0-12.965c-3.582-3.58-9.386-3.58-12.966,0l-14.07,14.07v-61.585
	C333.623,260.403,329.518,256.298,324.455,256.298z"/>
<path d="M449.566,21.93h-92.49C352.2,9.125,339.802,0,325.307,0H186.694c-14.495,0-26.893,9.125-31.769,21.93H62.434
	c-5.064,0-9.168,4.105-9.168,9.168v471.734c0,5.063,4.104,9.168,9.168,9.168h387.132c5.064,0,9.168-4.105,9.168-9.168V31.098
	C458.734,26.035,454.631,21.93,449.566,21.93z M440.398,493.664H71.602V40.266h81.107V81.68h-49.936
	c-5.064,0-9.168,4.105-9.168,9.168v304.596c0,5.063,4.104,9.168,9.168,9.168s9.168-4.105,9.168-9.168V100.016h40.768v4.498
	c0,5.063,4.104,9.168,9.168,9.168h28.119c5.064,0,9.168-4.105,9.168-9.168s-4.104-9.168-9.168-9.168h-18.951V33.986
	c0-8.63,7.02-15.65,15.65-15.65h138.613c8.63,0,15.65,7.02,15.65,15.65v61.361H221.596c-5.064,0-9.168,4.105-9.168,9.168
	s4.104,9.168,9.168,9.168h128.531c5.064,0,9.168-4.105,9.168-9.168V40.266h81.106v453.398H440.398z"/>
<path d="M377.018,100.016h23.042v353.309H111.942v-24.876c0-5.063-4.104-9.168-9.168-9.168s-9.168,4.105-9.168,9.168v34.045
	c0,5.063,4.104,9.168,9.168,9.168h306.454c5.064,0,9.168-4.105,9.168-9.168V90.848c0-5.063-4.104-9.168-9.168-9.168h-32.21
	c-5.064,0-9.168,4.105-9.168,9.168S371.954,100.016,377.018,100.016z"/>
<path d="M144.763,244.479h75.788c5.064,0,9.168-4.105,9.168-9.168s-4.104-9.168-9.168-9.168h-66.62V168.69h57.453v40.339
	c0,5.063,4.104,9.168,9.168,9.168c5.064,0,9.168-4.105,9.168-9.168v-49.507c0-5.063-4.104-9.168-9.168-9.168h-75.788
	c-5.064,0-9.168,4.105-9.168,9.168v75.788C135.595,240.374,139.699,244.479,144.763,244.479z"/>
<path d="M267.373,191.675l14.908-14.91l11.241,11.242c2.827,2.827,7.16,3.495,10.703,1.656l27.048-14.025l16.645,16.647
	c1.791,1.79,4.138,2.686,6.484,2.686c2.346,0,4.693-0.895,6.484-2.686l19.558-19.558c3.58-3.58,3.58-9.386,0-12.965
	c-3.582-3.58-9.386-3.58-12.966,0l-13.075,13.076l-14.908-14.91c-2.827-2.827-7.158-3.495-10.703-1.656l-27.048,14.025
	l-12.978-12.979c-3.582-3.58-9.386-3.58-12.966,0l-21.392,21.392c-3.58,3.58-3.58,9.386,0,12.965
	C257.989,195.256,263.793,195.256,267.373,191.675z"/>
<path d="M322.448,202.759c-1.711-1.749-4.053-2.741-6.502-2.754c-2.502-0.033-4.8,0.955-6.531,2.686l-14.908,14.91l-11.241-11.242
	c-1.76-1.76-4.198-2.75-6.652-2.683c-2.49,0.046-4.854,1.103-6.548,2.928l-15.891,17.114c-3.445,3.711-3.231,9.511,0.48,12.957
	c3.712,3.446,9.511,3.231,12.957-0.48l9.417-10.142l10.997,10.998c3.582,3.58,9.386,3.58,12.966,0l14.84-14.841l15.522,15.852
	c1.796,1.834,4.172,2.754,6.551,2.754c2.314,0,4.629-0.87,6.413-2.617c3.618-3.542,3.679-9.346,0.136-12.965L322.448,202.759z"/>
<path d="M148.19,299.026l14.908-14.91l11.241,11.242c2.827,2.827,7.158,3.495,10.703,1.656l27.048-14.025l16.645,16.647
	c1.791,1.79,4.138,2.686,6.484,2.686s4.693-0.895,6.484-2.686l19.558-19.558c3.58-3.58,3.58-9.386,0-12.965
	c-3.582-3.58-9.386-3.58-12.966,0l-13.075,13.076l-14.908-14.91c-2.827-2.827-7.158-3.495-10.703-1.656l-27.048,14.025
	l-12.978-12.979c-3.582-3.58-9.386-3.58-12.966,0l-21.392,21.392c-3.58,3.58-3.58,9.386,0,12.965
	C138.805,302.605,144.609,302.605,148.19,299.026z"/>
<path d="M168.84,344.396c3.582,3.58,9.386,3.58,12.966,0l12.822-12.823l8.142,14.56c1.401,2.507,3.897,4.212,6.743,4.606
	c0.422,0.059,0.841,0.087,1.259,0.087c2.415,0,4.753-0.955,6.484-2.686l12.835-12.835c3.58-3.58,3.58-9.386,0-12.965
	c-3.582-3.58-9.386-3.58-12.966,0l-4.265,4.266l-8.142-14.56c-1.401-2.507-3.897-4.212-6.743-4.607
	c-2.859-0.392-5.712,0.568-7.743,2.599l-14.908,14.91l-11.241-11.242c-1.761-1.76-4.152-2.753-6.652-2.683
	c-2.49,0.046-4.854,1.103-6.548,2.928l-15.891,17.114c-3.445,3.711-3.231,9.511,0.48,12.957c3.712,3.445,9.511,3.231,12.957-0.48
	l9.417-10.142L168.84,344.396z"/>
<path d="M159.432,440.062h210.252c5.064,0,9.168-4.105,9.168-9.168v-51.341c0-5.063-4.104-9.168-9.168-9.168h-183.36
	c-5.064,0-9.168,4.105-9.168,9.168c0,5.063,4.104,9.168,9.168,9.168h174.192v33.005H168.6v-42.173c0-5.063-4.104-9.168-9.168-9.168
	c-5.064,0-9.168,4.105-9.168,9.168v51.341C150.264,435.957,154.368,440.062,159.432,440.062z"/>
<g>
</g>
<g>
</g>
<g>
</g>
<g>
</g>
<g>
</g>
<g>
</g>
<g>
</g>
<g>
</g>
<g>
</g>
<g>
</g>
<g>
</g>
<g>
</g>
<g>
</g>
<g>
</g>
<g>
</g>
</svg>
