<svg version="1.1" viewBox="0.0 0.0 960.0 540.0" fill="none" stroke="none" stroke-linecap="square" stroke-miterlimit="10" xmlns:xlink="http://www.w3.org/1999/xlink" xmlns="http://www.w3.org/2000/svg"><clipPath id="g10050e50e98_0_0.0"><path d="m0 0l960.0 0l0 540.0l-960.0 0l0 -540.0z" clip-rule="nonzero"/></clipPath><g clip-path="url(#g10050e50e98_0_0.0)"><path fill="#ffffff" d="m0 0l960.0 0l0 540.0l-960.0 0z" fill-rule="evenodd"/><path fill="#083042" d="m378.34616 261.09692l0 0c0 -3.4314575 2.7817383 -6.213196 6.213196 -6.213196l197.33737 0c1.6478271 0 3.2282104 0.65460205 4.3933716 1.8197937c1.1652222 1.1652222 1.8198242 2.745575 1.8198242 4.393402l0 57.55786c0 3.4314575 -2.7817383 6.213196 -6.213196 6.213196l-197.33737 0c-3.4314575 0 -6.213196 -2.7817383 -6.213196 -6.213196z" fill-rule="evenodd"/><path fill="#3ddb85" d="m406.9847 78.856255l0 0c0 -2.6948242 2.1846008 -4.87941 4.879425 -4.87941l139.59552 0c1.2940674 0 2.5351562 0.51408386 3.4502563 1.4291458c0.91503906 0.9150696 1.4291382 2.156166 1.4291382 3.450264l0 45.20182c0 2.6948166 -2.1845703 4.87941 -4.8793945 4.87941l-139.59552 0l0 0c-2.6948242 0 -4.879425 -2.1845932 -4.879425 -4.87941z" fill-rule="evenodd"/><path fill="#3ddb85" d="m409.52768 73.97117l144.31497 0l0 54.960625l-144.31497 0z" fill-rule="evenodd"/><path fill="#083042" d="m473.02307 95.05961l-3.734375 0l0 12.671875l-1.796875 0l0 -12.671875l-3.71875 0l0 -1.546875l9.25 0l0 1.546875zm6.1972656 12.671875q-0.15625 -0.34375 -0.234375 -1.15625q-0.90625 1.359375 -2.34375 1.359375q-1.4375 0 -2.25 -0.8125q-0.796875 -0.8125 -0.796875 -2.265625q0 -1.625 1.09375 -2.5625q1.09375 -0.953125 3.0 -0.96875l1.265625 0l0 -1.125q0 -0.953125 -0.421875 -1.34375q-0.40625 -0.40625 -1.265625 -0.40625q-0.78125 0 -1.28125 0.46875q-0.484375 0.46875 -0.484375 1.171875l-1.71875 0q0 -0.8125 0.46875 -1.546875q0.484375 -0.734375 1.296875 -1.15625q0.8125 -0.421875 1.796875 -0.421875q1.625 0 2.46875 0.8125q0.84375 0.796875 0.859375 2.34375l0 5.328125q0.015625 1.21875 0.34375 2.125l0 0.15625l-1.796875 0zm-2.3125 -1.375q0.640625 0 1.21875 -0.34375q0.578125 -0.359375 0.828125 -0.890625l0 -2.515625l-0.96875 0q-1.234375 0.015625 -1.953125 0.546875q-0.703125 0.53125 -0.703125 1.484375q0 0.90625 0.359375 1.3125q0.359375 0.40625 1.21875 0.40625zm11.580078 -1.328125q0 -0.5625 -0.421875 -0.953125q-0.40625 -0.40625 -1.609375 -0.9375q-1.40625 -0.578125 -1.984375 -0.984375q-0.5625 -0.421875 -0.84375 -0.9375q-0.28125 -0.53125 -0.28125 -1.25q0 -1.28125 0.9375 -2.140625q0.953125 -0.859375 2.40625 -0.859375q1.546875 0 2.484375 0.90625q0.9375 0.890625 0.9375 2.296875l-1.71875 0q0 -0.703125 -0.484375 -1.203125q-0.46875 -0.515625 -1.21875 -0.515625q-0.75 0 -1.1875 0.40625q-0.4375 0.390625 -0.4375 1.046875q0 0.53125 0.3125 0.859375q0.328125 0.3125 1.53125 0.84375q1.921875 0.75 2.609375 1.46875q0.703125 0.71875 0.703125 1.828125q0 1.375 -0.953125 2.203125q-0.9375 0.828125 -2.53125 0.828125q-1.65625 0 -2.6875 -0.953125q-1.015625 -0.953125 -1.015625 -2.40625l1.734375 0q0.03125 0.875 0.53125 1.375q0.515625 0.5 1.4375 0.5q0.859375 0 1.296875 -0.375q0.453125 -0.390625 0.453125 -1.046875zm6.642578 -2.125l-0.921875 1.046875l0 3.78125l-1.734375 0l0 -15.0l1.734375 0l0 8.96875l3.28125 -4.53125l2.078125 0l-3.359375 4.40625l3.796875 6.15625l-2.015625 0l-2.859375 -4.828125z" fill-rule="nonzero"/><path fill="#000000" fill-opacity="0.0" d="m371.30286 258.4019l220.72443 0l0 62.92914l-220.72443 0z" fill-rule="evenodd"/><path fill="#ffffff" d="m431.10156 294.6152l5.578125 0l0 1.53125l-7.375 0l0 -14.21875l1.796875 0l0 12.6875zm7.095703 -4.234375q0 -2.3125 1.125 -3.65625q1.125 -1.34375 2.953125 -1.34375q1.84375 0 2.953125 1.3125q1.125 1.3125 1.15625 3.5625l0 1.109375q0 2.296875 -1.125 3.640625q-1.109375 1.34375 -2.96875 1.34375q-1.828125 0 -2.9375 -1.296875q-1.109375 -1.3125 -1.15625 -3.53125l0 -1.140625zm1.734375 0.984375q0 1.640625 0.640625 2.578125q0.640625 0.921875 1.71875 0.921875q2.296875 0 2.359375 -3.296875l0 -1.1875q0 -1.625 -0.65625 -2.5625q-0.640625 -0.953125 -1.71875 -0.953125q-1.0625 0 -1.703125 0.953125q-0.640625 0.9375 -0.640625 2.546875l0 1.0zm10.3046875 -5.78125l0.046875 1.140625q1.0 -1.34375 2.5625 -1.34375q2.8125 0 2.84375 3.75l0 7.015625l-1.71875 0l0 -6.9375q0 -1.25 -0.421875 -1.765625q-0.40625 -0.53125 -1.234375 -0.53125q-0.640625 0 -1.15625 0.4375q-0.515625 0.421875 -0.828125 1.125l0 7.671875l-1.71875 0l0 -10.5625l1.625 0zm7.7089844 4.796875q0 -2.46875 0.890625 -3.734375q0.90625 -1.265625 2.625 -1.265625q1.609375 0 2.453125 1.375l0.09375 -1.171875l1.5625 0l0 10.65625q0 1.96875 -1.015625 3.015625q-1.0 1.046875 -2.796875 1.046875q-0.78125 0 -1.75 -0.390625q-0.96875 -0.375 -1.46875 -0.9375l0.703125 -1.203125q1.078125 1.0625 2.375 1.0625q2.15625 0 2.21875 -2.359375l0 -1.375q-0.84375 1.25 -2.375 1.25q-1.640625 0 -2.5625 -1.234375q-0.921875 -1.25 -0.953125 -3.5625l0 -1.171875zm1.71875 0.984375q0 1.78125 0.515625 2.625q0.53125 0.828125 1.71875 0.828125q1.296875 0 1.9375 -1.3125l0 -5.296875q-0.671875 -1.296875 -1.90625 -1.296875q-1.203125 0 -1.734375 0.84375q-0.515625 0.828125 -0.53125 2.5625l0 1.046875zm11.681641 -0.515625l-4.046875 0l0 -1.484375l4.046875 0l0 1.484375zm6.2890625 -0.453125l-2.5 0l0 5.75l-1.796875 0l0 -14.21875l3.984375 0q2.09375 0 3.15625 1.09375q1.078125 1.078125 1.078125 3.1875q0 1.3125 -0.578125 2.296875q-0.578125 0.984375 -1.640625 1.484375l2.75 6.03125l0 0.125l-1.921875 0l-2.53125 -5.75zm-2.5 -1.53125l2.171875 0q1.125 0 1.78125 -0.71875q0.671875 -0.734375 0.671875 -1.9375q0 -2.734375 -2.46875 -2.734375l-2.15625 0l0 5.390625zm13.974609 6.359375q-0.859375 1.125 -2.515625 1.125q-1.4375 0 -2.171875 -0.984375q-0.734375 -1.0 -0.734375 -2.90625l0 -6.875l1.71875 0l0 6.75q0 2.46875 1.484375 2.46875q1.5625 0 2.15625 -1.40625l0 -7.8125l1.734375 0l0 10.5625l-1.640625 0l-0.03125 -0.921875zm5.9023438 -9.640625l0.046875 1.140625q1.0 -1.34375 2.5625 -1.34375q2.8125305 0 2.8437805 3.75l0 7.015625l-1.7187805 0l0 -6.9375q0 -1.25 -0.421875 -1.765625q-0.40625 -0.53125 -1.234375 -0.53125q-0.640625 0 -1.15625 0.4375q-0.515625 0.421875 -0.828125 1.125l0 7.671875l-1.71875 0l0 -10.5625l1.625 0zm9.677765 0l0.046875 1.140625q1.0 -1.34375 2.5625 -1.34375q2.8125 0 2.84375 3.75l0 7.015625l-1.71875 0l0 -6.9375q0 -1.25 -0.421875 -1.765625q-0.40625 -0.53125 -1.234375 -0.53125q-0.640625 0 -1.15625 0.4375q-0.515625 0.421875 -0.828125 1.125l0 7.671875l-1.71875 0l0 -10.5625l1.625 0zm9.912079 10.5625l-1.734375 0l0 -10.5625l1.734375 0l0 10.5625zm0.140625 -13.375q0 0.4375 -0.25 0.734375q-0.25 0.296875 -0.734375 0.296875q-0.5 0 -0.75 -0.296875q-0.234375 -0.296875 -0.234375 -0.734375q0 -0.4375 0.234375 -0.734375q0.25 -0.3125 0.734375 -0.3125q0.5 0 0.75 0.3125q0.25 0.3125 0.25 0.734375zm4.205078 2.8125l0.046875 1.140625q1.0 -1.34375 2.5625 -1.34375q2.8125 0 2.84375 3.75l0 7.015625l-1.71875 0l0 -6.9375q0 -1.25 -0.421875 -1.765625q-0.40625 -0.53125 -1.234375 -0.53125q-0.640625 0 -1.15625 0.4375q-0.515625 0.421875 -0.828125 1.125l0 7.671875l-1.71875 0l0 -10.5625l1.625 0zm7.7089844 4.796875q0 -2.46875 0.890625 -3.734375q0.90625 -1.265625 2.625 -1.265625q1.609375 0 2.453125 1.375l0.09375 -1.171875l1.5625 0l0 10.65625q0 1.96875 -1.015625 3.015625q-1.0 1.046875 -2.796875 1.046875q-0.78125 0 -1.75 -0.390625q-0.96875 -0.375 -1.46875 -0.9375l0.703125 -1.203125q1.078125 1.0625 2.375 1.0625q2.15625 0 2.21875 -2.359375l0 -1.375q-0.84375 1.25 -2.375 1.25q-1.640625 0 -2.5625 -1.234375q-0.921875 -1.25 -0.953125 -3.5625l0 -1.171875zm1.71875 0.984375q0 1.78125 0.515625 2.625q0.53125 0.828125 1.71875 0.828125q1.296875 0 1.9375 -1.3125l0 -5.296875q-0.671875 -1.296875 -1.90625 -1.296875q-1.203125 0 -1.734375 0.84375q-0.515625 0.828125 -0.53125 2.5625l0 1.046875z" fill-rule="nonzero"/><path fill="#000000" fill-opacity="0.0" d="m481.6682 151.8998l0 82.425186" fill-rule="evenodd"/><path stroke="#083042" stroke-width="3.0" stroke-linejoin="round" stroke-linecap="butt" d="m481.6682 151.8998l0 64.425186" fill-rule="evenodd"/><path fill="#083042" stroke="#083042" stroke-width="3.0" stroke-linecap="butt" d="m476.713 216.32498l4.9552 13.614304l4.9552 -13.614304z" fill-rule="evenodd"/><path fill="#d6f0ff" d="m189.57373 478.67282l153.82678 0l0 46.614166l-153.82678 0z" fill-rule="evenodd"/><path fill="#000000" fill-opacity="0.0" d="m189.03102 482.1496l153.82677 0l0 39.18109l-153.82677 0z" fill-rule="evenodd"/><path fill="#000000" d="m214.11238 501.44205l-5.015625 0l0 5.046875l5.859375 0l0 1.53125l-7.65625 0l0 -14.21875l7.546875 0l0 1.546875l-5.75 0l0 4.5625l5.015625 0l0 1.53125zm5.9316406 -0.125l1.8125 -3.859375l2.0 0l-2.875 5.21875l2.9375 5.34375l-1.984375 0l-1.859375 -3.953125l-1.875 3.953125l-1.984375 0l2.9375 -5.34375l-2.859375 -5.21875l1.96875 0l1.78125 3.859375zm13.357422 1.921875q0 2.515625 -0.90625 3.75q-0.890625 1.234375 -2.546875 1.234375q-1.59375 0 -2.453125 -1.203125l0 5.0624695l-1.71875 0l0 -14.6249695l1.5625 0l0.09375 1.171875q0.859375 -1.375 2.484375 -1.375q1.734375 0 2.59375 1.21875q0.859375 1.203125 0.890625 3.625l0 1.140625zm-1.71875 -0.984375q0 -1.78125 -0.546875 -2.625q-0.546875 -0.84375 -1.75 -0.84375q-1.25 0 -1.890625 1.25l0 5.5q0.640625 1.203125 1.90625 1.203125q1.171875 0 1.71875 -0.84375q0.5625 -0.84375 0.5625 -2.578125l0 -1.0625zm7.7226562 5.96875q-1.96875 0 -3.03125 -1.171875q-1.046875 -1.1875 -1.0625 -3.46875l0 -1.28125q0 -2.359375 1.03125 -3.703125q1.03125 -1.34375 2.875 -1.34375q1.859375 0 2.765625 1.1875q0.921875 1.171875 0.9375 3.671875l0 1.140625l-5.890625 0l0 0.25q0 1.6875 0.640625 2.46875q0.640625 0.765625 1.84375 0.765625q0.75 0 1.328125 -0.28125q0.59375 -0.296875 1.09375 -0.921875l0.90625 1.09375q-1.125 1.59375 -3.4375 1.59375zm-0.1875 -9.484375q-1.078125 0 -1.59375 0.75q-0.515625 0.734375 -0.578125 2.28125l4.15625 0l0 -0.234375q-0.078125 -1.5 -0.546875 -2.140625q-0.46875 -0.65625 -1.4375 -0.65625zm5.4121094 3.515625q0 -2.4375 0.90625 -3.71875q0.921875 -1.28125 2.640625 -1.28125q1.515625 0 2.359375 1.234375l0 -5.46875l1.734375 0l0 15.0l-1.59375 0l-0.078125 -1.140625q-0.859375 1.34375 -2.4375 1.34375q-1.640625 0 -2.578125 -1.28125q-0.921875 -1.28125 -0.953125 -3.59375l0 -1.09375zm1.734375 0.984375q0 1.78125 0.53125 2.625q0.53125 0.828125 1.71875 0.828125q1.28125 0 1.921875 -1.296875l0 -5.328125q-0.671875 -1.28125 -1.921875 -1.28125q-1.1875 0 -1.71875 0.84375q-0.515625 0.828125 -0.53125 2.5625l0 1.046875zm10.42186 4.78125l-1.7343597 0l0 -10.5625l1.7343597 0l0 10.5625zm0.140625 -13.375q0 0.4375 -0.25 0.734375q-0.25 0.296875 -0.73435974 0.296875q-0.5 0 -0.75 -0.296875q-0.234375 -0.296875 -0.234375 -0.734375q0 -0.4375 0.234375 -0.734375q0.25 -0.3125 0.734375 -0.3125q0.49998474 0 0.74998474 0.3125q0.25 0.3125 0.25 0.734375zm4.845703 0.25l0 2.5625l1.578125 0l0 1.390625l-1.578125 0l0 6.546875q0 0.625 0.203125 0.953125q0.203125 0.328125 0.703125 0.328125q0.34375 0 0.6875 -0.125l-0.015625 1.46875q-0.59375 0.203125 -1.203125 0.203125q-1.03125 0 -1.5625 -0.734375q-0.53125 -0.734375 -0.53125 -2.078125l0 -6.5625l-1.625 0l0 -1.390625l1.625 0l0 -2.5625l1.71875 0zm7.408203 13.328125q-1.96875 0 -3.03125 -1.171875q-1.046875 -1.1875 -1.0625 -3.46875l0 -1.28125q0 -2.359375 1.03125 -3.703125q1.03125 -1.34375 2.875 -1.34375q1.859375 0 2.765625 1.1875q0.921875 1.171875 0.9375 3.671875l0 1.140625l-5.890625 0l0 0.25q0 1.6875 0.640625 2.46875q0.640625 0.765625 1.84375 0.765625q0.75 0 1.328125 -0.28125q0.59375 -0.296875 1.09375 -0.921875l0.90625 1.09375q-1.125 1.59375 -3.4375 1.59375zm-0.1875 -9.484375q-1.078125 0 -1.59375 0.75q-0.515625 0.734375 -0.578125 2.28125l4.15625 0l0 -0.234375q-0.078125 -1.5 -0.546875 -2.140625q-0.46875 -0.65625 -1.4375 -0.65625zm5.4121094 3.515625q0 -2.4375 0.90625 -3.71875q0.921875 -1.28125 2.640625 -1.28125q1.515625 0 2.359375 1.234375l0 -5.46875l1.734375 0l0 15.0l-1.59375 0l-0.078125 -1.140625q-0.859375 1.34375 -2.4375 1.34375q-1.640625 0 -2.578125 -1.28125q-0.921875 -1.28125 -0.953125 -3.59375l0 -1.09375zm1.734375 0.984375q0 1.78125 0.53125 2.625q0.53125 0.828125 1.71875 0.828125q1.28125 0 1.921875 -1.296875l0 -5.328125q-0.671875 -1.28125 -1.921875 -1.28125q-1.1875 0 -1.71875 0.84375q-0.515625 0.828125 -0.53125 2.5625l0 1.046875zm21.017578 1.75l1.59375 -7.53125l1.71875 0l-2.59375 10.5625l-1.375 0l-2.0625 -7.5625l-2.015625 7.5625l-1.375 0l-2.578125 -10.5625l1.703125 0l1.640625 7.34375l1.96875 -7.34375l1.359375 0l2.015625 7.53125zm4.748047 -2.734375q0 -2.3125 1.125 -3.65625q1.125 -1.34375 2.953125 -1.34375q1.84375 0 2.953125 1.3125q1.125 1.3125 1.15625 3.5625l0 1.109375q0 2.296875 -1.125 3.640625q-1.109375 1.34375 -2.96875 1.34375q-1.828125 0 -2.9375 -1.296875q-1.109375 -1.3125 -1.15625 -3.53125l0 -1.140625zm1.734375 0.984375q0 1.640625 0.640625 2.578125q0.640625 0.921875 1.71875 0.921875q2.296875 0 2.359375 -3.296875l0 -1.1875q0 -1.625 -0.65625 -2.5625q-0.640625 -0.953125 -1.71875 -0.953125q-1.0625 0 -1.703125 0.953125q-0.640625 0.9375 -0.640625 2.546875l0 1.0zm13.0390625 -4.171875q-0.359375 -0.0625 -0.78125 -0.0625q-1.328125 0 -1.859375 1.453125l0 7.5625l-1.71875 0l0 -10.5625l1.671875 0l0.03125 1.0625q0.6875 -1.265625 1.96875 -1.265625q0.40625 0 0.671875 0.140625l0.015625 1.671875zm4.38089 4.125l-0.921875 1.046875l0 3.78125l-1.734375 0l0 -15.0l1.734375 0l0 8.96875l3.28125 -4.53125l2.078125 0l-3.359375 4.40625l3.796875 6.15625l-2.015625 0l-2.859375 -4.828125z" fill-rule="nonzero"/><path fill="#000000" fill-opacity="0.0" d="m382.75275 102.07336l-201.82878 0l0 134.61417l0.002029419 0" fill-rule="evenodd"/><path stroke="#083042" stroke-width="3.0" stroke-linejoin="round" stroke-linecap="butt" d="m382.75275 102.07336l-201.82878 0l0 116.61419" fill-rule="evenodd"/><path fill="#083042" stroke="#083042" stroke-width="3.0" stroke-linecap="butt" d="m175.96877 218.6881l4.9567413 13.613739l4.953659 -13.614853z" fill-rule="evenodd"/><path fill="#083042" d="m82.17238 261.09692l0 0c0 -3.4314575 2.781746 -6.213196 6.2132034 -6.213196l197.33737 0c1.6478271 0 3.22818 0.65460205 4.393402 1.8197937c1.1651917 1.1652222 1.8197937 2.745575 1.8197937 4.393402l0 57.55786c0 3.4314575 -2.7817383 6.213196 -6.213196 6.213196l-197.33737 0c-3.4314575 0 -6.2132034 -2.7817383 -6.2132034 -6.213196z" fill-rule="evenodd"/><path fill="#000000" fill-opacity="0.0" d="m75.12908 258.4019l220.7244 0l0 62.92914l-220.7244 0z" fill-rule="evenodd"/><path fill="#ffffff" d="m146.98836 296.14645l-1.796875 0l0 -14.21875l1.796875 0l0 14.21875zm4.515625 -10.5625l0.03125 0.96875q0.96875 -1.171875 2.5625 -1.171875q1.765625 0 2.46875 1.53125q0.984375 -1.53125 2.765625 -1.53125q2.921875 0 2.984375 3.640625l0 7.125l-1.71875 0l0 -6.953125q0 -1.15625 -0.40625 -1.71875q-0.40625 -0.5625 -1.390625 -0.5625q-0.78125 0 -1.265625 0.609375q-0.484375 0.609375 -0.5625 1.546875l0 7.078125l-1.734375 0l0 -7.03125q-0.03125 -2.203125 -1.796875 -2.203125q-1.296875 0 -1.84375 1.3125l0 7.921875l-1.71875 0l0 -10.5625l1.625 0zm15.048828 0l0.03125 0.96875q0.96875 -1.171875 2.5625 -1.171875q1.765625 0 2.46875 1.53125q0.984375 -1.53125 2.765625 -1.53125q2.921875 0 2.984375 3.640625l0 7.125l-1.71875 0l0 -6.953125q0 -1.15625 -0.40625 -1.71875q-0.40625 -0.5625 -1.390625 -0.5625q-0.78125 0 -1.265625 0.609375q-0.484375 0.609375 -0.5625 1.546875l0 7.078125l-1.734375 0l0 -7.03125q-0.03125 -2.203125 -1.796875 -2.203125q-1.296875 0 -1.84375 1.3125l0 7.921875l-1.71875 0l0 -10.5625l1.625 0zm17.189453 10.765625q-1.96875 0 -3.03125 -1.171875q-1.046875 -1.1875 -1.0625 -3.46875l0 -1.28125q0 -2.359375 1.03125 -3.703125q1.03125 -1.34375 2.875 -1.34375q1.859375 0 2.765625 1.1875q0.921875 1.171875 0.9375 3.671875l0 1.140625l-5.890625 0l0 0.25q0 1.6875 0.640625 2.46875q0.640625 0.765625 1.84375 0.765625q0.75 0 1.328125 -0.28125q0.59375 -0.296875 1.09375 -0.921875l0.90625 1.09375q-1.125 1.59375 -3.4375 1.59375zm-0.1875 -9.484375q-1.078125 0 -1.59375 0.75q-0.515625 0.734375 -0.578125 2.28125l4.15625 0l0 -0.234375q-0.078125 -1.5 -0.546875 -2.140625q-0.46875 -0.65625 -1.4375 -0.65625zm5.4121094 3.515625q0 -2.4375 0.90625 -3.71875q0.921875 -1.28125 2.640625 -1.28125q1.515625 0 2.359375 1.234375l0 -5.46875l1.734375 0l0 15.0l-1.59375 0l-0.078125 -1.140625q-0.859375 1.34375 -2.4375 1.34375q-1.640625 0 -2.578125 -1.28125q-0.921875 -1.28125 -0.953125 -3.59375l0 -1.09375zm1.734375 0.984375q0 1.78125 0.53125 2.625q0.53125 0.828125 1.71875 0.828125q1.28125 0 1.921875 -1.296875l0 -5.328125q-0.671875 -1.28125 -1.921875 -1.28125q-1.1875 0 -1.71875 0.84375q-0.515625 0.828125 -0.53125 2.5625l0 1.046875zm10.421875 4.78125l-1.734375 0l0 -10.5625l1.734375 0l0 10.5625zm0.140625 -13.375q0 0.4375 -0.25 0.734375q-0.25 0.296875 -0.734375 0.296875q-0.5 0 -0.75 -0.296875q-0.234375 -0.296875 -0.234375 -0.734375q0 -0.4375 0.234375 -0.734375q0.25 -0.3125 0.734375 -0.3125q0.5 0 0.75 0.3125q0.25 0.3125 0.25 0.734375zm8.017578 13.375q-0.15625 -0.34375 -0.234375 -1.15625q-0.90625 1.359375 -2.34375 1.359375q-1.4375 0 -2.25 -0.8125q-0.796875 -0.8125 -0.796875 -2.265625q0 -1.625 1.09375 -2.5625q1.09375 -0.953125 3.0 -0.96875l1.265625 0l0 -1.125q0 -0.953125 -0.421875 -1.34375q-0.40625 -0.40625 -1.265625 -0.40625q-0.78125 0 -1.28125 0.46875q-0.484375 0.46875 -0.484375 1.171875l-1.71875 0q0 -0.8125 0.46875 -1.546875q0.484375 -0.734375 1.296875 -1.15625q0.8125 -0.421875 1.796875 -0.421875q1.625 0 2.46875 0.8125q0.84375 0.796875 0.859375 2.34375l0 5.328125q0.015625 1.21875 0.34375 2.125l0 0.15625l-1.796875 0zm-2.3125 -1.375q0.640625 0 1.21875 -0.34375q0.578125 -0.359375 0.828125 -0.890625l0 -2.515625l-0.96875 0q-1.234375 0.015625 -1.953125 0.546875q-0.703125 0.53125 -0.703125 1.484375q0 0.90625 0.359375 1.3125q0.359375 0.40625 1.21875 0.40625zm8.720703 -11.75l0 2.5625l1.578125 0l0 1.390625l-1.578125 0l0 6.546875q0 0.625 0.203125 0.953125q0.203125 0.328125 0.703125 0.328125q0.34375 0 0.6875 -0.125l-0.015625 1.46875q-0.59375 0.203125 -1.203125 0.203125q-1.03125 0 -1.5625 -0.734375q-0.53125 -0.734375 -0.53125 -2.078125l0 -6.5625l-1.625 0l0 -1.390625l1.625 0l0 -2.5625l1.71875 0zm7.408203 13.328125q-1.96875 0 -3.03125 -1.171875q-1.046875 -1.1875 -1.0625 -3.46875l0 -1.28125q0 -2.359375 1.03125 -3.703125q1.03125 -1.34375 2.875 -1.34375q1.859375 0 2.765625 1.1875q0.921875 1.171875 0.9375 3.671875l0 1.140625l-5.890625 0l0 0.25q0 1.6875 0.640625 2.46875q0.640625 0.765625 1.84375 0.765625q0.75 0 1.328125 -0.28125q0.59375 -0.296875 1.09375 -0.921875l0.90625 1.09375q-1.125 1.59375 -3.4375 1.59375zm-0.1875 -9.484375q-1.078125 0 -1.59375 0.75q-0.515625 0.734375 -0.578125 2.28125l4.15625 0l0 -0.234375q-0.078125 -1.5 -0.546875 -2.140625q-0.46875 -0.65625 -1.4375 -0.65625z" fill-rule="nonzero"/><path fill="#083042" d="m678.45447 261.09692l0 0c0 -3.4314575 2.7817383 -6.213196 6.213196 -6.213196l197.33734 0c1.6478271 0 3.2282104 0.65460205 4.3934326 1.8197937c1.1651611 1.1652222 1.8197632 2.745575 1.8197632 4.393402l0 57.55786c0 3.4314575 -2.7817383 6.213196 -6.213196 6.213196l-197.33734 0c-3.4314575 0 -6.213196 -2.7817383 -6.213196 -6.213196z" fill-rule="evenodd"/><path fill="#000000" fill-opacity="0.0" d="m671.41113 258.4019l220.72443 0l0 62.92914l-220.72443 0z" fill-rule="evenodd"/><path fill="#ffffff" d="m742.60144 296.14645l0 -14.21875l3.390625 0q2.484375 0 3.859375 1.5625q1.390625 1.546875 1.390625 4.375l0 2.375q0 2.828125 -1.40625 4.375q-1.390625 1.53125 -4.046875 1.53125l-3.1875 0zm1.796875 -12.671875l0 11.140625l1.421875 0q1.890625 0 2.75 -1.078125q0.875 -1.078125 0.90625 -3.203125l0 -2.515625q0 -2.25 -0.875 -3.296875q-0.859375 -1.046875 -2.609375 -1.046875l-1.59375 0zm13.150391 12.875q-1.96875 0 -3.03125 -1.171875q-1.046875 -1.1875 -1.0625 -3.46875l0 -1.28125q0 -2.359375 1.03125 -3.703125q1.03125 -1.34375 2.875 -1.34375q1.859375 0 2.765625 1.1875q0.921875 1.171875 0.9375 3.671875l0 1.140625l-5.890625 0l0 0.25q0 1.6875 0.640625 2.46875q0.640625 0.765625 1.84375 0.765625q0.75 0 1.328125 -0.28125q0.59375 -0.296875 1.09375 -0.921875l0.90625 1.09375q-1.125 1.59375 -3.4375 1.59375zm-0.1875 -9.484375q-1.078125 0 -1.59375 0.75q-0.515625 0.734375 -0.578125 2.28125l4.15625 0l0 -0.234375q-0.078125 -1.5 -0.546875 -2.140625q-0.46875 -0.65625 -1.4375 -0.65625zm6.5371094 9.28125l0 -9.171875l-1.375 0l0 -1.390625l1.375 0l0 -1.21875q0.03125 -1.625 0.8125 -2.515625q0.796875 -0.90625 2.234375 -0.90625q0.515625 0 1.046875 0.15625l-0.09375 1.46875q-0.375 -0.078125 -0.796875 -0.078125q-1.46875 0 -1.46875 2.09375l0 1.0l1.8125 0l0 1.390625l-1.8125 0l0 9.171875l-1.734375 0zm9.109375 0.203125q-1.96875 0 -3.03125 -1.171875q-1.046875 -1.1875 -1.0625 -3.46875l0 -1.28125q0 -2.359375 1.03125 -3.703125q1.03125 -1.34375 2.875 -1.34375q1.859375 0 2.765625 1.1875q0.921875 1.171875 0.9375 3.671875l0 1.140625l-5.890625 0l0 0.25q0 1.6875 0.640625 2.46875q0.640625 0.765625 1.84375 0.765625q0.75 0 1.328125 -0.28125q0.59375 -0.296875 1.09375 -0.921875l0.90625 1.09375q-1.125 1.59375 -3.4375 1.59375zm-0.1875 -9.484375q-1.078125 0 -1.59375 0.75q-0.515625 0.734375 -0.578125 2.28125l4.15625 0l0 -0.234375q-0.078125 -1.5 -0.546875 -2.140625q-0.46875 -0.65625 -1.4375 -0.65625zm10.146484 0.328125q-0.359375 -0.0625 -0.78125 -0.0625q-1.328125 0 -1.859375 1.453125l0 7.5625l-1.71875 0l0 -10.5625l1.671875 0l0.03125 1.0625q0.6875 -1.265625 1.96875 -1.265625q0.40625 0 0.671875 0.140625l0.015625 1.671875zm6.0839844 0q-0.359375 -0.0625 -0.78125 -0.0625q-1.328125 0 -1.859375 1.453125l0 7.5625l-1.71875 0l0 -10.5625l1.671875 0l0.03125 1.0625q0.6875 -1.265625 1.96875 -1.265625q0.40625 0 0.671875 0.140625l0.015625 1.671875zm6.7714844 8.953125q-0.15625 -0.34375 -0.234375 -1.15625q-0.90625 1.359375 -2.34375 1.359375q-1.4375 0 -2.25 -0.8125q-0.796875 -0.8125 -0.796875 -2.265625q0 -1.625 1.09375 -2.5625q1.09375 -0.953125 3.0 -0.96875l1.265625 0l0 -1.125q0 -0.953125 -0.421875 -1.34375q-0.40625 -0.40625 -1.265625 -0.40625q-0.78125 0 -1.28125 0.46875q-0.484375 0.46875 -0.484375 1.171875l-1.71875 0q0 -0.8125 0.46875 -1.546875q0.484375 -0.734375 1.296875 -1.15625q0.8125 -0.421875 1.796875 -0.421875q1.625 0 2.46875 0.8125q0.84375 0.796875 0.859375 2.34375l0 5.328125q0.015625 1.21875 0.34375 2.125l0 0.15625l-1.796875 0zm-2.3125 -1.375q0.640625 0 1.21875 -0.34375q0.578125 -0.359375 0.828125 -0.890625l0 -2.515625l-0.96875 0q-1.234375 0.015625 -1.953125 0.546875q-0.703125 0.53125 -0.703125 1.484375q0 0.90625 0.359375 1.3125q0.359375 0.40625 1.21875 0.40625zm14.111389 -3.40625q0 2.46875 -0.890625 3.734375q-0.890625 1.25 -2.578125 1.25q-1.6875 0 -2.53125 -1.453125l-0.078125 1.25l-1.578125 0l0 -15.0l1.71875 0l0 5.59375q0.859375 -1.359375 2.4375 -1.359375q1.75 0 2.609375 1.234375q0.875 1.234375 0.890625 3.703125l0 1.046875zm-1.71875 -0.984375q0 -1.875 -0.53125 -2.671875q-0.515625 -0.796875 -1.6875 -0.796875q-1.34375 0 -2.0 1.453125l0 5.03125q0.640625 1.421875 2.015625 1.421875q1.171875 0 1.671875 -0.8125q0.515625 -0.828125 0.53125 -2.5625l0 -1.0625zm5.7851562 5.765625l-1.734375 0l0 -15.0l1.734375 0l0 15.0zm6.486328 0.203125q-1.96875 0 -3.03125 -1.171875q-1.046875 -1.1875 -1.0625 -3.46875l0 -1.28125q0 -2.359375 1.03125 -3.703125q1.03125 -1.34375 2.875 -1.34375q1.859375 0 2.765625 1.1875q0.921875 1.171875 0.9375 3.671875l0 1.140625l-5.890625 0l0 0.25q0 1.6875 0.640625 2.46875q0.640625 0.765625 1.84375 0.765625q0.75 0 1.328125 -0.28125q0.59375 -0.296875 1.09375 -0.921875l0.90625 1.09375q-1.125 1.59375 -3.4375 1.59375zm-0.1875 -9.484375q-1.078125 0 -1.59375 0.75q-0.515625 0.734375 -0.578125 2.28125l4.15625 0l0 -0.234375q-0.078125 -1.5 -0.546875 -2.140625q-0.46875 -0.65625 -1.4375 -0.65625z" fill-rule="nonzero"/><path fill="#000000" fill-opacity="0.0" d="m580.5833 102.07336l201.8288 0l0 134.61417l-0.0020141602 0" fill-rule="evenodd"/><path stroke="#083042" stroke-width="3.0" stroke-linejoin="round" stroke-linecap="butt" d="m580.5833 102.07336l201.82886 0l0 116.61419" fill-rule="evenodd"/><path fill="#083042" stroke="#083042" stroke-width="3.0" stroke-linecap="butt" d="m777.457 218.68698l4.9536133 13.614853l4.956787 -13.613724z" fill-rule="evenodd"/><path fill="#ffffff" d="m346.97525 167.61063l269.38583 0l0 30.173218l-269.38583 0z" fill-rule="evenodd"/><path fill="#666666" d="m403.28363 175.5596l3.46875 10.828125l3.453125 -10.828125l2.15625 0l0 13.265625l-1.671875 0l0 -5.171875l0.15625 -5.171875l-3.46875 10.34375l-1.28125 0l-3.453125 -10.296875l0.15625 5.125l0 5.171875l-1.65625 0l0 -13.265625l2.140625 0zm13.451782 13.265625l-1.609375 0l0 -9.859375l1.609375 0l0 9.859375zm0.125 -12.46875q0 0.40625 -0.234375 0.6875q-0.21875 0.265625 -0.671875 0.265625q-0.46875 0 -0.703125 -0.265625q-0.21875 -0.28125 -0.21875 -0.6875q0 -0.40625 0.21875 -0.6875q0.234375 -0.296875 0.6875 -0.296875q0.46875 0 0.6875 0.296875q0.234375 0.28125 0.234375 0.6875zm2.1004639 7.09375q0 -2.296875 0.828125 -3.46875q0.84375 -1.1875 2.453125 -1.1875q1.5 0 2.28125 1.28125l0.09375 -1.109375l1.453125 0l0 9.953125q0 1.828125 -0.9375 2.796875q-0.9375 0.984375 -2.609375 0.984375q-0.734375 0 -1.640625 -0.359375q-0.90625 -0.359375 -1.359375 -0.890625l0.65625 -1.109375q1.0 0.984375 2.203125 0.984375q2.015625 0 2.078125 -2.1875l0 -1.28125q-0.78125 1.15625 -2.234375 1.15625q-1.53125 0 -2.390625 -1.15625q-0.84375 -1.15625 -0.875 -3.3125l0 -1.09375zm1.609375 0.921875q0 1.65625 0.484375 2.4375q0.484375 0.78125 1.59375 0.78125q1.203125 0 1.8125 -1.234375l0 -4.921875q-0.640625 -1.21875 -1.796875 -1.21875q-1.109375 0 -1.609375 0.78125q-0.484375 0.78125 -0.484375 2.390625l0 0.984375zm9.503998 -4.390625q0.921875 -1.1875 2.359375 -1.1875q2.609375 0 2.640625 3.484375l0 6.546875l-1.59375 0l0 -6.484375q0 -1.15625 -0.390625 -1.640625q-0.390625 -0.484375 -1.15625 -0.484375q-0.609375 0 -1.09375 0.40625q-0.46875 0.390625 -0.765625 1.046875l0 7.15625l-1.609375 0l0 -14.0l1.609375 0l0 5.15625zm9.509277 -3.40625l0 2.390625l1.484375 0l0 1.3125l-1.484375 0l0 6.109375q0 0.578125 0.1875 0.890625q0.203125 0.296875 0.65625 0.296875q0.328125 0 0.65625 -0.109375l-0.015625 1.359375q-0.546875 0.1875 -1.125 0.1875q-0.953125 0 -1.453125 -0.6875q-0.5 -0.6875 -0.5 -1.9375l0 -6.109375l-1.515625 0l0 -1.3125l1.515625 0l0 -2.390625l1.59375 0zm9.7836 0l0 2.390625l1.484375 0l0 1.3125l-1.484375 0l0 6.109375q0 0.578125 0.1875 0.890625q0.203125 0.296875 0.65625 0.296875q0.328125 0 0.65625 -0.109375l-0.015625 1.359375q-0.546875 0.1875 -1.125 0.1875q-0.953125 0 -1.453125 -0.6875q-0.5 -0.6875 -0.5 -1.9375l0 -6.109375l-1.515625 0l0 -1.3125l1.515625 0l0 -2.390625l1.59375 0zm8.480011 12.25q-0.15625 -0.3125 -0.21875 -1.078125q-0.859375 1.265625 -2.1875 1.265625q-1.328125 0 -2.09375 -0.75q-0.75 -0.765625 -0.75 -2.125q0 -1.5 1.015625 -2.375q1.03125 -0.890625 2.8125 -0.90625l1.1875 0l0 -1.046875q0 -0.890625 -0.40625 -1.265625q-0.390625 -0.375 -1.1875 -0.375q-0.734375 0 -1.1875 0.4375q-0.453125 0.4375 -0.453125 1.09375l-1.609375 0q0 -0.75 0.4375 -1.4375q0.453125 -0.6875 1.203125 -1.078125q0.765625 -0.390625 1.6875 -0.390625q1.515625 0 2.296875 0.75q0.796875 0.75 0.8125 2.1875l0 4.96875q0.015625 1.140625 0.3125 1.984375l0 0.140625l-1.671875 0zm-2.15625 -1.28125q0.59375 0 1.125 -0.328125q0.546875 -0.328125 0.796875 -0.828125l0 -2.34375l-0.921875 0q-1.140625 0.015625 -1.8125 0.515625q-0.65625 0.5 -0.65625 1.390625q0 0.828125 0.328125 1.21875q0.34375 0.375 1.140625 0.375zm8.498901 -3.234375l-0.859375 0.984375l0 3.53125l-1.609375 0l0 -14.0l1.609375 0l0 8.375l3.0625 -4.234375l1.9375 0l-3.140625 4.125l3.546875 5.734375l-1.875 0l-2.671875 -4.515625zm9.272644 4.703125q-1.84375 0 -2.828125 -1.09375q-0.984375 -1.109375 -1.0 -3.234375l0 -1.1875q0 -2.203125 0.953125 -3.453125q0.96875 -1.25 2.6875 -1.25q1.734375 0 2.578125 1.109375q0.859375 1.09375 0.875 3.421875l0 1.046875l-5.5 0l0 0.234375q0 1.59375 0.59375 2.3125q0.609375 0.71875 1.71875 0.71875q0.71875 0 1.25 -0.265625q0.546875 -0.28125 1.03125 -0.859375l0.828125 1.015625q-1.046875 1.484375 -3.1875 1.484375zm-0.1875 -8.84375q-1.0 0 -1.484375 0.6875q-0.484375 0.6875 -0.546875 2.140625l3.875 0l0 -0.21875q-0.0625 -1.40625 -0.5 -2.0q-0.4375 -0.609375 -1.34375 -0.609375zm14.742737 8.65625q-0.15625 -0.3125 -0.21875 -1.078125q-0.859375 1.265625 -2.1875 1.265625q-1.328125 0 -2.09375 -0.75q-0.75 -0.765625 -0.75 -2.125q0 -1.5 1.015625 -2.375q1.03125 -0.890625 2.8125 -0.90625l1.1875 0l0 -1.046875q0 -0.890625 -0.40625 -1.265625q-0.390625 -0.375 -1.1875 -0.375q-0.734375 0 -1.1875 0.4375q-0.453125 0.4375 -0.453125 1.09375l-1.609375 0q0 -0.75 0.4375 -1.4375q0.453125 -0.6875 1.203125 -1.078125q0.765625 -0.390625 1.6875 -0.390625q1.515625 0 2.296875 0.75q0.796875 0.75 0.8125 2.1875l0 4.96875q0.015625 1.140625 0.3125 1.984375l0 0.140625l-1.671875 0zm-2.15625 -1.28125q0.59375 0 1.125 -0.328125q0.546875 -0.328125 0.796875 -0.828125l0 -2.34375l-0.921875 0q-1.140625 0.015625 -1.8125 0.515625q-0.65625 0.5 -0.65625 1.390625q0 0.828125 0.328125 1.21875q0.34375 0.375 1.140625 0.375zm12.021271 1.28125l-1.609375 0l0 -14.0l1.609375 0l0 14.0zm2.1942444 -5.390625q0 -2.140625 1.046875 -3.390625q1.046875 -1.25 2.75 -1.25q1.71875 0 2.765625 1.21875q1.046875 1.21875 1.0625 3.3125l0 1.046875q0 2.140625 -1.046875 3.390625q-1.03125 1.25 -2.75 1.25q-1.71875 0 -2.75 -1.203125q-1.03125 -1.21875 -1.078125 -3.296875l0 -1.078125zm1.625 0.9375q0 1.515625 0.59375 2.390625q0.59375 0.875 1.609375 0.875q2.125 0 2.1875 -3.078125l0 -1.125q0 -1.5 -0.609375 -2.375q-0.59375 -0.890625 -1.59375 -0.890625q-1.0 0 -1.59375 0.890625q-0.59375 0.875 -0.59375 2.375l0 0.9375zm9.598938 -5.40625l0.046875 1.0625q0.9374695 -1.234375 2.4062195 -1.234375q2.609375 0 2.640625 3.484375l0 6.546875l-1.59375 0l0 -6.484375q0 -1.15625 -0.390625 -1.640625q-0.390625 -0.484375 -1.15625 -0.484375q-0.609375 0 -1.09375 0.40625q-0.46871948 0.390625 -0.7655945 1.046875l0 7.15625l-1.609375 0l0 -9.859375l1.515625 0zm7.1993713 4.484375q0 -2.296875 0.828125 -3.46875q0.84375 -1.1875 2.453125 -1.1875q1.5 0 2.28125 1.28125l0.09375 -1.109375l1.453125 0l0 9.953125q0 1.828125 -0.9375 2.796875q-0.9375 0.984375 -2.609375 0.984375q-0.734375 0 -1.640625 -0.359375q-0.90625 -0.359375 -1.359375 -0.890625l0.65625 -1.109375q1.0 0.984375 2.203125 0.984375q2.015625 0 2.078125 -2.1875l0 -1.28125q-0.78125 1.15625 -2.234375 1.15625q-1.53125 0 -2.390625 -1.15625q-0.84375 -1.15625 -0.875 -3.3125l0 -1.09375zm1.609375 0.921875q0 1.65625 0.484375 2.4375q0.484375 0.78125 1.59375 0.78125q1.203125 0 1.8125 -1.234375l0 -4.921875q-0.640625 -1.21875 -1.796875 -1.21875q-1.109375 0 -1.609375 0.78125q-0.484375 0.78125 -0.484375 2.390625l0 0.984375zm14.276367 -7.796875l0 2.390625l1.484375 0l0 1.3125l-1.484375 0l0 6.109375q0 0.578125 0.1875 0.890625q0.203125 0.296875 0.65625 0.296875q0.328125 0 0.65625 -0.109375l-0.015625 1.359375q-0.546875 0.1875 -1.125 0.1875q-0.953125 0 -1.453125 -0.6875q-0.5 -0.6875 -0.5 -1.9375l0 -6.109375l-1.515625 0l0 -1.3125l1.515625 0l0 -2.390625l1.59375 0zm5.1362305 12.25l-1.609375 0l0 -9.859375l1.609375 0l0 9.859375zm0.125 -12.46875q0 0.40625 -0.234375 0.6875q-0.21875 0.265625 -0.671875 0.265625q-0.46875 0 -0.703125 -0.265625q-0.21875 -0.28125 -0.21875 -0.6875q0 -0.40625 0.21875 -0.6875q0.234375 -0.296875 0.6875 -0.296875q0.46875 0 0.6875 0.296875q0.234375 0.28125 0.234375 0.6875zm3.9285889 2.609375l0.046875 0.90625q0.890625 -1.078125 2.375 -1.078125q1.640625 0 2.296875 1.421875q0.9375 -1.421875 2.59375 -1.421875q2.71875 0 2.78125 3.390625l0 6.640625l-1.59375 0l0 -6.484375q0 -1.078125 -0.390625 -1.59375q-0.375 -0.53125 -1.296875 -0.53125q-0.71875 0 -1.1875 0.5625q-0.453125 0.5625 -0.515625 1.4375l0 6.609375l-1.625 0l0 -6.5625q-0.03125 -2.046875 -1.671875 -2.046875q-1.21875 0 -1.71875 1.21875l0 7.390625l-1.59375 0l0 -9.859375l1.5 0zm16.053345 10.046875q-1.84375 0 -2.828125 -1.09375q-0.984375 -1.109375 -1.0 -3.234375l0 -1.1875q0 -2.203125 0.953125 -3.453125q0.96875 -1.25 2.6875 -1.25q1.734375 0 2.578125 1.109375q0.859375 1.09375 0.875 3.421875l0 1.046875l-5.5 0l0 0.234375q0 1.59375 0.59375 2.3125q0.609375 0.71875 1.71875 0.71875q0.71875 0 1.25 -0.265625q0.546875 -0.28125 1.03125 -0.859375l0.828125 1.015625q-1.046875 1.484375 -3.1875 1.484375zm-0.1875 -8.84375q-1.0 0 -1.484375 0.6875q-0.484375 0.6875 -0.546875 2.140625l3.875 0l0 -0.21875q-0.0625 -1.40625 -0.5 -2.0q-0.4375 -0.609375 -1.34375 -0.609375z" fill-rule="nonzero"/><path fill="#ffffff" d="m647.08813 167.61063l269.3858 0l0 30.173218l-269.3858 0z" fill-rule="evenodd"/><path fill="#666666" d="m744.5625 184.6221q-0.109375 2.125 -1.203125 3.265625q-1.09375 1.125 -3.078125 1.125q-1.984375 0 -3.171875 -1.515625q-1.171875 -1.515625 -1.171875 -4.125l0 -2.40625q0 -2.578125 1.203125 -4.078125q1.21875 -1.515625 3.296875 -1.515625q1.921875 0 2.96875 1.15625q1.0625 1.15625 1.15625 3.296875l-1.6875 0q-0.109375 -1.625 -0.6875 -2.3125q-0.5625 -0.6875 -1.75 -0.6875q-1.359375 0 -2.09375 1.0625q-0.71875 1.046875 -0.71875 3.109375l0 2.421875q0 2.015625 0.671875 3.09375q0.6875 1.078125 1.984375 1.078125q1.3125 0 1.875 -0.640625q0.578125 -0.65625 0.71875 -2.328125l1.6875 0zm7.107361 4.203125q-0.15625 -0.3125 -0.21875 -1.078125q-0.859375 1.265625 -2.1875 1.265625q-1.328125 0 -2.09375 -0.75q-0.75 -0.765625 -0.75 -2.125q0 -1.5 1.015625 -2.375q1.03125 -0.890625 2.8125 -0.90625l1.1875 0l0 -1.046875q0 -0.890625 -0.40625 -1.265625q-0.390625 -0.375 -1.1875 -0.375q-0.734375 0 -1.1875 0.4375q-0.453125 0.4375 -0.453125 1.09375l-1.609375 0q0 -0.75 0.4375 -1.4375q0.453125 -0.6875 1.203125 -1.078125q0.765625 -0.390625 1.6875 -0.390625q1.515625 0 2.296875 0.75q0.796875 0.75 0.8125 2.1875l0 4.96875q0.015625 1.140625 0.3125 1.984375l0 0.140625l-1.671875 0zm-2.15625 -1.28125q0.59375 0 1.125 -0.328125q0.546875 -0.328125 0.796875 -0.828125l0 -2.34375l-0.921875 0q-1.140625 0.015625 -1.8125 0.515625q-0.65625 0.5 -0.65625 1.390625q0 0.828125 0.328125 1.21875q0.34375 0.375 1.140625 0.375zm7.5301514 -8.578125l0.046875 1.0625q0.9375 -1.234375 2.40625 -1.234375q2.609375 0 2.640625 3.484375l0 6.546875l-1.59375 0l0 -6.484375q0 -1.15625 -0.390625 -1.640625q-0.390625 -0.484375 -1.15625 -0.484375q-0.609375 0 -1.09375 0.40625q-0.46875 0.390625 -0.765625 1.046875l0 7.15625l-1.609375 0l0 -9.859375l1.515625 0zm15.862366 1.515625q-0.34375 -0.0625 -0.734375 -0.0625q-1.234375 0 -1.734375 1.359375l0 7.046875l-1.609375 0l0 -9.859375l1.5625 0l0.03125 1.0q0.640625 -1.171875 1.828125 -1.171875q0.390625 0 0.640625 0.125l0.015625 1.5625zm6.628357 7.484375q-0.8125 1.046875 -2.34375 1.046875q-1.34375 0 -2.03125 -0.921875q-0.671875 -0.9375 -0.6875 -2.703125l0 -6.421875l1.609375 0l0 6.3125q0 2.296875 1.375 2.296875q1.46875 0 2.03125 -1.3125l0 -7.296875l1.609375 0l0 9.859375l-1.53125 0l-0.03125 -0.859375zm5.5027466 -9.0l0.046875 1.0625q0.9375 -1.234375 2.40625 -1.234375q2.609375 0 2.640625 3.484375l0 6.546875l-1.59375 0l0 -6.484375q0 -1.15625 -0.390625 -1.640625q-0.390625 -0.484375 -1.15625 -0.484375q-0.609375 0 -1.09375 0.40625q-0.46875 0.390625 -0.765625 1.046875l0 7.15625l-1.609375 0l0 -9.859375l1.515625 0zm13.518616 9.859375l-1.609375 0l0 -14.0l1.609375 0l0 14.0zm7.61615 0q-0.15625 -0.3125 -0.21875 -1.078125q-0.859375 1.265625 -2.1875 1.265625q-1.328125 0 -2.09375 -0.75q-0.75 -0.765625 -0.75 -2.125q0 -1.5 1.015625 -2.375q1.03125 -0.890625 2.8125 -0.90625l1.1875 0l0 -1.046875q0 -0.890625 -0.40625 -1.265625q-0.390625 -0.375 -1.1875 -0.375q-0.734375 0 -1.1875 0.4375q-0.453125 0.4375 -0.453125 1.09375l-1.609375 0q0 -0.75 0.4375 -1.4375q0.453125 -0.6875 1.203125 -1.078125q0.765625 -0.390625 1.6875 -0.390625q1.515625 0 2.296875 0.75q0.796875 0.75 0.8125 2.1875l0 4.96875q0.015625 1.140625 0.3125 1.984375l0 0.140625l-1.671875 0zm-2.15625 -1.28125q0.59375 0 1.125 -0.328125q0.546875 -0.328125 0.796875 -0.828125l0 -2.34375l-0.921875 0q-1.140625 0.015625 -1.8125 0.515625q-0.65625 0.5 -0.65625 1.390625q0 0.828125 0.328125 1.21875q0.34375 0.375 1.140625 0.375zm8.123901 -10.96875l0 2.390625l1.484375 0l0 1.3125l-1.484375 0l0 6.109375q0 0.578125 0.1875 0.890625q0.203125 0.296875 0.65625 0.296875q0.328125 0 0.65625 -0.109375l-0.015625 1.359375q-0.546875 0.1875 -1.125 0.1875q-0.953125 0 -1.453125 -0.6875q-0.5 -0.6875 -0.5 -1.9375l0 -6.109375l-1.515625 0l0 -1.3125l1.515625 0l0 -2.390625l1.59375 0zm6.9331055 12.4375q-1.84375 0 -2.828125 -1.09375q-0.984375 -1.109375 -1.0 -3.234375l0 -1.1875q0 -2.203125 0.953125 -3.453125q0.96875 -1.25 2.6875 -1.25q1.734375 0 2.578125 1.109375q0.859375 1.09375 0.875 3.421875l0 1.046875l-5.5 0l0 0.234375q0 1.59375 0.59375 2.3125q0.609375 0.71875 1.71875 0.71875q0.71875 0 1.25 -0.265625q0.546875 -0.28125 1.03125 -0.859375l0.828125 1.015625q-1.046875 1.484375 -3.1875 1.484375zm-0.1875 -8.84375q-1.0 0 -1.484375 0.6875q-0.484375 0.6875 -0.546875 2.140625l3.875 0l0 -0.21875q-0.0625 -1.40625 -0.5 -2.0q-0.4375 -0.609375 -1.34375 -0.609375zm9.470398 0.3125q-0.34375 -0.0625 -0.734375 -0.0625q-1.234375 0 -1.734375 1.359375l0 7.046875l-1.609375 0l0 -9.859375l1.5625 0l0.03125 1.0q0.640625 -1.171875 1.828125 -1.171875q0.390625 0 0.640625 0.125l0.015625 1.5625z" fill-rule="nonzero"/><path fill="#ffffff" d="m46.862354 167.61063l269.3858 0l0 30.173218l-269.3858 0z" fill-rule="evenodd"/><path fill="#666666" d="m104.86294 188.82523l-1.671875 0l-5.3125 -10.21875l0 10.21875l-1.671875 0l0 -13.265625l1.671875 0l5.328125 10.265625l0 -10.265625l1.65625 0l0 13.265625zm6.1914673 0.1875q-1.84375 0 -2.828125 -1.09375q-0.984375 -1.109375 -1.0 -3.234375l0 -1.1875q0 -2.203125 0.953125 -3.453125q0.96875 -1.25 2.6875 -1.25q1.734375 0 2.578125 1.109375q0.859375 1.09375 0.875 3.421875l0 1.046875l-5.5 0l0 0.234375q0 1.59375 0.59375 2.3125q0.609375 0.71875 1.71875 0.71875q0.71875 0 1.25 -0.265625q0.546875 -0.28125 1.03125 -0.859375l0.828125 1.015625q-1.046875 1.484375 -3.1875 1.484375zm-0.1875 -8.84375q-1.0 0 -1.484375 0.6875q-0.484375 0.6875 -0.546875 2.140625l3.875 0l0 -0.21875q-0.0625 -1.40625 -0.5 -2.0q-0.4375 -0.609375 -1.34375 -0.609375zm8.923508 8.84375q-1.84375 0 -2.828125 -1.09375q-0.984375 -1.109375 -1.0 -3.234375l0 -1.1875q0 -2.203125 0.953125 -3.453125q0.96875 -1.25 2.6875 -1.25q1.734375 0 2.578125 1.109375q0.859375 1.09375 0.875 3.421875l0 1.046875l-5.5 0l0 0.234375q0 1.59375 0.59375 2.3125q0.609375 0.71875 1.71875 0.71875q0.71875 0 1.25 -0.265625q0.546875 -0.28125 1.03125 -0.859375l0.828125 1.015625q-1.046875 1.484375 -3.1875 1.484375zm-0.1875 -8.84375q-1.0 0 -1.484375 0.6875q-0.484375 0.6875 -0.546875 2.140625l3.875 0l0 -0.21875q-0.0625 -1.40625 -0.5 -2.0q-0.4375 -0.609375 -1.34375 -0.609375zm5.0485077 3.28125q0 -2.28125 0.84375 -3.46875q0.859375 -1.1875 2.453125 -1.1875q1.4218674 0 2.2187424 1.140625l0 -5.109375l1.609375 0l0 14.0l-1.484375 0l-0.078125 -1.0625q-0.796875 1.25 -2.2656174 1.25q-1.53125 0 -2.40625 -1.1875q-0.859375 -1.203125 -0.890625 -3.359375l0 -1.015625zm1.625 0.921875q0 1.65625 0.484375 2.4375q0.5 0.78125 1.6093674 0.78125q1.203125 0 1.796875 -1.21875l0 -4.96875q-0.625 -1.1875 -1.796875 -1.1875q-1.1093674 0 -1.6093674 0.78125q-0.484375 0.78125 -0.484375 2.390625l0 0.984375zm12.770866 1.9375q0 -0.53125 -0.40625 -0.90625q-0.390625 -0.375 -1.5 -0.875q-1.3125 -0.53125 -1.84375 -0.90625q-0.53125 -0.390625 -0.796875 -0.875q-0.265625 -0.484375 -0.265625 -1.15625q0 -1.203125 0.875 -2.0q0.890625 -0.796875 2.25 -0.796875q1.4375 0 2.3125 0.84375q0.875 0.828125 0.875 2.140625l-1.59375 0q0 -0.671875 -0.453125 -1.140625q-0.4375 -0.46875 -1.140625 -0.46875q-0.703125 0 -1.109375 0.375q-0.40625 0.359375 -0.40625 0.984375q0 0.484375 0.296875 0.796875q0.296875 0.296875 1.421875 0.78125q1.796875 0.703125 2.4375 1.375q0.65625 0.671875 0.65625 1.703125q0 1.28125 -0.890625 2.0625q-0.875 0.765625 -2.359375 0.765625q-1.546875 0 -2.5 -0.875q-0.953125 -0.890625 -0.953125 -2.25l1.609375 0q0.03125 0.8125 0.5 1.28125q0.484375 0.46875 1.34375 0.46875q0.796875 0 1.21875 -0.359375q0.421875 -0.359375 0.421875 -0.96875zm10.084015 -9.734375l0 2.390625l1.484375 0l0 1.3125l-1.484375 0l0 6.109375q0 0.578125 0.1875 0.890625q0.203125 0.296875 0.65625 0.296875q0.328125 0 0.65625 -0.109375l-0.015625 1.359375q-0.546875 0.1875 -1.125 0.1875q-0.953125 0 -1.453125 -0.6875q-0.5 -0.6875 -0.5 -1.9375l0 -6.109375l-1.515625 0l0 -1.3125l1.515625 0l0 -2.390625l1.59375 0zm2.875824 6.859375q0 -2.140625 1.046875 -3.390625q1.046875 -1.25 2.75 -1.25q1.71875 0 2.765625 1.21875q1.046875 1.21875 1.0625 3.3125l0 1.046875q0 2.140625 -1.046875 3.390625q-1.03125 1.25 -2.75 1.25q-1.71875 0 -2.75 -1.203125q-1.03125 -1.21875 -1.078125 -3.296875l0 -1.078125zm1.625 0.9375q0 1.515625 0.59375 2.390625q0.59375 0.875 1.609375 0.875q2.125 0 2.1875 -3.078125l0 -1.125q0 -1.5 -0.609375 -2.375q-0.59375 -0.890625 -1.59375 -0.890625q-1.0 0 -1.59375 0.890625q-0.59375 0.875 -0.59375 2.375l0 0.9375zm16.433792 -3.890625q-0.34375 -0.0625 -0.734375 -0.0625q-1.234375 0 -1.734375 1.359375l0 7.046875l-1.609375 0l0 -9.859375l1.5625 0l0.03125 1.0q0.640625 -1.171875 1.828125 -1.171875q0.390625 0 0.640625 0.125l0.015625 1.5625zm6.6283417 7.484375q-0.8125 1.046875 -2.34375 1.046875q-1.34375 0 -2.03125 -0.921875q-0.671875 -0.9375 -0.6875 -2.703125l0 -6.421875l1.609375 0l0 6.3125q0 2.296875 1.375 2.296875q1.46875 0 2.03125 -1.3125l0 -7.296875l1.609375 0l0 9.859375l-1.53125 0l-0.03125 -0.859375zm5.502777 -9.0l0.046875 1.0625q0.9375 -1.234375 2.40625 -1.234375q2.609375 0 2.640625 3.484375l0 6.546875l-1.59375 0l0 -6.484375q0 -1.15625 -0.390625 -1.640625q-0.390625 -0.484375 -1.15625 -0.484375q-0.609375 0 -1.09375 0.40625q-0.46875 0.390625 -0.765625 1.046875l0 7.15625l-1.609375 0l0 -9.859375l1.515625 0zm15.862366 1.515625q-0.34375 -0.0625 -0.734375 -0.0625q-1.234375 0 -1.734375 1.359375l0 7.046875l-1.609375 0l0 -9.859375l1.5625 0l0.03125 1.0q0.640625 -1.171875 1.828125 -1.171875q0.390625 0 0.640625 0.125l0.015625 1.5625zm3.3314667 8.34375l-1.609375 0l0 -9.859375l1.609375 0l0 9.859375zm0.125 -12.46875q0 0.40625 -0.234375 0.6875q-0.21875 0.265625 -0.671875 0.265625q-0.46875 0 -0.703125 -0.265625q-0.21875 -0.28125 -0.21875 -0.6875q0 -0.40625 0.21875 -0.6875q0.234375 -0.296875 0.6875 -0.296875q0.46875 0 0.6875 0.296875q0.234375 0.28125 0.234375 0.6875zm2.1004791 7.09375q0 -2.296875 0.828125 -3.46875q0.84375 -1.1875 2.453125 -1.1875q1.5 0 2.28125 1.28125l0.09375 -1.109375l1.453125 0l0 9.953125q0 1.828125 -0.9375 2.796875q-0.9375 0.984375 -2.609375 0.984375q-0.734375 0 -1.640625 -0.359375q-0.90625 -0.359375 -1.359375 -0.890625l0.65625 -1.109375q1.0 0.984375 2.203125 0.984375q2.015625 0 2.078125 -2.1875l0 -1.28125q-0.78125 1.15625 -2.234375 1.15625q-1.53125 0 -2.390625 -1.15625q-0.84375 -1.15625 -0.875 -3.3125l0 -1.09375zm1.609375 0.921875q0 1.65625 0.484375 2.4375q0.484375 0.78125 1.59375 0.78125q1.203125 0 1.8125 -1.234375l0 -4.921875q-0.640625 -1.21875 -1.796875 -1.21875q-1.109375 0 -1.609375 0.78125q-0.484375 0.78125 -0.484375 2.390625l0 0.984375zm9.503983 -4.390625q0.921875 -1.1875 2.359375 -1.1875q2.609375 0 2.640625 3.484375l0 6.546875l-1.59375 0l0 -6.484375q0 -1.15625 -0.390625 -1.640625q-0.390625 -0.484375 -1.15625 -0.484375q-0.609375 0 -1.09375 0.40625q-0.46875 0.390625 -0.765625 1.046875l0 7.15625l-1.609375 0l0 -14.0l1.609375 0l0 5.15625zm9.509293 -3.40625l0 2.390625l1.484375 0l0 1.3125l-1.484375 0l0 6.109375q0 0.578125 0.1875 0.890625q0.203125 0.296875 0.65625 0.296875q0.328125 0 0.65625 -0.109375l-0.015625 1.359375q-0.546875 0.1875 -1.125 0.1875q-0.953125 0 -1.453125 -0.6875q-0.5 -0.6875 -0.5 -1.9375l0 -6.109375l-1.515625 0l0 -1.3125l1.515625 0l0 -2.390625l1.59375 0zm12.75235 12.25q-0.15625 -0.3125 -0.21875 -1.078125q-0.859375 1.265625 -2.1875 1.265625q-1.328125 0 -2.09375 -0.75q-0.75 -0.765625 -0.75 -2.125q0 -1.5 1.015625 -2.375q1.03125 -0.890625 2.8125 -0.90625l1.1875 0l0 -1.046875q0 -0.890625 -0.40625 -1.265625q-0.390625 -0.375 -1.1875 -0.375q-0.734375 0 -1.1875 0.4375q-0.453125 0.4375 -0.453125 1.09375l-1.609375 0q0 -0.75 0.4375 -1.4375q0.453125 -0.6875 1.203125 -1.078125q0.765625 -0.390625 1.6875 -0.390625q1.515625 0 2.296875 0.75q0.796875 0.75 0.8125 2.1875l0 4.96875q0.015625 1.140625 0.3125 1.984375l0 0.140625l-1.671875 0zm-2.15625 -1.28125q0.59375 0 1.125 -0.328125q0.546875 -0.328125 0.796875 -0.828125l0 -2.34375l-0.921875 0q-1.140625 0.015625 -1.8125 0.515625q-0.65625 0.5 -0.65625 1.390625q0 0.828125 0.328125 1.21875q0.34375 0.375 1.140625 0.375zm13.358292 -1.546875l1.5 -7.03125l1.59375 0l-2.40625 9.859375l-1.296875 0l-1.921875 -7.046875l-1.875 7.046875l-1.296875 0l-2.390625 -9.859375l1.59375 0l1.53125 6.859375l1.828125 -6.859375l1.265625 0l1.875 7.03125zm9.859131 2.828125q-0.15625 -0.3125 -0.21875 -1.078125q-0.859375 1.265625 -2.1875153 1.265625q-1.328125 0 -2.09375 -0.75q-0.75 -0.765625 -0.75 -2.125q0 -1.5 1.015625 -2.375q1.03125 -0.890625 2.8125153 -0.90625l1.1875 0l0 -1.046875q0 -0.890625 -0.40625 -1.265625q-0.390625 -0.375 -1.1875 -0.375q-0.73439026 0 -1.1875153 0.4375q-0.453125 0.4375 -0.453125 1.09375l-1.609375 0q0 -0.75 0.4375 -1.4375q0.453125 -0.6875 1.203125 -1.078125q0.765625 -0.390625 1.6875153 -0.390625q1.515625 0 2.296875 0.75q0.796875 0.75 0.8125 2.1875l0 4.96875q0.015625 1.140625 0.3125 1.984375l0 0.140625l-1.671875 0zm-2.1562653 -1.28125q0.59376526 0 1.1250153 -0.328125q0.546875 -0.328125 0.796875 -0.828125l0 -2.34375l-0.921875 0q-1.1406403 0.015625 -1.8125153 0.515625q-0.65625 0.5 -0.65625 1.390625q0 0.828125 0.328125 1.21875q0.34375 0.375 1.140625 0.375zm8.580948 -1.390625l1.78125 -7.1875l1.71875 0l-3.21875 11.25q-0.375 1.265625 -1.046875 1.921875q-0.65625 0.671875 -1.5 0.671875q-0.328125 0 -0.84375 -0.15625l0 -1.359375l0.359375 0.03125q0.703125 0 1.09375 -0.328125q0.40625 -0.328125 0.640625 -1.15625l0.328125 -1.09375l-2.90625 -9.78125l1.765625 0l1.828125 7.1875z" fill-rule="nonzero"/><path fill="#000000" fill-opacity="0.0" d="m180.93208 335.073l0 43.98932l-84.40945 0l0 89.396515" fill-rule="evenodd"/><path stroke="#083042" stroke-width="3.0" stroke-linejoin="round" stroke-linecap="butt" d="m180.93208 335.073l0 43.98935l-84.40945 0l0 71.396484" fill-rule="evenodd"/><path fill="#083042" stroke="#083042" stroke-width="3.0" stroke-linecap="butt" d="m91.567444 450.45883l4.9551926 13.614288l4.9552 -13.614288z" fill-rule="evenodd"/><path fill="#000000" fill-opacity="0.0" d="m180.93208 335.073l0 43.98932l84.40944 0l0 89.396515" fill-rule="evenodd"/><path stroke="#083042" stroke-width="3.0" stroke-linejoin="round" stroke-linecap="butt" d="m180.93208 335.073l0 43.98935l84.40944 0l0 71.396484" fill-rule="evenodd"/><path fill="#083042" stroke="#083042" stroke-width="3.0" stroke-linecap="butt" d="m260.38635 450.45883l4.9551697 13.614288l4.9552 -13.614288z" fill-rule="evenodd"/><path fill="#d6f0ff" d="m18.626638 478.67282l153.82678 0l0 46.614166l-153.82678 0z" fill-rule="evenodd"/><path fill="#000000" fill-opacity="0.0" d="m18.083933 482.1496l153.82677 0l0 39.18109l-153.82677 0z" fill-rule="evenodd"/><path fill="#000000" d="m62.642826 503.50455q-0.125 2.28125 -1.296875 3.5q-1.15625 1.21875 -3.28125 1.21875q-2.140625 0 -3.40625 -1.625q-1.25 -1.640625 -1.25 -4.421875l0 -2.578125q0 -2.765625 1.28125 -4.375q1.296875 -1.625 3.53125 -1.625q2.0625 0 3.1875 1.25q1.140625 1.234375 1.234375 3.515625l-1.8125 0q-0.109375 -1.734375 -0.734375 -2.46875q-0.609375 -0.75 -1.875 -0.75q-1.453125 0 -2.234375 1.140625q-0.78125 1.140625 -0.78125 3.328125l0 2.609375q0 2.15625 0.71875 3.3125q0.734375 1.15625 2.125 1.15625q1.40625 0 2.015625 -0.6875q0.625 -0.703125 0.765625 -2.5l1.8125 0zm1.8066368 -1.25q0 -2.3125 1.125 -3.65625q1.125 -1.34375 2.953125 -1.34375q1.84375 0 2.953125 1.3125q1.125 1.3125 1.15625 3.5625l0 1.109375q0 2.296875 -1.125 3.640625q-1.109375 1.34375 -2.96875 1.34375q-1.828125 0 -2.9375 -1.296875q-1.109375 -1.3125 -1.15625 -3.53125l0 -1.140625zm1.734375 0.984375q0 1.640625 0.640625 2.578125q0.640625 0.921875 1.71875 0.921875q2.296875 0 2.359375 -3.296875l0 -1.1875q0 -1.625 -0.65625 -2.5625q-0.640625 -0.953125 -1.71875 -0.953125q-1.0625 0 -1.703125 0.953125q-0.640625 0.9375 -0.640625 2.546875l0 1.0zm13.0390625 -4.171875q-0.359375 -0.0625 -0.78125 -0.0625q-1.328125 0 -1.859375 1.453125l0 7.5625l-1.71875 0l0 -10.5625l1.671875 0l0.03125 1.0625q0.6875 -1.265625 1.96875 -1.265625q0.40625 0 0.671875 0.140625l0.015625 1.671875zm1.1542969 3.1875q0 -2.3125 1.125 -3.65625q1.125 -1.34375 2.953125 -1.34375q1.84375 0 2.953125 1.3125q1.125 1.3125 1.15625 3.5625l0 1.109375q0 2.296875 -1.125 3.640625q-1.109375 1.34375 -2.96875 1.34375q-1.828125 0 -2.9375 -1.296875q-1.109375 -1.3125 -1.15625 -3.53125l0 -1.140625zm1.734375 0.984375q0 1.640625 0.640625 2.578125q0.640625 0.921875 1.71875 0.921875q2.296875 0 2.359375 -3.296875l0 -1.1875q0 -1.625 -0.65625 -2.5625q-0.640625 -0.953125 -1.71875 -0.953125q-1.0625 0 -1.703125 0.953125q-0.640625 0.9375 -0.640625 2.546875l0 1.0zm14.0703125 3.859375q-0.859375 1.125 -2.515625 1.125q-1.4375 0 -2.171875 -0.984375q-0.734375 -1.0 -0.734375 -2.90625l0 -6.875l1.71875 0l0 6.75q0 2.46875 1.484375 2.46875q1.5625 0 2.15625 -1.40625l0 -7.8125l1.734375 0l0 10.5625l-1.640625 0l-0.03125 -0.921875zm6.5429688 -12.203125l0 2.5625l1.578125 0l0 1.390625l-1.578125 0l0 6.546875q0 0.625 0.203125 0.953125q0.203125 0.328125 0.703125 0.328125q0.34375 0 0.6875 -0.125l-0.015625 1.46875q-0.59375 0.203125 -1.203125 0.203125q-1.03125 0 -1.5625 -0.734375q-0.53125 -0.734375 -0.53125 -2.078125l0 -6.5625l-1.625 0l0 -1.390625l1.625 0l0 -2.5625l1.71875 0zm5.501953 13.125l-1.734375 0l0 -10.5625l1.734375 0l0 10.5625zm0.140625 -13.375q0 0.4375 -0.25 0.734375q-0.25 0.296875 -0.734375 0.296875q-0.5 0 -0.75 -0.296875q-0.234375 -0.296875 -0.234375 -0.734375q0 -0.4375 0.234375 -0.734375q0.25 -0.3125 0.734375 -0.3125q0.5 0 0.75 0.3125q0.25 0.3125 0.25 0.734375zm4.205078 2.8125l0.046875 1.140625q1.0 -1.34375 2.5625 -1.34375q2.8125 0 2.84375 3.75l0 7.015625l-1.71875 0l0 -6.9375q0 -1.25 -0.421875 -1.765625q-0.40625 -0.53125 -1.234375 -0.53125q-0.640625 0 -1.15625 0.4375q-0.515625 0.421875 -0.828125 1.125l0 7.671875l-1.71875 0l0 -10.5625l1.625 0zm11.818359 10.765625q-1.96875 0 -3.03125 -1.171875q-1.046875 -1.1875 -1.0625 -3.46875l0 -1.28125q0 -2.359375 1.03125 -3.703125q1.03125 -1.34375 2.875 -1.34375q1.859375 0 2.765625 1.1875q0.921875 1.171875 0.9375 3.671875l0 1.140625l-5.890625 0l0 0.25q0 1.6875 0.640625 2.46875q0.640625 0.765625 1.84375 0.765625q0.75 0 1.328125 -0.28125q0.59375 -0.296875 1.09375 -0.921875l0.90625 1.09375q-1.125 1.59375 -3.4375 1.59375zm-0.1875 -9.484375q-1.078125 0 -1.59375 0.75q-0.515625 0.734375 -0.578125 2.28125l4.15625 0l0 -0.234375q-0.078125 -1.5 -0.546875 -2.140625q-0.46875 -0.65625 -1.4375 -0.65625zm10.912109 6.578125q0 -0.5625 -0.421875 -0.953125q-0.40625 -0.40625 -1.609375 -0.9375q-1.40625 -0.578125 -1.984375 -0.984375q-0.5625 -0.421875 -0.84375 -0.9375q-0.28125 -0.53125 -0.28125 -1.25q0 -1.28125 0.9375 -2.140625q0.953125 -0.859375 2.40625 -0.859375q1.546875 0 2.484375 0.90625q0.9375 0.890625 0.9375 2.296875l-1.71875 0q0 -0.703125 -0.484375 -1.203125q-0.46875 -0.515625 -1.21875 -0.515625q-0.75 0 -1.1875 0.40625q-0.4375 0.390625 -0.4375 1.046875q0 0.53125 0.3125 0.859375q0.328125 0.3125 1.53125 0.84375q1.921875 0.75 2.609375 1.46875q0.703125 0.71875 0.703125 1.828125q0 1.375 -0.953125 2.203125q-0.9375 0.828125 -2.53125 0.828125q-1.65625 0 -2.6875 -0.953125q-1.015625 -0.953125 -1.015625 -2.40625l1.734375 0q0.03125 0.875 0.53125 1.375q0.515625 0.5 1.4375 0.5q0.859375 0 1.296875 -0.375q0.453125 -0.390625 0.453125 -1.046875z" fill-rule="nonzero"/><path fill="#ffffff" d="m197.52744 401.04462l137.92126 0l0 30.173218l-137.92126 0z" fill-rule="evenodd"/><path fill="#666666" d="m232.23746 417.07175l0 5.1875l-1.65625 0l0 -13.265625l4.21875 0q1.84375 0 2.90625 1.109375q1.0625 1.109375 1.0625 2.953125q0 1.90625 -1.015625 2.9375q-1.0 1.03125 -2.828125 1.078125l-2.6875 0zm0 -1.4375l2.5625 0q1.109375 0 1.703125 -0.65625q0.59375 -0.671875 0.59375 -1.90625q0 -1.203125 -0.609375 -1.921875q-0.609375 -0.71875 -1.671875 -0.71875l-2.578125 0l0 5.203125zm11.86142 6.8125q-1.84375 0 -2.828125 -1.09375q-0.984375 -1.109375 -1.0 -3.234375l0 -1.1875q0 -2.203125 0.953125 -3.453125q0.96875 -1.25 2.6875 -1.25q1.734375 0 2.578125 1.109375q0.859375 1.09375 0.875 3.421875l0 1.046875l-5.5 0l0 0.234375q0 1.59375 0.59375 2.3125q0.609375 0.71875 1.71875 0.71875q0.71875 0 1.25 -0.265625q0.546875 -0.28125 1.03125 -0.859375l0.828125 1.015625q-1.046875 1.484375 -3.1875 1.484375zm-0.1875 -8.84375q-1.0 0 -1.484375 0.6875q-0.484375 0.6875 -0.546875 2.140625l3.875 0l0 -0.21875q-0.0625 -1.40625 -0.5 -2.0q-0.4375 -0.609375 -1.34375 -0.609375zm9.470383 0.3125q-0.34375 -0.0625 -0.734375 -0.0625q-1.234375 0 -1.734375 1.359375l0 7.046875l-1.609375 0l0 -9.859375l1.5625 0l0.03125 1.0q0.640625 -1.171875 1.828125 -1.171875q0.390625 0 0.640625 0.125l0.015625 1.5625zm6.3939667 5.828125q0 -0.53125 -0.40625 -0.90625q-0.390625 -0.375 -1.5 -0.875q-1.3125 -0.53125 -1.84375 -0.90625q-0.53125 -0.390625 -0.796875 -0.875q-0.265625 -0.484375 -0.265625 -1.15625q0 -1.203125 0.875 -2.0q0.890625 -0.796875 2.25 -0.796875q1.4375 0 2.3125 0.84375q0.875 0.828125 0.875 2.140625l-1.59375 0q0 -0.671875 -0.453125 -1.140625q-0.4375 -0.46875 -1.140625 -0.46875q-0.703125 0 -1.109375 0.375q-0.40625 0.359375 -0.40625 0.984375q0 0.484375 0.296875 0.796875q0.296875 0.296875 1.421875 0.78125q1.796875 0.703125 2.4375 1.375q0.65625 0.671875 0.65625 1.703125q0 1.28125 -0.890625 2.0625q-0.875 0.765625 -2.359375 0.765625q-1.546875 0 -2.5 -0.875q-0.953125 -0.890625 -0.953125 -2.25l1.609375 0q0.03125 0.8125 0.5 1.28125q0.484375 0.46875 1.34375 0.46875q0.796875 0 1.21875 -0.359375q0.421875 -0.359375 0.421875 -0.96875zm5.4366455 2.515625l-1.609375 0l0 -9.859375l1.609375 0l0 9.859375zm0.125 -12.46875q0 0.40625 -0.234375 0.6875q-0.21875 0.265625 -0.671875 0.265625q-0.46875 0 -0.703125 -0.265625q-0.21875 -0.28125 -0.21875 -0.6875q0 -0.40625 0.21875 -0.6875q0.234375 -0.296875 0.6875 -0.296875q0.46875 0 0.6875 0.296875q0.234375 0.28125 0.234375 0.6875zm7.2098694 9.953125q0 -0.53125 -0.40625 -0.90625q-0.390625 -0.375 -1.5 -0.875q-1.3125 -0.53125 -1.84375 -0.90625q-0.53125 -0.390625 -0.796875 -0.875q-0.265625 -0.484375 -0.265625 -1.15625q0 -1.203125 0.875 -2.0q0.890625 -0.796875 2.25 -0.796875q1.4375 0 2.3125 0.84375q0.875 0.828125 0.875 2.140625l-1.59375 0q0 -0.671875 -0.453125 -1.140625q-0.4375 -0.46875 -1.140625 -0.46875q-0.703125 0 -1.109375 0.375q-0.40625 0.359375 -0.40625 0.984375q0 0.484375 0.296875 0.796875q0.296875 0.296875 1.421875 0.78125q1.796875 0.703125 2.4375 1.375q0.65625 0.671875 0.65625 1.703125q0 1.28125 -0.890625 2.0625q-0.875 0.765625 -2.359375 0.765625q-1.546875 0 -2.5 -0.875q-0.953125 -0.890625 -0.953125 -2.25l1.609375 0q0.03125 0.8125 0.5 1.28125q0.484375 0.46875 1.34375 0.46875q0.796875 0 1.21875 -0.359375q0.421875 -0.359375 0.421875 -0.96875zm5.8116455 -9.734375l0 2.390625l1.484375 0l0 1.3125l-1.484375 0l0 6.109375q0 0.578125 0.1875 0.890625q0.203125 0.296875 0.65625 0.296875q0.328125 0 0.65625 -0.109375l-0.015625 1.359375q-0.546875 0.1875 -1.125 0.1875q-0.953125 0 -1.453125 -0.6875q-0.5 -0.6875 -0.5 -1.9375l0 -6.109375l-1.515625 0l0 -1.3125l1.515625 0l0 -2.390625l1.59375 0zm6.933136 12.4375q-1.84375 0 -2.828125 -1.09375q-0.984375 -1.109375 -1.0 -3.234375l0 -1.1875q0 -2.203125 0.953125 -3.453125q0.96875 -1.25 2.6875 -1.25q1.734375 0 2.578125 1.109375q0.859375 1.09375 0.875 3.421875l0 1.046875l-5.5 0l0 0.234375q0 1.59375 0.59375 2.3125q0.609375 0.71875 1.71875 0.71875q0.71875 0 1.25 -0.265625q0.546875 -0.28125 1.03125 -0.859375l0.828125 1.015625q-1.046875 1.484375 -3.1875 1.484375zm-0.1875 -8.84375q-1.0 0 -1.484375 0.6875q-0.484375 0.6875 -0.546875 2.140625l3.875 0l0 -0.21875q-0.0625 -1.40625 -0.5 -2.0q-0.4375 -0.609375 -1.34375 -0.609375zm6.9078674 -1.203125l0.046875 1.0625q0.9375 -1.234375 2.40625 -1.234375q2.609375 0 2.640625 3.484375l0 6.546875l-1.59375 0l0 -6.484375q0 -1.15625 -0.390625 -1.640625q-0.390625 -0.484375 -1.15625 -0.484375q-0.609375 0 -1.09375 0.40625q-0.46875 0.390625 -0.765625 1.046875l0 7.15625l-1.609375 0l0 -9.859375l1.515625 0zm9.621277 -2.390625l0 2.390625l1.484375 0l0 1.3125l-1.484375 0l0 6.109375q0 0.578125 0.1875 0.890625q0.203125 0.296875 0.65625 0.296875q0.328125 0 0.65625 -0.109375l-0.015625 1.359375q-0.546875 0.1875 -1.125 0.1875q-0.953125 0 -1.453125 -0.6875q-0.5 -0.6875 -0.5 -1.9375l0 -6.109375l-1.515625 0l0 -1.3125l1.515625 0l0 -2.390625l1.59375 0z" fill-rule="nonzero"/><path fill="#ffffff" d="m18.627283 401.04462l153.82677 0l0 30.173218l-153.82677 0z" fill-rule="evenodd"/><path fill="#666666" d="m52.527393 422.25925l-1.671875 0l0 -13.265625l1.671875 0l0 13.265625zm4.2109375 -9.859375l0.046875 0.90625q0.890625 -1.078125 2.375 -1.078125q1.640625 0 2.296875 1.421875q0.9375 -1.421875 2.5937538 -1.421875q2.71875 0 2.78125 3.390625l0 6.640625l-1.59375 0l0 -6.484375q0 -1.078125 -0.390625 -1.59375q-0.375 -0.53125 -1.2968788 -0.53125q-0.71875 0 -1.1875 0.5625q-0.453125 0.5625 -0.515625 1.4375l0 6.609375l-1.625 0l0 -6.5625q-0.03125 -2.046875 -1.671875 -2.046875q-1.21875 0 -1.71875 1.21875l0 7.390625l-1.59375 0l0 -9.859375l1.5 0zm19.647114 5.40625q0 2.34375 -0.84375 3.5q-0.84375 1.140625 -2.390625 1.140625q-1.484375 0 -2.28125 -1.125l0 4.734375l-1.59375 0l0 -13.65625l1.453125 0l0.078125 1.09375q0.8125 -1.265625 2.328125 -1.265625q1.625 0 2.421875 1.125q0.796875 1.125 0.828125 3.375l0 1.078125zm-1.609375 -0.921875q0 -1.65625 -0.515625 -2.4375q-0.5 -0.796875 -1.625 -0.796875q-1.15625 0 -1.765625 1.15625l0 5.125q0.59375 1.140625 1.78125 1.140625q1.09375 0 1.609375 -0.78125q0.515625 -0.796875 0.515625 -2.421875l0 -0.984375zm7.216217 5.5625q-1.84375 0 -2.828125 -1.09375q-0.984375 -1.109375 -1.0 -3.234375l0 -1.1875q0 -2.203125 0.953125 -3.453125q0.96875 -1.25 2.6875 -1.25q1.734375 0 2.578125 1.109375q0.859375 1.09375 0.875 3.421875l0 1.046875l-5.5 0l0 0.234375q0 1.59375 0.59375 2.3125q0.609375 0.71875 1.71875 0.71875q0.71875 0 1.25 -0.265625q0.546875 -0.28125 1.03125 -0.859375l0.828125 1.015625q-1.046875 1.484375 -3.1875 1.484375zm-0.1875 -8.84375q-1.0 0 -1.484375 0.6875q-0.484375 0.6875 -0.546875 2.140625l3.875 0l0 -0.21875q-0.0625 -1.40625 -0.5 -2.0q-0.4375 -0.609375 -1.34375 -0.609375zm9.470383 0.3125q-0.34375 -0.0625 -0.734375 -0.0625q-1.234375 0 -1.734375 1.359375l0 7.046875l-1.609375 0l0 -9.859375l1.5625 0l0.03125 1.0q0.640625 -1.171875 1.828125 -1.171875q0.390625 0 0.640625 0.125l0.015625 1.5625zm6.3939667 5.828125q0 -0.53125 -0.40625 -0.90625q-0.390625 -0.375 -1.5 -0.875q-1.3125 -0.53125 -1.84375 -0.90625q-0.53125 -0.390625 -0.796875 -0.875q-0.265625 -0.484375 -0.265625 -1.15625q0 -1.203125 0.875 -2.0q0.890625 -0.796875 2.25 -0.796875q1.4375 0 2.3125 0.84375q0.875 0.828125 0.875 2.140625l-1.59375 0q0 -0.671875 -0.453125 -1.140625q-0.4375 -0.46875 -1.140625 -0.46875q-0.703125 0 -1.109375 0.375q-0.40625 0.359375 -0.40625 0.984375q0 0.484375 0.296875 0.796875q0.296875 0.296875 1.421875 0.78125q1.796875 0.703125 2.4375 1.375q0.65625 0.671875 0.65625 1.703125q0 1.28125 -0.890625 2.0625q-0.875 0.765625 -2.359375 0.765625q-1.546875 0 -2.5 -0.875q-0.953125 -0.890625 -0.953125 -2.25l1.609375 0q0.03125 0.8125 0.5 1.28125q0.484375 0.46875 1.34375 0.46875q0.796875 0 1.21875 -0.359375q0.421875 -0.359375 0.421875 -0.96875zm5.436661 2.515625l-1.609375 0l0 -9.859375l1.609375 0l0 9.859375zm0.125 -12.46875q0 0.40625 -0.234375 0.6875q-0.21875 0.265625 -0.671875 0.265625q-0.46875 0 -0.703125 -0.265625q-0.21875 -0.28125 -0.21875 -0.6875q0 -0.40625 0.21875 -0.6875q0.234375 -0.296875 0.6875 -0.296875q0.46875 0 0.6875 0.296875q0.234375 0.28125 0.234375 0.6875zm7.209854 9.953125q0 -0.53125 -0.40625 -0.90625q-0.390625 -0.375 -1.5 -0.875q-1.3125 -0.53125 -1.84375 -0.90625q-0.53125 -0.390625 -0.796875 -0.875q-0.265625 -0.484375 -0.265625 -1.15625q0 -1.203125 0.875 -2.0q0.890625 -0.796875 2.25 -0.796875q1.4375 0 2.3125 0.84375q0.875 0.828125 0.875 2.140625l-1.59375 0q0 -0.671875 -0.453125 -1.140625q-0.4375 -0.46875 -1.140625 -0.46875q-0.703125 0 -1.109375 0.375q-0.40625 0.359375 -0.40625 0.984375q0 0.484375 0.296875 0.796875q0.296875 0.296875 1.421875 0.78125q1.796875 0.703125 2.4375 1.375q0.65625 0.671875 0.65625 1.703125q0 1.28125 -0.890625 2.0625q-0.875 0.765625 -2.359375 0.765625q-1.546875 0 -2.5 -0.875q-0.953125 -0.890625 -0.953125 -2.25l1.609375 0q0.03125 0.8125 0.5 1.28125q0.484375 0.46875 1.34375 0.46875q0.796875 0 1.21875 -0.359375q0.421875 -0.359375 0.421875 -0.96875zm5.811661 -9.734375l0 2.390625l1.484375 0l0 1.3125l-1.484375 0l0 6.109375q0 0.578125 0.1875 0.890625q0.203125 0.296875 0.65625 0.296875q0.328125 0 0.65625 -0.109375l-0.015625 1.359375q-0.546875 0.1875 -1.125 0.1875q-0.953125 0 -1.453125 -0.6875q-0.5 -0.6875 -0.5 -1.9375l0 -6.109375l-1.515625 0l0 -1.3125l1.515625 0l0 -2.390625l1.59375 0zm6.9331207 12.4375q-1.84375 0 -2.828125 -1.09375q-0.984375 -1.109375 -1.0 -3.234375l0 -1.1875q0 -2.203125 0.953125 -3.453125q0.96875 -1.25 2.6875 -1.25q1.734375 0 2.578125 1.109375q0.859375 1.09375 0.875 3.421875l0 1.046875l-5.5 0l0 0.234375q0 1.59375 0.59375 2.3125q0.609375 0.71875 1.71875 0.71875q0.71875 0 1.25 -0.265625q0.546875 -0.28125 1.03125 -0.859375l0.828125 1.015625q-1.046875 1.484375 -3.1875 1.484375zm-0.1875 -8.84375q-1.0 0 -1.484375 0.6875q-0.484375 0.6875 -0.546875 2.140625l3.875 0l0 -0.21875q-0.0625 -1.40625 -0.5 -2.0q-0.4375 -0.609375 -1.34375 -0.609375zm6.9078903 -1.203125l0.046875 1.0625q0.9375 -1.234375 2.40625 -1.234375q2.609375 0 2.640625 3.484375l0 6.546875l-1.59375 0l0 -6.484375q0 -1.15625 -0.390625 -1.640625q-0.390625 -0.484375 -1.15625 -0.484375q-0.609375 0 -1.09375 0.40625q-0.46875 0.390625 -0.765625 1.046875l0 7.15625l-1.609375 0l0 -9.859375l1.515625 0zm9.621262 -2.390625l0 2.390625l1.484375 0l0 1.3125l-1.484375 0l0 6.109375q0 0.578125 0.1875 0.890625q0.203125 0.296875 0.65625 0.296875q0.328125 0 0.65625 -0.109375l-0.015625 1.359375q-0.546875 0.1875 -1.125 0.1875q-0.953125 0 -1.453125 -0.6875q-0.5 -0.6875 -0.5 -1.9375l0 -6.109375l-1.515625 0l0 -1.3125l1.515625 0l0 -2.390625l1.59375 0z" fill-rule="nonzero"/></g></svg>