<svg version="1.1" viewBox="0.0 0.0 960.0 540.0" fill="none" stroke="none" stroke-linecap="square" stroke-miterlimit="10" xmlns:xlink="http://www.w3.org/1999/xlink" xmlns="http://www.w3.org/2000/svg"><clipPath id="g105fbafdbb9_2_0.0"><path d="m0 0l960.0 0l0 540.0l-960.0 0l0 -540.0z" clip-rule="nonzero"/></clipPath><g clip-path="url(#g105fbafdbb9_2_0.0)"><path fill="#ffffff" d="m0 0l960.0 0l0 540.0l-960.0 0z" fill-rule="evenodd"/><path fill="#eff7cf" d="m84.65879 61.163944l0 0c0 -0.0037002563 0.002998352 -0.0066986084 0.0066986084 -0.0066986084l803.8359 0.0066986084c0.0017700195 0 0.003479004 7.05719E-4 0.004699707 0.001964569c0.0012817383 0.0012550354 0.001953125 0.002960205 0.001953125 0.0047340393l-0.006652832 470.63898c0 0.0036621094 -0.0030517578 0.006652832 -0.006713867 0.006652832l-803.8358 -0.006652832l0 0c-0.0037002563 0 -0.0066986084 -0.0029907227 -0.0066986084 -0.006713867z" fill-rule="evenodd"/><g filter="url(#shadowFilter-g105fbafdbb9_2_0.1)"><use xlink:href="#g105fbafdbb9_2_0.1" transform=""/></g><defs><filter id="shadowFilter-g105fbafdbb9_2_0.1" filterUnits="userSpaceOnUse"><feGaussianBlur in="SourceAlpha" stdDeviation="5.3333335" result="blur"/><feComponentTransfer in="blur" color-interpolation-filters="sRGB"><feFuncR type="linear" slope="0" intercept="0.0"/><feFuncG type="linear" slope="0" intercept="0.0"/><feFuncB type="linear" slope="0" intercept="0.0"/><feFuncA type="linear" slope="0.2471" intercept="0"/></feComponentTransfer></filter></defs><g id="g105fbafdbb9_2_0.1"><path fill="#d7effe" d="m290.0455 246.57753l0 0c0 -9.753891 7.907074 -17.660995 17.66098 -17.660995l543.6072 0c4.68396 0 9.176086 1.8607025 12.488159 5.1727905c3.3120728 3.3120728 5.1727905 7.8042145 5.1727905 12.488205l0 139.41817c0 9.753906 -7.9071045 17.66101 -17.66095 17.66101l-543.6072 0c-9.753906 0 -17.66098 -7.9071045 -17.66098 -17.66101z" fill-rule="evenodd"/></g><path fill="#ffffff" d="m403.6321 444.5922l0 0c0 -5.492676 4.4526978 -9.945374 9.945374 -9.945374l131.7313 0c2.6376953 0 5.1672974 1.047821 7.0324707 2.9129333c1.8651123 1.8651123 2.9129028 4.394745 2.9129028 7.03244l0 54.030518c0 5.492676 -4.4526978 9.945374 -9.945374 9.945374l-131.7313 0l0 0c-5.492676 0 -9.945374 -4.4526978 -9.945374 -9.945374z" fill-rule="evenodd"/><path stroke="#1967d2" stroke-width="8.0" stroke-miterlimit="400.0" stroke-linecap="butt" d="m403.6321 444.5922l0 0c0 -5.492676 4.4526978 -9.945374 9.945374 -9.945374l131.7313 0c2.6376953 0 5.1672974 1.047821 7.0324707 2.9129333c1.8651123 1.8651123 2.9129028 4.394745 2.9129028 7.03244l0 54.030518c0 5.492676 -4.4526978 9.945374 -9.945374 9.945374l-131.7313 0l0 0c-5.492676 0 -9.945374 -4.4526978 -9.945374 -9.945374z" fill-rule="evenodd"/><path fill="#1a1a1a" d="m437.3399 466.0143l6.9375 0l0 1.65625l-5.171875 0l0 3.359375l4.671875 0l0 1.671875l-4.671875 0l0 4.765625l-1.765625 0l0 -11.453125zm11.898895 11.703125q-1.234375 0 -2.21875 -0.5625q-0.96875 -0.5625 -1.515625 -1.546875q-0.53125 -1.0 -0.53125 -2.21875q0 -1.21875 0.53125 -2.203125q0.546875 -1.0 1.515625 -1.5625q0.984375 -0.578125 2.21875 -0.578125q1.21875 0 2.1875 0.578125q0.984375 0.578125 1.53125 1.578125q0.546875 0.984375 0.546875 2.1875q0 1.21875 -0.546875 2.21875q-0.546875 0.984375 -1.515625 1.546875q-0.96875 0.5625 -2.203125 0.5625zm0 -1.578125q0.6875 0 1.265625 -0.328125q0.578125 -0.34375 0.921875 -0.96875q0.359375 -0.625 0.359375 -1.453125q0 -0.828125 -0.359375 -1.453125q-0.34375 -0.625 -0.921875 -0.953125q-0.578125 -0.34375 -1.265625 -0.34375q-0.6875 0 -1.28125 0.34375q-0.578125 0.328125 -0.9375 0.953125q-0.34375 0.625 -0.34375 1.453125q0 0.828125 0.34375 1.453125q0.359375 0.625 0.9375 0.96875q0.59375 0.328125 1.28125 0.328125zm5.6918945 -6.828125l1.625 0l0 1.203125l0.09375 0q0.28125 -0.625 0.9375 -1.03125q0.671875 -0.421875 1.4375 -0.421875q0.546875 0 0.984375 0.171875l0 1.78125q-0.65625 -0.28125 -1.265625 -0.28125q-0.90625 0 -1.5 0.703125q-0.59375 0.703125 -0.59375 1.71875l0 4.3125l-1.71875 0l0 -8.15625zm9.654785 8.40625q-1.1875 0 -2.140625 -0.546875q-0.953125 -0.5625 -1.484375 -1.546875q-0.53125 -0.984375 -0.53125 -2.21875q0 -1.171875 0.515625 -2.171875q0.515625 -1.0 1.4375 -1.59375q0.9375 -0.59375 2.109375 -0.59375q1.234375 0 2.125 0.546875q0.890625 0.53125 1.359375 1.484375q0.484375 0.9375 0.484375 2.140625q0 0.3125 -0.03125 0.53125l-6.3125 0q0.125 1.171875 0.84375 1.8125q0.71875 0.625 1.671875 0.625q0.78125 0 1.34375 -0.359375q0.5625 -0.359375 0.90625 -0.953125l1.421875 0.6875q-0.5625 1.015625 -1.5 1.59375q-0.921875 0.5625 -2.21875 0.5625zm2.15625 -5.265625q-0.03125 -0.4375 -0.28125 -0.890625q-0.25 -0.453125 -0.75 -0.734375q-0.484375 -0.296875 -1.203125 -0.296875q-0.859375 0 -1.46875 0.53125q-0.59375 0.515625 -0.8125 1.390625l4.515625 0zm7.076874 8.734375q-1.484375 0 -2.46875 -0.6875q-0.984375 -0.671875 -1.328125 -1.640625l1.609375 -0.671875q0.25 0.65625 0.828125 1.046875q0.59375 0.40625 1.359375 0.40625q1.140625 0 1.78125 -0.671875q0.640625 -0.671875 0.640625 -1.90625l0 -0.78125l-0.09375 0q-0.40625 0.59375 -1.078125 0.9375q-0.671875 0.328125 -1.53125 0.328125q-1.046875 0 -1.921875 -0.515625q-0.875 -0.53125 -1.390625 -1.5q-0.515625 -0.96875 -0.515625 -2.21875q0 -1.25 0.515625 -2.21875q0.515625 -0.96875 1.390625 -1.5q0.875 -0.546875 1.921875 -0.546875q0.84375 0 1.515625 0.34375q0.6875 0.34375 1.09375 0.9375l0.09375 0l0 -1.015625l1.640625 0l0 7.71875q0 1.3125 -0.515625 2.25q-0.5 0.9375 -1.421875 1.421875q-0.921875 0.484375 -2.125 0.484375zm0.015625 -5.203125q0.65625 0 1.203125 -0.3125q0.546875 -0.328125 0.875 -0.921875q0.328125 -0.609375 0.328125 -1.4375q0 -0.859375 -0.328125 -1.453125q-0.328125 -0.609375 -0.875 -0.921875q-0.546875 -0.3125 -1.203125 -0.3125q-0.65625 0 -1.21875 0.3125q-0.546875 0.3125 -0.875 0.921875q-0.328125 0.59375 -0.328125 1.453125q0 0.828125 0.328125 1.4375q0.328125 0.609375 0.875 0.921875q0.5625 0.3125 1.21875 0.3125zm6.0725403 -6.671875l1.625 0l0 1.203125l0.09375 0q0.28125 -0.625 0.9375 -1.03125q0.671875 -0.421875 1.4375 -0.421875q0.546875 0 0.984375 0.171875l0 1.78125q-0.65625 -0.28125 -1.265625 -0.28125q-0.90625 0 -1.5 0.703125q-0.59375 0.703125 -0.59375 1.71875l0 4.3125l-1.71875 0l0 -8.15625zm9.76413 8.40625q-1.234375 0 -2.21875 -0.5625q-0.96875 -0.5625 -1.515625 -1.546875q-0.53125 -1.0 -0.53125 -2.21875q0 -1.21875 0.53125 -2.203125q0.546875 -1.0 1.515625 -1.5625q0.984375 -0.578125 2.21875 -0.578125q1.21875 0 2.1875 0.578125q0.984375 0.578125 1.53125 1.578125q0.546875 0.984375 0.546875 2.1875q0 1.21875 -0.546875 2.21875q-0.546875 0.984375 -1.515625 1.546875q-0.96875 0.5625 -2.203125 0.5625zm0 -1.578125q0.6875 0 1.265625 -0.328125q0.578125 -0.34375 0.921875 -0.96875q0.359375 -0.625 0.359375 -1.453125q0 -0.828125 -0.359375 -1.453125q-0.34375 -0.625 -0.921875 -0.953125q-0.578125 -0.34375 -1.265625 -0.34375q-0.6875 0 -1.28125 0.34375q-0.578125 0.328125 -0.9375 0.953125q-0.34375 0.625 -0.34375 1.453125q0 0.828125 0.34375 1.453125q0.359375 0.625 0.9375 0.96875q0.59375 0.328125 1.28125 0.328125zm8.725037 1.578125q-1.46875 0 -2.25 -0.875q-0.78125 -0.890625 -0.78125 -2.484375l0 -5.046875l1.734375 0l0 4.8125q0 0.984375 0.453125 1.5q0.46875 0.515625 1.265625 0.515625q0.640625 0 1.125 -0.328125q0.5 -0.34375 0.765625 -0.90625q0.265625 -0.5625 0.265625 -1.21875l0 -4.375l1.703125 0l0 8.15625l-1.609375 0l0 -1.109375l-0.09375 0q-0.359375 0.59375 -1.0625 0.984375q-0.703125 0.375 -1.515625 0.375zm6.326874 -8.40625l1.625 0l0 1.109375l0.09375 0q0.359375 -0.59375 1.0625 -0.984375q0.703125 -0.390625 1.515625 -0.390625q1.46875 0 2.234375 0.875q0.7656555 0.875 0.7656555 2.390625l0 5.15625l-1.7031555 0l0 -4.921875q0 -0.96875 -0.484375 -1.4375q-0.484375 -0.46875 -1.3125 -0.46875q-0.609375 0 -1.078125 0.34375q-0.46875 0.328125 -0.734375 0.890625q-0.265625 0.546875 -0.265625 1.203125l0 4.390625l-1.71875 0l0 -8.15625zm12.764374 8.40625q-1.109375 0 -2.015625 -0.546875q-0.890625 -0.546875 -1.40625 -1.53125q-0.5 -1.0 -0.5 -2.25q0 -1.25 0.5 -2.234375q0.515625 -0.984375 1.40625 -1.546875q0.90625 -0.5625 2.015625 -0.5625q0.890625 0 1.578125 0.40625q0.6875 0.390625 1.046875 0.953125l0.09375 0l-0.09375 -1.125l0 -3.265625l1.703125 0l0 11.453125l-1.609375 0l0 -1.09375l-0.09375 0q-0.359375 0.5625 -1.046875 0.953125q-0.6875 0.390625 -1.578125 0.390625zm0.25 -1.578125q0.640625 0 1.203125 -0.34375q0.578125 -0.34375 0.921875 -0.96875q0.34375 -0.625 0.34375 -1.4375q0 -0.8125 -0.34375 -1.4375q-0.34375 -0.625 -0.921875 -0.96875q-0.5625 -0.34375 -1.203125 -0.34375q-0.640625 0 -1.21875 0.34375q-0.5625 0.34375 -0.90625 0.96875q-0.34375 0.625 -0.34375 1.4375q0 0.8125 0.34375 1.4375q0.34375 0.625 0.90625 0.96875q0.578125 0.34375 1.21875 0.34375z" fill-rule="nonzero"/><path fill="#000000" fill-opacity="0.0" d="m260.54965 471.60745l143.08661 0" fill-rule="evenodd"/><path stroke="#f86734" stroke-width="2.0" stroke-miterlimit="400.0" stroke-linecap="butt" stroke-dasharray="8.0,6.0" d="m260.54965 471.60745l131.08664 0" fill-rule="evenodd"/><path fill="#f86734" stroke="#f86734" stroke-width="2.0" stroke-linecap="butt" d="m391.6363 474.91092l9.076172 -3.3034668l-9.076172 -3.3034668z" fill-rule="evenodd"/><path fill="#ffffff" d="m294.6818 463.70093l0 0c0 -5.52948 4.482544 -10.012024 10.012054 -10.012024l54.779053 0c2.655365 0 5.2019653 1.0548401 7.07959 2.9324646c1.8776245 1.8776245 2.9324646 4.424225 2.9324646 7.0795593l0 15.786957c0 5.52948 -4.4825745 10.012024 -10.012054 10.012024l-54.779053 0l0 0c-5.5295105 0 -10.012054 -4.482544 -10.012054 -10.012024z" fill-rule="evenodd"/><path stroke="#f86734" stroke-width="3.0" stroke-miterlimit="400.0" stroke-linecap="butt" stroke-dasharray="12.0,9.0" d="m294.6818 463.70093l0 0c0 -5.52948 4.482544 -10.012024 10.012054 -10.012024l54.779053 0c2.655365 0 5.2019653 1.0548401 7.07959 2.9324646c1.8776245 1.8776245 2.9324646 4.424225 2.9324646 7.0795593l0 15.786957c0 5.52948 -4.4825745 10.012024 -10.012054 10.012024l-54.779053 0l0 0c-5.5295105 0 -10.012054 -4.482544 -10.012054 -10.012024z" fill-rule="evenodd"/><path fill="#000000" d="m319.31833 473.7669l0 -1.296875l6.390625 -3.015625l0 1.640625l-4.421875 1.96875l0 0.109375l4.421875 1.96875l0 1.640625l-6.390625 -3.015625zm7.3490295 3.6875l0 0zm7.118622 -8.625l-1.796875 1.28125l-0.875 -1.328125l3.171875 -2.265625l1.234375 0l0 10.9375l-1.734375 0l0 -8.625zm4.0470276 7.0q3.25 -3.234375 4.0 -4.078125q0.703125 -0.734375 0.953125 -1.1875q0.265625 -0.46875 0.265625 -1.09375q0 -0.640625 -0.484375 -1.109375q-0.484375 -0.46875 -1.328125 -0.46875q-0.765625 0 -1.234375 0.4375q-0.46875 0.4375 -0.65625 1.03125l-1.546875 -0.640625q0.15625 -0.578125 0.59375 -1.140625q0.453125 -0.5625 1.1875 -0.9375q0.734375 -0.390625 1.6875 -0.390625q1.046875 0 1.84375 0.4375q0.796875 0.421875 1.234375 1.15625q0.453125 0.71875 0.453125 1.578125q0 1.734375 -1.75 3.46875q-0.703125 0.703125 -1.578125 1.59375q-0.90625 0.875 -1.359375 1.359375l0.015625 0.046875l4.796875 0l0 1.5625l-7.09375 0l0 -1.625z" fill-rule="nonzero"/><path fill="#ffffff" d="m108.9276 444.5922l0 0c0 -5.492676 4.4526978 -9.945374 9.945366 -9.945374l131.73132 0c2.63768 0 5.1673126 1.047821 7.03244 2.9129333c1.8651123 1.8651123 2.9129333 4.394745 2.9129333 7.03244l0 54.030518c0 5.492676 -4.4526978 9.945374 -9.945374 9.945374l-131.73132 0l0 0c-5.492668 0 -9.945366 -4.4526978 -9.945366 -9.945374z" fill-rule="evenodd"/><path stroke="#f86734" stroke-width="8.0" stroke-miterlimit="400.0" stroke-linecap="butt" d="m108.9276 444.5922l0 0c0 -5.492676 4.4526978 -9.945374 9.945366 -9.945374l131.73132 0c2.63768 0 5.1673126 1.047821 7.03244 2.9129333c1.8651123 1.8651123 2.9129333 4.394745 2.9129333 7.03244l0 54.030518c0 5.492676 -4.4526978 9.945374 -9.945374 9.945374l-131.73132 0l0 0c-5.492668 0 -9.945366 -4.4526978 -9.945366 -9.945374z" fill-rule="evenodd"/><path fill="#1a1a1a" d="m148.48343 466.0143l6.9375 0l0 1.65625l-5.171875 0l0 3.234375l4.671875 0l0 1.671875l-4.671875 0l0 3.234375l5.171875 0l0 1.65625l-6.9375 0l0 -11.453125zm10.77327 7.3125l-2.828125 -4.015625l2.0 0l1.828125 2.6875l0.046875 0l1.75 -2.6875l2.078125 0l-2.859375 4.015625l2.875 4.140625l-2.015625 0l-1.859375 -2.765625l-0.046875 0l-1.8125 2.765625l-2.03125 0l2.875 -4.140625zm6.035385 -4.015625l1.640625 0l0 1.09375l0.09375 0q0.359375 -0.5625 1.046875 -0.953125q0.703125 -0.40625 1.578125 -0.40625q1.109375 0 2.0 0.5625q0.890625 0.5625 1.40625 1.546875q0.515625 0.984375 0.515625 2.234375q0 1.25 -0.515625 2.25q-0.515625 0.984375 -1.40625 1.53125q-0.890625 0.546875 -2.0 0.546875q-0.875 0 -1.578125 -0.390625q-0.6875 -0.390625 -1.046875 -0.953125l-0.09375 0l0.09375 1.140625l0 3.40625l-1.734375 0l0 -11.609375zm4.109375 6.828125q0.65625 0 1.21875 -0.34375q0.5625 -0.34375 0.890625 -0.96875q0.34375 -0.625 0.34375 -1.4375q0 -0.8125 -0.34375 -1.4375q-0.328125 -0.625 -0.890625 -0.96875q-0.5625 -0.34375 -1.21875 -0.34375q-0.640625 0 -1.21875 0.34375q-0.5625 0.34375 -0.90625 0.96875q-0.34375 0.625 -0.34375 1.4375q0 0.8125 0.34375 1.4375q0.34375 0.625 0.90625 0.96875q0.578125 0.34375 1.21875 0.34375zm9.479523 1.578125q-1.1875 0 -2.140625 -0.546875q-0.953125 -0.5625 -1.484375 -1.546875q-0.53125 -0.984375 -0.53125 -2.21875q0 -1.171875 0.515625 -2.171875q0.515625 -1.0 1.4375 -1.59375q0.9375 -0.59375 2.109375 -0.59375q1.234375 0 2.125 0.546875q0.890625 0.53125 1.359375 1.484375q0.484375 0.9375 0.484375 2.140625q0 0.3125 -0.03125 0.53125l-6.3125 0q0.125 1.171875 0.84375 1.8125q0.71875 0.625 1.671875 0.625q0.78125 0 1.34375 -0.359375q0.5625 -0.359375 0.90625 -0.953125l1.421875 0.6875q-0.5625 1.015625 -1.5 1.59375q-0.921875 0.5625 -2.21875 0.5625zm2.15625 -5.265625q-0.03125 -0.4375 -0.28125 -0.890625q-0.25 -0.453125 -0.75 -0.734375q-0.484375 -0.296875 -1.203125 -0.296875q-0.859375 0 -1.46875 0.53125q-0.59375 0.515625 -0.8125 1.390625l4.515625 0zm6.889389 5.265625q-1.109375 0 -2.015625 -0.546875q-0.890625 -0.546875 -1.40625 -1.53125q-0.5 -1.0 -0.5 -2.25q0 -1.25 0.5 -2.234375q0.515625 -0.984375 1.40625 -1.546875q0.90625 -0.5625 2.015625 -0.5625q0.890625 0 1.578125 0.40625q0.6875 0.390625 1.046875 0.953125l0.09375 0l-0.09375 -1.125l0 -3.265625l1.703125 0l0 11.453125l-1.609375 0l0 -1.09375l-0.09375 0q-0.359375 0.5625 -1.046875 0.953125q-0.6875 0.390625 -1.578125 0.390625zm0.25 -1.578125q0.640625 0 1.203125 -0.34375q0.578125 -0.34375 0.921875 -0.96875q0.34375 -0.625 0.34375 -1.4375q0 -0.8125 -0.34375 -1.4375q-0.34375 -0.625 -0.921875 -0.96875q-0.5625 -0.34375 -1.203125 -0.34375q-0.640625 0 -1.21875 0.34375q-0.5625 0.34375 -0.90625 0.96875q-0.34375 0.625 -0.34375 1.4375q0 0.8125 0.34375 1.4375q0.34375 0.625 0.90625 0.96875q0.578125 0.34375 1.21875 0.34375zm7.106018 -8.03125q-0.484375 0 -0.828125 -0.34375q-0.34375 -0.34375 -0.34375 -0.828125q0 -0.484375 0.34375 -0.8125q0.34375 -0.34375 0.828125 -0.34375q0.484375 0 0.828125 0.34375q0.34375 0.328125 0.34375 0.8125q0 0.484375 -0.34375 0.828125q-0.34375 0.34375 -0.828125 0.34375zm-0.859375 1.203125l1.71875 0l0 8.15625l-1.71875 0l0 -8.15625zm7.1387634 8.28125q-0.546875 0 -1.03125 -0.15625q-0.46875 -0.171875 -0.765625 -0.484375q-0.6875 -0.65625 -0.6875 -1.859375l0 -4.28125l-1.421875 0l0 -1.5l1.421875 0l0 -2.3125l1.71875 0l0 2.3125l2.0 0l0 1.5l-2.0 0l0 3.921875q0 0.671875 0.265625 0.9375q0.265625 0.3125 0.828125 0.3125q0.28125 0 0.484375 -0.0625q0.21875 -0.078125 0.46875 -0.25l0 1.6875q-0.53125 0.234375 -1.28125 0.234375zm6.327011 0.125q-1.1875 0 -2.140625 -0.546875q-0.953125 -0.5625 -1.484375 -1.546875q-0.53125 -0.984375 -0.53125 -2.21875q0 -1.171875 0.515625 -2.171875q0.515625 -1.0 1.4375 -1.59375q0.9375 -0.59375 2.109375 -0.59375q1.234375 0 2.125 0.546875q0.890625 0.53125 1.359375 1.484375q0.484375 0.9375 0.484375 2.140625q0 0.3125 -0.03125 0.53125l-6.3125 0q0.125 1.171875 0.84375 1.8125q0.71875 0.625 1.671875 0.625q0.78125 0 1.34375 -0.359375q0.5625 -0.359375 0.90625 -0.953125l1.421875 0.6875q-0.5625 1.015625 -1.5 1.59375q-0.921875 0.5625 -2.21875 0.5625zm2.15625 -5.265625q-0.03125 -0.4375 -0.28125 -0.890625q-0.25 -0.453125 -0.75 -0.734375q-0.484375 -0.296875 -1.203125 -0.296875q-0.859375 0 -1.46875 0.53125q-0.59375 0.515625 -0.8125 1.390625l4.515625 0zm6.889389 5.265625q-1.109375 0 -2.015625 -0.546875q-0.890625 -0.546875 -1.40625 -1.53125q-0.5 -1.0 -0.5 -2.25q0 -1.25 0.5 -2.234375q0.515625 -0.984375 1.40625 -1.546875q0.90625 -0.5625 2.015625 -0.5625q0.890625 0 1.578125 0.40625q0.6875 0.390625 1.046875 0.953125l0.09375 0l-0.09375 -1.125l0 -3.265625l1.703125 0l0 11.453125l-1.609375 0l0 -1.09375l-0.09375 0q-0.359375 0.5625 -1.046875 0.953125q-0.6875 0.390625 -1.578125 0.390625zm0.25 -1.578125q0.640625 0 1.203125 -0.34375q0.578125 -0.34375 0.921875 -0.96875q0.34375 -0.625 0.34375 -1.4375q0 -0.8125 -0.34375 -1.4375q-0.34375 -0.625 -0.921875 -0.96875q-0.5625 -0.34375 -1.203125 -0.34375q-0.640625 0 -1.21875 0.34375q-0.5625 0.34375 -0.90625 0.96875q-0.34375 0.625 -0.34375 1.4375q0 0.8125 0.34375 1.4375q0.34375 0.625 0.90625 0.96875q0.578125 0.34375 1.21875 0.34375z" fill-rule="nonzero"/><path fill="#f86734" d="m289.78232 386.45853l0 -140.56566c0 -4.711426 1.871582 -9.229874 5.203064 -12.56134c3.331482 -3.331482 7.8499146 -5.203079 12.56134 -5.203079l171.90488 0c7.9345703E-4 0 0.0014648438 6.5612793E-4 0.0014648438 0.0014648438l-0.0014648438 176.09302l0 0c0 8.239746E-4 -6.713867E-4 0.0014648438 -0.0014648438 0.0014648438l-171.90341 -0.0014648438l0 0c-9.811035 0 -17.764404 -7.9533997 -17.764404 -17.764404z" fill-rule="evenodd"/><path fill="#000000" fill-opacity="0.0" d="m479.4431 434.64682l100.09448 -155.84253" fill-rule="evenodd"/><path stroke="#083042" stroke-width="3.0" stroke-miterlimit="400.0" stroke-linecap="butt" d="m489.17056 419.50165l90.367035 -140.69736" fill-rule="evenodd"/><path fill="#083042" stroke="#083042" stroke-width="3.0" stroke-linecap="butt" d="m485.00125 416.82376l-3.1880493 14.132935l11.526672 -8.777222z" fill-rule="evenodd"/><path fill="#ffffff" d="m503.7129 288.3937l0 0c0 -5.298065 4.294922 -9.592987 9.592957 -9.592987l132.4361 0c2.5441895 0 4.984253 1.0106812 6.783264 2.809723c1.7990112 1.7990112 2.8096924 4.239044 2.8096924 6.783264l0 55.80612c0 5.298065 -4.294922 9.593018 -9.592957 9.593018l-132.4361 0l0 0c-5.2980347 0 -9.592957 -4.2949524 -9.592957 -9.593018z" fill-rule="evenodd"/><path stroke="#4282f2" stroke-width="8.0" stroke-miterlimit="400.0" stroke-linecap="butt" d="m503.7129 288.3937l0 0c0 -5.298065 4.294922 -9.592987 9.592957 -9.592987l132.4361 0c2.5441895 0 4.984253 1.0106812 6.783264 2.809723c1.7990112 1.7990112 2.8096924 4.239044 2.8096924 6.783264l0 55.80612c0 5.298065 -4.294922 9.593018 -9.592957 9.593018l-132.4361 0l0 0c-5.2980347 0 -9.592957 -4.2949524 -9.592957 -9.593018z" fill-rule="evenodd"/><path fill="#000000" d="m530.3647 310.70364l1.765625 0l0 9.796875l4.921875 0l0 1.65625l-6.6875 0l0 -11.453125zm11.850891 11.703125q-1.234375 0 -2.21875 -0.5625q-0.96875 -0.5625 -1.515625 -1.546875q-0.53125 -1.0 -0.53125 -2.21875q0 -1.21875 0.53125 -2.203125q0.546875 -1.0 1.515625 -1.5625q0.984375 -0.578125 2.21875 -0.578125q1.21875 0 2.1875 0.578125q0.984375 0.578125 1.53125 1.578125q0.546875 0.984375 0.546875 2.1875q0 1.21875 -0.546875 2.21875q-0.546875 0.984375 -1.515625 1.546875q-0.96875 0.5625 -2.203125 0.5625zm0 -1.578125q0.6875 0 1.265625 -0.328125q0.578125 -0.34375 0.921875 -0.96875q0.359375 -0.625 0.359375 -1.453125q0 -0.828125 -0.359375 -1.453125q-0.34375 -0.625 -0.921875 -0.953125q-0.578125 -0.34375 -1.265625 -0.34375q-0.6875 0 -1.28125 0.34375q-0.578125 0.328125 -0.9375 0.953125q-0.34375 0.625 -0.34375 1.453125q0 0.828125 0.34375 1.453125q0.359375 0.625 0.9375 0.96875q0.59375 0.328125 1.28125 0.328125zm5.6918945 -6.828125l1.625 0l0 1.109375l0.09375 0q0.359375 -0.59375 1.0625 -0.984375q0.703125 -0.390625 1.515625 -0.390625q1.46875 0 2.234375 0.875q0.765625 0.875 0.765625 2.390625l0 5.15625l-1.703125 0l0 -4.921875q0 -0.96875 -0.484375 -1.4375q-0.484375 -0.46875 -1.3125 -0.46875q-0.609375 0 -1.078125 0.34375q-0.46875 0.328125 -0.734375 0.890625q-0.265625 0.546875 -0.265625 1.203125l0 4.390625l-1.71875 0l0 -8.15625zm12.871887 11.875q-1.484375 0 -2.46875 -0.6875q-0.984375 -0.671875 -1.328125 -1.640625l1.609375 -0.671875q0.25 0.65625 0.828125 1.046875q0.59375 0.40625 1.359375 0.40625q1.140625 0 1.78125 -0.671875q0.640625 -0.671875 0.640625 -1.90625l0 -0.78125l-0.09375 0q-0.40625 0.59375 -1.078125 0.9375q-0.671875 0.328125 -1.53125 0.328125q-1.046875 0 -1.921875 -0.515625q-0.875 -0.53125 -1.390625 -1.5q-0.515625 -0.96875 -0.515625 -2.21875q0 -1.25 0.515625 -2.21875q0.515625 -0.96875 1.390625 -1.5q0.875 -0.546875 1.921875 -0.546875q0.84375 0 1.515625 0.34375q0.6875 0.34375 1.09375 0.9375l0.09375 0l0 -1.015625l1.640625 0l0 7.71875q0 1.3125 -0.515625 2.25q-0.5 0.9375 -1.421875 1.421875q-0.921875 0.484375 -2.125 0.484375zm0.015625 -5.203125q0.65625 0 1.203125 -0.3125q0.546875 -0.328125 0.875 -0.921875q0.328125 -0.609375 0.328125 -1.4375q0 -0.859375 -0.328125 -1.453125q-0.328125 -0.609375 -0.875 -0.921875q-0.546875 -0.3125 -1.203125 -0.3125q-0.65625 0 -1.21875 0.3125q-0.546875 0.3125 -0.875 0.921875q-0.328125 0.59375 -0.328125 1.453125q0 0.828125 0.328125 1.4375q0.328125 0.609375 0.875 0.921875q0.5625 0.3125 1.21875 0.3125zm5.056885 1.484375l0 0zm5.0249023 -11.453125l4.015625 0q1.046875 0 1.875 0.453125q0.84375 0.4375 1.328125 1.25q0.5 0.796875 0.5 1.796875q0 1.15625 -0.75 2.046875q-0.75 0.875 -1.859375 1.1875l-0.015625 0.078125l3.140625 4.546875l0 0.09375l-2.03125 0l-3.046875 -4.5l-1.390625 0l0 4.5l-1.765625 0l0 -11.453125zm3.96875 5.34375q0.828125 0 1.390625 -0.53125q0.578125 -0.53125 0.578125 -1.328125q0 -0.734375 -0.53125 -1.28125q-0.515625 -0.5625 -1.375 -0.5625l-2.265625 0l0 3.703125l2.203125 0zm8.303162 6.359375q-1.46875 0 -2.25 -0.875q-0.78125 -0.890625 -0.78125 -2.484375l0 -5.046875l1.734375 0l0 4.8125q0 0.984375 0.453125 1.5q0.46875 0.515625 1.265625 0.515625q0.640625 0 1.125 -0.328125q0.5 -0.34375 0.765625 -0.90625q0.265625 -0.5625 0.265625 -1.21875l0 -4.375l1.703125 0l0 8.15625l-1.609375 0l0 -1.109375l-0.09375 0q-0.359375 0.59375 -1.0625 0.984375q-0.703125 0.375 -1.515625 0.375zm6.3268433 -8.40625l1.625 0l0 1.109375l0.09375 0q0.359375 -0.59375 1.0625 -0.984375q0.703125 -0.390625 1.515625 -0.390625q1.46875 0 2.234375 0.875q0.765625 0.875 0.765625 2.390625l0 5.15625l-1.703125 0l0 -4.921875q0 -0.96875 -0.484375 -1.4375q-0.484375 -0.46875 -1.3125 -0.46875q-0.609375 0 -1.078125 0.34375q-0.46875 0.328125 -0.734375 0.890625q-0.265625 0.546875 -0.265625 1.203125l0 4.390625l-1.71875 0l0 -8.15625zm9.280029 0l1.625 0l0 1.109375l0.09375 0q0.359375 -0.59375 1.0625 -0.984375q0.703125 -0.390625 1.515625 -0.390625q1.46875 0 2.234375 0.875q0.765625 0.875 0.765625 2.390625l0 5.15625l-1.703125 0l0 -4.921875q0 -0.96875 -0.484375 -1.4375q-0.484375 -0.46875 -1.3125 -0.46875q-0.609375 0 -1.078125 0.34375q-0.46875 0.328125 -0.734375 0.890625q-0.265625 0.546875 -0.265625 1.203125l0 4.390625l-1.71875 0l0 -8.15625zm10.264404 -1.203125q-0.484375 0 -0.828125 -0.34375q-0.34375 -0.34375 -0.34375 -0.828125q0 -0.484375 0.34375 -0.8125q0.34375 -0.34375 0.828125 -0.34375q0.484375 0 0.828125 0.34375q0.34375 0.328125 0.34375 0.8125q0 0.484375 -0.34375 0.828125q-0.34375 0.34375 -0.828125 0.34375zm-0.859375 1.203125l1.71875 0l0 8.15625l-1.71875 0l0 -8.15625zm3.875 0l1.625 0l0 1.109375l0.09375 0q0.359375 -0.59375 1.0625 -0.984375q0.703125 -0.390625 1.515625 -0.390625q1.46875 0 2.234375 0.875q0.765625 0.875 0.765625 2.390625l0 5.15625l-1.703125 0l0 -4.921875q0 -0.96875 -0.484375 -1.4375q-0.484375 -0.46875 -1.3125 -0.46875q-0.609375 0 -1.078125 0.34375q-0.46875 0.328125 -0.734375 0.890625q-0.265625 0.546875 -0.265625 1.203125l0 4.390625l-1.71875 0l0 -8.15625zm12.871887 11.875q-1.484375 0 -2.46875 -0.6875q-0.984375 -0.671875 -1.328125 -1.640625l1.609375 -0.671875q0.25 0.65625 0.828125 1.046875q0.59375 0.40625 1.359375 0.40625q1.140625 0 1.78125 -0.671875q0.640625 -0.671875 0.640625 -1.90625l0 -0.78125l-0.09375 0q-0.40625 0.59375 -1.078125 0.9375q-0.671875 0.328125 -1.53125 0.328125q-1.046875 0 -1.921875 -0.515625q-0.875 -0.53125 -1.390625 -1.5q-0.515625 -0.96875 -0.515625 -2.21875q0 -1.25 0.515625 -2.21875q0.515625 -0.96875 1.390625 -1.5q0.875 -0.546875 1.921875 -0.546875q0.84375 0 1.515625 0.34375q0.6875 0.34375 1.09375 0.9375l0.09375 0l0 -1.015625l1.640625 0l0 7.71875q0 1.3125 -0.515625 2.25q-0.5 0.9375 -1.421875 1.421875q-0.921875 0.484375 -2.125 0.484375zm0.015625 -5.203125q0.65625 0 1.203125 -0.3125q0.546875 -0.328125 0.875 -0.921875q0.328125 -0.609375 0.328125 -1.4375q0 -0.859375 -0.328125 -1.453125q-0.328125 -0.609375 -0.875 -0.921875q-0.546875 -0.3125 -1.203125 -0.3125q-0.65625 0 -1.21875 0.3125q-0.546875 0.3125 -0.875 0.921875q-0.328125 0.59375 -0.328125 1.453125q0 0.828125 0.328125 1.4375q0.328125 0.609375 0.875 0.921875q0.5625 0.3125 1.21875 0.3125z" fill-rule="nonzero"/><path fill="#ffffff" d="m694.5294 288.3937l0 0c0 -5.298065 4.294922 -9.592987 9.593018 -9.592987l132.43604 0c2.5442505 0 4.984253 1.0106812 6.783264 2.809723c1.7990723 1.7990112 2.8097534 4.239044 2.8097534 6.783264l0 55.80612c0 5.298065 -4.294922 9.593018 -9.593018 9.593018l-132.43604 0l0 0c-5.2980957 0 -9.593018 -4.2949524 -9.593018 -9.593018z" fill-rule="evenodd"/><path stroke="#4282f2" stroke-width="8.0" stroke-miterlimit="400.0" stroke-linecap="butt" d="m694.5294 288.3937l0 0c0 -5.298065 4.294922 -9.592987 9.593018 -9.592987l132.43604 0c2.5442505 0 4.984253 1.0106812 6.783264 2.809723c1.7990723 1.7990112 2.8097534 4.239044 2.8097534 6.783264l0 55.80612c0 5.298065 -4.294922 9.593018 -9.593018 9.593018l-132.43604 0l0 0c-5.2980957 0 -9.593018 -4.2949524 -9.593018 -9.593018z" fill-rule="evenodd"/><path fill="#000000" d="m731.98926 310.70364l3.65625 0q1.78125 0 3.09375 0.71875q1.328125 0.71875 2.03125 2.03125q0.71875 1.296875 0.71875 2.96875q0 1.6875 -0.71875 3.0q-0.703125 1.296875 -2.03125 2.015625q-1.3125 0.71875 -3.09375 0.71875l-3.65625 0l0 -11.453125zm3.609375 9.796875q1.953125 0 3.03125 -1.078125q1.09375 -1.09375 1.09375 -3.0q0 -1.890625 -1.09375 -2.96875q-1.078125 -1.09375 -3.03125 -1.09375l-1.84375 0l0 8.140625l1.84375 0zm11.108154 1.90625q-1.1875 0 -2.140625 -0.546875q-0.953125 -0.5625 -1.484375 -1.546875q-0.53125 -0.984375 -0.53125 -2.21875q0 -1.171875 0.515625 -2.171875q0.515625 -1.0 1.4375 -1.59375q0.9375 -0.59375 2.109375 -0.59375q1.234375 0 2.125 0.546875q0.890625 0.53125 1.359375 1.484375q0.484375 0.9375 0.484375 2.140625q0 0.3125 -0.03125 0.53125l-6.3125 0q0.125 1.171875 0.84375 1.8125q0.71875 0.625 1.671875 0.625q0.78125 0 1.34375 -0.359375q0.5625 -0.359375 0.90625 -0.953125l1.421875 0.6875q-0.5625 1.015625 -1.5 1.59375q-0.921875 0.5625 -2.21875 0.5625zm2.15625 -5.265625q-0.03125 -0.4375 -0.28125 -0.890625q-0.25 -0.453125 -0.75 -0.734375q-0.484375 -0.296875 -1.203125 -0.296875q-0.859375 0 -1.46875 0.53125q-0.59375 0.515625 -0.8125 1.390625l4.515625 0zm4.086853 -1.640625l-1.484375 0l0 -1.5l1.484375 0l0 -0.671875q0 -1.28125 0.78125 -2.015625q0.796875 -0.734375 2.015625 -0.734375q0.6875 0 1.265625 0.1875l0 1.671875q-0.28125 -0.109375 -0.546875 -0.171875q-0.25 -0.078125 -0.578125 -0.078125q-0.515625 0 -0.875 0.34375q-0.359375 0.328125 -0.359375 0.9375l0 0.53125l2.0625 0l0 1.5l-2.0625 0l0 6.65625l-1.703125 0l0 -6.65625zm8.636902 6.90625q-1.1875 0 -2.140625 -0.546875q-0.953125 -0.5625 -1.484375 -1.546875q-0.53125 -0.984375 -0.53125 -2.21875q0 -1.171875 0.515625 -2.171875q0.515625 -1.0 1.4375 -1.59375q0.9375 -0.59375 2.109375 -0.59375q1.234375 0 2.125 0.546875q0.890625 0.53125 1.359375 1.484375q0.484375 0.9375 0.484375 2.140625q0 0.3125 -0.03125 0.53125l-6.3125 0q0.125 1.171875 0.84375 1.8125q0.71875 0.625 1.671875 0.625q0.78125 0 1.34375 -0.359375q0.5625 -0.359375 0.90625 -0.953125l1.421875 0.6875q-0.5625 1.015625 -1.5 1.59375q-0.921875 0.5625 -2.21875 0.5625zm2.15625 -5.265625q-0.03125 -0.4375 -0.28125 -0.890625q-0.25 -0.453125 -0.75 -0.734375q-0.484375 -0.296875 -1.203125 -0.296875q-0.859375 0 -1.46875 0.53125q-0.59375 0.515625 -0.8125 1.390625l4.515625 0zm3.3250122 -3.140625l1.625 0l0 1.203125l0.09375 0q0.28125 -0.625 0.9375 -1.03125q0.671875 -0.421875 1.4375 -0.421875q0.546875 0 0.984375 0.171875l0 1.78125q-0.65625 -0.28125 -1.265625 -0.28125q-0.90625 0 -1.5 0.703125q-0.59375 0.703125 -0.59375 1.71875l0 4.3125l-1.71875 0l0 -8.15625zm6.4160156 0l1.625 0l0 1.203125l0.09375 0q0.28125 -0.625 0.9375 -1.03125q0.671875 -0.421875 1.4375 -0.421875q0.546875 0 0.984375 0.171875l0 1.78125q-0.65625 -0.28125 -1.265625 -0.28125q-0.90625 0 -1.5 0.703125q-0.59375 0.703125 -0.59375 1.71875l0 4.3125l-1.71875 0l0 -8.15625zm8.674927 8.40625q-0.875 0 -1.5625 -0.34375q-0.6875 -0.34375 -1.078125 -0.96875q-0.375 -0.625 -0.375 -1.421875q0 -0.84375 0.4375 -1.453125q0.453125 -0.625 1.21875 -0.953125q0.765625 -0.328125 1.71875 -0.328125q0.71875 0 1.296875 0.140625q0.59375 0.140625 0.9375 0.3125l0 -0.4375q0 -0.78125 -0.578125 -1.265625q-0.5625 -0.484375 -1.484375 -0.484375q-0.625 0 -1.1875 0.28125q-0.546875 0.265625 -0.890625 0.75l-1.1875 -0.90625q0.53125 -0.75 1.40625 -1.171875q0.875 -0.421875 1.90625 -0.421875q1.765625 0 2.734375 0.875q0.96875 0.875 0.96875 2.4375l0 5.109375l-1.6875 0l0 -1.015625l-0.09375 0q-0.34375 0.546875 -1.0 0.90625q-0.65625 0.359375 -1.5 0.359375zm0.3125 -1.40625q0.640625 0 1.15625 -0.3125q0.53125 -0.3125 0.828125 -0.828125q0.296875 -0.53125 0.296875 -1.140625q-0.375 -0.21875 -0.875 -0.34375q-0.5 -0.140625 -1.046875 -0.140625q-1.0 0 -1.484375 0.40625q-0.46875 0.390625 -0.46875 1.046875q0 0.578125 0.4375 0.953125q0.4375 0.359375 1.15625 0.359375zm10.220398 1.40625q-0.875 0 -1.578125 -0.390625q-0.6875 -0.390625 -1.046875 -0.953125l-0.09375 0l0 1.09375l-1.625 0l0 -11.453125l1.71875 0l0 3.265625l-0.09375 1.125l0.09375 0q0.359375 -0.5625 1.046875 -0.953125q0.703125 -0.40625 1.578125 -0.40625q1.109375 0 2.0 0.5625q0.890625 0.5625 1.40625 1.546875q0.515625 0.984375 0.515625 2.234375q0 1.25 -0.515625 2.25q-0.515625 0.984375 -1.40625 1.53125q-0.890625 0.546875 -2.0 0.546875zm-0.25 -1.578125q0.65625 0 1.21875 -0.34375q0.5625 -0.34375 0.890625 -0.96875q0.34375 -0.625 0.34375 -1.4375q0 -0.8125 -0.34375 -1.4375q-0.328125 -0.625 -0.890625 -0.96875q-0.5625 -0.34375 -1.21875 -0.34375q-0.640625 0 -1.21875 0.34375q-0.5625 0.34375 -0.90625 0.96875q-0.34375 0.625 -0.34375 1.4375q0 0.8125 0.34375 1.4375q0.34375 0.625 0.90625 0.96875q0.578125 0.34375 1.21875 0.34375zm5.682251 -10.125l1.71875 0l0 11.453125l-1.71875 0l0 -11.453125zm7.3987427 11.703125q-1.1875 0 -2.140625 -0.546875q-0.953125 -0.5625 -1.484375 -1.546875q-0.53125 -0.984375 -0.53125 -2.21875q0 -1.171875 0.515625 -2.171875q0.515625 -1.0 1.4375 -1.59375q0.9375 -0.59375 2.109375 -0.59375q1.234375 0 2.125 0.546875q0.890625 0.53125 1.359375 1.484375q0.484375 0.9375 0.484375 2.140625q0 0.3125 -0.03125 0.53125l-6.3125 0q0.125 1.171875 0.84375 1.8125q0.71875 0.625 1.671875 0.625q0.78125 0 1.34375 -0.359375q0.5625 -0.359375 0.90625 -0.953125l1.421875 0.6875q-0.5625 1.015625 -1.5 1.59375q-0.921875 0.5625 -2.21875 0.5625zm2.15625 -5.265625q-0.03125 -0.4375 -0.28125 -0.890625q-0.25 -0.453125 -0.75 -0.734375q-0.484375 -0.296875 -1.203125 -0.296875q-0.859375 0 -1.46875 0.53125q-0.59375 0.515625 -0.8125 1.390625l4.515625 0z" fill-rule="nonzero"/><path fill="#000000" fill-opacity="0.0" d="m479.4431 434.64682l-90.74014 -156.6929" fill-rule="evenodd"/><path stroke="#083042" stroke-width="3.0" stroke-miterlimit="400.0" stroke-linecap="butt" stroke-dasharray="12.0,9.0" d="m470.42273 419.07013l-81.71976 -141.11621" fill-rule="evenodd"/><path fill="#083042" stroke="#083042" stroke-width="3.0" stroke-linecap="butt" d="m466.13464 421.55334l11.110657 9.298218l-2.5344849 -14.264618z" fill-rule="evenodd"/><path fill="#ffffff" d="m674.9376 187.72556l0 0c0 -5.751587 4.6625977 -10.414154 10.414124 -10.414154l130.79376 0c2.762024 0 5.4108887 1.0971985 7.3638916 3.050232c1.953064 1.9530334 3.050293 4.6019135 3.050293 7.363922l0 54.16382c0 5.7515717 -4.6625977 10.414154 -10.414185 10.414154l-130.79376 0c-5.751526 0 -10.414124 -4.6625824 -10.414124 -10.414154z" fill-rule="evenodd"/><path stroke="#3ddc84" stroke-width="8.0" stroke-miterlimit="400.0" stroke-linecap="butt" d="m674.9376 187.72556l0 0c0 -5.751587 4.6625977 -10.414154 10.414124 -10.414154l130.79376 0c2.762024 0 5.4108887 1.0971985 7.3638916 3.050232c1.953064 1.9530334 3.050293 4.6019135 3.050293 7.363922l0 54.16382c0 5.7515717 -4.6625977 10.414154 -10.414185 10.414154l-130.79376 0c-5.751526 0 -10.414124 -4.6625824 -10.414124 -10.414154z" fill-rule="evenodd"/><path fill="#000000" d="m721.61346 209.21434l3.9375 0q1.015625 0 1.875 0.453125q0.859375 0.4375 1.359375 1.25q0.5 0.796875 0.5 1.796875q0 1.015625 -0.5 1.8125q-0.5 0.796875 -1.359375 1.25q-0.859375 0.4375 -1.875 0.4375l-2.171875 0l0 4.453125l-1.765625 0l0 -11.453125zm3.984375 5.34375q0.875 0 1.40625 -0.546875q0.546875 -0.5625 0.546875 -1.296875q0 -0.734375 -0.546875 -1.28125q-0.53125 -0.5625 -1.40625 -0.5625l-2.21875 0l0 3.6875l2.21875 0zm8.3811035 6.359375q-1.1875 0 -2.140625 -0.546875q-0.953125 -0.5625 -1.484375 -1.546875q-0.53125 -0.984375 -0.53125 -2.21875q0 -1.171875 0.515625 -2.171875q0.515625 -1.0 1.4375 -1.59375q0.9375 -0.59375 2.109375 -0.59375q1.234375 0 2.125 0.546875q0.890625 0.53125 1.359375 1.484375q0.484375 0.9375 0.484375 2.140625q0 0.3125 -0.03125 0.53125l-6.3125 0q0.125 1.171875 0.84375 1.8125q0.71875 0.625 1.671875 0.625q0.78125 0 1.34375 -0.359375q0.5625 -0.359375 0.90625 -0.953125l1.421875 0.6875q-0.5625 1.015625 -1.5 1.59375q-0.921875 0.5625 -2.21875 0.5625zm2.15625 -5.265625q-0.03125 -0.4375 -0.28125 -0.890625q-0.25 -0.453125 -0.75 -0.734375q-0.484375 -0.296875 -1.203125 -0.296875q-0.859375 0 -1.46875 0.53125q-0.59375 0.515625 -0.8125 1.390625l4.515625 0zm3.3250122 -3.140625l1.625 0l0 1.203125l0.09375 0q0.28125 -0.625 0.9375 -1.03125q0.671875 -0.421875 1.4375 -0.421875q0.546875 0 0.984375 0.171875l0 1.78125q-0.65625 -0.28125 -1.265625 -0.28125q-0.90625 0 -1.5 0.703125q-0.59375 0.703125 -0.59375 1.71875l0 4.3125l-1.71875 0l0 -8.15625zm7.4003906 -1.203125q-0.484375 0 -0.828125 -0.34375q-0.34375 -0.34375 -0.34375 -0.828125q0 -0.484375 0.34375 -0.8125q0.34375 -0.34375 0.828125 -0.34375q0.484375 0 0.828125 0.34375q0.34375 0.328125 0.34375 0.8125q0 0.484375 -0.34375 0.828125q-0.34375 0.34375 -0.828125 0.34375zm-0.859375 1.203125l1.71875 0l0 8.15625l-1.71875 0l0 -8.15625zm7.623169 8.40625q-1.234375 0 -2.21875 -0.5625q-0.96875 -0.5625 -1.515625 -1.546875q-0.53125 -1.0 -0.53125 -2.21875q0 -1.21875 0.53125 -2.203125q0.546875 -1.0 1.515625 -1.5625q0.984375 -0.578125 2.21875 -0.578125q1.21875 0 2.1875 0.578125q0.984375 0.578125 1.53125 1.578125q0.546875 0.984375 0.546875 2.1875q0 1.21875 -0.546875 2.21875q-0.546875 0.984375 -1.515625 1.546875q-0.96875 0.5625 -2.203125 0.5625zm0 -1.578125q0.6875 0 1.265625 -0.328125q0.578125 -0.34375 0.921875 -0.96875q0.359375 -0.625 0.359375 -1.453125q0 -0.828125 -0.359375 -1.453125q-0.34375 -0.625 -0.921875 -0.953125q-0.578125 -0.34375 -1.265625 -0.34375q-0.6875 0 -1.28125 0.34375q-0.578125 0.328125 -0.9375 0.953125q-0.34375 0.625 -0.34375 1.453125q0 0.828125 0.34375 1.453125q0.359375 0.625 0.9375 0.96875q0.59375 0.328125 1.28125 0.328125zm9.336243 1.578125q-1.109375 0 -2.015625 -0.546875q-0.890625 -0.546875 -1.40625 -1.53125q-0.5 -1.0 -0.5 -2.25q0 -1.25 0.5 -2.234375q0.515625 -0.984375 1.40625 -1.546875q0.90625 -0.5625 2.015625 -0.5625q0.890625 0 1.578125 0.40625q0.6875 0.390625 1.046875 0.953125l0.09375 0l-0.09375 -1.125l0 -3.265625l1.703125 0l0 11.453125l-1.609375 0l0 -1.09375l-0.09375 0q-0.359375 0.5625 -1.046875 0.953125q-0.6875 0.390625 -1.578125 0.390625zm0.25 -1.578125q0.640625 0 1.203125 -0.34375q0.578125 -0.34375 0.921875 -0.96875q0.34375 -0.625 0.34375 -1.4375q0 -0.8125 -0.34375 -1.4375q-0.34375 -0.625 -0.921875 -0.96875q-0.5625 -0.34375 -1.203125 -0.34375q-0.640625 0 -1.21875 0.34375q-0.5625 0.34375 -0.90625 0.96875q-0.34375 0.625 -0.34375 1.4375q0 0.8125 0.34375 1.4375q0.34375 0.625 0.90625 0.96875q0.578125 0.34375 1.21875 0.34375zm7.106018 -8.03125q-0.484375 0 -0.828125 -0.34375q-0.34375 -0.34375 -0.34375 -0.828125q0 -0.484375 0.34375 -0.8125q0.34375 -0.34375 0.828125 -0.34375q0.484375 0 0.828125 0.34375q0.34375 0.328125 0.34375 0.8125q0 0.484375 -0.34375 0.828125q-0.34375 0.34375 -0.828125 0.34375zm-0.859375 1.203125l1.71875 0l0 8.15625l-1.71875 0l0 -8.15625zm7.560669 8.40625q-1.21875 0 -2.1875 -0.546875q-0.953125 -0.5625 -1.484375 -1.546875q-0.53125 -0.984375 -0.53125 -2.234375q0 -1.25 0.53125 -2.234375q0.53125 -0.984375 1.484375 -1.546875q0.96875 -0.5625 2.1875 -0.5625q1.34375 0 2.28125 0.609375q0.9375 0.59375 1.359375 1.65625l-1.578125 0.640625q-0.578125 -1.3125 -2.09375 -1.3125q-0.671875 0 -1.25 0.34375q-0.5625 0.34375 -0.890625 0.96875q-0.328125 0.625 -0.328125 1.4375q0 0.8125 0.328125 1.4375q0.328125 0.625 0.890625 0.96875q0.578125 0.34375 1.25 0.34375q0.765625 0 1.3125 -0.34375q0.5625 -0.34375 0.859375 -1.0l1.5625 0.671875q-0.484375 1.046875 -1.4375 1.65625q-0.9375 0.59375 -2.265625 0.59375z" fill-rule="nonzero"/><path fill="#ffffff" d="m345.4407 187.2981l0 0c0 -5.515503 4.4711914 -9.986694 9.986694 -9.986694l137.03448 0c2.6486206 0 5.1887817 1.0521698 7.0616455 2.9250336c1.8728638 1.8728638 2.9250488 4.413025 2.9250488 7.061661l0 55.018723c0 5.515503 -4.4711914 9.98671 -9.986694 9.98671l-137.03448 0l0 0c-5.515503 0 -9.986694 -4.4712067 -9.986694 -9.98671z" fill-rule="evenodd"/><path stroke="#3ddc84" stroke-width="8.0" stroke-miterlimit="400.0" stroke-linecap="butt" d="m345.4407 187.2981l0 0c0 -5.515503 4.4711914 -9.986694 9.986694 -9.986694l137.03448 0c2.6486206 0 5.1887817 1.0521698 7.0616455 2.9250336c1.8728638 1.8728638 2.9250488 4.413025 2.9250488 7.061661l0 55.018723c0 5.515503 -4.4711914 9.98671 -9.986694 9.98671l-137.03448 0l0 0c-5.515503 0 -9.986694 -4.4712067 -9.986694 -9.98671z" fill-rule="evenodd"/><path fill="#000000" d="m395.0808 220.91747q-1.671875 0 -3.03125 -0.796875q-1.359375 -0.796875 -2.140625 -2.15625q-0.765625 -1.375 -0.765625 -3.03125q0 -1.640625 0.765625 -3.0q0.78125 -1.375 2.140625 -2.171875q1.359375 -0.8125 3.03125 -0.8125q1.65625 0 3.015625 0.8125q1.359375 0.796875 2.125 2.171875q0.78125 1.359375 0.78125 3.0q0 1.65625 -0.78125 3.03125q-0.765625 1.359375 -2.125 2.15625q-1.359375 0.796875 -3.015625 0.796875zm0 -1.65625q1.15625 0 2.109375 -0.546875q0.953125 -0.5625 1.5 -1.546875q0.546875 -0.984375 0.546875 -2.234375q0 -1.234375 -0.546875 -2.21875q-0.546875 -0.984375 -1.5 -1.53125q-0.953125 -0.5625 -2.109375 -0.5625q-1.15625 0 -2.109375 0.5625q-0.953125 0.546875 -1.5 1.53125q-0.546875 0.984375 -0.546875 2.21875q0 1.25 0.546875 2.234375q0.546875 0.984375 1.5 1.546875q0.953125 0.546875 2.109375 0.546875zm7.5914 -6.75l1.625 0l0 1.109375l0.09375 0q0.359375 -0.59375 1.0625 -0.984375q0.703125 -0.390625 1.515625 -0.390625q1.46875 0 2.234375 0.875q0.765625 0.875 0.765625 2.390625l0 5.15625l-1.703125 0l0 -4.921875q0 -0.96875 -0.484375 -1.4375q-0.484375 -0.46875 -1.3125 -0.46875q-0.609375 0 -1.078125 0.34375q-0.46875 0.328125 -0.734375 0.890625q-0.265625 0.546875 -0.265625 1.203125l0 4.390625l-1.71875 0l0 -8.15625zm12.998779 8.40625q-1.1875 0 -2.140625 -0.546875q-0.953125 -0.5625 -1.484375 -1.546875q-0.53125 -0.984375 -0.53125 -2.21875q0 -1.171875 0.515625 -2.171875q0.515625 -1.0 1.4375 -1.59375q0.9375 -0.59375 2.109375 -0.59375q1.234375 0 2.125 0.546875q0.890625 0.53125 1.359375 1.484375q0.484375 0.9375 0.484375 2.140625q0 0.3125 -0.03125 0.53125l-6.3125 0q0.125 1.171875 0.84375 1.8125q0.71875 0.625 1.671875 0.625q0.78125 0 1.34375 -0.359375q0.5625 -0.359375 0.90625 -0.953125l1.421875 0.6875q-0.5625 1.015625 -1.5 1.59375q-0.921875 0.5625 -2.21875 0.5625zm2.15625 -5.265625q-0.03125 -0.4375 -0.28125 -0.890625q-0.25 -0.453125 -0.75 -0.734375q-0.484375 -0.296875 -1.203125 -0.296875q-0.859375 0 -1.46875 0.53125q-0.59375 0.515625 -0.8125 1.390625l4.515625 0zm2.3093872 5.015625l0 0zm6.7130127 -9.796875l-3.203125 0l0 -1.65625l8.171875 0l0 1.65625l-3.203125 0l0 9.796875l-1.765625 0l0 -9.796875zm7.127014 0.4375q-0.484375 0 -0.828125 -0.34375q-0.34375 -0.34375 -0.34375 -0.828125q0 -0.484375 0.34375 -0.8125q0.34375 -0.34375 0.828125 -0.34375q0.484375 0 0.828125 0.34375q0.34375 0.328125 0.34375 0.8125q0 0.484375 -0.34375 0.828125q-0.34375 0.34375 -0.828125 0.34375zm-0.859375 1.203125l1.71875 0l0 8.15625l-1.71875 0l0 -8.15625zm3.875 0l1.625 0l0 1.109375l0.09375 0q0.375 -0.59375 1.046875 -0.984375q0.671875 -0.390625 1.46875 -0.390625q0.875 0 1.515625 0.421875q0.65625 0.421875 0.953125 1.109375q0.421875 -0.6875 1.109375 -1.109375q0.703125 -0.421875 1.65625 -0.421875q1.40625 0 2.125 0.859375q0.71875 0.859375 0.71875 2.328125l0 5.234375l-1.71875 0l0 -4.9375q0 -1.890625 -1.59375 -1.890625q-0.875 0 -1.4375 0.703125q-0.546875 0.703125 -0.546875 1.75l0 4.375l-1.71875 0l0 -4.9375q0 -1.890625 -1.640625 -1.890625q-0.84375 0 -1.390625 0.71875q-0.546875 0.703125 -0.546875 1.75l0 4.359375l-1.71875 0l0 -8.15625zm18.006775 8.40625q-1.1875 0 -2.140625 -0.546875q-0.953125 -0.5625 -1.484375 -1.546875q-0.53125 -0.984375 -0.53125 -2.21875q0 -1.171875 0.515625 -2.171875q0.515625 -1.0 1.4375 -1.59375q0.9375 -0.59375 2.109375 -0.59375q1.234375 0 2.125 0.546875q0.890625 0.53125 1.359375 1.484375q0.484375 0.9375 0.484375 2.140625q0 0.3125 -0.03125 0.53125l-6.3125 0q0.125 1.171875 0.84375 1.8125q0.71875 0.625 1.671875 0.625q0.78125 0 1.34375 -0.359375q0.5625 -0.359375 0.90625 -0.953125l1.421875 0.6875q-0.5625 1.015625 -1.5 1.59375q-0.921875 0.5625 -2.21875 0.5625zm2.15625 -5.265625q-0.03125 -0.4375 -0.28125 -0.890625q-0.25 -0.453125 -0.75 -0.734375q-0.484375 -0.296875 -1.203125 -0.296875q-0.859375 0 -1.46875 0.53125q-0.59375 0.515625 -0.8125 1.390625l4.515625 0z" fill-rule="nonzero"/><g filter="url(#shadowFilter-g105fbafdbb9_2_0.2)"><use xlink:href="#g105fbafdbb9_2_0.2" transform=""/></g><defs><filter id="shadowFilter-g105fbafdbb9_2_0.2" filterUnits="userSpaceOnUse"><feGaussianBlur in="SourceAlpha" stdDeviation="7.1111107" result="blur"/><feComponentTransfer in="blur" color-interpolation-filters="sRGB"><feFuncR type="linear" slope="0" intercept="0.0"/><feFuncG type="linear" slope="0" intercept="0.0"/><feFuncB type="linear" slope="0" intercept="0.0"/><feFuncA type="linear" slope="0.2196" intercept="0"/></feComponentTransfer></filter></defs><g id="g105fbafdbb9_2_0.2"><path fill="#ffffff" d="m500.16956 18.718119l0 0c0 -5.813635 4.7128906 -10.526518 10.52652 -10.526518l135.95486 0c2.791748 0 5.4692383 1.1090412 7.4433594 3.083146c1.97406 1.9741049 3.08313 4.6515665 3.08313 7.443372l0 134.15956c0 5.813629 -4.7128906 10.52652 -10.526489 10.52652l-135.95486 0l0 0c-5.813629 0 -10.52652 -4.7128906 -10.52652 -10.52652z" fill-rule="evenodd"/></g><path fill="#000000" fill-opacity="0.0" d="m506.55786 112.46488l143.05511 0l0 24.787407l-143.05511 0z" fill-rule="evenodd"/><path fill="#000000" d="m525.9509 116.37176l1.953125 0l1.828125 7.4375l0.1875 0.984375l0.109375 0l0.234375 -0.984375l2.296875 -7.4375l1.765625 0l2.203125 7.4375l0.25 0.96875l0.09375 0l0.1875 -0.96875l1.828125 -7.4375l1.9375 0l-3.03125 11.453125l-1.859375 0l-2.1875 -7.59375l-0.25 -1.078125l-0.09375 0l-0.28125 1.078125l-2.28125 7.59375l-1.8125 0l-3.078125 -11.453125zm19.074158 11.703117q-1.234375 0 -2.21875 -0.5624924q-0.96875 -0.5625 -1.515625 -1.546875q-0.53125 -1.0 -0.53125 -2.21875q0 -1.21875 0.53125 -2.203125q0.546875 -1.0 1.515625 -1.5625q0.984375 -0.578125 2.21875 -0.578125q1.21875 0 2.1875 0.578125q0.984375 0.578125 1.53125 1.578125q0.546875 0.984375 0.546875 2.1875q0 1.21875 -0.546875 2.21875q-0.546875 0.984375 -1.515625 1.546875q-0.96875 0.5624924 -2.203125 0.5624924zm0 -1.5781174q0.6875 0 1.265625 -0.328125q0.578125 -0.34375 0.921875 -0.96875q0.359375 -0.625 0.359375 -1.453125q0 -0.828125 -0.359375 -1.453125q-0.34375 -0.625 -0.921875 -0.953125q-0.578125 -0.34375 -1.265625 -0.34375q-0.6875 0 -1.28125 0.34375q-0.578125 0.328125 -0.9375 0.953125q-0.34375 0.625 -0.34375 1.453125q0 0.828125 0.34375 1.453125q0.359375 0.625 0.9375 0.96875q0.59375 0.328125 1.28125 0.328125zm5.6918945 -6.828125l1.625 0l0 1.203125l0.09375 0q0.28125 -0.625 0.9375 -1.03125q0.671875 -0.421875 1.4375 -0.421875q0.546875 0 0.984375 0.171875l0 1.78125q-0.65625 -0.28125 -1.265625 -0.28125q-0.90625 0 -1.5 0.703125q-0.59375 0.703125 -0.59375 1.71875l0 4.3125l-1.71875 0l0 -8.15625zm6.4960327 -3.296875l1.71875 0l0 6.71875l0.0625 0l3.390625 -3.421875l2.15625 0l0 0.09375l-3.15625 3.140625l3.265625 4.828125l0 0.09375l-2.046875 0l-2.4375 -3.75l-1.234375 1.234375l0 2.515625l-1.71875 0l0 -11.453125zm8.793274 0l2.359375 0l3.359375 8.71875l0.09375 0l3.359375 -8.71875l2.359375 0l0 11.453125l-1.71875 0l0 -6.484375l0.09375 -2.03125l-0.09375 0l-3.34375 8.515625l-1.390625 0l-3.34375 -8.515625l-0.109375 0l0.109375 2.03125l0 6.484375l-1.734375 0l0 -11.453125zm16.153625 11.703117q-0.875 0 -1.5625 -0.34374237q-0.6875 -0.34375 -1.078125 -0.96875q-0.375 -0.625 -0.375 -1.421875q0 -0.84375 0.4375 -1.453125q0.453125 -0.625 1.21875 -0.953125q0.765625 -0.328125 1.71875 -0.328125q0.71875 0 1.296875 0.140625q0.59375 0.140625 0.9375 0.3125l0 -0.4375q0 -0.78125 -0.578125 -1.265625q-0.5625 -0.484375 -1.484375 -0.484375q-0.625 0 -1.1875 0.28125q-0.546875 0.265625 -0.890625 0.75l-1.1875 -0.90625q0.53125 -0.75 1.40625 -1.171875q0.875 -0.421875 1.90625 -0.421875q1.765625 0 2.734375 0.875q0.96875 0.875 0.96875 2.4375l0 5.109375l-1.6875 0l0 -1.015625l-0.09375 0q-0.34375 0.546875 -1.0 0.90625q-0.65625 0.35936737 -1.5 0.35936737zm0.3125 -1.4062424q0.640625 0 1.15625 -0.3125q0.53125 -0.3125 0.828125 -0.828125q0.296875 -0.53125 0.296875 -1.140625q-0.375 -0.21875 -0.875 -0.34375q-0.5 -0.140625 -1.046875 -0.140625q-1.0 0 -1.484375 0.40625q-0.46875 0.390625 -0.46875 1.046875q0 0.578125 0.4375 0.953125q0.4375 0.359375 1.15625 0.359375zm5.876648 -7.0l1.625 0l0 1.109375l0.09375 0q0.359375 -0.59375 1.0625 -0.984375q0.703125 -0.390625 1.515625 -0.390625q1.46875 0 2.234375 0.875q0.765625 0.875 0.765625 2.390625l0 5.15625l-1.703125 0l0 -4.921875q0 -0.96875 -0.484375 -1.4375q-0.484375 -0.46875 -1.3125 -0.46875q-0.609375 0 -1.078125 0.34375q-0.46875 0.328125 -0.734375 0.890625q-0.265625 0.546875 -0.265625 1.203125l0 4.390625l-1.71875 0l0 -8.15625zm11.746887 8.406242q-0.875 0 -1.5625 -0.34374237q-0.6875 -0.34375 -1.078125 -0.96875q-0.375 -0.625 -0.375 -1.421875q0 -0.84375 0.4375 -1.453125q0.453125 -0.625 1.21875 -0.953125q0.765625 -0.328125 1.71875 -0.328125q0.71875 0 1.296875 0.140625q0.59375 0.140625 0.9375 0.3125l0 -0.4375q0 -0.78125 -0.578125 -1.265625q-0.5625 -0.484375 -1.484375 -0.484375q-0.625 0 -1.1875 0.28125q-0.546875 0.265625 -0.890625 0.75l-1.1875 -0.90625q0.53125 -0.75 1.40625 -1.171875q0.875 -0.421875 1.90625 -0.421875q1.765625 0 2.734375 0.875q0.96875 0.875 0.96875 2.4375l0 5.109375l-1.6875 0l0 -1.015625l-0.09375 0q-0.34375 0.546875 -1.0 0.90625q-0.65625 0.35936737 -1.5 0.35936737zm0.3125 -1.4062424q0.640625 0 1.15625 -0.3125q0.53125 -0.3125 0.828125 -0.828125q0.296875 -0.53125 0.296875 -1.140625q-0.375 -0.21875 -0.875 -0.34375q-0.5 -0.140625 -1.046875 -0.140625q-1.0 0 -1.484375 0.40625q-0.46875 0.390625 -0.46875 1.046875q0 0.578125 0.4375 0.953125q0.4375 0.359375 1.15625 0.359375zm9.468506 4.8749924q-1.484375 0 -2.46875 -0.6875q-0.984375 -0.671875 -1.328125 -1.640625l1.609375 -0.671875q0.25 0.65625 0.828125 1.046875q0.59375 0.40625 1.359375 0.40625q1.140625 0 1.78125 -0.671875q0.640625 -0.671875 0.640625 -1.9062424l0 -0.78125l-0.09375 0q-0.40625 0.59375 -1.078125 0.9375q-0.671875 0.328125 -1.53125 0.328125q-1.046875 0 -1.921875 -0.515625q-0.875 -0.53125 -1.390625 -1.5q-0.515625 -0.96875 -0.515625 -2.21875q0 -1.25 0.515625 -2.21875q0.515625 -0.96875 1.390625 -1.5q0.875 -0.546875 1.921875 -0.546875q0.84375 0 1.515625 0.34375q0.6875 0.34375 1.09375 0.9375l0.09375 0l0 -1.015625l1.640625 0l0 7.71875q0 1.3124924 -0.515625 2.2499924q-0.5 0.9375 -1.421875 1.421875q-0.921875 0.484375 -2.125 0.484375zm0.015625 -5.2031174q0.65625 0 1.203125 -0.3125q0.546875 -0.328125 0.875 -0.921875q0.328125 -0.609375 0.328125 -1.4375q0 -0.859375 -0.328125 -1.453125q-0.328125 -0.609375 -0.875 -0.921875q-0.546875 -0.3125 -1.203125 -0.3125q-0.65625 0 -1.21875 0.3125q-0.546875 0.3125 -0.875 0.921875q-0.328125 0.59375 -0.328125 1.453125q0 0.828125 0.328125 1.4375q0.328125 0.609375 0.875 0.921875q0.5625 0.3125 1.21875 0.3125zm9.711304 1.7343674q-1.1875 0 -2.140625 -0.5468674q-0.953125 -0.5625 -1.484375 -1.546875q-0.53125 -0.984375 -0.53125 -2.21875q0 -1.171875 0.515625 -2.171875q0.515625 -1.0 1.4375 -1.59375q0.9375 -0.59375 2.109375 -0.59375q1.234375 0 2.125 0.546875q0.890625 0.53125 1.359375 1.484375q0.484375 0.9375 0.484375 2.140625q0 0.3125 -0.03125 0.53125l-6.3125 0q0.125 1.171875 0.84375 1.8125q0.71875 0.625 1.671875 0.625q0.78125 0 1.34375 -0.359375q0.5625 -0.359375 0.90625 -0.953125l1.421875 0.6875q-0.5625 1.015625 -1.5 1.59375q-0.921875 0.5624924 -2.21875 0.5624924zm2.15625 -5.2656174q-0.03125 -0.4375 -0.28125 -0.890625q-0.25 -0.453125 -0.75 -0.734375q-0.484375 -0.296875 -1.203125 -0.296875q-0.859375 0 -1.46875 0.53125q-0.59375 0.515625 -0.8125 1.390625l4.515625 0zm3.3250122 -3.140625l1.625 0l0 1.203125l0.09375 0q0.28125 -0.625 0.9375 -1.03125q0.671875 -0.421875 1.4375 -0.421875q0.546875 0 0.984375 0.171875l0 1.78125q-0.65625 -0.28125 -1.265625 -0.28125q-0.90625 0 -1.5 0.703125q-0.59375 0.703125 -0.59375 1.71875l0 4.3125l-1.71875 0l0 -8.15625z" fill-rule="nonzero"/><path fill="#4285f4" d="m548.3436 62.03234l0 0c0 -16.93383 13.7276 -30.661415 30.661438 -30.661415l0 0c8.131897 0 15.930786 3.2303886 21.680908 8.980522c5.750122 5.7501297 8.98053 13.548981 8.98053 21.680893l0 0c0 16.933838 -13.7276 30.661415 -30.661438 30.661415l0 0c-16.933838 0 -30.661438 -13.727577 -30.661438 -30.661415z" fill-rule="evenodd"/><path fill="#ffffff" d="m579.01385 44.142246c-9.878479 0 -17.903625 8.033421 -17.903625 17.9202c0 9.853622 8.0251465 17.88704 17.903625 17.88704c9.878479 0 17.903625 -8.033417 17.903625 -17.88704c0 -9.88678 -7.9223633 -17.9202 -17.903625 -17.9202zm12.484436 10.745487l-5.316345 0c-0.5835571 -2.2313194 -1.3709717 -4.3598633 -2.538025 -6.385624c3.2922974 1.1670494 6.1054688 3.501152 7.85437 6.385624zm-12.484436 -7.07193c1.4405518 2.12854 2.605957 4.565422 3.3950195 7.07193l-6.8928833 0c0.8918457 -2.5065079 2.057251 -4.94339 3.4978638 -7.07193zm-13.857117 17.920197c-0.27349854 -1.1670456 -0.47906494 -2.299286 -0.47906494 -3.570774c0 -1.2698326 0.2055664 -2.436882 0.47906494 -3.6039352l6.1054688 0c-0.1027832 1.1670532 -0.27349854 2.3341026 -0.27349854 3.6039352c0 1.2714882 0.1027832 2.4037285 0.27349854 3.570774l-6.1054688 0zm1.4754028 3.570778l5.3164062 0c0.5834961 2.2313232 1.3726196 4.3598633 2.5031738 6.3856277c-3.3602295 -1.1670532 -6.0706177 -3.501152 -7.81958 -6.3856277zm5.3164062 -14.4190445l-5.3164062 0c1.7489624 -2.9872513 4.4593506 -5.2185745 7.751648 -6.385624c-1.0626221 2.0257607 -1.8517456 4.1543045 -2.4352417 6.385624zm7.0653076 21.490974c-1.4406128 -2.12854 -2.606018 -4.565422 -3.3950806 -7.07193l6.8928833 0c-0.7890625 2.5065079 -1.9544678 4.94339 -3.4978027 7.07193zm4.253723 -10.642708l-8.403076 0c-0.20721436 -1.1670456 -0.30999756 -2.299286 -0.30999756 -3.570774c0 -1.2698326 0.1027832 -2.436882 0.30999756 -3.6039352l8.403076 0c0.2055664 1.1670532 0.3083496 2.3341026 0.3083496 3.6039352c0 1.1687088 -0.2055664 2.3357582 -0.3083496 3.570774zm0.37634277 9.956406c1.0974121 -2.0257645 1.9544678 -4.1543045 2.538025 -6.3856277l5.316345 0c-1.7489014 2.8844757 -4.5620728 5.2185745 -7.85437 6.3856277zm3.2243042 -9.956406c0.067993164 -1.1670456 0.27349854 -2.299286 0.27349854 -3.570774c0 -1.2698326 -0.1027832 -2.436882 -0.27349854 -3.6039352l6.0706787 0c0.30828857 1.1670532 0.513855 2.3341026 0.513855 3.6039352c0 1.2714882 -0.2055664 2.4037285 -0.513855 3.570774l-6.0706787 0z" fill-rule="evenodd"/><path fill="#000000" fill-opacity="0.0" d="m184.73862 434.64682l0 -119.18109l128.1575 0" fill-rule="evenodd"/><path stroke="#083042" stroke-width="3.0" stroke-miterlimit="8.0" stroke-linecap="butt" d="m184.73862 416.64682l0 -101.18109l128.15747 0" fill-rule="evenodd"/><path fill="#083042" stroke="#083042" stroke-width="3.0" stroke-linecap="butt" d="m179.78342 416.64682l4.9552 13.614288l4.9552 -13.614288z" fill-rule="evenodd"/><path fill="#000000" fill-opacity="0.0" d="m423.94464 177.3114l0 -91.527565l76.22046 0" fill-rule="evenodd"/><path stroke="#083042" stroke-width="3.0" stroke-miterlimit="8.0" stroke-linecap="butt" d="m423.94464 159.31139l0 -73.52755l76.22046 0" fill-rule="evenodd"/><path fill="#083042" stroke="#083042" stroke-width="3.0" stroke-linecap="butt" d="m418.98944 159.31139l4.9552 13.614304l4.9552 -13.614304z" fill-rule="evenodd"/><path fill="#000000" fill-opacity="0.0" d="m750.74866 177.3114l0 -91.527565l-93.57483 0" fill-rule="evenodd"/><path stroke="#083042" stroke-width="3.0" stroke-miterlimit="8.0" stroke-linecap="butt" d="m750.7486 159.31139l0 -73.52755l-93.57477 0" fill-rule="evenodd"/><path fill="#083042" stroke="#083042" stroke-width="3.0" stroke-linecap="butt" d="m745.7934 159.31139l4.9552 13.614304l4.9552 -13.614304z" fill-rule="evenodd"/><path fill="#ffffff" d="m312.8946 287.55713l0 0c0 -5.2980347 4.2949524 -9.592987 9.593018 -9.592987l132.43607 0c2.54422 0 4.9842224 1.0106812 6.783264 2.809723c1.7990112 1.7990417 2.809723 4.239044 2.809723 6.783264l0 55.806152c0 5.298065 -4.2949524 9.592987 -9.592987 9.592987l-132.43607 0l0 0c-5.298065 0 -9.593018 -4.294922 -9.593018 -9.592987z" fill-rule="evenodd"/><path stroke="#4282f2" stroke-width="8.0" stroke-miterlimit="400.0" stroke-linecap="butt" d="m312.8946 287.55713l0 0c0 -5.2980347 4.2949524 -9.592987 9.593018 -9.592987l132.43607 0c2.54422 0 4.9842224 1.0106812 6.783264 2.809723c1.7990112 1.7990417 2.809723 4.239044 2.809723 6.783264l0 55.806152c0 5.298065 -4.2949524 9.592987 -9.592987 9.592987l-132.43607 0l0 0c-5.298065 0 -9.593018 -4.294922 -9.593018 -9.592987z" fill-rule="evenodd"/><path fill="#000000" d="m350.15442 309.8671l1.765625 0l0 11.453125l-1.765625 0l0 -11.453125zm4.054779 3.296875l1.625 0l0 1.109375l0.09375 0q0.375 -0.59375 1.046875 -0.984375q0.671875 -0.390625 1.46875 -0.390625q0.875 0 1.515625 0.421875q0.65625 0.421875 0.953125 1.109375q0.421875 -0.6875 1.109375 -1.109375q0.703125 -0.421875 1.65625 -0.421875q1.40625 0 2.125 0.859375q0.71875 0.859375 0.71875 2.328125l0 5.234375l-1.71875 0l0 -4.9375q0 -1.890625 -1.59375 -1.890625q-0.875 0 -1.4375 0.703125q-0.546875 0.703125 -0.546875 1.75l0 4.375l-1.71875 0l0 -4.9375q0 -1.890625 -1.640625 -1.890625q-0.84375 0 -1.390625 0.71875q-0.546875 0.703125 -0.546875 1.75l0 4.359375l-1.71875 0l0 -8.15625zm14.288025 0l1.625 0l0 1.109375l0.09375 0q0.375 -0.59375 1.046875 -0.984375q0.671875 -0.390625 1.46875 -0.390625q0.875 0 1.515625 0.421875q0.65625 0.421875 0.953125 1.109375q0.421875 -0.6875 1.109375 -1.109375q0.703125 -0.421875 1.65625 -0.421875q1.40625 0 2.125 0.859375q0.71875 0.859375 0.71875 2.328125l0 5.234375l-1.71875 0l0 -4.9375q0 -1.890625 -1.59375 -1.890625q-0.875 0 -1.4375 0.703125q-0.546875 0.703125 -0.546875 1.75l0 4.375l-1.71875 0l0 -4.9375q0 -1.890625 -1.640625 -1.890625q-0.84375 0 -1.390625 0.71875q-0.546875 0.703125 -0.546875 1.75l0 4.359375l-1.71875 0l0 -8.15625zm18.006775 8.40625q-1.1875 0 -2.140625 -0.546875q-0.953125 -0.5625 -1.484375 -1.546875q-0.53125 -0.984375 -0.53125 -2.21875q0 -1.171875 0.515625 -2.171875q0.515625 -1.0 1.4375 -1.59375q0.9375 -0.59375 2.109375 -0.59375q1.234375 0 2.125 0.546875q0.890625 0.53125 1.359375 1.484375q0.484375 0.9375 0.484375 2.140625q0 0.3125 -0.03125 0.53125l-6.3125 0q0.125 1.171875 0.84375 1.8125q0.71875 0.625 1.671875 0.625q0.78125 0 1.34375 -0.359375q0.5625 -0.359375 0.90625 -0.953125l1.421875 0.6875q-0.5625 1.015625 -1.5 1.59375q-0.921875 0.5625 -2.21875 0.5625zm2.15625 -5.265625q-0.03125 -0.4375 -0.28125 -0.890625q-0.25 -0.453125 -0.75 -0.734375q-0.484375 -0.296875 -1.203125 -0.296875q-0.859375 0 -1.46875 0.53125q-0.59375 0.515625 -0.8125 1.390625l4.515625 0zm6.889374 5.265625q-1.109375 0 -2.015625 -0.546875q-0.890625 -0.546875 -1.40625 -1.53125q-0.5 -1.0 -0.5 -2.25q0 -1.25 0.5 -2.234375q0.515625 -0.984375 1.40625 -1.546875q0.90625 -0.5625 2.015625 -0.5625q0.890625 0 1.578125 0.40625q0.6875 0.390625 1.046875 0.953125l0.09375 0l-0.09375 -1.125l0 -3.265625l1.703125 0l0 11.453125l-1.609375 0l0 -1.09375l-0.09375 0q-0.359375 0.5625 -1.046875 0.953125q-0.6875 0.390625 -1.578125 0.390625zm0.25 -1.578125q0.640625 0 1.203125 -0.34375q0.578125 -0.34375 0.921875 -0.96875q0.34375 -0.625 0.34375 -1.4375q0 -0.8125 -0.34375 -1.4375q-0.34375 -0.625 -0.921875 -0.96875q-0.5625 -0.34375 -1.203125 -0.34375q-0.640625 0 -1.21875 0.34375q-0.5625 0.34375 -0.90625 0.96875q-0.34375 0.625 -0.34375 1.4375q0 0.8125 0.34375 1.4375q0.34375 0.625 0.90625 0.96875q0.578125 0.34375 1.21875 0.34375zm7.106018 -8.03125q-0.484375 0 -0.828125 -0.34375q-0.34375 -0.34375 -0.34375 -0.828125q0 -0.484375 0.34375 -0.8125q0.34375 -0.34375 0.828125 -0.34375q0.484375 0 0.828125 0.34375q0.34375 0.328125 0.34375 0.8125q0 0.484375 -0.34375 0.828125q-0.34375 0.34375 -0.828125 0.34375zm-0.859375 1.203125l1.71875 0l0 8.15625l-1.71875 0l0 -8.15625zm6.3418884 8.40625q-0.875 0 -1.5625 -0.34375q-0.6875 -0.34375 -1.078125 -0.96875q-0.375 -0.625 -0.375 -1.421875q0 -0.84375 0.4375 -1.453125q0.453125 -0.625 1.21875 -0.953125q0.765625 -0.328125 1.71875 -0.328125q0.71875 0 1.296875 0.140625q0.59375 0.140625 0.9375 0.3125l0 -0.4375q0 -0.78125 -0.578125 -1.265625q-0.5625 -0.484375 -1.484375 -0.484375q-0.625 0 -1.1875 0.28125q-0.546875 0.265625 -0.890625 0.75l-1.1875 -0.90625q0.53125 -0.75 1.40625 -1.171875q0.875 -0.421875 1.90625 -0.421875q1.765625 0 2.734375 0.875q0.96875 0.875 0.96875 2.4375l0 5.109375l-1.6875 0l0 -1.015625l-0.09375 0q-0.34375 0.546875 -1.0 0.90625q-0.65625 0.359375 -1.5 0.359375zm0.3125 -1.40625q0.640625 0 1.15625 -0.3125q0.53125 -0.3125 0.828125 -0.828125q0.296875 -0.53125 0.296875 -1.140625q-0.375 -0.21875 -0.875 -0.34375q-0.5 -0.140625 -1.046875 -0.140625q-1.0 0 -1.484375 0.40625q-0.46875 0.390625 -0.46875 1.046875q0 0.578125 0.4375 0.953125q0.4375 0.359375 1.15625 0.359375zm9.060394 1.28125q-0.546875 0 -1.03125 -0.15625q-0.46875 -0.171875 -0.765625 -0.484375q-0.6875 -0.65625 -0.6875 -1.859375l0 -4.28125l-1.421875 0l0 -1.5l1.421875 0l0 -2.3125l1.71875 0l0 2.3125l2.0 0l0 1.5l-2.0 0l0 3.921875q0 0.671875 0.265625 0.9375q0.265625 0.3125 0.828125 0.3125q0.28125 0 0.484375 -0.0625q0.21875 -0.078125 0.46875 -0.25l0 1.6875q-0.53125 0.234375 -1.28125 0.234375zm6.3270264 0.125q-1.1875 0 -2.140625 -0.546875q-0.953125 -0.5625 -1.484375 -1.546875q-0.53125 -0.984375 -0.53125 -2.21875q0 -1.171875 0.515625 -2.171875q0.515625 -1.0 1.4375 -1.59375q0.9375 -0.59375 2.109375 -0.59375q1.234375 0 2.125 0.546875q0.890625 0.53125 1.359375 1.484375q0.484375 0.9375 0.484375 2.140625q0 0.3125 -0.03125 0.53125l-6.3125 0q0.125 1.171875 0.84375 1.8125q0.71875 0.625 1.671875 0.625q0.78125 0 1.34375 -0.359375q0.5625 -0.359375 0.90625 -0.953125l1.421875 0.6875q-0.5625 1.015625 -1.5 1.59375q-0.921875 0.5625 -2.21875 0.5625zm2.15625 -5.265625q-0.03125 -0.4375 -0.28125 -0.890625q-0.25 -0.453125 -0.75 -0.734375q-0.484375 -0.296875 -1.203125 -0.296875q-0.859375 0 -1.46875 0.53125q-0.59375 0.515625 -0.8125 1.390625l4.515625 0z" fill-rule="nonzero"/></g></svg>