<svg version="1.1" viewBox="0.0 0.0 435.37795275590554 363.01574803149606" fill="none" stroke="none" stroke-linecap="square" stroke-miterlimit="10" xmlns:xlink="http://www.w3.org/1999/xlink" xmlns="http://www.w3.org/2000/svg"><clipPath id="p.0"><path d="m0 0l435.37796 0l0 363.01575l-435.37796 0l0 -363.01575z" clip-rule="nonzero"/></clipPath><g clip-path="url(#p.0)"><path fill="#000000" fill-opacity="0.0" d="m0 0l435.37796 0l0 363.01575l-435.37796 0z" fill-rule="evenodd"/><path fill="#cfe2f3" d="m7.2388453 7.8241467l166.4252 0l0 55.46457l-166.4252 0z" fill-rule="evenodd"/><path stroke="#000000" stroke-width="1.0" stroke-linejoin="round" stroke-linecap="butt" d="m7.2388453 7.8241467l166.4252 0l0 55.46457l-166.4252 0z" fill-rule="evenodd"/><path fill="#000000" d="m18.97322 47.83643l0 -24.8125l17.9375 0l0 2.9375l-14.640625 0l0 7.59375l13.71875 0l0 2.90625l-13.71875 0l0 8.453125l15.21875 0l0 2.921875l-18.515625 0zm22.662323 0l0 -17.96875l2.75 0l0 2.546875q1.96875 -2.953125 5.71875 -2.953125q1.625 0 2.984375 0.59375q1.359375 0.578125 2.03125 1.53125q0.6875 0.9375 0.953125 2.234375q0.171875 0.84375 0.171875 2.96875l0 11.046875l-3.046875 0l0 -10.9375q0 -1.859375 -0.359375 -2.78125q-0.359375 -0.921875 -1.265625 -1.46875q-0.890625 -0.546875 -2.109375 -0.546875q-1.953125 0 -3.375 1.234375q-1.40625 1.234375 -1.40625 4.6875l0 9.8125l-3.046875 0zm18.086655 -7.453125l0 -3.0625l9.359375 0l0 3.0625l-9.359375 0zm19.384552 4.734375l0.4375 2.6875q-1.28125 0.265625 -2.296875 0.265625q-1.65625 0 -2.578125 -0.515625q-0.90625 -0.53125 -1.28125 -1.375q-0.375 -0.859375 -0.375 -3.609375l0 -10.34375l-2.234375 0l0 -2.359375l2.234375 0l0 -4.453125l3.03125 -1.828125l0 6.28125l3.0625 0l0 2.359375l-3.0625 0l0 10.515625q0 1.296875 0.15625 1.671875q0.15625 0.375 0.515625 0.59375q0.375 0.21875 1.046875 0.21875q0.515625 0 1.34375 -0.109375zm15.284866 -3.0625l3.140625 0.390625q-0.75 2.75 -2.765625 4.28125q-2.0 1.515625 -5.140625 1.515625q-3.9375 0 -6.25 -2.421875q-2.3125 -2.4375 -2.3125 -6.8125q0 -4.546875 2.328125 -7.046875q2.34375 -2.5 6.0625 -2.5q3.609375 0 5.890625 2.453125q2.28125 2.453125 2.28125 6.90625q0 0.265625 -0.015625 0.8125l-13.390625 0q0.15625 2.953125 1.65625 4.53125q1.515625 1.578125 3.765625 1.578125q1.6875 0 2.859375 -0.875q1.1875 -0.890625 1.890625 -2.8125zm-10.015625 -4.9375l10.046875 0q-0.203125 -2.265625 -1.15625 -3.390625q-1.453125 -1.765625 -3.765625 -1.765625q-2.109375 0 -3.546875 1.40625q-1.421875 1.40625 -1.578125 3.75zm5.03125 -12.359375l-1.921875 2.875l-3.484375 0l3.65625 -4.734375l3.25 0l3.8125 4.734375l-3.453125 0l-1.859375 -2.875zm18.60228 20.359375l0.4375 2.6875q-1.28125 0.265625 -2.296875 0.265625q-1.65625 0 -2.578125 -0.515625q-0.90625 -0.53125 -1.28125 -1.375q-0.375 -0.859375 -0.375 -3.609375l0 -10.34375l-2.234375 0l0 -2.359375l2.234375 0l0 -4.453125l3.03125 -1.828125l0 6.28125l3.0625 0l0 2.359375l-3.0625 0l0 10.515625q0 1.296875 0.15625 1.671875q0.15625 0.375 0.515625 0.59375q0.375 0.21875 1.046875 0.21875q0.515625 0 1.34375 -0.109375zm15.284866 -3.0625l3.140625 0.390625q-0.75 2.75 -2.765625 4.28125q-2.0 1.515625 -5.140625 1.515625q-3.9375 0 -6.25 -2.421875q-2.3125 -2.4375 -2.3125 -6.8125q0 -4.546875 2.328125 -7.046875q2.34375 -2.5 6.0625 -2.5q3.609375 0 5.890625 2.453125q2.28125 2.453125 2.28125 6.90625q0 0.265625 -0.015625 0.8125l-13.390625 0q0.15625 2.953125 1.65625 4.53125q1.515625 1.578125 3.765625 1.578125q1.6875 0 2.859375 -0.875q1.1875 -0.890625 1.890625 -2.8125zm-10.015625 -4.9375l10.046875 0q-0.203125 -2.265625 -1.15625 -3.390625q-1.453125 -1.765625 -3.765625 -1.765625q-2.109375 0 -3.546875 1.40625q-1.421875 1.40625 -1.578125 3.75z" fill-rule="nonzero"/><path fill="#ffff00" d="m135.07611 12.04462l28.944885 0l0 47.02362l-28.944885 0z" fill-rule="evenodd"/><path stroke="#000000" stroke-width="1.0" stroke-linejoin="round" stroke-linecap="butt" d="m135.07611 12.04462l28.944885 0l0 47.02362l-28.944885 0z" fill-rule="evenodd"/><path fill="#000000" d="m147.48236 34.61768l0 -4.750002l4.75 0l0 4.750002l-4.75 0zm0 13.21875l0 -4.75l4.75 0l0 4.75l-4.75 0z" fill-rule="nonzero"/><path fill="#f9cb9c" d="m92.86614 70.538055l332.85037 0l0 283.43307l-332.85037 0z" fill-rule="evenodd"/><path stroke="#000000" stroke-width="1.0" stroke-linejoin="round" stroke-linecap="butt" d="m92.86614 70.538055l332.85037 0l0 283.43307l-332.85037 0z" fill-rule="evenodd"/><path fill="#000000" d="m166.45021 224.53459l0 -24.8125l9.3125 0q2.84375 0 4.5625 0.765625q1.71875 0.75 2.6875 2.3125q0.96875 1.5625 0.96875 3.265625q0 1.59375 -0.859375 3.0q-0.859375 1.40625 -2.609375 2.265625q2.25 0.65625 3.453125 2.25q1.21875 1.59375 1.21875 3.765625q0 1.734375 -0.734375 3.234375q-0.734375 1.5 -1.828125 2.3125q-1.078125 0.8125 -2.71875 1.234375q-1.625 0.40625 -3.984375 0.40625l-9.46875 0zm3.296875 -14.390625l5.359375 0q2.1875 0 3.125 -0.28125q1.25 -0.375 1.890625 -1.234375q0.640625 -0.859375 0.640625 -2.171875q0 -1.234375 -0.59375 -2.171875q-0.59375 -0.9375 -1.703125 -1.28125q-1.09375 -0.34375 -3.765625 -0.34375l-4.953125 0l0 7.484375zm0 11.46875l6.171875 0q1.59375 0 2.234375 -0.125q1.125 -0.203125 1.890625 -0.671875q0.765625 -0.484375 1.25 -1.375q0.5 -0.90625 0.5 -2.09375q0 -1.390625 -0.71875 -2.40625q-0.703125 -1.03125 -1.96875 -1.4375q-1.265625 -0.421875 -3.625 -0.421875l-5.734375 0l0 8.53125zm19.506073 2.921875l0 -24.8125l3.046875 0l0 24.8125l-3.046875 0zm6.6370087 -8.984375q0 -5.0 2.765625 -7.390625q2.328125 -2.0 5.65625 -2.0q3.703125 0 6.046875 2.4375q2.359375 2.421875 2.359375 6.703125q0 3.46875 -1.046875 5.453125q-1.03125 1.984375 -3.015625 3.09375q-1.984375 1.09375 -4.34375 1.09375q-3.78125 0 -6.109375 -2.421875q-2.3125 -2.421875 -2.3125 -6.96875zm3.125 0q0 3.453125 1.5 5.171875q1.515625 1.71875 3.796875 1.71875q2.265625 0 3.765625 -1.71875q1.515625 -1.734375 1.515625 -5.28125q0 -3.328125 -1.515625 -5.046875q-1.515625 -1.71875 -3.765625 -1.71875q-2.28125 0 -3.796875 1.71875q-1.5 1.703125 -1.5 5.15625zm29.00853 2.40625l2.984375 0.390625q-0.484375 3.09375 -2.515625 4.84375q-2.015625 1.75 -4.953125 1.75q-3.6875 0 -5.9375 -2.40625q-2.234375 -2.421875 -2.234375 -6.921875q0 -2.90625 0.953125 -5.078125q0.96875 -2.1875 2.9375 -3.28125q1.96875 -1.09375 4.296875 -1.09375q2.921875 0 4.78125 1.484375q1.859375 1.46875 2.390625 4.203125l-2.96875 0.453125q-0.421875 -1.8125 -1.5 -2.71875q-1.0625 -0.921875 -2.59375 -0.921875q-2.296875 0 -3.734375 1.65625q-1.4375 1.640625 -1.4375 5.21875q0 3.625 1.390625 5.265625q1.390625 1.640625 3.625 1.640625q1.78125 0 2.984375 -1.09375q1.203125 -1.109375 1.53125 -3.390625zm15.237991 -14.734375l0 -3.5l3.046875 0l0 3.5l-3.046875 0zm0 21.3125l0 -17.96875l3.046875 0l0 17.96875l-3.046875 0zm7.6838837 0l0 -17.96875l2.75 0l0 2.546875q1.96875 -2.953125 5.7187653 -2.953125q1.625 0 2.984375 0.59375q1.359375 0.578125 2.03125 1.53125q0.6875 0.9375 0.953125 2.234375q0.171875 0.84375 0.171875 2.96875l0 11.046875l-3.046875 0l0 -10.9375q0 -1.859375 -0.359375 -2.78125q-0.359375 -0.921875 -1.265625 -1.46875q-0.890625 -0.546875 -2.109375 -0.546875q-1.953125 0 -3.3750153 1.234375q-1.40625 1.234375 -1.40625 4.6875l0 9.8125l-3.046875 0zm30.930405 0l0 -2.265625q-1.703125 2.671875 -5.015625 2.671875q-2.15625 0 -3.953125 -1.1875q-1.796875 -1.1875 -2.796875 -3.296875q-0.984375 -2.125 -0.984375 -4.890625q0 -2.6875 0.890625 -4.875q0.90625 -2.203125 2.6875 -3.359375q1.796875 -1.171875 4.015625 -1.171875q1.625 0 2.890625 0.6875q1.28125 0.6875 2.0625 1.78125l0 -8.90625l3.03125 0l0 24.8125l-2.828125 0zm-9.625 -8.96875q0 3.453125 1.453125 5.171875q1.453125 1.703125 3.4375 1.703125q2.0 0 3.390625 -1.625q1.40625 -1.640625 1.40625 -5.0q0 -3.6875 -1.421875 -5.40625q-1.421875 -1.734375 -3.515625 -1.734375q-2.015625 0 -3.390625 1.65625q-1.359375 1.65625 -1.359375 5.234375zm29.55542 3.1875l3.140625 0.390625q-0.75 2.75 -2.765625 4.28125q-2.0 1.515625 -5.140625 1.515625q-3.9375 0 -6.25 -2.421875q-2.3125 -2.4375 -2.3125 -6.8125q0 -4.546875 2.328125 -7.046875q2.34375 -2.5 6.0625 -2.5q3.609375 0 5.890625 2.453125q2.28125 2.453125 2.28125 6.90625q0 0.265625 -0.015625 0.8125l-13.390625 0q0.15625 2.953125 1.65625 4.53125q1.515625 1.578125 3.765625 1.578125q1.6875 0 2.859375 -0.875q1.1875 -0.890625 1.890625 -2.8125zm-10.015625 -4.9375l10.046875 0q-0.203125 -2.265625 -1.15625 -3.390625q-1.453125 -1.765625 -3.765625 -1.765625q-2.109375 0 -3.546875 1.40625q-1.421875 1.40625 -1.578125 3.75zm16.977264 10.71875l0 -17.96875l2.75 0l0 2.546875q1.96875 -2.953125 5.71875 -2.953125q1.625 0 2.984375 0.59375q1.359375 0.578125 2.03125 1.53125q0.6875 0.9375 0.953125 2.234375q0.171875 0.84375 0.171875 2.96875l0 11.046875l-3.046875 0l0 -10.9375q0 -1.859375 -0.359375 -2.78125q-0.359375 -0.921875 -1.265625 -1.46875q-0.890625 -0.546875 -2.109375 -0.546875q-1.953125 0 -3.375 1.234375q-1.40625 1.234375 -1.40625 4.6875l0 9.8125l-3.046875 0zm25.93042 -2.71875l0.4375 2.6875q-1.28125 0.265625 -2.296875 0.265625q-1.65625 0 -2.578125 -0.515625q-0.90625 -0.53125 -1.28125 -1.375q-0.375 -0.859375 -0.375 -3.609375l0 -10.34375l-2.234375 0l0 -2.359375l2.234375 0l0 -4.453125l3.03125 -1.828125l0 6.28125l3.0625 0l0 2.359375l-3.0625 0l0 10.515625q0 1.296875 0.15625 1.671875q0.15625 0.375 0.515625 0.59375q0.375 0.21875 1.046875 0.21875q0.515625 0 1.34375 -0.109375zm15.284882 -3.0625l3.140625 0.390625q-0.75 2.75 -2.765625 4.28125q-2.0000305 1.515625 -5.1406555 1.515625q-3.9375 0 -6.25 -2.421875q-2.3125 -2.4375 -2.3125 -6.8125q0 -4.546875 2.328125 -7.046875q2.34375 -2.5 6.0625 -2.5q3.609375 0 5.8906555 2.453125q2.28125 2.453125 2.28125 6.90625q0 0.265625 -0.015625 0.8125l-13.3906555 0q0.15625 2.953125 1.65625 4.53125q1.515625 1.578125 3.765625 1.578125q1.6875 0 2.859375 -0.875q1.1875305 -0.890625 1.8906555 -2.8125zm-10.0156555 -4.9375l10.0469055 0q-0.203125 -2.265625 -1.1562805 -3.390625q-1.453125 -1.765625 -3.765625 -1.765625q-2.109375 0 -3.546875 1.40625q-1.421875 1.40625 -1.578125 3.75zm3.28125 -9.484375l2.25 -4.734375l4.0000305 0l-3.7187805 4.734375l-2.53125 0z" fill-rule="nonzero"/><path fill="#ff0000" d="m18.094488 205.01837l54.283463 0l0 -7.2362213l14.472443 14.472443l-14.472443 14.472443l0 -7.2362213l-54.283463 0z" fill-rule="evenodd"/><path stroke="#000000" stroke-width="1.0" stroke-linejoin="round" stroke-linecap="butt" d="m18.094488 205.01837l54.283463 0l0 -7.2362213l14.472443 14.472443l-14.472443 14.472443l0 -7.2362213l-54.283463 0z" fill-rule="evenodd"/></g></svg>