<svg version="1.1" viewBox="0.0 0.0 598.1023622047244 372.2020997375328" fill="none" stroke="none" stroke-linecap="square" stroke-miterlimit="10" xmlns:xlink="http://www.w3.org/1999/xlink" xmlns="http://www.w3.org/2000/svg"><clipPath id="p.0"><path d="m0 0l598.10236 0l0 372.2021l-598.10236 0l0 -372.2021z" clip-rule="nonzero"/></clipPath><g clip-path="url(#p.0)"><path fill="#000000" fill-opacity="0.0" d="m0 0l598.10236 0l0 372.2021l-598.10236 0z" fill-rule="evenodd"/><path fill="#000000" fill-opacity="0.0" d="m272.27036 53.283466l25.24408 -42.23622l25.24411 42.23622z" fill-rule="evenodd"/><path stroke="#000000" stroke-width="2.0" stroke-linejoin="round" stroke-linecap="butt" d="m272.27036 53.283466l25.24408 -42.23622l25.24411 42.23622z" fill-rule="evenodd"/><path fill="#000000" fill-opacity="0.0" d="m11.635171 332.97375l25.244095 -42.236237l25.244095 42.236237z" fill-rule="evenodd"/><path stroke="#000000" stroke-width="2.0" stroke-linejoin="round" stroke-linecap="butt" d="m11.635171 332.97375l25.244095 -42.236237l25.244095 42.236237z" fill-rule="evenodd"/><path fill="#000000" fill-opacity="0.0" d="m149.4357 155.32283l-25.244095 42.23622l-25.244095 -42.23622z" fill-rule="evenodd"/><path stroke="#000000" stroke-width="2.0" stroke-linejoin="round" stroke-linecap="butt" d="m149.4357 155.32283l-25.244095 42.23622l-25.244095 -42.23622z" fill-rule="evenodd"/><path fill="#000000" fill-opacity="0.0" d="m496.07874 155.32283l-25.24408 42.23622l-25.24411 -42.23622z" fill-rule="evenodd"/><path stroke="#000000" stroke-width="2.0" stroke-linejoin="round" stroke-linecap="butt" d="m496.07874 155.32283l-25.24408 42.23622l-25.24411 -42.23622z" fill-rule="evenodd"/><path fill="#000000" fill-opacity="0.0" d="m186.25984 332.97375l25.244095 -42.236237l25.244095 42.236237z" fill-rule="evenodd"/><path stroke="#000000" stroke-width="2.0" stroke-linejoin="round" stroke-linecap="butt" d="m186.25984 332.97375l25.244095 -42.236237l25.244095 42.236237z" fill-rule="evenodd"/><path fill="#000000" fill-opacity="0.0" d="m358.27823 332.97375l25.24408 -42.236237l25.24411 42.236237z" fill-rule="evenodd"/><path stroke="#000000" stroke-width="2.0" stroke-linejoin="round" stroke-linecap="butt" d="m358.27823 332.97375l25.24408 -42.236237l25.24411 42.236237z" fill-rule="evenodd"/><path fill="#000000" fill-opacity="0.0" d="m532.9029 332.97375l25.24408 -42.236237l25.24408 42.236237z" fill-rule="evenodd"/><path stroke="#b7b7b7" stroke-width="2.0" stroke-linejoin="round" stroke-linecap="butt" d="m532.9029 332.97375l25.24408 -42.236237l25.24408 42.236237z" fill-rule="evenodd"/><path fill="#000000" fill-opacity="0.0" d="m272.27036 53.283466l-148.063 102.04724" fill-rule="evenodd"/><path stroke="#000000" stroke-width="2.0" stroke-linejoin="round" stroke-linecap="butt" d="m272.27036 53.283466l-148.063 102.04724" fill-rule="evenodd"/><path fill="#000000" fill-opacity="0.0" d="m322.75854 53.283466l148.06299 102.04724" fill-rule="evenodd"/><path stroke="#000000" stroke-width="2.0" stroke-linejoin="round" stroke-linecap="butt" d="m322.75854 53.283466l148.06299 102.04724" fill-rule="evenodd"/><path fill="#000000" fill-opacity="0.0" d="m111.56956 176.44095l-74.67717 114.299194" fill-rule="evenodd"/><path stroke="#000000" stroke-width="2.0" stroke-linejoin="round" stroke-linecap="butt" d="m111.56956 176.44095l-74.67717 114.299194" fill-rule="evenodd"/><path fill="#000000" fill-opacity="0.0" d="m136.81364 176.44095l74.67717 114.299194" fill-rule="evenodd"/><path stroke="#000000" stroke-width="2.0" stroke-linejoin="round" stroke-linecap="butt" d="m136.81364 176.44095l74.67717 114.299194" fill-rule="evenodd"/><path fill="#000000" fill-opacity="0.0" d="m458.2126 176.44095l-74.677155 114.299194" fill-rule="evenodd"/><path stroke="#000000" stroke-width="2.0" stroke-linejoin="round" stroke-linecap="butt" d="m458.2126 176.44095l-74.677155 114.299194" fill-rule="evenodd"/><path fill="#000000" fill-opacity="0.0" d="m483.46982 176.43832l74.677155 114.299194" fill-rule="evenodd"/><path stroke="#b7b7b7" stroke-width="2.0" stroke-linejoin="round" stroke-linecap="butt" d="m483.46982 176.43832l74.677155 114.299194" fill-rule="evenodd"/><path fill="#000000" fill-opacity="0.0" d="m271.15222 48.795277l54.582672 0l0 45.25984l-54.582672 0z" fill-rule="evenodd"/><path fill="#000000" d="m285.7616 63.4259q-0.53125 1.2812538 -1.171875 2.4375038q-0.03125 0.0625 -0.125 0.203125q-0.09375 0.125 -0.15625 0.234375q-0.046875 0.109375 -0.078125 0.203125q-0.015625 0.046875 -0.015625 0.125q0 0.3125 0.109375 0.53125q0.125 0.21875 0.328125 0.21875q0.234375 0 0.390625 -0.125q0.15625 -0.140625 0.296875 -0.5625l0.234375 0.09375q-0.046875 0.28125 -0.171875 0.578125q-0.109375 0.28125 -0.34375 0.546875q-0.234375 0.25 -0.53125 0.25q-0.609375 0 -0.609375 -1.03125q0 -0.109375 0.015625 -0.28125l-0.015625 0q-0.34375 0.546875 -0.9375 0.9375q-0.59375 0.375 -1.203125 0.375q-0.734375 0 -1.140625 -0.46875q-0.390625 -0.484375 -0.390625 -1.21875q0 -1.125 0.859375 -2.125q0.859375 -1.0156288 1.96875 -1.0156288q0.328125 0 0.5625 0.15625q0.234375 0.140625 0.359375 0.375q0.125 0.23437881 0.171875 0.5000038q0.0625 0.25 0.0625 0.53125q0 0.09375 0 0.171875l0.015625 0l0.65625 -1.6406288l0.859375 0zm-1.84375 1.4062538q0 -1.2500038 -0.890625 -1.2500038q-0.546875 0 -1.0 0.5937538q-0.453125 0.59375 -0.671875 1.296875q-0.21875 0.703125 -0.21875 1.234375q0 0.5 0.1875 0.859375q0.1875 0.34375 0.59375 0.34375q0.59375 0 1.0625 -0.5625q0.484375 -0.578125 0.703125 -1.265625q0.234375 -0.703125 0.234375 -1.25z" fill-rule="nonzero"/><path fill="#000000" d="m293.93066 62.95715l0 0.84375l-4.328125 0l0 -0.84375l4.328125 0zm0 2.1718788l0 0.828125l-4.328125 0l0 -0.828125l4.328125 0zm8.960449 2.109375l0 0.796875l-4.953125 0l0 -0.6875l2.46875 -2.765625q0.46875 -0.515625 0.71875 -0.8593788q0.25 -0.359375 0.34375 -0.640625q0.109375 -0.296875 0.109375 -0.59375q0 -0.375 -0.15625 -0.671875q-0.15625 -0.3125 -0.453125 -0.484375q-0.296875 -0.1875 -0.71875 -0.1875q-0.5 0 -0.84375 0.203125q-0.328125 0.1875 -0.5 0.546875q-0.15625 0.34375 -0.15625 0.796875l-0.96875 0q0 -0.640625 0.28125 -1.171875q0.28125 -0.53125 0.828125 -0.84375q0.5625 -0.328125 1.359375 -0.328125q0.71875 0 1.234375 0.265625q0.515625 0.25 0.78125 0.703125q0.28125 0.453125 0.28125 1.0625q0 0.328125 -0.125 0.671875q-0.109375 0.34375 -0.3125 0.6875q-0.1875 0.3281288 -0.453125 0.6562538q-0.25 0.328125 -0.53125 0.65625l-2.03125 2.1875l3.796875 0z" fill-rule="nonzero"/><path fill="#000000" d="m282.77722 76.39777q0.140625 0 0.328125 0.109375q0.1875 0.09375 0.296875 0.09375q0.453125 0 0.8125 -0.4375q0.359375 -0.453125 0.359375 -1.0625q0 -0.484375 -0.21875 -0.84375q-0.203125 -0.359375 -0.65625 -0.359375q-0.640625 0 -1.140625 0.609375q-0.484375 0.59375 -0.65625 1.6875l-1.0 5.890625q-0.03125 0.21875 -0.078125 0.34375q-0.03125 0.140625 -0.109375 0.3125q-0.0625 0.1875 -0.1875 0.265625q-0.109375 0.09375 -0.265625 0.09375q-0.46875 0 -0.46875 -0.53125q0 -0.171875 0.0625 -0.421875q0.046875 -0.234375 0.15625 -0.625q0.09375 -0.375 0.125 -0.453125l1.125 -4.46875q0.140625 -0.578125 0.28125 -0.984375q0.15625 -0.40625 0.375 -0.796875q0.234375 -0.40625 0.5 -0.640625q0.265625 -0.234375 0.640625 -0.375q0.390625 -0.15625 0.890625 -0.15625q0.59375 0 1.015625 0.34375q0.421875 0.328125 0.421875 0.984375q0 0.390625 -0.1875 0.71875q-0.171875 0.328125 -0.453125 0.53125q-0.28125 0.203125 -0.5625 0.328125q-0.265625 0.109375 -0.53125 0.171875l0 0.015625q0.625 0.203125 0.96875 0.671875q0.359375 0.46875 0.359375 1.0q0 1.125 -0.734375 1.828125q-0.71875 0.703125 -1.828125 0.703125q-0.34375 0 -0.640625 -0.203125q-0.296875 -0.21875 -0.296875 -0.703125q0 -0.03125 0 -0.0625l0.234375 -0.078125q0 0.03125 0 0.0625q0 0.34375 0.21875 0.546875q0.21875 0.1875 0.546875 0.1875q0.46875 0 0.828125 -0.390625q0.375 -0.390625 0.546875 -0.90625q0.1875 -0.515625 0.1875 -1.015625q0 -1.484375 -0.625 -1.484375q-0.140625 0 -0.359375 0.09375q-0.203125 0.078125 -0.28125 0.078125q-0.15625 0 -0.265625 -0.09375q-0.109375 -0.09375 -0.109375 -0.234375q0 -0.15625 0.125 -0.25q0.125 -0.09375 0.25 -0.09375z" fill-rule="nonzero"/><path fill="#000000" d="m293.34457 75.75715l0 0.84375l-4.328125 0l0 -0.84375l4.328125 0zm0 2.171875l0 0.828125l-4.328125 0l0 -0.828125l4.328125 0zm8.960449 -1.15625l0 0.90625l-5.1875 0l0 -0.90625l5.1875 0zm-2.109375 -2.21875l0 5.515625l-0.953125 0l0 -5.515625l0.953125 0zm3.077423 3.546875l0 -0.140625q0 -0.578125 0.171875 -1.078125q0.1875 -0.515625 0.515625 -0.921875q0.34375 -0.40625 0.796875 -0.625q0.46875 -0.234375 1.03125 -0.234375q0.5625 0 0.984375 0.21875q0.421875 0.21875 0.734375 0.578125q0.3125 0.34375 0.515625 0.734375q0.21875 0.390625 0.34375 0.734375q0.125 0.34375 0.1875 0.546875l0 0.21875q-0.0625 0.203125 -0.1875 0.546875q-0.125 0.34375 -0.34375 0.734375q-0.203125 0.390625 -0.515625 0.75q-0.296875 0.34375 -0.734375 0.5625q-0.421875 0.21875 -0.96875 0.21875q-0.578125 0 -1.046875 -0.21875q-0.453125 -0.234375 -0.796875 -0.640625q-0.328125 -0.40625 -0.515625 -0.90625q-0.171875 -0.515625 -0.171875 -1.078125zm0.96875 -0.140625l0 0.140625q0 0.40625 0.09375 0.78125q0.109375 0.375 0.296875 0.671875q0.203125 0.28125 0.5 0.4375q0.296875 0.15625 0.671875 0.15625q0.359375 0 0.640625 -0.15625q0.296875 -0.171875 0.515625 -0.421875q0.21875 -0.25 0.359375 -0.53125q0.15625 -0.28125 0.25 -0.53125q0.09375 -0.25 0.125 -0.375l0 -0.21875q-0.03125 -0.125 -0.125 -0.359375q-0.09375 -0.25 -0.25 -0.53125q-0.140625 -0.28125 -0.359375 -0.53125q-0.21875 -0.265625 -0.515625 -0.421875q-0.28125 -0.171875 -0.65625 -0.171875q-0.375 0 -0.671875 0.171875q-0.28125 0.15625 -0.484375 0.4375q-0.1875 0.28125 -0.296875 0.65625q-0.09375 0.375 -0.09375 0.796875zm8.90625 0l0 0.140625q0 0.5625 -0.1875 1.078125q-0.1875 0.5 -0.515625 0.90625q-0.328125 0.40625 -0.796875 0.640625q-0.46875 0.21875 -1.03125 0.21875q-0.5625 0 -0.984375 -0.21875q-0.421875 -0.21875 -0.734375 -0.5625q-0.3125 -0.359375 -0.515625 -0.75q-0.203125 -0.390625 -0.34375 -0.734375q-0.125 -0.34375 -0.1875 -0.546875l0 -0.21875q0.078125 -0.203125 0.203125 -0.546875q0.125 -0.34375 0.328125 -0.734375q0.21875 -0.390625 0.515625 -0.734375q0.3125 -0.359375 0.734375 -0.578125q0.4375 -0.21875 1.0 -0.21875q0.546875 0 1.015625 0.234375q0.46875 0.21875 0.796875 0.625q0.34375 0.40625 0.515625 0.921875q0.1875 0.5 0.1875 1.078125zm-0.96875 0.140625l0 -0.140625q0 -0.421875 -0.109375 -0.796875q-0.09375 -0.375 -0.296875 -0.65625q-0.203125 -0.28125 -0.5 -0.4375q-0.28125 -0.171875 -0.640625 -0.171875q-0.375 0 -0.671875 0.171875q-0.296875 0.15625 -0.515625 0.421875q-0.21875 0.25 -0.375 0.53125q-0.140625 0.28125 -0.234375 0.53125q-0.078125 0.234375 -0.109375 0.359375l0 0.21875q0.03125 0.125 0.109375 0.375q0.09375 0.25 0.234375 0.53125q0.15625 0.28125 0.375 0.53125q0.21875 0.25 0.5 0.421875q0.296875 0.15625 0.671875 0.15625q0.375 0 0.65625 -0.15625q0.296875 -0.15625 0.5 -0.4375q0.203125 -0.296875 0.296875 -0.671875q0.109375 -0.375 0.109375 -0.78125z" fill-rule="nonzero"/><path fill="#000000" fill-opacity="0.0" d="m96.90026 192.51443l54.58268 0l0 45.259842l-54.58268 0z" fill-rule="evenodd"/><path fill="#000000" d="m111.509636 207.14507q-0.53125 1.28125 -1.171875 2.4375q-0.03125 0.0625 -0.125 0.203125q-0.09375 0.125 -0.15625 0.234375q-0.046875 0.109375 -0.078125 0.203125q-0.015625 0.046875 -0.015625 0.125q0 0.3125 0.109375 0.53125q0.125 0.21875 0.328125 0.21875q0.234375 0 0.390625 -0.125q0.15625 -0.140625 0.296875 -0.5625l0.234375 0.09375q-0.046875 0.28125 -0.171875 0.578125q-0.109375 0.28125 -0.34375 0.546875q-0.234375 0.25 -0.53125 0.25q-0.609375 0 -0.609375 -1.03125q0 -0.109375 0.015625 -0.28125l-0.015625 0q-0.34375 0.546875 -0.9375 0.9375q-0.59375 0.375 -1.203125 0.375q-0.734375 0 -1.140625 -0.46875q-0.390625 -0.484375 -0.390625 -1.21875q0 -1.125 0.859375 -2.125q0.859375 -1.015625 1.96875 -1.015625q0.328125 0 0.5625 0.15625q0.234375 0.140625 0.359375 0.375q0.125 0.234375 0.171875 0.5q0.0625 0.25 0.0625 0.53125q0 0.09375 0 0.171875l0.015625 0l0.65625 -1.640625l0.859375 0zm-1.84375 1.40625q0 -1.25 -0.890625 -1.25q-0.546875 0 -1.0 0.59375q-0.453125 0.59375 -0.671875 1.296875q-0.21875 0.703125 -0.21875 1.234375q0 0.5 0.1875 0.859375q0.1875 0.34375 0.59375 0.34375q0.59375 0 1.0625 -0.5625q0.484375 -0.578125 0.703125 -1.265625q0.234375 -0.703125 0.234375 -1.25z" fill-rule="nonzero"/><path fill="#000000" d="m119.6787 206.67632l0 0.84375l-4.328125 0l0 -0.84375l4.328125 0zm0 2.171875l0 0.828125l-4.328125 0l0 -0.828125l4.328125 0zm6.101074 -0.703125l0 0.78125l-2.53125 0l0 -0.78125l2.53125 0zm3.369545 0.875l0 -0.140625q0 -0.578125 0.171875 -1.078125q0.1875 -0.515625 0.515625 -0.921875q0.34375 -0.40625 0.796875 -0.625q0.46875 -0.234375 1.03125 -0.234375q0.5625 0 0.984375 0.21875q0.421875 0.21875 0.734375 0.578125q0.3125 0.34375 0.515625 0.734375q0.21875 0.390625 0.34375 0.734375q0.125 0.34375 0.1875 0.546875l0 0.21875q-0.0625 0.203125 -0.1875 0.546875q-0.125 0.34375 -0.34375 0.734375q-0.203125 0.390625 -0.515625 0.75q-0.296875 0.34375 -0.734375 0.5625q-0.421875 0.21875 -0.96875 0.21875q-0.578125 0 -1.046875 -0.21875q-0.453125 -0.234375 -0.796875 -0.640625q-0.328125 -0.40625 -0.515625 -0.90625q-0.171875 -0.515625 -0.171875 -1.078125zm0.96875 -0.140625l0 0.140625q0 0.40625 0.09375 0.78125q0.109375 0.375 0.296875 0.671875q0.203125 0.28125 0.5 0.4375q0.296875 0.15625 0.671875 0.15625q0.359375 0 0.640625 -0.15625q0.296875 -0.171875 0.515625 -0.421875q0.21875 -0.25 0.359375 -0.53125q0.15625 -0.28125 0.25 -0.53125q0.09375 -0.25 0.125 -0.375l0 -0.21875q-0.03125 -0.125 -0.125 -0.359375q-0.09375 -0.25 -0.25 -0.53125q-0.140625 -0.28125 -0.359375 -0.53125q-0.21875 -0.265625 -0.515625 -0.421875q-0.28125 -0.171875 -0.65625 -0.171875q-0.375 0 -0.671875 0.171875q-0.28125 0.15625 -0.484375 0.4375q-0.1875 0.28125 -0.296875 0.65625q-0.09375 0.375 -0.09375 0.796875zm8.90625 0l0 0.140625q0 0.5625 -0.1875 1.078125q-0.1875 0.5 -0.515625 0.90625q-0.328125 0.40625 -0.796875 0.640625q-0.46875 0.21875 -1.03125 0.21875q-0.5625 0 -0.984375 -0.21875q-0.421875 -0.21875 -0.734375 -0.5625q-0.3125 -0.359375 -0.515625 -0.75q-0.203125 -0.390625 -0.34375 -0.734375q-0.125 -0.34375 -0.1875 -0.546875l0 -0.21875q0.078125 -0.203125 0.203125 -0.546875q0.125 -0.34375 0.328125 -0.734375q0.21875 -0.390625 0.515625 -0.734375q0.3125 -0.359375 0.734375 -0.578125q0.4375 -0.21875 1.0 -0.21875q0.546875 0 1.015625 0.234375q0.46875 0.21875 0.796875 0.625q0.34375 0.40625 0.515625 0.921875q0.1875 0.5 0.1875 1.078125zm-0.96875 0.140625l0 -0.140625q0 -0.421875 -0.109375 -0.796875q-0.09375 -0.375 -0.296875 -0.65625q-0.203125 -0.28125 -0.5 -0.4375q-0.28125 -0.171875 -0.640625 -0.171875q-0.375 0 -0.671875 0.171875q-0.296875 0.15625 -0.515625 0.421875q-0.21875 0.25 -0.375 0.53125q-0.140625 0.28125 -0.234375 0.53125q-0.078125 0.234375 -0.109375 0.359375l0 0.21875q0.03125 0.125 0.109375 0.375q0.09375 0.25 0.234375 0.53125q0.15625 0.28125 0.375 0.53125q0.21875 0.25 0.5 0.421875q0.296875 0.15625 0.671875 0.15625q0.375 0 0.65625 -0.15625q0.296875 -0.15625 0.5 -0.4375q0.203125 -0.296875 0.296875 -0.671875q0.109375 -0.375 0.109375 -0.78125z" fill-rule="nonzero"/><path fill="#000000" d="m108.52526 220.11694q0.140625 0 0.328125 0.109375q0.1875 0.09375 0.296875 0.09375q0.453125 0 0.8125 -0.4375q0.359375 -0.453125 0.359375 -1.0625q0 -0.484375 -0.21875 -0.84375q-0.203125 -0.359375 -0.65625 -0.359375q-0.640625 0 -1.140625 0.609375q-0.484375 0.59375 -0.65625 1.6875l-1.0 5.890625q-0.03125 0.21875 -0.078125 0.34375q-0.03125 0.140625 -0.109375 0.3125q-0.0625 0.1875 -0.1875 0.265625q-0.109375 0.09375 -0.265625 0.09375q-0.46875 0 -0.46875 -0.53125q0 -0.171875 0.0625 -0.421875q0.046875 -0.234375 0.15625 -0.625q0.09375 -0.375 0.125 -0.453125l1.125 -4.46875q0.140625 -0.578125 0.28125 -0.984375q0.15625 -0.40625 0.375 -0.796875q0.234375 -0.40625 0.5 -0.640625q0.265625 -0.234375 0.640625 -0.375q0.390625 -0.15625 0.890625 -0.15625q0.59375 0 1.015625 0.34375q0.421875 0.328125 0.421875 0.984375q0 0.390625 -0.1875 0.71875q-0.171875 0.328125 -0.453125 0.53125q-0.28125 0.203125 -0.5625 0.328125q-0.265625 0.109375 -0.53125 0.171875l0 0.015625q0.625 0.203125 0.96875 0.671875q0.359375 0.46875 0.359375 1.0q0 1.125 -0.734375 1.828125q-0.71875 0.703125 -1.828125 0.703125q-0.34375 0 -0.640625 -0.203125q-0.296875 -0.21875 -0.296875 -0.703125q0 -0.03125 0 -0.0625l0.234375 -0.078125q0 0.03125 0 0.0625q0 0.34375 0.21875 0.546875q0.21875 0.1875 0.546875 0.1875q0.46875 0 0.828125 -0.390625q0.375 -0.390625 0.546875 -0.90625q0.1875 -0.515625 0.1875 -1.015625q0 -1.484375 -0.625 -1.484375q-0.140625 0 -0.359375 0.09375q-0.203125 0.078125 -0.28125 0.078125q-0.15625 0 -0.265625 -0.09375q-0.109375 -0.09375 -0.109375 -0.234375q0 -0.15625 0.125 -0.25q0.125 -0.09375 0.25 -0.09375z" fill-rule="nonzero"/><path fill="#000000" d="m119.0926 219.47632l0 0.84375l-4.328125 0l0 -0.84375l4.328125 0zm0 2.171875l0 0.828125l-4.328125 0l0 -0.828125l4.328125 0zm8.960457 2.109375l0 0.796875l-4.9531326 0l0 -0.6875l2.46875 -2.765625q0.46875 -0.515625 0.71875 -0.859375q0.25 -0.359375 0.34375 -0.640625q0.109375 -0.296875 0.109375 -0.59375q0 -0.375 -0.15625 -0.671875q-0.15625 -0.3125 -0.453125 -0.484375q-0.296875 -0.1875 -0.71875 -0.1875q-0.5 0 -0.84375 0.203125q-0.328125 0.1875 -0.5 0.546875q-0.15625 0.34375 -0.15625 0.796875l-0.96875 0q0 -0.640625 0.28125 -1.171875q0.28125 -0.53125 0.828125 -0.84375q0.5625 -0.328125 1.359375 -0.328125q0.71875 0 1.234375 0.265625q0.515625 0.25 0.78125 0.703125q0.28125 0.453125 0.28125 1.0625q0 0.328125 -0.125 0.671875q-0.109375 0.34375 -0.3125 0.6875q-0.1875 0.328125 -0.453125 0.65625q-0.25 0.328125 -0.53125 0.65625l-2.03125 2.1875l3.7968826 0z" fill-rule="nonzero"/><path fill="#000000" fill-opacity="0.0" d="m110.2231 150.15749l27.937012 0l0 38.771652l-27.937012 0z" fill-rule="evenodd"/><path fill="#000000" d="m127.2856 173.15811l0 1.359375l-7.578125 0q-0.015625 -0.515625 0.171875 -0.984375q0.28125 -0.765625 0.921875 -1.515625q0.640625 -0.75 1.84375 -1.734375q1.859375 -1.53125 2.515625 -2.421875q0.65625 -0.90625 0.65625 -1.703125q0 -0.828125 -0.59375 -1.40625q-0.59375 -0.578125 -1.5625 -0.578125q-1.015625 0 -1.625 0.609375q-0.609375 0.609375 -0.609375 1.6875l-1.453125 -0.140625q0.15625 -1.625 1.125 -2.46875q0.96875 -0.84375 2.59375 -0.84375q1.65625 0 2.609375 0.921875q0.96875 0.90625 0.96875 2.25q0 0.6875 -0.28125 1.359375q-0.28125 0.65625 -0.9375 1.390625q-0.65625 0.734375 -2.171875 2.015625q-1.265625 1.0625 -1.625 1.453125q-0.359375 0.375 -0.59375 0.75l5.625 0z" fill-rule="nonzero"/><path fill="#000000" fill-opacity="0.0" d="m22.91076 299.8084l27.93701 0l0 38.771637l-27.93701 0z" fill-rule="evenodd"/><path fill="#000000" d="m39.973263 322.80902l0 1.359375l-7.578125 0q-0.015625 -0.515625 0.171875 -0.984375q0.28125 -0.765625 0.921875 -1.515625q0.640625 -0.75 1.84375 -1.734375q1.859375 -1.53125 2.515625 -2.421875q0.65625 -0.90625 0.65625 -1.703125q0 -0.828125 -0.59375 -1.40625q-0.59375 -0.578125 -1.5625 -0.578125q-1.015625 0 -1.625 0.609375q-0.609375 0.609375 -0.609375 1.6875l-1.453125 -0.140625q0.15625 -1.625 1.125 -2.46875q0.96875 -0.84375 2.59375 -0.84375q1.65625 0 2.609375 0.921875q0.96875 0.90625 0.96875 2.25q0 0.6875 -0.28125 1.359375q-0.28125 0.65625 -0.9375 1.390625q-0.65625 0.734375 -2.171875 2.015625q-1.265625 1.0625 -1.625 1.453125q-0.359375 0.375 -0.59375 0.75l5.625 0z" fill-rule="nonzero"/><path fill="#000000" fill-opacity="0.0" d="m197.53543 299.8084l27.937012 0l0 38.771637l-27.937012 0z" fill-rule="evenodd"/><path fill="#000000" d="m207.30106 314.21527l0 -1.359375l7.40625 0l0 1.09375q-1.09375 1.171875 -2.171875 3.109375q-1.0625 1.921875 -1.65625 3.953125q-0.421875 1.4375 -0.53125 3.15625l-1.453125 0q0.03125 -1.359375 0.53125 -3.265625q0.515625 -1.921875 1.453125 -3.6875q0.953125 -1.78125 2.03125 -3.0l-5.609375 0z" fill-rule="nonzero"/><path fill="#000000" fill-opacity="0.0" d="m443.5433 192.51443l54.582672 0l0 45.259842l-54.582672 0z" fill-rule="evenodd"/><path fill="#000000" d="m458.15268 207.14507q-0.53125 1.28125 -1.171875 2.4375q-0.03125 0.0625 -0.125 0.203125q-0.09375 0.125 -0.15625 0.234375q-0.046875 0.109375 -0.078125 0.203125q-0.015625 0.046875 -0.015625 0.125q0 0.3125 0.109375 0.53125q0.125 0.21875 0.328125 0.21875q0.234375 0 0.390625 -0.125q0.15625 -0.140625 0.296875 -0.5625l0.234375 0.09375q-0.046875 0.28125 -0.171875 0.578125q-0.109375 0.28125 -0.34375 0.546875q-0.234375 0.25 -0.53125 0.25q-0.609375 0 -0.609375 -1.03125q0 -0.109375 0.015625 -0.28125l-0.015625 0q-0.34375 0.546875 -0.9375 0.9375q-0.59375 0.375 -1.203125 0.375q-0.734375 0 -1.140625 -0.46875q-0.390625 -0.484375 -0.390625 -1.21875q0 -1.125 0.859375 -2.125q0.859375 -1.015625 1.96875 -1.015625q0.328125 0 0.5625 0.15625q0.234375 0.140625 0.359375 0.375q0.125 0.234375 0.171875 0.5q0.0625 0.25 0.0625 0.53125q0 0.09375 0 0.171875l0.015625 0l0.65625 -1.640625l0.859375 0zm-1.84375 1.40625q0 -1.25 -0.890625 -1.25q-0.546875 0 -1.0 0.59375q-0.453125 0.59375 -0.671875 1.296875q-0.21875 0.703125 -0.21875 1.234375q0 0.5 0.1875 0.859375q0.1875 0.34375 0.59375 0.34375q0.59375 0 1.0625 -0.5625q0.484375 -0.578125 0.703125 -1.265625q0.234375 -0.703125 0.234375 -1.25z" fill-rule="nonzero"/><path fill="#000000" d="m466.32175 206.67632l0 0.84375l-4.328125 0l0 -0.84375l4.328125 0zm0 2.171875l0 0.828125l-4.328125 0l0 -0.828125l4.328125 0zm8.960449 2.109375l0 0.796875l-4.953125 0l0 -0.6875l2.46875 -2.765625q0.46875 -0.515625 0.71875 -0.859375q0.25 -0.359375 0.34375 -0.640625q0.109375 -0.296875 0.109375 -0.59375q0 -0.375 -0.15625 -0.671875q-0.15625 -0.3125 -0.453125 -0.484375q-0.296875 -0.1875 -0.71875 -0.1875q-0.5 0 -0.84375 0.203125q-0.328125 0.1875 -0.5 0.546875q-0.15625 0.34375 -0.15625 0.796875l-0.96875 0q0 -0.640625 0.28125 -1.171875q0.28125 -0.53125 0.828125 -0.84375q0.5625 -0.328125 1.359375 -0.328125q0.71875 0 1.234375 0.265625q0.515625 0.25 0.78125 0.703125q0.28125 0.453125 0.28125 1.0625q0 0.328125 -0.125 0.671875q-0.109375 0.34375 -0.3125 0.6875q-0.1875 0.328125 -0.453125 0.65625q-0.25 0.328125 -0.53125 0.65625l-2.03125 2.1875l3.796875 0z" fill-rule="nonzero"/><path fill="#000000" d="m455.1683 220.11694q0.140625 0 0.328125 0.109375q0.1875 0.09375 0.296875 0.09375q0.453125 0 0.8125 -0.4375q0.359375 -0.453125 0.359375 -1.0625q0 -0.484375 -0.21875 -0.84375q-0.203125 -0.359375 -0.65625 -0.359375q-0.640625 0 -1.140625 0.609375q-0.484375 0.59375 -0.65625 1.6875l-1.0 5.890625q-0.03125 0.21875 -0.078125 0.34375q-0.03125 0.140625 -0.109375 0.3125q-0.0625 0.1875 -0.1875 0.265625q-0.109375 0.09375 -0.265625 0.09375q-0.46875 0 -0.46875 -0.53125q0 -0.171875 0.0625 -0.421875q0.046875 -0.234375 0.15625 -0.625q0.09375 -0.375 0.125 -0.453125l1.125 -4.46875q0.140625 -0.578125 0.28125 -0.984375q0.15625 -0.40625 0.375 -0.796875q0.234375 -0.40625 0.5 -0.640625q0.265625 -0.234375 0.640625 -0.375q0.390625 -0.15625 0.890625 -0.15625q0.59375 0 1.015625 0.34375q0.421875 0.328125 0.421875 0.984375q0 0.390625 -0.1875 0.71875q-0.171875 0.328125 -0.453125 0.53125q-0.28125 0.203125 -0.5625 0.328125q-0.265625 0.109375 -0.53125 0.171875l0 0.015625q0.625 0.203125 0.96875 0.671875q0.359375 0.46875 0.359375 1.0q0 1.125 -0.734375 1.828125q-0.71875 0.703125 -1.828125 0.703125q-0.34375 0 -0.640625 -0.203125q-0.296875 -0.21875 -0.296875 -0.703125q0 -0.03125 0 -0.0625l0.234375 -0.078125q0 0.03125 0 0.0625q0 0.34375 0.21875 0.546875q0.21875 0.1875 0.546875 0.1875q0.46875 0 0.828125 -0.390625q0.375 -0.390625 0.546875 -0.90625q0.1875 -0.515625 0.1875 -1.015625q0 -1.484375 -0.625 -1.484375q-0.140625 0 -0.359375 0.09375q-0.203125 0.078125 -0.28125 0.078125q-0.15625 0 -0.265625 -0.09375q-0.109375 -0.09375 -0.109375 -0.234375q0 -0.15625 0.125 -0.25q0.125 -0.09375 0.25 -0.09375z" fill-rule="nonzero"/><path fill="#000000" d="m465.73566 219.47632l0 0.84375l-4.328125 0l0 -0.84375l4.328125 0zm0 2.171875l0 0.828125l-4.328125 0l0 -0.828125l4.328125 0zm7.163574 -4.71875l0 7.625l-0.96875 0l0 -6.421875l-1.9375 0.71875l0 -0.875l2.75 -1.046875l0.15625 0z" fill-rule="nonzero"/><path fill="#000000" fill-opacity="0.0" d="m369.5538 299.8084l27.937012 0l0 38.771637l-27.937012 0z" fill-rule="evenodd"/><path fill="#000000" d="m384.52255 324.1684l-1.40625 0l0 -8.96875q-0.515625 0.484375 -1.34375 0.96875q-0.8125 0.484375 -1.46875 0.734375l0 -1.359375q1.171875 -0.5625 2.046875 -1.34375q0.890625 -0.796875 1.265625 -1.53125l0.90625 0l0 11.5z" fill-rule="nonzero"/><path fill="#000000" fill-opacity="0.0" d="m445.59055 205.73763c0 -2.5976715 2.105835 -4.7035065 4.7035217 -4.7035065l26.813446 0c1.2474365 0 2.4438171 0.49554443 3.3258972 1.3776245c0.8820801 0.8820801 1.3776245 2.0784302 1.3776245 3.325882l0 18.813461c0 2.5976715 -2.105835 4.7035065 -4.7035217 4.7035065l-26.813446 0c-2.5976868 0 -4.7035217 -2.105835 -4.7035217 -4.7035065z" fill-rule="evenodd"/><path stroke="#cc0000" stroke-width="2.0" stroke-linejoin="round" stroke-linecap="butt" d="m445.59055 205.73763c0 -2.5976715 2.105835 -4.7035065 4.7035217 -4.7035065l26.813446 0c1.2474365 0 2.4438171 0.49554443 3.3258972 1.3776245c0.8820801 0.8820801 1.3776245 2.0784302 1.3776245 3.325882l0 18.813461c0 2.5976715 -2.105835 4.7035065 -4.7035217 4.7035065l-26.813446 0c-2.5976868 0 -4.7035217 -2.105835 -4.7035217 -4.7035065z" fill-rule="evenodd"/><path fill="#000000" fill-opacity="0.0" d="m441.49606 223.64043l54.582672 0l0 35.559036l-54.582672 0z" fill-rule="evenodd"/><path fill="#cc0000" d="m457.5273 239.69041q-0.671875 1.578125 -1.484375 3.03125q-0.046875 0.078125 -0.15625 0.25q-0.109375 0.15625 -0.1875 0.296875q-0.078125 0.125 -0.109375 0.25q-0.015625 0.0625 -0.015625 0.15625q0 0.390625 0.140625 0.671875q0.15625 0.265625 0.40625 0.265625q0.3125 0 0.5 -0.15625q0.1875 -0.15625 0.359375 -0.6875l0.296875 0.09375q-0.0625 0.359375 -0.21875 0.71875q-0.140625 0.359375 -0.4375 0.6875q-0.28125 0.3125 -0.640625 0.3125q-0.765625 0 -0.765625 -1.28125q0 -0.140625 0.015625 -0.359375l-0.03125 0q-0.421875 0.703125 -1.171875 1.171875q-0.734375 0.46875 -1.5 0.46875q-0.90625 0 -1.40625 -0.578125q-0.5 -0.59375 -0.5 -1.515625q0 -1.40625 1.0625 -2.65625q1.078125 -1.265625 2.46875 -1.265625q0.40625 0 0.703125 0.1875q0.296875 0.171875 0.4375 0.46875q0.15625 0.296875 0.21875 0.625q0.078125 0.3125 0.078125 0.671875q0 0.109375 0 0.21875l0.03125 0l0.8125 -2.046875l1.09375 0zm-2.328125 1.75q0 -1.578125 -1.109375 -1.578125q-0.6875 0 -1.265625 0.75q-0.5625 0.734375 -0.828125 1.625q-0.265625 0.890625 -0.265625 1.546875q0 0.625 0.21875 1.0625q0.234375 0.4375 0.765625 0.4375q0.734375 0 1.328125 -0.71875q0.59375 -0.71875 0.875 -1.578125q0.28125 -0.859375 0.28125 -1.546875z" fill-rule="nonzero"/><path fill="#cc0000" d="m461.99097 242.54979l4.890625 -2.234375l-4.890625 -2.25l0 -1.03125l6.265625 2.9375l0 0.671875l-6.265625 2.9375l0 -1.03125zm6.265625 -0.40625l0 1.046875l-6.265625 2.9375l0 -1.03125l6.265625 -2.953125z" fill-rule="nonzero"/><path fill="#cc0000" d="m475.5427 239.89354q0.15625 0 0.390625 0.125q0.25 0.125 0.375 0.125q0.578125 0 1.015625 -0.546875q0.453125 -0.5625 0.453125 -1.328125q0 -0.59375 -0.265625 -1.046875q-0.25 -0.453125 -0.828125 -0.453125q-0.796875 0 -1.421875 0.75q-0.609375 0.75 -0.828125 2.109375l-1.25 7.390625q-0.046875 0.265625 -0.09375 0.421875q-0.046875 0.171875 -0.140625 0.390625q-0.078125 0.21875 -0.234375 0.328125q-0.140625 0.109375 -0.328125 0.109375q-0.59375 0 -0.59375 -0.65625q0 -0.21875 0.078125 -0.53125q0.0625 -0.296875 0.203125 -0.765625q0.125 -0.46875 0.140625 -0.578125l1.421875 -5.59375q0.1875 -0.71875 0.359375 -1.21875q0.1875 -0.515625 0.46875 -1.015625q0.28125 -0.5 0.609375 -0.796875q0.328125 -0.296875 0.8125 -0.46875q0.484375 -0.1875 1.109375 -0.1875q0.734375 0 1.265625 0.421875q0.53125 0.40625 0.53125 1.234375q0 0.484375 -0.21875 0.890625q-0.21875 0.40625 -0.578125 0.671875q-0.359375 0.25 -0.703125 0.40625q-0.328125 0.140625 -0.65625 0.21875l0 0.015625q0.765625 0.265625 1.203125 0.859375q0.4375 0.578125 0.4375 1.234375q0 1.421875 -0.90625 2.296875q-0.90625 0.875 -2.28125 0.875q-0.4375 0 -0.8125 -0.265625q-0.375 -0.265625 -0.375 -0.875q0 -0.03125 0 -0.0625l0.296875 -0.109375q0 0.03125 0 0.078125q0 0.421875 0.265625 0.671875q0.28125 0.25 0.703125 0.25q0.578125 0 1.03125 -0.484375q0.46875 -0.5 0.6875 -1.140625q0.21875 -0.65625 0.21875 -1.265625q0 -1.875 -0.78125 -1.875q-0.171875 0 -0.4375 0.125q-0.25 0.109375 -0.359375 0.109375q-0.203125 0 -0.34375 -0.109375q-0.125 -0.125 -0.125 -0.3125q0 -0.1875 0.15625 -0.296875q0.15625 -0.125 0.328125 -0.125z" fill-rule="nonzero"/><path fill="#000000" fill-opacity="0.0" d="m456.86615 150.15749l27.937012 0l0 38.771652l-27.937012 0z" fill-rule="evenodd"/><path fill="#000000" d="m471.8349 174.51749l-1.40625 0l0 -8.96875q-0.515625 0.484375 -1.34375 0.96875q-0.8125 0.484375 -1.46875 0.734375l0 -1.359375q1.171875 -0.5625 2.046875 -1.34375q0.890625 -0.796875 1.265625 -1.53125l0.90625 0l0 11.5z" fill-rule="nonzero"/><path fill="#000000" fill-opacity="0.0" d="m283.54593 18.128609l27.937012 0l0 38.771652l-27.937012 0z" fill-rule="evenodd"/><path fill="#000000" d="m300.60843 41.129234l0 1.359375l-7.578125 0q-0.015625 -0.515625 0.171875 -0.984375q0.28125 -0.765625 0.921875 -1.515625q0.640625 -0.75 1.84375 -1.734375q1.859375 -1.53125 2.515625 -2.421875q0.65625 -0.90625 0.65625 -1.703125q0 -0.828125 -0.59375 -1.40625q-0.59375 -0.578125 -1.5625 -0.578125q-1.015625 0 -1.625 0.609375q-0.609375 0.609375 -0.609375 1.6875l-1.453125 -0.140625q0.15625 -1.625 1.125 -2.46875q0.96875 -0.84375 2.59375 -0.84375q1.65625 0 2.609375 0.921875q0.96875 0.90625 0.96875 2.25q0 0.6875 -0.28125 1.359375q-0.28125 0.65625 -0.9375 1.390625q-0.65625 0.734375 -2.171875 2.015625q-1.265625 1.0625 -1.625 1.453125q-0.359375 0.375 -0.59375 0.75l5.625 0z" fill-rule="nonzero"/></g></svg>