<?xml version="1.0" encoding="utf-8" standalone="no"?>
<!DOCTYPE svg PUBLIC "-//W3C//DTD SVG 1.1//EN"
  "http://www.w3.org/Graphics/SVG/1.1/DTD/svg11.dtd">
<svg xmlns:xlink="http://www.w3.org/1999/xlink" width="460.8pt" height="345.6pt" viewBox="0 0 460.8 345.6" xmlns="http://www.w3.org/2000/svg" version="1.1">
 <metadata>
  <rdf:RDF xmlns:dc="http://purl.org/dc/elements/1.1/" xmlns:cc="http://creativecommons.org/ns#" xmlns:rdf="http://www.w3.org/1999/02/22-rdf-syntax-ns#">
   <cc:Work>
    <dc:type rdf:resource="http://purl.org/dc/dcmitype/StillImage"/>
    <dc:date>2025-12-03T15:18:23.240913</dc:date>
    <dc:format>image/svg+xml</dc:format>
    <dc:creator>
     <cc:Agent>
      <dc:title>Matplotlib v3.10.7, https://matplotlib.org/</dc:title>
     </cc:Agent>
    </dc:creator>
   </cc:Work>
  </rdf:RDF>
 </metadata>
 <defs>
  <style type="text/css">*{stroke-linejoin: round; stroke-linecap: butt}</style>
 </defs>
 <g id="figure_1">
  <g id="patch_1">
   <path d="M 0 345.6 
L 460.8 345.6 
L 460.8 0 
L 0 0 
z
" style="fill: #ffffff"/>
  </g>
  <g id="axes_1">
   <g id="patch_2">
    <path d="M 57.6 307.584 
L 414.72 307.584 
L 414.72 41.472 
L 57.6 41.472 
z
" style="fill: #ffffff"/>
   </g>
   <g id="matplotlib.axis_1">
    <g id="xtick_1">
     <g id="line2d_1">
      <defs>
       <path id="m52306e89e8" d="M 0 0 
L 0 3.5 
" style="stroke: #000000; stroke-width: 0.8"/>
      </defs>
      <g>
       <use xlink:href="#m52306e89e8" x="73.832727" y="307.584" style="stroke: #000000; stroke-width: 0.8"/>
      </g>
     </g>
     <g id="text_1">
      <!-- 0 -->
      <g transform="translate(70.651477 322.182437) scale(0.1 -0.1)">
       <defs>
        <path id="DejaVuSans-30" d="M 2034 4250 
Q 1547 4250 1301 3770 
Q 1056 3291 1056 2328 
Q 1056 1369 1301 889 
Q 1547 409 2034 409 
Q 2525 409 2770 889 
Q 3016 1369 3016 2328 
Q 3016 3291 2770 3770 
Q 2525 4250 2034 4250 
z
M 2034 4750 
Q 2819 4750 3233 4129 
Q 3647 3509 3647 2328 
Q 3647 1150 3233 529 
Q 2819 -91 2034 -91 
Q 1250 -91 836 529 
Q 422 1150 422 2328 
Q 422 3509 836 4129 
Q 1250 4750 2034 4750 
z
" transform="scale(0.015625)"/>
       </defs>
       <use xlink:href="#DejaVuSans-30"/>
      </g>
     </g>
    </g>
    <g id="xtick_2">
     <g id="line2d_2">
      <g>
       <use xlink:href="#m52306e89e8" x="138.763636" y="307.584" style="stroke: #000000; stroke-width: 0.8"/>
      </g>
     </g>
     <g id="text_2">
      <!-- 100 -->
      <g transform="translate(129.219886 322.182437) scale(0.1 -0.1)">
       <defs>
        <path id="DejaVuSans-31" d="M 794 531 
L 1825 531 
L 1825 4091 
L 703 3866 
L 703 4441 
L 1819 4666 
L 2450 4666 
L 2450 531 
L 3481 531 
L 3481 0 
L 794 0 
L 794 531 
z
" transform="scale(0.015625)"/>
       </defs>
       <use xlink:href="#DejaVuSans-31"/>
       <use xlink:href="#DejaVuSans-30" transform="translate(63.623047 0)"/>
       <use xlink:href="#DejaVuSans-30" transform="translate(127.246094 0)"/>
      </g>
     </g>
    </g>
    <g id="xtick_3">
     <g id="line2d_3">
      <g>
       <use xlink:href="#m52306e89e8" x="203.694545" y="307.584" style="stroke: #000000; stroke-width: 0.8"/>
      </g>
     </g>
     <g id="text_3">
      <!-- 200 -->
      <g transform="translate(194.150795 322.182437) scale(0.1 -0.1)">
       <defs>
        <path id="DejaVuSans-32" d="M 1228 531 
L 3431 531 
L 3431 0 
L 469 0 
L 469 531 
Q 828 903 1448 1529 
Q 2069 2156 2228 2338 
Q 2531 2678 2651 2914 
Q 2772 3150 2772 3378 
Q 2772 3750 2511 3984 
Q 2250 4219 1831 4219 
Q 1534 4219 1204 4116 
Q 875 4013 500 3803 
L 500 4441 
Q 881 4594 1212 4672 
Q 1544 4750 1819 4750 
Q 2544 4750 2975 4387 
Q 3406 4025 3406 3419 
Q 3406 3131 3298 2873 
Q 3191 2616 2906 2266 
Q 2828 2175 2409 1742 
Q 1991 1309 1228 531 
z
" transform="scale(0.015625)"/>
       </defs>
       <use xlink:href="#DejaVuSans-32"/>
       <use xlink:href="#DejaVuSans-30" transform="translate(63.623047 0)"/>
       <use xlink:href="#DejaVuSans-30" transform="translate(127.246094 0)"/>
      </g>
     </g>
    </g>
    <g id="xtick_4">
     <g id="line2d_4">
      <g>
       <use xlink:href="#m52306e89e8" x="268.625455" y="307.584" style="stroke: #000000; stroke-width: 0.8"/>
      </g>
     </g>
     <g id="text_4">
      <!-- 300 -->
      <g transform="translate(259.081705 322.182437) scale(0.1 -0.1)">
       <defs>
        <path id="DejaVuSans-33" d="M 2597 2516 
Q 3050 2419 3304 2112 
Q 3559 1806 3559 1356 
Q 3559 666 3084 287 
Q 2609 -91 1734 -91 
Q 1441 -91 1130 -33 
Q 819 25 488 141 
L 488 750 
Q 750 597 1062 519 
Q 1375 441 1716 441 
Q 2309 441 2620 675 
Q 2931 909 2931 1356 
Q 2931 1769 2642 2001 
Q 2353 2234 1838 2234 
L 1294 2234 
L 1294 2753 
L 1863 2753 
Q 2328 2753 2575 2939 
Q 2822 3125 2822 3475 
Q 2822 3834 2567 4026 
Q 2313 4219 1838 4219 
Q 1578 4219 1281 4162 
Q 984 4106 628 3988 
L 628 4550 
Q 988 4650 1302 4700 
Q 1616 4750 1894 4750 
Q 2613 4750 3031 4423 
Q 3450 4097 3450 3541 
Q 3450 3153 3228 2886 
Q 3006 2619 2597 2516 
z
" transform="scale(0.015625)"/>
       </defs>
       <use xlink:href="#DejaVuSans-33"/>
       <use xlink:href="#DejaVuSans-30" transform="translate(63.623047 0)"/>
       <use xlink:href="#DejaVuSans-30" transform="translate(127.246094 0)"/>
      </g>
     </g>
    </g>
    <g id="xtick_5">
     <g id="line2d_5">
      <g>
       <use xlink:href="#m52306e89e8" x="333.556364" y="307.584" style="stroke: #000000; stroke-width: 0.8"/>
      </g>
     </g>
     <g id="text_5">
      <!-- 400 -->
      <g transform="translate(324.012614 322.182437) scale(0.1 -0.1)">
       <defs>
        <path id="DejaVuSans-34" d="M 2419 4116 
L 825 1625 
L 2419 1625 
L 2419 4116 
z
M 2253 4666 
L 3047 4666 
L 3047 1625 
L 3713 1625 
L 3713 1100 
L 3047 1100 
L 3047 0 
L 2419 0 
L 2419 1100 
L 313 1100 
L 313 1709 
L 2253 4666 
z
" transform="scale(0.015625)"/>
       </defs>
       <use xlink:href="#DejaVuSans-34"/>
       <use xlink:href="#DejaVuSans-30" transform="translate(63.623047 0)"/>
       <use xlink:href="#DejaVuSans-30" transform="translate(127.246094 0)"/>
      </g>
     </g>
    </g>
    <g id="xtick_6">
     <g id="line2d_6">
      <g>
       <use xlink:href="#m52306e89e8" x="398.487273" y="307.584" style="stroke: #000000; stroke-width: 0.8"/>
      </g>
     </g>
     <g id="text_6">
      <!-- 500 -->
      <g transform="translate(388.943523 322.182437) scale(0.1 -0.1)">
       <defs>
        <path id="DejaVuSans-35" d="M 691 4666 
L 3169 4666 
L 3169 4134 
L 1269 4134 
L 1269 2991 
Q 1406 3038 1543 3061 
Q 1681 3084 1819 3084 
Q 2600 3084 3056 2656 
Q 3513 2228 3513 1497 
Q 3513 744 3044 326 
Q 2575 -91 1722 -91 
Q 1428 -91 1123 -41 
Q 819 9 494 109 
L 494 744 
Q 775 591 1075 516 
Q 1375 441 1709 441 
Q 2250 441 2565 725 
Q 2881 1009 2881 1497 
Q 2881 1984 2565 2268 
Q 2250 2553 1709 2553 
Q 1456 2553 1204 2497 
Q 953 2441 691 2322 
L 691 4666 
z
" transform="scale(0.015625)"/>
       </defs>
       <use xlink:href="#DejaVuSans-35"/>
       <use xlink:href="#DejaVuSans-30" transform="translate(63.623047 0)"/>
       <use xlink:href="#DejaVuSans-30" transform="translate(127.246094 0)"/>
      </g>
     </g>
    </g>
    <g id="text_7">
     <!-- Fréquence [Hz] -->
     <g transform="translate(198.338125 336.260562) scale(0.1 -0.1)">
      <defs>
       <path id="DejaVuSans-46" d="M 628 4666 
L 3309 4666 
L 3309 4134 
L 1259 4134 
L 1259 2759 
L 3109 2759 
L 3109 2228 
L 1259 2228 
L 1259 0 
L 628 0 
L 628 4666 
z
" transform="scale(0.015625)"/>
       <path id="DejaVuSans-72" d="M 2631 2963 
Q 2534 3019 2420 3045 
Q 2306 3072 2169 3072 
Q 1681 3072 1420 2755 
Q 1159 2438 1159 1844 
L 1159 0 
L 581 0 
L 581 3500 
L 1159 3500 
L 1159 2956 
Q 1341 3275 1631 3429 
Q 1922 3584 2338 3584 
Q 2397 3584 2469 3576 
Q 2541 3569 2628 3553 
L 2631 2963 
z
" transform="scale(0.015625)"/>
       <path id="DejaVuSans-e9" d="M 3597 1894 
L 3597 1613 
L 953 1613 
Q 991 1019 1311 708 
Q 1631 397 2203 397 
Q 2534 397 2845 478 
Q 3156 559 3463 722 
L 3463 178 
Q 3153 47 2828 -22 
Q 2503 -91 2169 -91 
Q 1331 -91 842 396 
Q 353 884 353 1716 
Q 353 2575 817 3079 
Q 1281 3584 2069 3584 
Q 2775 3584 3186 3129 
Q 3597 2675 3597 1894 
z
M 3022 2063 
Q 3016 2534 2758 2815 
Q 2500 3097 2075 3097 
Q 1594 3097 1305 2825 
Q 1016 2553 972 2059 
L 3022 2063 
z
M 2466 5119 
L 3088 5119 
L 2070 3944 
L 1591 3944 
L 2466 5119 
z
" transform="scale(0.015625)"/>
       <path id="DejaVuSans-71" d="M 947 1747 
Q 947 1113 1208 752 
Q 1469 391 1925 391 
Q 2381 391 2643 752 
Q 2906 1113 2906 1747 
Q 2906 2381 2643 2742 
Q 2381 3103 1925 3103 
Q 1469 3103 1208 2742 
Q 947 2381 947 1747 
z
M 2906 525 
Q 2725 213 2448 61 
Q 2172 -91 1784 -91 
Q 1150 -91 751 415 
Q 353 922 353 1747 
Q 353 2572 751 3078 
Q 1150 3584 1784 3584 
Q 2172 3584 2448 3432 
Q 2725 3281 2906 2969 
L 2906 3500 
L 3481 3500 
L 3481 -1331 
L 2906 -1331 
L 2906 525 
z
" transform="scale(0.015625)"/>
       <path id="DejaVuSans-75" d="M 544 1381 
L 544 3500 
L 1119 3500 
L 1119 1403 
Q 1119 906 1312 657 
Q 1506 409 1894 409 
Q 2359 409 2629 706 
Q 2900 1003 2900 1516 
L 2900 3500 
L 3475 3500 
L 3475 0 
L 2900 0 
L 2900 538 
Q 2691 219 2414 64 
Q 2138 -91 1772 -91 
Q 1169 -91 856 284 
Q 544 659 544 1381 
z
M 1991 3584 
L 1991 3584 
z
" transform="scale(0.015625)"/>
       <path id="DejaVuSans-65" d="M 3597 1894 
L 3597 1613 
L 953 1613 
Q 991 1019 1311 708 
Q 1631 397 2203 397 
Q 2534 397 2845 478 
Q 3156 559 3463 722 
L 3463 178 
Q 3153 47 2828 -22 
Q 2503 -91 2169 -91 
Q 1331 -91 842 396 
Q 353 884 353 1716 
Q 353 2575 817 3079 
Q 1281 3584 2069 3584 
Q 2775 3584 3186 3129 
Q 3597 2675 3597 1894 
z
M 3022 2063 
Q 3016 2534 2758 2815 
Q 2500 3097 2075 3097 
Q 1594 3097 1305 2825 
Q 1016 2553 972 2059 
L 3022 2063 
z
" transform="scale(0.015625)"/>
       <path id="DejaVuSans-6e" d="M 3513 2113 
L 3513 0 
L 2938 0 
L 2938 2094 
Q 2938 2591 2744 2837 
Q 2550 3084 2163 3084 
Q 1697 3084 1428 2787 
Q 1159 2491 1159 1978 
L 1159 0 
L 581 0 
L 581 3500 
L 1159 3500 
L 1159 2956 
Q 1366 3272 1645 3428 
Q 1925 3584 2291 3584 
Q 2894 3584 3203 3211 
Q 3513 2838 3513 2113 
z
" transform="scale(0.015625)"/>
       <path id="DejaVuSans-63" d="M 3122 3366 
L 3122 2828 
Q 2878 2963 2633 3030 
Q 2388 3097 2138 3097 
Q 1578 3097 1268 2742 
Q 959 2388 959 1747 
Q 959 1106 1268 751 
Q 1578 397 2138 397 
Q 2388 397 2633 464 
Q 2878 531 3122 666 
L 3122 134 
Q 2881 22 2623 -34 
Q 2366 -91 2075 -91 
Q 1284 -91 818 406 
Q 353 903 353 1747 
Q 353 2603 823 3093 
Q 1294 3584 2113 3584 
Q 2378 3584 2631 3529 
Q 2884 3475 3122 3366 
z
" transform="scale(0.015625)"/>
       <path id="DejaVuSans-20" transform="scale(0.015625)"/>
       <path id="DejaVuSans-5b" d="M 550 4863 
L 1875 4863 
L 1875 4416 
L 1125 4416 
L 1125 -397 
L 1875 -397 
L 1875 -844 
L 550 -844 
L 550 4863 
z
" transform="scale(0.015625)"/>
       <path id="DejaVuSans-48" d="M 628 4666 
L 1259 4666 
L 1259 2753 
L 3553 2753 
L 3553 4666 
L 4184 4666 
L 4184 0 
L 3553 0 
L 3553 2222 
L 1259 2222 
L 1259 0 
L 628 0 
L 628 4666 
z
" transform="scale(0.015625)"/>
       <path id="DejaVuSans-7a" d="M 353 3500 
L 3084 3500 
L 3084 2975 
L 922 459 
L 3084 459 
L 3084 0 
L 275 0 
L 275 525 
L 2438 3041 
L 353 3041 
L 353 3500 
z
" transform="scale(0.015625)"/>
       <path id="DejaVuSans-5d" d="M 1947 4863 
L 1947 -844 
L 622 -844 
L 622 -397 
L 1369 -397 
L 1369 4416 
L 622 4416 
L 622 4863 
L 1947 4863 
z
" transform="scale(0.015625)"/>
      </defs>
      <use xlink:href="#DejaVuSans-46"/>
      <use xlink:href="#DejaVuSans-72" transform="translate(50.269531 0)"/>
      <use xlink:href="#DejaVuSans-e9" transform="translate(89.132812 0)"/>
      <use xlink:href="#DejaVuSans-71" transform="translate(150.65625 0)"/>
      <use xlink:href="#DejaVuSans-75" transform="translate(214.132812 0)"/>
      <use xlink:href="#DejaVuSans-65" transform="translate(277.511719 0)"/>
      <use xlink:href="#DejaVuSans-6e" transform="translate(339.035156 0)"/>
      <use xlink:href="#DejaVuSans-63" transform="translate(402.414062 0)"/>
      <use xlink:href="#DejaVuSans-65" transform="translate(457.394531 0)"/>
      <use xlink:href="#DejaVuSans-20" transform="translate(518.917969 0)"/>
      <use xlink:href="#DejaVuSans-5b" transform="translate(550.705078 0)"/>
      <use xlink:href="#DejaVuSans-48" transform="translate(589.71875 0)"/>
      <use xlink:href="#DejaVuSans-7a" transform="translate(664.914062 0)"/>
      <use xlink:href="#DejaVuSans-5d" transform="translate(717.404297 0)"/>
     </g>
    </g>
   </g>
   <g id="matplotlib.axis_2">
    <g id="ytick_1">
     <g id="line2d_7">
      <defs>
       <path id="mf7bfa375ce" d="M 0 0 
L -3.5 0 
" style="stroke: #000000; stroke-width: 0.8"/>
      </defs>
      <g>
       <use xlink:href="#mf7bfa375ce" x="57.6" y="295.488" style="stroke: #000000; stroke-width: 0.8"/>
      </g>
     </g>
     <g id="text_8">
      <!-- 0 -->
      <g transform="translate(44.2375 299.287219) scale(0.1 -0.1)">
       <use xlink:href="#DejaVuSans-30"/>
      </g>
     </g>
    </g>
    <g id="ytick_2">
     <g id="line2d_8">
      <g>
       <use xlink:href="#mf7bfa375ce" x="57.6" y="263.353176" style="stroke: #000000; stroke-width: 0.8"/>
      </g>
     </g>
     <g id="text_9">
      <!-- 20 -->
      <g transform="translate(37.875 267.152395) scale(0.1 -0.1)">
       <use xlink:href="#DejaVuSans-32"/>
       <use xlink:href="#DejaVuSans-30" transform="translate(63.623047 0)"/>
      </g>
     </g>
    </g>
    <g id="ytick_3">
     <g id="line2d_9">
      <g>
       <use xlink:href="#mf7bfa375ce" x="57.6" y="231.218352" style="stroke: #000000; stroke-width: 0.8"/>
      </g>
     </g>
     <g id="text_10">
      <!-- 40 -->
      <g transform="translate(37.875 235.01757) scale(0.1 -0.1)">
       <use xlink:href="#DejaVuSans-34"/>
       <use xlink:href="#DejaVuSans-30" transform="translate(63.623047 0)"/>
      </g>
     </g>
    </g>
    <g id="ytick_4">
     <g id="line2d_10">
      <g>
       <use xlink:href="#mf7bfa375ce" x="57.6" y="199.083527" style="stroke: #000000; stroke-width: 0.8"/>
      </g>
     </g>
     <g id="text_11">
      <!-- 60 -->
      <g transform="translate(37.875 202.882746) scale(0.1 -0.1)">
       <defs>
        <path id="DejaVuSans-36" d="M 2113 2584 
Q 1688 2584 1439 2293 
Q 1191 2003 1191 1497 
Q 1191 994 1439 701 
Q 1688 409 2113 409 
Q 2538 409 2786 701 
Q 3034 994 3034 1497 
Q 3034 2003 2786 2293 
Q 2538 2584 2113 2584 
z
M 3366 4563 
L 3366 3988 
Q 3128 4100 2886 4159 
Q 2644 4219 2406 4219 
Q 1781 4219 1451 3797 
Q 1122 3375 1075 2522 
Q 1259 2794 1537 2939 
Q 1816 3084 2150 3084 
Q 2853 3084 3261 2657 
Q 3669 2231 3669 1497 
Q 3669 778 3244 343 
Q 2819 -91 2113 -91 
Q 1303 -91 875 529 
Q 447 1150 447 2328 
Q 447 3434 972 4092 
Q 1497 4750 2381 4750 
Q 2619 4750 2861 4703 
Q 3103 4656 3366 4563 
z
" transform="scale(0.015625)"/>
       </defs>
       <use xlink:href="#DejaVuSans-36"/>
       <use xlink:href="#DejaVuSans-30" transform="translate(63.623047 0)"/>
      </g>
     </g>
    </g>
    <g id="ytick_5">
     <g id="line2d_11">
      <g>
       <use xlink:href="#mf7bfa375ce" x="57.6" y="166.948703" style="stroke: #000000; stroke-width: 0.8"/>
      </g>
     </g>
     <g id="text_12">
      <!-- 80 -->
      <g transform="translate(37.875 170.747922) scale(0.1 -0.1)">
       <defs>
        <path id="DejaVuSans-38" d="M 2034 2216 
Q 1584 2216 1326 1975 
Q 1069 1734 1069 1313 
Q 1069 891 1326 650 
Q 1584 409 2034 409 
Q 2484 409 2743 651 
Q 3003 894 3003 1313 
Q 3003 1734 2745 1975 
Q 2488 2216 2034 2216 
z
M 1403 2484 
Q 997 2584 770 2862 
Q 544 3141 544 3541 
Q 544 4100 942 4425 
Q 1341 4750 2034 4750 
Q 2731 4750 3128 4425 
Q 3525 4100 3525 3541 
Q 3525 3141 3298 2862 
Q 3072 2584 2669 2484 
Q 3125 2378 3379 2068 
Q 3634 1759 3634 1313 
Q 3634 634 3220 271 
Q 2806 -91 2034 -91 
Q 1263 -91 848 271 
Q 434 634 434 1313 
Q 434 1759 690 2068 
Q 947 2378 1403 2484 
z
M 1172 3481 
Q 1172 3119 1398 2916 
Q 1625 2713 2034 2713 
Q 2441 2713 2670 2916 
Q 2900 3119 2900 3481 
Q 2900 3844 2670 4047 
Q 2441 4250 2034 4250 
Q 1625 4250 1398 4047 
Q 1172 3844 1172 3481 
z
" transform="scale(0.015625)"/>
       </defs>
       <use xlink:href="#DejaVuSans-38"/>
       <use xlink:href="#DejaVuSans-30" transform="translate(63.623047 0)"/>
      </g>
     </g>
    </g>
    <g id="ytick_6">
     <g id="line2d_12">
      <g>
       <use xlink:href="#mf7bfa375ce" x="57.6" y="134.813879" style="stroke: #000000; stroke-width: 0.8"/>
      </g>
     </g>
     <g id="text_13">
      <!-- 100 -->
      <g transform="translate(31.5125 138.613098) scale(0.1 -0.1)">
       <use xlink:href="#DejaVuSans-31"/>
       <use xlink:href="#DejaVuSans-30" transform="translate(63.623047 0)"/>
       <use xlink:href="#DejaVuSans-30" transform="translate(127.246094 0)"/>
      </g>
     </g>
    </g>
    <g id="ytick_7">
     <g id="line2d_13">
      <g>
       <use xlink:href="#mf7bfa375ce" x="57.6" y="102.679055" style="stroke: #000000; stroke-width: 0.8"/>
      </g>
     </g>
     <g id="text_14">
      <!-- 120 -->
      <g transform="translate(31.5125 106.478273) scale(0.1 -0.1)">
       <use xlink:href="#DejaVuSans-31"/>
       <use xlink:href="#DejaVuSans-32" transform="translate(63.623047 0)"/>
       <use xlink:href="#DejaVuSans-30" transform="translate(127.246094 0)"/>
      </g>
     </g>
    </g>
    <g id="ytick_8">
     <g id="line2d_14">
      <g>
       <use xlink:href="#mf7bfa375ce" x="57.6" y="70.54423" style="stroke: #000000; stroke-width: 0.8"/>
      </g>
     </g>
     <g id="text_15">
      <!-- 140 -->
      <g transform="translate(31.5125 74.343449) scale(0.1 -0.1)">
       <use xlink:href="#DejaVuSans-31"/>
       <use xlink:href="#DejaVuSans-34" transform="translate(63.623047 0)"/>
       <use xlink:href="#DejaVuSans-30" transform="translate(127.246094 0)"/>
      </g>
     </g>
    </g>
    <g id="text_16">
     <!-- Amplitude -->
     <g transform="translate(25.432812 200.150656) rotate(-90) scale(0.1 -0.1)">
      <defs>
       <path id="DejaVuSans-41" d="M 2188 4044 
L 1331 1722 
L 3047 1722 
L 2188 4044 
z
M 1831 4666 
L 2547 4666 
L 4325 0 
L 3669 0 
L 3244 1197 
L 1141 1197 
L 716 0 
L 50 0 
L 1831 4666 
z
" transform="scale(0.015625)"/>
       <path id="DejaVuSans-6d" d="M 3328 2828 
Q 3544 3216 3844 3400 
Q 4144 3584 4550 3584 
Q 5097 3584 5394 3201 
Q 5691 2819 5691 2113 
L 5691 0 
L 5113 0 
L 5113 2094 
Q 5113 2597 4934 2840 
Q 4756 3084 4391 3084 
Q 3944 3084 3684 2787 
Q 3425 2491 3425 1978 
L 3425 0 
L 2847 0 
L 2847 2094 
Q 2847 2600 2669 2842 
Q 2491 3084 2119 3084 
Q 1678 3084 1418 2786 
Q 1159 2488 1159 1978 
L 1159 0 
L 581 0 
L 581 3500 
L 1159 3500 
L 1159 2956 
Q 1356 3278 1631 3431 
Q 1906 3584 2284 3584 
Q 2666 3584 2933 3390 
Q 3200 3197 3328 2828 
z
" transform="scale(0.015625)"/>
       <path id="DejaVuSans-70" d="M 1159 525 
L 1159 -1331 
L 581 -1331 
L 581 3500 
L 1159 3500 
L 1159 2969 
Q 1341 3281 1617 3432 
Q 1894 3584 2278 3584 
Q 2916 3584 3314 3078 
Q 3713 2572 3713 1747 
Q 3713 922 3314 415 
Q 2916 -91 2278 -91 
Q 1894 -91 1617 61 
Q 1341 213 1159 525 
z
M 3116 1747 
Q 3116 2381 2855 2742 
Q 2594 3103 2138 3103 
Q 1681 3103 1420 2742 
Q 1159 2381 1159 1747 
Q 1159 1113 1420 752 
Q 1681 391 2138 391 
Q 2594 391 2855 752 
Q 3116 1113 3116 1747 
z
" transform="scale(0.015625)"/>
       <path id="DejaVuSans-6c" d="M 603 4863 
L 1178 4863 
L 1178 0 
L 603 0 
L 603 4863 
z
" transform="scale(0.015625)"/>
       <path id="DejaVuSans-69" d="M 603 3500 
L 1178 3500 
L 1178 0 
L 603 0 
L 603 3500 
z
M 603 4863 
L 1178 4863 
L 1178 4134 
L 603 4134 
L 603 4863 
z
" transform="scale(0.015625)"/>
       <path id="DejaVuSans-74" d="M 1172 4494 
L 1172 3500 
L 2356 3500 
L 2356 3053 
L 1172 3053 
L 1172 1153 
Q 1172 725 1289 603 
Q 1406 481 1766 481 
L 2356 481 
L 2356 0 
L 1766 0 
Q 1100 0 847 248 
Q 594 497 594 1153 
L 594 3053 
L 172 3053 
L 172 3500 
L 594 3500 
L 594 4494 
L 1172 4494 
z
" transform="scale(0.015625)"/>
       <path id="DejaVuSans-64" d="M 2906 2969 
L 2906 4863 
L 3481 4863 
L 3481 0 
L 2906 0 
L 2906 525 
Q 2725 213 2448 61 
Q 2172 -91 1784 -91 
Q 1150 -91 751 415 
Q 353 922 353 1747 
Q 353 2572 751 3078 
Q 1150 3584 1784 3584 
Q 2172 3584 2448 3432 
Q 2725 3281 2906 2969 
z
M 947 1747 
Q 947 1113 1208 752 
Q 1469 391 1925 391 
Q 2381 391 2643 752 
Q 2906 1113 2906 1747 
Q 2906 2381 2643 2742 
Q 2381 3103 1925 3103 
Q 1469 3103 1208 2742 
Q 947 2381 947 1747 
z
" transform="scale(0.015625)"/>
      </defs>
      <use xlink:href="#DejaVuSans-41"/>
      <use xlink:href="#DejaVuSans-6d" transform="translate(68.408203 0)"/>
      <use xlink:href="#DejaVuSans-70" transform="translate(165.820312 0)"/>
      <use xlink:href="#DejaVuSans-6c" transform="translate(229.296875 0)"/>
      <use xlink:href="#DejaVuSans-69" transform="translate(257.080078 0)"/>
      <use xlink:href="#DejaVuSans-74" transform="translate(284.863281 0)"/>
      <use xlink:href="#DejaVuSans-75" transform="translate(324.072266 0)"/>
      <use xlink:href="#DejaVuSans-64" transform="translate(387.451172 0)"/>
      <use xlink:href="#DejaVuSans-65" transform="translate(450.927734 0)"/>
     </g>
    </g>
   </g>
   <g id="LineCollection_1">
    <path d="M 73.832727 295.488 
L 73.832727 174.739892 
" clip-path="url(#p83786fd8d5)" style="fill: none; stroke: #1f77b4; stroke-width: 1.5"/>
    <path d="M 77.047129 295.488 
L 77.047129 293.622389 
" clip-path="url(#p83786fd8d5)" style="fill: none; stroke: #1f77b4; stroke-width: 1.5"/>
    <path d="M 80.26153 295.488 
L 80.26153 291.201151 
" clip-path="url(#p83786fd8d5)" style="fill: none; stroke: #1f77b4; stroke-width: 1.5"/>
    <path d="M 83.475932 295.488 
L 83.475932 285.761684 
" clip-path="url(#p83786fd8d5)" style="fill: none; stroke: #1f77b4; stroke-width: 1.5"/>
    <path d="M 86.690333 295.488 
L 86.690333 53.568 
" clip-path="url(#p83786fd8d5)" style="fill: none; stroke: #1f77b4; stroke-width: 1.5"/>
    <path d="M 89.904734 295.488 
L 89.904734 288.454678 
" clip-path="url(#p83786fd8d5)" style="fill: none; stroke: #1f77b4; stroke-width: 1.5"/>
    <path d="M 93.119136 295.488 
L 93.119136 294.758257 
" clip-path="url(#p83786fd8d5)" style="fill: none; stroke: #1f77b4; stroke-width: 1.5"/>
    <path d="M 96.333537 295.488 
L 96.333537 287.07406 
" clip-path="url(#p83786fd8d5)" style="fill: none; stroke: #1f77b4; stroke-width: 1.5"/>
    <path d="M 99.547939 295.488 
L 99.547939 138.370644 
" clip-path="url(#p83786fd8d5)" style="fill: none; stroke: #1f77b4; stroke-width: 1.5"/>
    <path d="M 102.76234 295.488 
L 102.76234 281.281395 
" clip-path="url(#p83786fd8d5)" style="fill: none; stroke: #1f77b4; stroke-width: 1.5"/>
    <path d="M 105.976742 295.488 
L 105.976742 290.612569 
" clip-path="url(#p83786fd8d5)" style="fill: none; stroke: #1f77b4; stroke-width: 1.5"/>
    <path d="M 109.191143 295.488 
L 109.191143 292.93472 
" clip-path="url(#p83786fd8d5)" style="fill: none; stroke: #1f77b4; stroke-width: 1.5"/>
    <path d="M 112.405545 295.488 
L 112.405545 207.555427 
" clip-path="url(#p83786fd8d5)" style="fill: none; stroke: #1f77b4; stroke-width: 1.5"/>
    <path d="M 115.619946 295.488 
L 115.619946 277.312284 
" clip-path="url(#p83786fd8d5)" style="fill: none; stroke: #1f77b4; stroke-width: 1.5"/>
    <path d="M 118.834347 295.488 
L 118.834347 284.751432 
" clip-path="url(#p83786fd8d5)" style="fill: none; stroke: #1f77b4; stroke-width: 1.5"/>
    <path d="M 122.048749 295.488 
L 122.048749 287.297021 
" clip-path="url(#p83786fd8d5)" style="fill: none; stroke: #1f77b4; stroke-width: 1.5"/>
    <path d="M 125.26315 295.488 
L 125.26315 288.668449 
" clip-path="url(#p83786fd8d5)" style="fill: none; stroke: #1f77b4; stroke-width: 1.5"/>
    <path d="M 128.477552 295.488 
L 128.477552 289.557172 
" clip-path="url(#p83786fd8d5)" style="fill: none; stroke: #1f77b4; stroke-width: 1.5"/>
    <path d="M 131.691953 295.488 
L 131.691953 290.193269 
" clip-path="url(#p83786fd8d5)" style="fill: none; stroke: #1f77b4; stroke-width: 1.5"/>
    <path d="M 134.906355 295.488 
L 134.906355 290.677456 
" clip-path="url(#p83786fd8d5)" style="fill: none; stroke: #1f77b4; stroke-width: 1.5"/>
    <path d="M 138.120756 295.488 
L 138.120756 291.061674 
" clip-path="url(#p83786fd8d5)" style="fill: none; stroke: #1f77b4; stroke-width: 1.5"/>
    <path d="M 141.335158 295.488 
L 141.335158 291.375822 
" clip-path="url(#p83786fd8d5)" style="fill: none; stroke: #1f77b4; stroke-width: 1.5"/>
    <path d="M 144.549559 295.488 
L 144.549559 291.638512 
" clip-path="url(#p83786fd8d5)" style="fill: none; stroke: #1f77b4; stroke-width: 1.5"/>
    <path d="M 147.76396 295.488 
L 147.76396 291.862035 
" clip-path="url(#p83786fd8d5)" style="fill: none; stroke: #1f77b4; stroke-width: 1.5"/>
    <path d="M 150.978362 295.488 
L 150.978362 292.05489 
" clip-path="url(#p83786fd8d5)" style="fill: none; stroke: #1f77b4; stroke-width: 1.5"/>
    <path d="M 154.192763 295.488 
L 154.192763 292.223169 
" clip-path="url(#p83786fd8d5)" style="fill: none; stroke: #1f77b4; stroke-width: 1.5"/>
    <path d="M 157.407165 295.488 
L 157.407165 292.371372 
" clip-path="url(#p83786fd8d5)" style="fill: none; stroke: #1f77b4; stroke-width: 1.5"/>
    <path d="M 160.621566 295.488 
L 160.621566 292.502908 
" clip-path="url(#p83786fd8d5)" style="fill: none; stroke: #1f77b4; stroke-width: 1.5"/>
    <path d="M 163.835968 295.488 
L 163.835968 292.620411 
" clip-path="url(#p83786fd8d5)" style="fill: none; stroke: #1f77b4; stroke-width: 1.5"/>
    <path d="M 167.050369 295.488 
L 167.050369 292.725954 
" clip-path="url(#p83786fd8d5)" style="fill: none; stroke: #1f77b4; stroke-width: 1.5"/>
    <path d="M 170.26477 295.488 
L 170.26477 292.821193 
" clip-path="url(#p83786fd8d5)" style="fill: none; stroke: #1f77b4; stroke-width: 1.5"/>
    <path d="M 173.479172 295.488 
L 173.479172 292.907469 
" clip-path="url(#p83786fd8d5)" style="fill: none; stroke: #1f77b4; stroke-width: 1.5"/>
    <path d="M 176.693573 295.488 
L 176.693573 292.985879 
" clip-path="url(#p83786fd8d5)" style="fill: none; stroke: #1f77b4; stroke-width: 1.5"/>
    <path d="M 179.907975 295.488 
L 179.907975 293.057329 
" clip-path="url(#p83786fd8d5)" style="fill: none; stroke: #1f77b4; stroke-width: 1.5"/>
    <path d="M 183.122376 295.488 
L 183.122376 293.122575 
" clip-path="url(#p83786fd8d5)" style="fill: none; stroke: #1f77b4; stroke-width: 1.5"/>
    <path d="M 186.336778 295.488 
L 186.336778 293.182251 
" clip-path="url(#p83786fd8d5)" style="fill: none; stroke: #1f77b4; stroke-width: 1.5"/>
    <path d="M 189.551179 295.488 
L 189.551179 293.236892 
" clip-path="url(#p83786fd8d5)" style="fill: none; stroke: #1f77b4; stroke-width: 1.5"/>
    <path d="M 192.765581 295.488 
L 192.765581 293.286951 
" clip-path="url(#p83786fd8d5)" style="fill: none; stroke: #1f77b4; stroke-width: 1.5"/>
    <path d="M 195.979982 295.488 
L 195.979982 293.332816 
" clip-path="url(#p83786fd8d5)" style="fill: none; stroke: #1f77b4; stroke-width: 1.5"/>
    <path d="M 199.194383 295.488 
L 199.194383 293.374815 
" clip-path="url(#p83786fd8d5)" style="fill: none; stroke: #1f77b4; stroke-width: 1.5"/>
    <path d="M 202.408785 295.488 
L 202.408785 293.41323 
" clip-path="url(#p83786fd8d5)" style="fill: none; stroke: #1f77b4; stroke-width: 1.5"/>
    <path d="M 205.623186 295.488 
L 205.623186 293.448298 
" clip-path="url(#p83786fd8d5)" style="fill: none; stroke: #1f77b4; stroke-width: 1.5"/>
    <path d="M 208.837588 295.488 
L 208.837588 293.480223 
" clip-path="url(#p83786fd8d5)" style="fill: none; stroke: #1f77b4; stroke-width: 1.5"/>
    <path d="M 212.051989 295.488 
L 212.051989 293.509174 
" clip-path="url(#p83786fd8d5)" style="fill: none; stroke: #1f77b4; stroke-width: 1.5"/>
    <path d="M 215.266391 295.488 
L 215.266391 293.535295 
" clip-path="url(#p83786fd8d5)" style="fill: none; stroke: #1f77b4; stroke-width: 1.5"/>
    <path d="M 218.480792 295.488 
L 218.480792 293.5587 
" clip-path="url(#p83786fd8d5)" style="fill: none; stroke: #1f77b4; stroke-width: 1.5"/>
    <path d="M 221.695194 295.488 
L 221.695194 293.579481 
" clip-path="url(#p83786fd8d5)" style="fill: none; stroke: #1f77b4; stroke-width: 1.5"/>
    <path d="M 224.909595 295.488 
L 224.909595 293.597706 
" clip-path="url(#p83786fd8d5)" style="fill: none; stroke: #1f77b4; stroke-width: 1.5"/>
    <path d="M 228.123996 295.488 
L 228.123996 293.613421 
" clip-path="url(#p83786fd8d5)" style="fill: none; stroke: #1f77b4; stroke-width: 1.5"/>
    <path d="M 231.338398 295.488 
L 231.338398 293.626652 
" clip-path="url(#p83786fd8d5)" style="fill: none; stroke: #1f77b4; stroke-width: 1.5"/>
    <path d="M 234.552799 295.488 
L 234.552799 293.6374 
" clip-path="url(#p83786fd8d5)" style="fill: none; stroke: #1f77b4; stroke-width: 1.5"/>
    <path d="M 237.767201 295.488 
L 237.767201 293.645646 
" clip-path="url(#p83786fd8d5)" style="fill: none; stroke: #1f77b4; stroke-width: 1.5"/>
    <path d="M 240.981602 295.488 
L 240.981602 293.651346 
" clip-path="url(#p83786fd8d5)" style="fill: none; stroke: #1f77b4; stroke-width: 1.5"/>
    <path d="M 244.196004 295.488 
L 244.196004 293.65443 
" clip-path="url(#p83786fd8d5)" style="fill: none; stroke: #1f77b4; stroke-width: 1.5"/>
    <path d="M 247.410405 295.488 
L 247.410405 293.6548 
" clip-path="url(#p83786fd8d5)" style="fill: none; stroke: #1f77b4; stroke-width: 1.5"/>
    <path d="M 250.624806 295.488 
L 250.624806 293.652327 
" clip-path="url(#p83786fd8d5)" style="fill: none; stroke: #1f77b4; stroke-width: 1.5"/>
    <path d="M 253.839208 295.488 
L 253.839208 293.646842 
" clip-path="url(#p83786fd8d5)" style="fill: none; stroke: #1f77b4; stroke-width: 1.5"/>
    <path d="M 257.053609 295.488 
L 257.053609 293.638136 
" clip-path="url(#p83786fd8d5)" style="fill: none; stroke: #1f77b4; stroke-width: 1.5"/>
    <path d="M 260.268011 295.488 
L 260.268011 293.625948 
" clip-path="url(#p83786fd8d5)" style="fill: none; stroke: #1f77b4; stroke-width: 1.5"/>
    <path d="M 263.482412 295.488 
L 263.482412 293.609956 
" clip-path="url(#p83786fd8d5)" style="fill: none; stroke: #1f77b4; stroke-width: 1.5"/>
    <path d="M 266.696814 295.488 
L 266.696814 293.589766 
" clip-path="url(#p83786fd8d5)" style="fill: none; stroke: #1f77b4; stroke-width: 1.5"/>
    <path d="M 269.911215 295.488 
L 269.911215 293.564887 
" clip-path="url(#p83786fd8d5)" style="fill: none; stroke: #1f77b4; stroke-width: 1.5"/>
    <path d="M 273.125617 295.488 
L 273.125617 293.534717 
" clip-path="url(#p83786fd8d5)" style="fill: none; stroke: #1f77b4; stroke-width: 1.5"/>
    <path d="M 276.340018 295.488 
L 276.340018 293.498506 
" clip-path="url(#p83786fd8d5)" style="fill: none; stroke: #1f77b4; stroke-width: 1.5"/>
    <path d="M 279.554419 295.488 
L 279.554419 293.455313 
" clip-path="url(#p83786fd8d5)" style="fill: none; stroke: #1f77b4; stroke-width: 1.5"/>
    <path d="M 282.768821 295.488 
L 282.768821 293.403951 
" clip-path="url(#p83786fd8d5)" style="fill: none; stroke: #1f77b4; stroke-width: 1.5"/>
    <path d="M 285.983222 295.488 
L 285.983222 293.3429 
" clip-path="url(#p83786fd8d5)" style="fill: none; stroke: #1f77b4; stroke-width: 1.5"/>
    <path d="M 289.197624 295.488 
L 289.197624 293.270191 
" clip-path="url(#p83786fd8d5)" style="fill: none; stroke: #1f77b4; stroke-width: 1.5"/>
    <path d="M 292.412025 295.488 
L 292.412025 293.183229 
" clip-path="url(#p83786fd8d5)" style="fill: none; stroke: #1f77b4; stroke-width: 1.5"/>
    <path d="M 295.626427 295.488 
L 295.626427 293.078527 
" clip-path="url(#p83786fd8d5)" style="fill: none; stroke: #1f77b4; stroke-width: 1.5"/>
    <path d="M 298.840828 295.488 
L 298.840828 292.951301 
" clip-path="url(#p83786fd8d5)" style="fill: none; stroke: #1f77b4; stroke-width: 1.5"/>
    <path d="M 302.05523 295.488 
L 302.05523 292.794801 
" clip-path="url(#p83786fd8d5)" style="fill: none; stroke: #1f77b4; stroke-width: 1.5"/>
    <path d="M 305.269631 295.488 
L 305.269631 292.599199 
" clip-path="url(#p83786fd8d5)" style="fill: none; stroke: #1f77b4; stroke-width: 1.5"/>
    <path d="M 308.484032 295.488 
L 308.484032 292.349616 
" clip-path="url(#p83786fd8d5)" style="fill: none; stroke: #1f77b4; stroke-width: 1.5"/>
    <path d="M 311.698434 295.488 
L 311.698434 292.02241 
" clip-path="url(#p83786fd8d5)" style="fill: none; stroke: #1f77b4; stroke-width: 1.5"/>
    <path d="M 314.912835 295.488 
L 314.912835 291.577621 
" clip-path="url(#p83786fd8d5)" style="fill: none; stroke: #1f77b4; stroke-width: 1.5"/>
    <path d="M 318.127237 295.488 
L 318.127237 290.941974 
" clip-path="url(#p83786fd8d5)" style="fill: none; stroke: #1f77b4; stroke-width: 1.5"/>
    <path d="M 321.341638 295.488 
L 321.341638 289.965049 
" clip-path="url(#p83786fd8d5)" style="fill: none; stroke: #1f77b4; stroke-width: 1.5"/>
    <path d="M 324.55604 295.488 
L 324.55604 288.281512 
" clip-path="url(#p83786fd8d5)" style="fill: none; stroke: #1f77b4; stroke-width: 1.5"/>
    <path d="M 327.770441 295.488 
L 327.770441 284.714146 
" clip-path="url(#p83786fd8d5)" style="fill: none; stroke: #1f77b4; stroke-width: 1.5"/>
    <path d="M 330.984842 295.488 
L 330.984842 272.199581 
" clip-path="url(#p83786fd8d5)" style="fill: none; stroke: #1f77b4; stroke-width: 1.5"/>
    <path d="M 334.199244 295.488 
L 334.199244 206.033777 
" clip-path="url(#p83786fd8d5)" style="fill: none; stroke: #1f77b4; stroke-width: 1.5"/>
    <path d="M 337.413645 295.488 
L 337.413645 281.177488 
" clip-path="url(#p83786fd8d5)" style="fill: none; stroke: #1f77b4; stroke-width: 1.5"/>
    <path d="M 340.628047 295.488 
L 340.628047 287.999145 
" clip-path="url(#p83786fd8d5)" style="fill: none; stroke: #1f77b4; stroke-width: 1.5"/>
    <path d="M 343.842448 295.488 
L 343.842448 290.550818 
" clip-path="url(#p83786fd8d5)" style="fill: none; stroke: #1f77b4; stroke-width: 1.5"/>
    <path d="M 347.05685 295.488 
L 347.05685 291.882575 
" clip-path="url(#p83786fd8d5)" style="fill: none; stroke: #1f77b4; stroke-width: 1.5"/>
    <path d="M 350.271251 295.488 
L 350.271251 292.698245 
" clip-path="url(#p83786fd8d5)" style="fill: none; stroke: #1f77b4; stroke-width: 1.5"/>
    <path d="M 353.485653 295.488 
L 353.485653 293.247534 
" clip-path="url(#p83786fd8d5)" style="fill: none; stroke: #1f77b4; stroke-width: 1.5"/>
    <path d="M 356.700054 295.488 
L 356.700054 293.641381 
" clip-path="url(#p83786fd8d5)" style="fill: none; stroke: #1f77b4; stroke-width: 1.5"/>
    <path d="M 359.914455 295.488 
L 359.914455 293.936553 
" clip-path="url(#p83786fd8d5)" style="fill: none; stroke: #1f77b4; stroke-width: 1.5"/>
    <path d="M 363.128857 295.488 
L 363.128857 294.165071 
" clip-path="url(#p83786fd8d5)" style="fill: none; stroke: #1f77b4; stroke-width: 1.5"/>
    <path d="M 366.343258 295.488 
L 366.343258 294.346315 
" clip-path="url(#p83786fd8d5)" style="fill: none; stroke: #1f77b4; stroke-width: 1.5"/>
    <path d="M 369.55766 295.488 
L 369.55766 294.492642 
" clip-path="url(#p83786fd8d5)" style="fill: none; stroke: #1f77b4; stroke-width: 1.5"/>
    <path d="M 372.772061 295.488 
L 372.772061 294.612227 
" clip-path="url(#p83786fd8d5)" style="fill: none; stroke: #1f77b4; stroke-width: 1.5"/>
    <path d="M 375.986463 295.488 
L 375.986463 294.710605 
" clip-path="url(#p83786fd8d5)" style="fill: none; stroke: #1f77b4; stroke-width: 1.5"/>
    <path d="M 379.200864 295.488 
L 379.200864 294.791555 
" clip-path="url(#p83786fd8d5)" style="fill: none; stroke: #1f77b4; stroke-width: 1.5"/>
    <path d="M 382.415266 295.488 
L 382.415266 294.857626 
" clip-path="url(#p83786fd8d5)" style="fill: none; stroke: #1f77b4; stroke-width: 1.5"/>
    <path d="M 385.629667 295.488 
L 385.629667 294.910466 
" clip-path="url(#p83786fd8d5)" style="fill: none; stroke: #1f77b4; stroke-width: 1.5"/>
    <path d="M 388.844068 295.488 
L 388.844068 294.95106 
" clip-path="url(#p83786fd8d5)" style="fill: none; stroke: #1f77b4; stroke-width: 1.5"/>
    <path d="M 392.05847 295.488 
L 392.05847 294.979909 
" clip-path="url(#p83786fd8d5)" style="fill: none; stroke: #1f77b4; stroke-width: 1.5"/>
    <path d="M 395.272871 295.488 
L 395.272871 294.9972 
" clip-path="url(#p83786fd8d5)" style="fill: none; stroke: #1f77b4; stroke-width: 1.5"/>
    <path d="M 398.487273 295.488 
L 398.487273 295.002966 
" clip-path="url(#p83786fd8d5)" style="fill: none; stroke: #1f77b4; stroke-width: 1.5"/>
   </g>
   <g id="line2d_15">
    <defs>
     <path id="m96dbe3d2ff" d="M 0 3 
C 0.795609 3 1.55874 2.683901 2.12132 2.12132 
C 2.683901 1.55874 3 0.795609 3 0 
C 3 -0.795609 2.683901 -1.55874 2.12132 -2.12132 
C 1.55874 -2.683901 0.795609 -3 0 -3 
C -0.795609 -3 -1.55874 -2.683901 -2.12132 -2.12132 
C -2.683901 -1.55874 -3 -0.795609 -3 0 
C -3 0.795609 -2.683901 1.55874 -2.12132 2.12132 
C -1.55874 2.683901 -0.795609 3 0 3 
z
" style="stroke: #1f77b4"/>
    </defs>
    <g clip-path="url(#p83786fd8d5)">
     <use xlink:href="#m96dbe3d2ff" x="73.832727" y="174.739892" style="fill: #1f77b4; stroke: #1f77b4"/>
     <use xlink:href="#m96dbe3d2ff" x="77.047129" y="293.622389" style="fill: #1f77b4; stroke: #1f77b4"/>
     <use xlink:href="#m96dbe3d2ff" x="80.26153" y="291.201151" style="fill: #1f77b4; stroke: #1f77b4"/>
     <use xlink:href="#m96dbe3d2ff" x="83.475932" y="285.761684" style="fill: #1f77b4; stroke: #1f77b4"/>
     <use xlink:href="#m96dbe3d2ff" x="86.690333" y="53.568" style="fill: #1f77b4; stroke: #1f77b4"/>
     <use xlink:href="#m96dbe3d2ff" x="89.904734" y="288.454678" style="fill: #1f77b4; stroke: #1f77b4"/>
     <use xlink:href="#m96dbe3d2ff" x="93.119136" y="294.758257" style="fill: #1f77b4; stroke: #1f77b4"/>
     <use xlink:href="#m96dbe3d2ff" x="96.333537" y="287.07406" style="fill: #1f77b4; stroke: #1f77b4"/>
     <use xlink:href="#m96dbe3d2ff" x="99.547939" y="138.370644" style="fill: #1f77b4; stroke: #1f77b4"/>
     <use xlink:href="#m96dbe3d2ff" x="102.76234" y="281.281395" style="fill: #1f77b4; stroke: #1f77b4"/>
     <use xlink:href="#m96dbe3d2ff" x="105.976742" y="290.612569" style="fill: #1f77b4; stroke: #1f77b4"/>
     <use xlink:href="#m96dbe3d2ff" x="109.191143" y="292.93472" style="fill: #1f77b4; stroke: #1f77b4"/>
     <use xlink:href="#m96dbe3d2ff" x="112.405545" y="207.555427" style="fill: #1f77b4; stroke: #1f77b4"/>
     <use xlink:href="#m96dbe3d2ff" x="115.619946" y="277.312284" style="fill: #1f77b4; stroke: #1f77b4"/>
     <use xlink:href="#m96dbe3d2ff" x="118.834347" y="284.751432" style="fill: #1f77b4; stroke: #1f77b4"/>
     <use xlink:href="#m96dbe3d2ff" x="122.048749" y="287.297021" style="fill: #1f77b4; stroke: #1f77b4"/>
     <use xlink:href="#m96dbe3d2ff" x="125.26315" y="288.668449" style="fill: #1f77b4; stroke: #1f77b4"/>
     <use xlink:href="#m96dbe3d2ff" x="128.477552" y="289.557172" style="fill: #1f77b4; stroke: #1f77b4"/>
     <use xlink:href="#m96dbe3d2ff" x="131.691953" y="290.193269" style="fill: #1f77b4; stroke: #1f77b4"/>
     <use xlink:href="#m96dbe3d2ff" x="134.906355" y="290.677456" style="fill: #1f77b4; stroke: #1f77b4"/>
     <use xlink:href="#m96dbe3d2ff" x="138.120756" y="291.061674" style="fill: #1f77b4; stroke: #1f77b4"/>
     <use xlink:href="#m96dbe3d2ff" x="141.335158" y="291.375822" style="fill: #1f77b4; stroke: #1f77b4"/>
     <use xlink:href="#m96dbe3d2ff" x="144.549559" y="291.638512" style="fill: #1f77b4; stroke: #1f77b4"/>
     <use xlink:href="#m96dbe3d2ff" x="147.76396" y="291.862035" style="fill: #1f77b4; stroke: #1f77b4"/>
     <use xlink:href="#m96dbe3d2ff" x="150.978362" y="292.05489" style="fill: #1f77b4; stroke: #1f77b4"/>
     <use xlink:href="#m96dbe3d2ff" x="154.192763" y="292.223169" style="fill: #1f77b4; stroke: #1f77b4"/>
     <use xlink:href="#m96dbe3d2ff" x="157.407165" y="292.371372" style="fill: #1f77b4; stroke: #1f77b4"/>
     <use xlink:href="#m96dbe3d2ff" x="160.621566" y="292.502908" style="fill: #1f77b4; stroke: #1f77b4"/>
     <use xlink:href="#m96dbe3d2ff" x="163.835968" y="292.620411" style="fill: #1f77b4; stroke: #1f77b4"/>
     <use xlink:href="#m96dbe3d2ff" x="167.050369" y="292.725954" style="fill: #1f77b4; stroke: #1f77b4"/>
     <use xlink:href="#m96dbe3d2ff" x="170.26477" y="292.821193" style="fill: #1f77b4; stroke: #1f77b4"/>
     <use xlink:href="#m96dbe3d2ff" x="173.479172" y="292.907469" style="fill: #1f77b4; stroke: #1f77b4"/>
     <use xlink:href="#m96dbe3d2ff" x="176.693573" y="292.985879" style="fill: #1f77b4; stroke: #1f77b4"/>
     <use xlink:href="#m96dbe3d2ff" x="179.907975" y="293.057329" style="fill: #1f77b4; stroke: #1f77b4"/>
     <use xlink:href="#m96dbe3d2ff" x="183.122376" y="293.122575" style="fill: #1f77b4; stroke: #1f77b4"/>
     <use xlink:href="#m96dbe3d2ff" x="186.336778" y="293.182251" style="fill: #1f77b4; stroke: #1f77b4"/>
     <use xlink:href="#m96dbe3d2ff" x="189.551179" y="293.236892" style="fill: #1f77b4; stroke: #1f77b4"/>
     <use xlink:href="#m96dbe3d2ff" x="192.765581" y="293.286951" style="fill: #1f77b4; stroke: #1f77b4"/>
     <use xlink:href="#m96dbe3d2ff" x="195.979982" y="293.332816" style="fill: #1f77b4; stroke: #1f77b4"/>
     <use xlink:href="#m96dbe3d2ff" x="199.194383" y="293.374815" style="fill: #1f77b4; stroke: #1f77b4"/>
     <use xlink:href="#m96dbe3d2ff" x="202.408785" y="293.41323" style="fill: #1f77b4; stroke: #1f77b4"/>
     <use xlink:href="#m96dbe3d2ff" x="205.623186" y="293.448298" style="fill: #1f77b4; stroke: #1f77b4"/>
     <use xlink:href="#m96dbe3d2ff" x="208.837588" y="293.480223" style="fill: #1f77b4; stroke: #1f77b4"/>
     <use xlink:href="#m96dbe3d2ff" x="212.051989" y="293.509174" style="fill: #1f77b4; stroke: #1f77b4"/>
     <use xlink:href="#m96dbe3d2ff" x="215.266391" y="293.535295" style="fill: #1f77b4; stroke: #1f77b4"/>
     <use xlink:href="#m96dbe3d2ff" x="218.480792" y="293.5587" style="fill: #1f77b4; stroke: #1f77b4"/>
     <use xlink:href="#m96dbe3d2ff" x="221.695194" y="293.579481" style="fill: #1f77b4; stroke: #1f77b4"/>
     <use xlink:href="#m96dbe3d2ff" x="224.909595" y="293.597706" style="fill: #1f77b4; stroke: #1f77b4"/>
     <use xlink:href="#m96dbe3d2ff" x="228.123996" y="293.613421" style="fill: #1f77b4; stroke: #1f77b4"/>
     <use xlink:href="#m96dbe3d2ff" x="231.338398" y="293.626652" style="fill: #1f77b4; stroke: #1f77b4"/>
     <use xlink:href="#m96dbe3d2ff" x="234.552799" y="293.6374" style="fill: #1f77b4; stroke: #1f77b4"/>
     <use xlink:href="#m96dbe3d2ff" x="237.767201" y="293.645646" style="fill: #1f77b4; stroke: #1f77b4"/>
     <use xlink:href="#m96dbe3d2ff" x="240.981602" y="293.651346" style="fill: #1f77b4; stroke: #1f77b4"/>
     <use xlink:href="#m96dbe3d2ff" x="244.196004" y="293.65443" style="fill: #1f77b4; stroke: #1f77b4"/>
     <use xlink:href="#m96dbe3d2ff" x="247.410405" y="293.6548" style="fill: #1f77b4; stroke: #1f77b4"/>
     <use xlink:href="#m96dbe3d2ff" x="250.624806" y="293.652327" style="fill: #1f77b4; stroke: #1f77b4"/>
     <use xlink:href="#m96dbe3d2ff" x="253.839208" y="293.646842" style="fill: #1f77b4; stroke: #1f77b4"/>
     <use xlink:href="#m96dbe3d2ff" x="257.053609" y="293.638136" style="fill: #1f77b4; stroke: #1f77b4"/>
     <use xlink:href="#m96dbe3d2ff" x="260.268011" y="293.625948" style="fill: #1f77b4; stroke: #1f77b4"/>
     <use xlink:href="#m96dbe3d2ff" x="263.482412" y="293.609956" style="fill: #1f77b4; stroke: #1f77b4"/>
     <use xlink:href="#m96dbe3d2ff" x="266.696814" y="293.589766" style="fill: #1f77b4; stroke: #1f77b4"/>
     <use xlink:href="#m96dbe3d2ff" x="269.911215" y="293.564887" style="fill: #1f77b4; stroke: #1f77b4"/>
     <use xlink:href="#m96dbe3d2ff" x="273.125617" y="293.534717" style="fill: #1f77b4; stroke: #1f77b4"/>
     <use xlink:href="#m96dbe3d2ff" x="276.340018" y="293.498506" style="fill: #1f77b4; stroke: #1f77b4"/>
     <use xlink:href="#m96dbe3d2ff" x="279.554419" y="293.455313" style="fill: #1f77b4; stroke: #1f77b4"/>
     <use xlink:href="#m96dbe3d2ff" x="282.768821" y="293.403951" style="fill: #1f77b4; stroke: #1f77b4"/>
     <use xlink:href="#m96dbe3d2ff" x="285.983222" y="293.3429" style="fill: #1f77b4; stroke: #1f77b4"/>
     <use xlink:href="#m96dbe3d2ff" x="289.197624" y="293.270191" style="fill: #1f77b4; stroke: #1f77b4"/>
     <use xlink:href="#m96dbe3d2ff" x="292.412025" y="293.183229" style="fill: #1f77b4; stroke: #1f77b4"/>
     <use xlink:href="#m96dbe3d2ff" x="295.626427" y="293.078527" style="fill: #1f77b4; stroke: #1f77b4"/>
     <use xlink:href="#m96dbe3d2ff" x="298.840828" y="292.951301" style="fill: #1f77b4; stroke: #1f77b4"/>
     <use xlink:href="#m96dbe3d2ff" x="302.05523" y="292.794801" style="fill: #1f77b4; stroke: #1f77b4"/>
     <use xlink:href="#m96dbe3d2ff" x="305.269631" y="292.599199" style="fill: #1f77b4; stroke: #1f77b4"/>
     <use xlink:href="#m96dbe3d2ff" x="308.484032" y="292.349616" style="fill: #1f77b4; stroke: #1f77b4"/>
     <use xlink:href="#m96dbe3d2ff" x="311.698434" y="292.02241" style="fill: #1f77b4; stroke: #1f77b4"/>
     <use xlink:href="#m96dbe3d2ff" x="314.912835" y="291.577621" style="fill: #1f77b4; stroke: #1f77b4"/>
     <use xlink:href="#m96dbe3d2ff" x="318.127237" y="290.941974" style="fill: #1f77b4; stroke: #1f77b4"/>
     <use xlink:href="#m96dbe3d2ff" x="321.341638" y="289.965049" style="fill: #1f77b4; stroke: #1f77b4"/>
     <use xlink:href="#m96dbe3d2ff" x="324.55604" y="288.281512" style="fill: #1f77b4; stroke: #1f77b4"/>
     <use xlink:href="#m96dbe3d2ff" x="327.770441" y="284.714146" style="fill: #1f77b4; stroke: #1f77b4"/>
     <use xlink:href="#m96dbe3d2ff" x="330.984842" y="272.199581" style="fill: #1f77b4; stroke: #1f77b4"/>
     <use xlink:href="#m96dbe3d2ff" x="334.199244" y="206.033777" style="fill: #1f77b4; stroke: #1f77b4"/>
     <use xlink:href="#m96dbe3d2ff" x="337.413645" y="281.177488" style="fill: #1f77b4; stroke: #1f77b4"/>
     <use xlink:href="#m96dbe3d2ff" x="340.628047" y="287.999145" style="fill: #1f77b4; stroke: #1f77b4"/>
     <use xlink:href="#m96dbe3d2ff" x="343.842448" y="290.550818" style="fill: #1f77b4; stroke: #1f77b4"/>
     <use xlink:href="#m96dbe3d2ff" x="347.05685" y="291.882575" style="fill: #1f77b4; stroke: #1f77b4"/>
     <use xlink:href="#m96dbe3d2ff" x="350.271251" y="292.698245" style="fill: #1f77b4; stroke: #1f77b4"/>
     <use xlink:href="#m96dbe3d2ff" x="353.485653" y="293.247534" style="fill: #1f77b4; stroke: #1f77b4"/>
     <use xlink:href="#m96dbe3d2ff" x="356.700054" y="293.641381" style="fill: #1f77b4; stroke: #1f77b4"/>
     <use xlink:href="#m96dbe3d2ff" x="359.914455" y="293.936553" style="fill: #1f77b4; stroke: #1f77b4"/>
     <use xlink:href="#m96dbe3d2ff" x="363.128857" y="294.165071" style="fill: #1f77b4; stroke: #1f77b4"/>
     <use xlink:href="#m96dbe3d2ff" x="366.343258" y="294.346315" style="fill: #1f77b4; stroke: #1f77b4"/>
     <use xlink:href="#m96dbe3d2ff" x="369.55766" y="294.492642" style="fill: #1f77b4; stroke: #1f77b4"/>
     <use xlink:href="#m96dbe3d2ff" x="372.772061" y="294.612227" style="fill: #1f77b4; stroke: #1f77b4"/>
     <use xlink:href="#m96dbe3d2ff" x="375.986463" y="294.710605" style="fill: #1f77b4; stroke: #1f77b4"/>
     <use xlink:href="#m96dbe3d2ff" x="379.200864" y="294.791555" style="fill: #1f77b4; stroke: #1f77b4"/>
     <use xlink:href="#m96dbe3d2ff" x="382.415266" y="294.857626" style="fill: #1f77b4; stroke: #1f77b4"/>
     <use xlink:href="#m96dbe3d2ff" x="385.629667" y="294.910466" style="fill: #1f77b4; stroke: #1f77b4"/>
     <use xlink:href="#m96dbe3d2ff" x="388.844068" y="294.95106" style="fill: #1f77b4; stroke: #1f77b4"/>
     <use xlink:href="#m96dbe3d2ff" x="392.05847" y="294.979909" style="fill: #1f77b4; stroke: #1f77b4"/>
     <use xlink:href="#m96dbe3d2ff" x="395.272871" y="294.9972" style="fill: #1f77b4; stroke: #1f77b4"/>
     <use xlink:href="#m96dbe3d2ff" x="398.487273" y="295.002966" style="fill: #1f77b4; stroke: #1f77b4"/>
    </g>
   </g>
   <g id="line2d_16">
    <path d="M 73.832727 295.488 
L 398.487273 295.488 
" clip-path="url(#p83786fd8d5)" style="fill: none; stroke: #d62728; stroke-width: 1.5; stroke-linecap: square"/>
   </g>
   <g id="patch_3">
    <path d="M 57.6 307.584 
L 57.6 41.472 
" style="fill: none; stroke: #000000; stroke-width: 0.8; stroke-linejoin: miter; stroke-linecap: square"/>
   </g>
   <g id="patch_4">
    <path d="M 414.72 307.584 
L 414.72 41.472 
" style="fill: none; stroke: #000000; stroke-width: 0.8; stroke-linejoin: miter; stroke-linecap: square"/>
   </g>
   <g id="patch_5">
    <path d="M 57.6 307.584 
L 414.72 307.584 
" style="fill: none; stroke: #000000; stroke-width: 0.8; stroke-linejoin: miter; stroke-linecap: square"/>
   </g>
   <g id="patch_6">
    <path d="M 57.6 41.472 
L 414.72 41.472 
" style="fill: none; stroke: #000000; stroke-width: 0.8; stroke-linejoin: miter; stroke-linecap: square"/>
   </g>
   <g id="text_17">
    <!-- Spectre fréquentiel du signal y -->
    <g transform="translate(144.017812 35.472) scale(0.12 -0.12)">
     <defs>
      <path id="DejaVuSans-53" d="M 3425 4513 
L 3425 3897 
Q 3066 4069 2747 4153 
Q 2428 4238 2131 4238 
Q 1616 4238 1336 4038 
Q 1056 3838 1056 3469 
Q 1056 3159 1242 3001 
Q 1428 2844 1947 2747 
L 2328 2669 
Q 3034 2534 3370 2195 
Q 3706 1856 3706 1288 
Q 3706 609 3251 259 
Q 2797 -91 1919 -91 
Q 1588 -91 1214 -16 
Q 841 59 441 206 
L 441 856 
Q 825 641 1194 531 
Q 1563 422 1919 422 
Q 2459 422 2753 634 
Q 3047 847 3047 1241 
Q 3047 1584 2836 1778 
Q 2625 1972 2144 2069 
L 1759 2144 
Q 1053 2284 737 2584 
Q 422 2884 422 3419 
Q 422 4038 858 4394 
Q 1294 4750 2059 4750 
Q 2388 4750 2728 4690 
Q 3069 4631 3425 4513 
z
" transform="scale(0.015625)"/>
      <path id="DejaVuSans-66" d="M 2375 4863 
L 2375 4384 
L 1825 4384 
Q 1516 4384 1395 4259 
Q 1275 4134 1275 3809 
L 1275 3500 
L 2222 3500 
L 2222 3053 
L 1275 3053 
L 1275 0 
L 697 0 
L 697 3053 
L 147 3053 
L 147 3500 
L 697 3500 
L 697 3744 
Q 697 4328 969 4595 
Q 1241 4863 1831 4863 
L 2375 4863 
z
" transform="scale(0.015625)"/>
      <path id="DejaVuSans-73" d="M 2834 3397 
L 2834 2853 
Q 2591 2978 2328 3040 
Q 2066 3103 1784 3103 
Q 1356 3103 1142 2972 
Q 928 2841 928 2578 
Q 928 2378 1081 2264 
Q 1234 2150 1697 2047 
L 1894 2003 
Q 2506 1872 2764 1633 
Q 3022 1394 3022 966 
Q 3022 478 2636 193 
Q 2250 -91 1575 -91 
Q 1294 -91 989 -36 
Q 684 19 347 128 
L 347 722 
Q 666 556 975 473 
Q 1284 391 1588 391 
Q 1994 391 2212 530 
Q 2431 669 2431 922 
Q 2431 1156 2273 1281 
Q 2116 1406 1581 1522 
L 1381 1569 
Q 847 1681 609 1914 
Q 372 2147 372 2553 
Q 372 3047 722 3315 
Q 1072 3584 1716 3584 
Q 2034 3584 2315 3537 
Q 2597 3491 2834 3397 
z
" transform="scale(0.015625)"/>
      <path id="DejaVuSans-67" d="M 2906 1791 
Q 2906 2416 2648 2759 
Q 2391 3103 1925 3103 
Q 1463 3103 1205 2759 
Q 947 2416 947 1791 
Q 947 1169 1205 825 
Q 1463 481 1925 481 
Q 2391 481 2648 825 
Q 2906 1169 2906 1791 
z
M 3481 434 
Q 3481 -459 3084 -895 
Q 2688 -1331 1869 -1331 
Q 1566 -1331 1297 -1286 
Q 1028 -1241 775 -1147 
L 775 -588 
Q 1028 -725 1275 -790 
Q 1522 -856 1778 -856 
Q 2344 -856 2625 -561 
Q 2906 -266 2906 331 
L 2906 616 
Q 2728 306 2450 153 
Q 2172 0 1784 0 
Q 1141 0 747 490 
Q 353 981 353 1791 
Q 353 2603 747 3093 
Q 1141 3584 1784 3584 
Q 2172 3584 2450 3431 
Q 2728 3278 2906 2969 
L 2906 3500 
L 3481 3500 
L 3481 434 
z
" transform="scale(0.015625)"/>
      <path id="DejaVuSans-61" d="M 2194 1759 
Q 1497 1759 1228 1600 
Q 959 1441 959 1056 
Q 959 750 1161 570 
Q 1363 391 1709 391 
Q 2188 391 2477 730 
Q 2766 1069 2766 1631 
L 2766 1759 
L 2194 1759 
z
M 3341 1997 
L 3341 0 
L 2766 0 
L 2766 531 
Q 2569 213 2275 61 
Q 1981 -91 1556 -91 
Q 1019 -91 701 211 
Q 384 513 384 1019 
Q 384 1609 779 1909 
Q 1175 2209 1959 2209 
L 2766 2209 
L 2766 2266 
Q 2766 2663 2505 2880 
Q 2244 3097 1772 3097 
Q 1472 3097 1187 3025 
Q 903 2953 641 2809 
L 641 3341 
Q 956 3463 1253 3523 
Q 1550 3584 1831 3584 
Q 2591 3584 2966 3190 
Q 3341 2797 3341 1997 
z
" transform="scale(0.015625)"/>
      <path id="DejaVuSans-79" d="M 2059 -325 
Q 1816 -950 1584 -1140 
Q 1353 -1331 966 -1331 
L 506 -1331 
L 506 -850 
L 844 -850 
Q 1081 -850 1212 -737 
Q 1344 -625 1503 -206 
L 1606 56 
L 191 3500 
L 800 3500 
L 1894 763 
L 2988 3500 
L 3597 3500 
L 2059 -325 
z
" transform="scale(0.015625)"/>
     </defs>
     <use xlink:href="#DejaVuSans-53"/>
     <use xlink:href="#DejaVuSans-70" transform="translate(63.476562 0)"/>
     <use xlink:href="#DejaVuSans-65" transform="translate(126.953125 0)"/>
     <use xlink:href="#DejaVuSans-63" transform="translate(188.476562 0)"/>
     <use xlink:href="#DejaVuSans-74" transform="translate(243.457031 0)"/>
     <use xlink:href="#DejaVuSans-72" transform="translate(282.666016 0)"/>
     <use xlink:href="#DejaVuSans-65" transform="translate(321.529297 0)"/>
     <use xlink:href="#DejaVuSans-20" transform="translate(383.052734 0)"/>
     <use xlink:href="#DejaVuSans-66" transform="translate(414.839844 0)"/>
     <use xlink:href="#DejaVuSans-72" transform="translate(450.044922 0)"/>
     <use xlink:href="#DejaVuSans-e9" transform="translate(488.908203 0)"/>
     <use xlink:href="#DejaVuSans-71" transform="translate(550.431641 0)"/>
     <use xlink:href="#DejaVuSans-75" transform="translate(613.908203 0)"/>
     <use xlink:href="#DejaVuSans-65" transform="translate(677.287109 0)"/>
     <use xlink:href="#DejaVuSans-6e" transform="translate(738.810547 0)"/>
     <use xlink:href="#DejaVuSans-74" transform="translate(802.189453 0)"/>
     <use xlink:href="#DejaVuSans-69" transform="translate(841.398438 0)"/>
     <use xlink:href="#DejaVuSans-65" transform="translate(869.181641 0)"/>
     <use xlink:href="#DejaVuSans-6c" transform="translate(930.705078 0)"/>
     <use xlink:href="#DejaVuSans-20" transform="translate(958.488281 0)"/>
     <use xlink:href="#DejaVuSans-64" transform="translate(990.275391 0)"/>
     <use xlink:href="#DejaVuSans-75" transform="translate(1053.751953 0)"/>
     <use xlink:href="#DejaVuSans-20" transform="translate(1117.130859 0)"/>
     <use xlink:href="#DejaVuSans-73" transform="translate(1148.917969 0)"/>
     <use xlink:href="#DejaVuSans-69" transform="translate(1201.017578 0)"/>
     <use xlink:href="#DejaVuSans-67" transform="translate(1228.800781 0)"/>
     <use xlink:href="#DejaVuSans-6e" transform="translate(1292.277344 0)"/>
     <use xlink:href="#DejaVuSans-61" transform="translate(1355.65625 0)"/>
     <use xlink:href="#DejaVuSans-6c" transform="translate(1416.935547 0)"/>
     <use xlink:href="#DejaVuSans-20" transform="translate(1444.71875 0)"/>
     <use xlink:href="#DejaVuSans-79" transform="translate(1476.505859 0)"/>
    </g>
   </g>
  </g>
 </g>
 <defs>
  <clipPath id="p83786fd8d5">
   <rect x="57.6" y="41.472" width="357.12" height="266.112"/>
  </clipPath>
 </defs>
</svg>
