<?xml version="1.0" encoding="utf-8" standalone="no"?>
<!DOCTYPE svg PUBLIC "-//W3C//DTD SVG 1.1//EN"
  "http://www.w3.org/Graphics/SVG/1.1/DTD/svg11.dtd">
<svg xmlns:xlink="http://www.w3.org/1999/xlink" width="460.8pt" height="345.6pt" viewBox="0 0 460.8 345.6" xmlns="http://www.w3.org/2000/svg" version="1.1">
 <metadata>
  <rdf:RDF xmlns:dc="http://purl.org/dc/elements/1.1/" xmlns:cc="http://creativecommons.org/ns#" xmlns:rdf="http://www.w3.org/1999/02/22-rdf-syntax-ns#">
   <cc:Work>
    <dc:type rdf:resource="http://purl.org/dc/dcmitype/StillImage"/>
    <dc:date>2025-12-03T15:53:21.057178</dc:date>
    <dc:format>image/svg+xml</dc:format>
    <dc:creator>
     <cc:Agent>
      <dc:title>Matplotlib v3.10.7, https://matplotlib.org/</dc:title>
     </cc:Agent>
    </dc:creator>
   </cc:Work>
  </rdf:RDF>
 </metadata>
 <defs>
  <style type="text/css">*{stroke-linejoin: round; stroke-linecap: butt}</style>
 </defs>
 <g id="figure_1">
  <g id="patch_1">
   <path d="M 0 345.6 
L 460.8 345.6 
L 460.8 0 
L 0 0 
z
" style="fill: #ffffff"/>
  </g>
  <g id="axes_1">
   <g id="patch_2">
    <path d="M 57.6 307.584 
L 414.72 307.584 
L 414.72 41.472 
L 57.6 41.472 
z
" style="fill: #ffffff"/>
   </g>
   <g id="matplotlib.axis_1">
    <g id="xtick_1">
     <g id="line2d_1">
      <defs>
       <path id="mba44e9c521" d="M 0 0 
L 0 3.5 
" style="stroke: #000000; stroke-width: 0.8"/>
      </defs>
      <g>
       <use xlink:href="#mba44e9c521" x="57.6" y="307.584" style="stroke: #000000; stroke-width: 0.8"/>
      </g>
     </g>
     <g id="text_1">
      <!-- 0 -->
      <g transform="translate(54.41875 322.182437) scale(0.1 -0.1)">
       <defs>
        <path id="DejaVuSans-30" d="M 2034 4250 
Q 1547 4250 1301 3770 
Q 1056 3291 1056 2328 
Q 1056 1369 1301 889 
Q 1547 409 2034 409 
Q 2525 409 2770 889 
Q 3016 1369 3016 2328 
Q 3016 3291 2770 3770 
Q 2525 4250 2034 4250 
z
M 2034 4750 
Q 2819 4750 3233 4129 
Q 3647 3509 3647 2328 
Q 3647 1150 3233 529 
Q 2819 -91 2034 -91 
Q 1250 -91 836 529 
Q 422 1150 422 2328 
Q 422 3509 836 4129 
Q 1250 4750 2034 4750 
z
" transform="scale(0.015625)"/>
       </defs>
       <use xlink:href="#DejaVuSans-30"/>
      </g>
     </g>
    </g>
    <g id="xtick_2">
     <g id="line2d_2">
      <g>
       <use xlink:href="#mba44e9c521" x="129.024" y="307.584" style="stroke: #000000; stroke-width: 0.8"/>
      </g>
     </g>
     <g id="text_2">
      <!-- 100 -->
      <g transform="translate(119.48025 322.182437) scale(0.1 -0.1)">
       <defs>
        <path id="DejaVuSans-31" d="M 794 531 
L 1825 531 
L 1825 4091 
L 703 3866 
L 703 4441 
L 1819 4666 
L 2450 4666 
L 2450 531 
L 3481 531 
L 3481 0 
L 794 0 
L 794 531 
z
" transform="scale(0.015625)"/>
       </defs>
       <use xlink:href="#DejaVuSans-31"/>
       <use xlink:href="#DejaVuSans-30" transform="translate(63.623047 0)"/>
       <use xlink:href="#DejaVuSans-30" transform="translate(127.246094 0)"/>
      </g>
     </g>
    </g>
    <g id="xtick_3">
     <g id="line2d_3">
      <g>
       <use xlink:href="#mba44e9c521" x="200.448" y="307.584" style="stroke: #000000; stroke-width: 0.8"/>
      </g>
     </g>
     <g id="text_3">
      <!-- 200 -->
      <g transform="translate(190.90425 322.182437) scale(0.1 -0.1)">
       <defs>
        <path id="DejaVuSans-32" d="M 1228 531 
L 3431 531 
L 3431 0 
L 469 0 
L 469 531 
Q 828 903 1448 1529 
Q 2069 2156 2228 2338 
Q 2531 2678 2651 2914 
Q 2772 3150 2772 3378 
Q 2772 3750 2511 3984 
Q 2250 4219 1831 4219 
Q 1534 4219 1204 4116 
Q 875 4013 500 3803 
L 500 4441 
Q 881 4594 1212 4672 
Q 1544 4750 1819 4750 
Q 2544 4750 2975 4387 
Q 3406 4025 3406 3419 
Q 3406 3131 3298 2873 
Q 3191 2616 2906 2266 
Q 2828 2175 2409 1742 
Q 1991 1309 1228 531 
z
" transform="scale(0.015625)"/>
       </defs>
       <use xlink:href="#DejaVuSans-32"/>
       <use xlink:href="#DejaVuSans-30" transform="translate(63.623047 0)"/>
       <use xlink:href="#DejaVuSans-30" transform="translate(127.246094 0)"/>
      </g>
     </g>
    </g>
    <g id="xtick_4">
     <g id="line2d_4">
      <g>
       <use xlink:href="#mba44e9c521" x="271.872" y="307.584" style="stroke: #000000; stroke-width: 0.8"/>
      </g>
     </g>
     <g id="text_4">
      <!-- 300 -->
      <g transform="translate(262.32825 322.182437) scale(0.1 -0.1)">
       <defs>
        <path id="DejaVuSans-33" d="M 2597 2516 
Q 3050 2419 3304 2112 
Q 3559 1806 3559 1356 
Q 3559 666 3084 287 
Q 2609 -91 1734 -91 
Q 1441 -91 1130 -33 
Q 819 25 488 141 
L 488 750 
Q 750 597 1062 519 
Q 1375 441 1716 441 
Q 2309 441 2620 675 
Q 2931 909 2931 1356 
Q 2931 1769 2642 2001 
Q 2353 2234 1838 2234 
L 1294 2234 
L 1294 2753 
L 1863 2753 
Q 2328 2753 2575 2939 
Q 2822 3125 2822 3475 
Q 2822 3834 2567 4026 
Q 2313 4219 1838 4219 
Q 1578 4219 1281 4162 
Q 984 4106 628 3988 
L 628 4550 
Q 988 4650 1302 4700 
Q 1616 4750 1894 4750 
Q 2613 4750 3031 4423 
Q 3450 4097 3450 3541 
Q 3450 3153 3228 2886 
Q 3006 2619 2597 2516 
z
" transform="scale(0.015625)"/>
       </defs>
       <use xlink:href="#DejaVuSans-33"/>
       <use xlink:href="#DejaVuSans-30" transform="translate(63.623047 0)"/>
       <use xlink:href="#DejaVuSans-30" transform="translate(127.246094 0)"/>
      </g>
     </g>
    </g>
    <g id="xtick_5">
     <g id="line2d_5">
      <g>
       <use xlink:href="#mba44e9c521" x="343.296" y="307.584" style="stroke: #000000; stroke-width: 0.8"/>
      </g>
     </g>
     <g id="text_5">
      <!-- 400 -->
      <g transform="translate(333.75225 322.182437) scale(0.1 -0.1)">
       <defs>
        <path id="DejaVuSans-34" d="M 2419 4116 
L 825 1625 
L 2419 1625 
L 2419 4116 
z
M 2253 4666 
L 3047 4666 
L 3047 1625 
L 3713 1625 
L 3713 1100 
L 3047 1100 
L 3047 0 
L 2419 0 
L 2419 1100 
L 313 1100 
L 313 1709 
L 2253 4666 
z
" transform="scale(0.015625)"/>
       </defs>
       <use xlink:href="#DejaVuSans-34"/>
       <use xlink:href="#DejaVuSans-30" transform="translate(63.623047 0)"/>
       <use xlink:href="#DejaVuSans-30" transform="translate(127.246094 0)"/>
      </g>
     </g>
    </g>
    <g id="xtick_6">
     <g id="line2d_6">
      <g>
       <use xlink:href="#mba44e9c521" x="414.72" y="307.584" style="stroke: #000000; stroke-width: 0.8"/>
      </g>
     </g>
     <g id="text_6">
      <!-- 500 -->
      <g transform="translate(405.17625 322.182437) scale(0.1 -0.1)">
       <defs>
        <path id="DejaVuSans-35" d="M 691 4666 
L 3169 4666 
L 3169 4134 
L 1269 4134 
L 1269 2991 
Q 1406 3038 1543 3061 
Q 1681 3084 1819 3084 
Q 2600 3084 3056 2656 
Q 3513 2228 3513 1497 
Q 3513 744 3044 326 
Q 2575 -91 1722 -91 
Q 1428 -91 1123 -41 
Q 819 9 494 109 
L 494 744 
Q 775 591 1075 516 
Q 1375 441 1709 441 
Q 2250 441 2565 725 
Q 2881 1009 2881 1497 
Q 2881 1984 2565 2268 
Q 2250 2553 1709 2553 
Q 1456 2553 1204 2497 
Q 953 2441 691 2322 
L 691 4666 
z
" transform="scale(0.015625)"/>
       </defs>
       <use xlink:href="#DejaVuSans-35"/>
       <use xlink:href="#DejaVuSans-30" transform="translate(63.623047 0)"/>
       <use xlink:href="#DejaVuSans-30" transform="translate(127.246094 0)"/>
      </g>
     </g>
    </g>
    <g id="text_7">
     <!-- Fréquence [Hz] -->
     <g transform="translate(198.338125 336.260562) scale(0.1 -0.1)">
      <defs>
       <path id="DejaVuSans-46" d="M 628 4666 
L 3309 4666 
L 3309 4134 
L 1259 4134 
L 1259 2759 
L 3109 2759 
L 3109 2228 
L 1259 2228 
L 1259 0 
L 628 0 
L 628 4666 
z
" transform="scale(0.015625)"/>
       <path id="DejaVuSans-72" d="M 2631 2963 
Q 2534 3019 2420 3045 
Q 2306 3072 2169 3072 
Q 1681 3072 1420 2755 
Q 1159 2438 1159 1844 
L 1159 0 
L 581 0 
L 581 3500 
L 1159 3500 
L 1159 2956 
Q 1341 3275 1631 3429 
Q 1922 3584 2338 3584 
Q 2397 3584 2469 3576 
Q 2541 3569 2628 3553 
L 2631 2963 
z
" transform="scale(0.015625)"/>
       <path id="DejaVuSans-e9" d="M 3597 1894 
L 3597 1613 
L 953 1613 
Q 991 1019 1311 708 
Q 1631 397 2203 397 
Q 2534 397 2845 478 
Q 3156 559 3463 722 
L 3463 178 
Q 3153 47 2828 -22 
Q 2503 -91 2169 -91 
Q 1331 -91 842 396 
Q 353 884 353 1716 
Q 353 2575 817 3079 
Q 1281 3584 2069 3584 
Q 2775 3584 3186 3129 
Q 3597 2675 3597 1894 
z
M 3022 2063 
Q 3016 2534 2758 2815 
Q 2500 3097 2075 3097 
Q 1594 3097 1305 2825 
Q 1016 2553 972 2059 
L 3022 2063 
z
M 2466 5119 
L 3088 5119 
L 2070 3944 
L 1591 3944 
L 2466 5119 
z
" transform="scale(0.015625)"/>
       <path id="DejaVuSans-71" d="M 947 1747 
Q 947 1113 1208 752 
Q 1469 391 1925 391 
Q 2381 391 2643 752 
Q 2906 1113 2906 1747 
Q 2906 2381 2643 2742 
Q 2381 3103 1925 3103 
Q 1469 3103 1208 2742 
Q 947 2381 947 1747 
z
M 2906 525 
Q 2725 213 2448 61 
Q 2172 -91 1784 -91 
Q 1150 -91 751 415 
Q 353 922 353 1747 
Q 353 2572 751 3078 
Q 1150 3584 1784 3584 
Q 2172 3584 2448 3432 
Q 2725 3281 2906 2969 
L 2906 3500 
L 3481 3500 
L 3481 -1331 
L 2906 -1331 
L 2906 525 
z
" transform="scale(0.015625)"/>
       <path id="DejaVuSans-75" d="M 544 1381 
L 544 3500 
L 1119 3500 
L 1119 1403 
Q 1119 906 1312 657 
Q 1506 409 1894 409 
Q 2359 409 2629 706 
Q 2900 1003 2900 1516 
L 2900 3500 
L 3475 3500 
L 3475 0 
L 2900 0 
L 2900 538 
Q 2691 219 2414 64 
Q 2138 -91 1772 -91 
Q 1169 -91 856 284 
Q 544 659 544 1381 
z
M 1991 3584 
L 1991 3584 
z
" transform="scale(0.015625)"/>
       <path id="DejaVuSans-65" d="M 3597 1894 
L 3597 1613 
L 953 1613 
Q 991 1019 1311 708 
Q 1631 397 2203 397 
Q 2534 397 2845 478 
Q 3156 559 3463 722 
L 3463 178 
Q 3153 47 2828 -22 
Q 2503 -91 2169 -91 
Q 1331 -91 842 396 
Q 353 884 353 1716 
Q 353 2575 817 3079 
Q 1281 3584 2069 3584 
Q 2775 3584 3186 3129 
Q 3597 2675 3597 1894 
z
M 3022 2063 
Q 3016 2534 2758 2815 
Q 2500 3097 2075 3097 
Q 1594 3097 1305 2825 
Q 1016 2553 972 2059 
L 3022 2063 
z
" transform="scale(0.015625)"/>
       <path id="DejaVuSans-6e" d="M 3513 2113 
L 3513 0 
L 2938 0 
L 2938 2094 
Q 2938 2591 2744 2837 
Q 2550 3084 2163 3084 
Q 1697 3084 1428 2787 
Q 1159 2491 1159 1978 
L 1159 0 
L 581 0 
L 581 3500 
L 1159 3500 
L 1159 2956 
Q 1366 3272 1645 3428 
Q 1925 3584 2291 3584 
Q 2894 3584 3203 3211 
Q 3513 2838 3513 2113 
z
" transform="scale(0.015625)"/>
       <path id="DejaVuSans-63" d="M 3122 3366 
L 3122 2828 
Q 2878 2963 2633 3030 
Q 2388 3097 2138 3097 
Q 1578 3097 1268 2742 
Q 959 2388 959 1747 
Q 959 1106 1268 751 
Q 1578 397 2138 397 
Q 2388 397 2633 464 
Q 2878 531 3122 666 
L 3122 134 
Q 2881 22 2623 -34 
Q 2366 -91 2075 -91 
Q 1284 -91 818 406 
Q 353 903 353 1747 
Q 353 2603 823 3093 
Q 1294 3584 2113 3584 
Q 2378 3584 2631 3529 
Q 2884 3475 3122 3366 
z
" transform="scale(0.015625)"/>
       <path id="DejaVuSans-20" transform="scale(0.015625)"/>
       <path id="DejaVuSans-5b" d="M 550 4863 
L 1875 4863 
L 1875 4416 
L 1125 4416 
L 1125 -397 
L 1875 -397 
L 1875 -844 
L 550 -844 
L 550 4863 
z
" transform="scale(0.015625)"/>
       <path id="DejaVuSans-48" d="M 628 4666 
L 1259 4666 
L 1259 2753 
L 3553 2753 
L 3553 4666 
L 4184 4666 
L 4184 0 
L 3553 0 
L 3553 2222 
L 1259 2222 
L 1259 0 
L 628 0 
L 628 4666 
z
" transform="scale(0.015625)"/>
       <path id="DejaVuSans-7a" d="M 353 3500 
L 3084 3500 
L 3084 2975 
L 922 459 
L 3084 459 
L 3084 0 
L 275 0 
L 275 525 
L 2438 3041 
L 353 3041 
L 353 3500 
z
" transform="scale(0.015625)"/>
       <path id="DejaVuSans-5d" d="M 1947 4863 
L 1947 -844 
L 622 -844 
L 622 -397 
L 1369 -397 
L 1369 4416 
L 622 4416 
L 622 4863 
L 1947 4863 
z
" transform="scale(0.015625)"/>
      </defs>
      <use xlink:href="#DejaVuSans-46"/>
      <use xlink:href="#DejaVuSans-72" transform="translate(50.269531 0)"/>
      <use xlink:href="#DejaVuSans-e9" transform="translate(89.132812 0)"/>
      <use xlink:href="#DejaVuSans-71" transform="translate(150.65625 0)"/>
      <use xlink:href="#DejaVuSans-75" transform="translate(214.132812 0)"/>
      <use xlink:href="#DejaVuSans-65" transform="translate(277.511719 0)"/>
      <use xlink:href="#DejaVuSans-6e" transform="translate(339.035156 0)"/>
      <use xlink:href="#DejaVuSans-63" transform="translate(402.414062 0)"/>
      <use xlink:href="#DejaVuSans-65" transform="translate(457.394531 0)"/>
      <use xlink:href="#DejaVuSans-20" transform="translate(518.917969 0)"/>
      <use xlink:href="#DejaVuSans-5b" transform="translate(550.705078 0)"/>
      <use xlink:href="#DejaVuSans-48" transform="translate(589.71875 0)"/>
      <use xlink:href="#DejaVuSans-7a" transform="translate(664.914062 0)"/>
      <use xlink:href="#DejaVuSans-5d" transform="translate(717.404297 0)"/>
     </g>
    </g>
   </g>
   <g id="matplotlib.axis_2">
    <g id="ytick_1">
     <g id="line2d_7">
      <defs>
       <path id="m89cde10c91" d="M 0 0 
L -3.5 0 
" style="stroke: #000000; stroke-width: 0.8"/>
      </defs>
      <g>
       <use xlink:href="#m89cde10c91" x="57.6" y="295.488" style="stroke: #000000; stroke-width: 0.8"/>
      </g>
     </g>
     <g id="text_8">
      <!-- 0 -->
      <g transform="translate(44.2375 299.287219) scale(0.1 -0.1)">
       <use xlink:href="#DejaVuSans-30"/>
      </g>
     </g>
    </g>
    <g id="ytick_2">
     <g id="line2d_8">
      <g>
       <use xlink:href="#m89cde10c91" x="57.6" y="263.392786" style="stroke: #000000; stroke-width: 0.8"/>
      </g>
     </g>
     <g id="text_9">
      <!-- 20 -->
      <g transform="translate(37.875 267.192004) scale(0.1 -0.1)">
       <use xlink:href="#DejaVuSans-32"/>
       <use xlink:href="#DejaVuSans-30" transform="translate(63.623047 0)"/>
      </g>
     </g>
    </g>
    <g id="ytick_3">
     <g id="line2d_9">
      <g>
       <use xlink:href="#m89cde10c91" x="57.6" y="231.297571" style="stroke: #000000; stroke-width: 0.8"/>
      </g>
     </g>
     <g id="text_10">
      <!-- 40 -->
      <g transform="translate(37.875 235.09679) scale(0.1 -0.1)">
       <use xlink:href="#DejaVuSans-34"/>
       <use xlink:href="#DejaVuSans-30" transform="translate(63.623047 0)"/>
      </g>
     </g>
    </g>
    <g id="ytick_4">
     <g id="line2d_10">
      <g>
       <use xlink:href="#m89cde10c91" x="57.6" y="199.202357" style="stroke: #000000; stroke-width: 0.8"/>
      </g>
     </g>
     <g id="text_11">
      <!-- 60 -->
      <g transform="translate(37.875 203.001576) scale(0.1 -0.1)">
       <defs>
        <path id="DejaVuSans-36" d="M 2113 2584 
Q 1688 2584 1439 2293 
Q 1191 2003 1191 1497 
Q 1191 994 1439 701 
Q 1688 409 2113 409 
Q 2538 409 2786 701 
Q 3034 994 3034 1497 
Q 3034 2003 2786 2293 
Q 2538 2584 2113 2584 
z
M 3366 4563 
L 3366 3988 
Q 3128 4100 2886 4159 
Q 2644 4219 2406 4219 
Q 1781 4219 1451 3797 
Q 1122 3375 1075 2522 
Q 1259 2794 1537 2939 
Q 1816 3084 2150 3084 
Q 2853 3084 3261 2657 
Q 3669 2231 3669 1497 
Q 3669 778 3244 343 
Q 2819 -91 2113 -91 
Q 1303 -91 875 529 
Q 447 1150 447 2328 
Q 447 3434 972 4092 
Q 1497 4750 2381 4750 
Q 2619 4750 2861 4703 
Q 3103 4656 3366 4563 
z
" transform="scale(0.015625)"/>
       </defs>
       <use xlink:href="#DejaVuSans-36"/>
       <use xlink:href="#DejaVuSans-30" transform="translate(63.623047 0)"/>
      </g>
     </g>
    </g>
    <g id="ytick_5">
     <g id="line2d_11">
      <g>
       <use xlink:href="#m89cde10c91" x="57.6" y="167.107142" style="stroke: #000000; stroke-width: 0.8"/>
      </g>
     </g>
     <g id="text_12">
      <!-- 80 -->
      <g transform="translate(37.875 170.906361) scale(0.1 -0.1)">
       <defs>
        <path id="DejaVuSans-38" d="M 2034 2216 
Q 1584 2216 1326 1975 
Q 1069 1734 1069 1313 
Q 1069 891 1326 650 
Q 1584 409 2034 409 
Q 2484 409 2743 651 
Q 3003 894 3003 1313 
Q 3003 1734 2745 1975 
Q 2488 2216 2034 2216 
z
M 1403 2484 
Q 997 2584 770 2862 
Q 544 3141 544 3541 
Q 544 4100 942 4425 
Q 1341 4750 2034 4750 
Q 2731 4750 3128 4425 
Q 3525 4100 3525 3541 
Q 3525 3141 3298 2862 
Q 3072 2584 2669 2484 
Q 3125 2378 3379 2068 
Q 3634 1759 3634 1313 
Q 3634 634 3220 271 
Q 2806 -91 2034 -91 
Q 1263 -91 848 271 
Q 434 634 434 1313 
Q 434 1759 690 2068 
Q 947 2378 1403 2484 
z
M 1172 3481 
Q 1172 3119 1398 2916 
Q 1625 2713 2034 2713 
Q 2441 2713 2670 2916 
Q 2900 3119 2900 3481 
Q 2900 3844 2670 4047 
Q 2441 4250 2034 4250 
Q 1625 4250 1398 4047 
Q 1172 3844 1172 3481 
z
" transform="scale(0.015625)"/>
       </defs>
       <use xlink:href="#DejaVuSans-38"/>
       <use xlink:href="#DejaVuSans-30" transform="translate(63.623047 0)"/>
      </g>
     </g>
    </g>
    <g id="ytick_6">
     <g id="line2d_12">
      <g>
       <use xlink:href="#m89cde10c91" x="57.6" y="135.011928" style="stroke: #000000; stroke-width: 0.8"/>
      </g>
     </g>
     <g id="text_13">
      <!-- 100 -->
      <g transform="translate(31.5125 138.811147) scale(0.1 -0.1)">
       <use xlink:href="#DejaVuSans-31"/>
       <use xlink:href="#DejaVuSans-30" transform="translate(63.623047 0)"/>
       <use xlink:href="#DejaVuSans-30" transform="translate(127.246094 0)"/>
      </g>
     </g>
    </g>
    <g id="ytick_7">
     <g id="line2d_13">
      <g>
       <use xlink:href="#m89cde10c91" x="57.6" y="102.916714" style="stroke: #000000; stroke-width: 0.8"/>
      </g>
     </g>
     <g id="text_14">
      <!-- 120 -->
      <g transform="translate(31.5125 106.715932) scale(0.1 -0.1)">
       <use xlink:href="#DejaVuSans-31"/>
       <use xlink:href="#DejaVuSans-32" transform="translate(63.623047 0)"/>
       <use xlink:href="#DejaVuSans-30" transform="translate(127.246094 0)"/>
      </g>
     </g>
    </g>
    <g id="ytick_8">
     <g id="line2d_14">
      <g>
       <use xlink:href="#m89cde10c91" x="57.6" y="70.821499" style="stroke: #000000; stroke-width: 0.8"/>
      </g>
     </g>
     <g id="text_15">
      <!-- 140 -->
      <g transform="translate(31.5125 74.620718) scale(0.1 -0.1)">
       <use xlink:href="#DejaVuSans-31"/>
       <use xlink:href="#DejaVuSans-34" transform="translate(63.623047 0)"/>
       <use xlink:href="#DejaVuSans-30" transform="translate(127.246094 0)"/>
      </g>
     </g>
    </g>
    <g id="text_16">
     <!-- Amplitude -->
     <g transform="translate(25.432812 200.150656) rotate(-90) scale(0.1 -0.1)">
      <defs>
       <path id="DejaVuSans-41" d="M 2188 4044 
L 1331 1722 
L 3047 1722 
L 2188 4044 
z
M 1831 4666 
L 2547 4666 
L 4325 0 
L 3669 0 
L 3244 1197 
L 1141 1197 
L 716 0 
L 50 0 
L 1831 4666 
z
" transform="scale(0.015625)"/>
       <path id="DejaVuSans-6d" d="M 3328 2828 
Q 3544 3216 3844 3400 
Q 4144 3584 4550 3584 
Q 5097 3584 5394 3201 
Q 5691 2819 5691 2113 
L 5691 0 
L 5113 0 
L 5113 2094 
Q 5113 2597 4934 2840 
Q 4756 3084 4391 3084 
Q 3944 3084 3684 2787 
Q 3425 2491 3425 1978 
L 3425 0 
L 2847 0 
L 2847 2094 
Q 2847 2600 2669 2842 
Q 2491 3084 2119 3084 
Q 1678 3084 1418 2786 
Q 1159 2488 1159 1978 
L 1159 0 
L 581 0 
L 581 3500 
L 1159 3500 
L 1159 2956 
Q 1356 3278 1631 3431 
Q 1906 3584 2284 3584 
Q 2666 3584 2933 3390 
Q 3200 3197 3328 2828 
z
" transform="scale(0.015625)"/>
       <path id="DejaVuSans-70" d="M 1159 525 
L 1159 -1331 
L 581 -1331 
L 581 3500 
L 1159 3500 
L 1159 2969 
Q 1341 3281 1617 3432 
Q 1894 3584 2278 3584 
Q 2916 3584 3314 3078 
Q 3713 2572 3713 1747 
Q 3713 922 3314 415 
Q 2916 -91 2278 -91 
Q 1894 -91 1617 61 
Q 1341 213 1159 525 
z
M 3116 1747 
Q 3116 2381 2855 2742 
Q 2594 3103 2138 3103 
Q 1681 3103 1420 2742 
Q 1159 2381 1159 1747 
Q 1159 1113 1420 752 
Q 1681 391 2138 391 
Q 2594 391 2855 752 
Q 3116 1113 3116 1747 
z
" transform="scale(0.015625)"/>
       <path id="DejaVuSans-6c" d="M 603 4863 
L 1178 4863 
L 1178 0 
L 603 0 
L 603 4863 
z
" transform="scale(0.015625)"/>
       <path id="DejaVuSans-69" d="M 603 3500 
L 1178 3500 
L 1178 0 
L 603 0 
L 603 3500 
z
M 603 4863 
L 1178 4863 
L 1178 4134 
L 603 4134 
L 603 4863 
z
" transform="scale(0.015625)"/>
       <path id="DejaVuSans-74" d="M 1172 4494 
L 1172 3500 
L 2356 3500 
L 2356 3053 
L 1172 3053 
L 1172 1153 
Q 1172 725 1289 603 
Q 1406 481 1766 481 
L 2356 481 
L 2356 0 
L 1766 0 
Q 1100 0 847 248 
Q 594 497 594 1153 
L 594 3053 
L 172 3053 
L 172 3500 
L 594 3500 
L 594 4494 
L 1172 4494 
z
" transform="scale(0.015625)"/>
       <path id="DejaVuSans-64" d="M 2906 2969 
L 2906 4863 
L 3481 4863 
L 3481 0 
L 2906 0 
L 2906 525 
Q 2725 213 2448 61 
Q 2172 -91 1784 -91 
Q 1150 -91 751 415 
Q 353 922 353 1747 
Q 353 2572 751 3078 
Q 1150 3584 1784 3584 
Q 2172 3584 2448 3432 
Q 2725 3281 2906 2969 
z
M 947 1747 
Q 947 1113 1208 752 
Q 1469 391 1925 391 
Q 2381 391 2643 752 
Q 2906 1113 2906 1747 
Q 2906 2381 2643 2742 
Q 2381 3103 1925 3103 
Q 1469 3103 1208 2742 
Q 947 2381 947 1747 
z
" transform="scale(0.015625)"/>
      </defs>
      <use xlink:href="#DejaVuSans-41"/>
      <use xlink:href="#DejaVuSans-6d" transform="translate(68.408203 0)"/>
      <use xlink:href="#DejaVuSans-70" transform="translate(165.820312 0)"/>
      <use xlink:href="#DejaVuSans-6c" transform="translate(229.296875 0)"/>
      <use xlink:href="#DejaVuSans-69" transform="translate(257.080078 0)"/>
      <use xlink:href="#DejaVuSans-74" transform="translate(284.863281 0)"/>
      <use xlink:href="#DejaVuSans-75" transform="translate(324.072266 0)"/>
      <use xlink:href="#DejaVuSans-64" transform="translate(387.451172 0)"/>
      <use xlink:href="#DejaVuSans-65" transform="translate(450.927734 0)"/>
     </g>
    </g>
   </g>
   <g id="LineCollection_1">
    <path d="M 57.6 295.488 
L 57.6 175.130946 
" clip-path="url(#p3c38353719)" style="fill: none; stroke: #1f77b4; stroke-width: 1.5"/>
    <path d="M 71.8848 295.488 
L 71.8848 53.568 
" clip-path="url(#p3c38353719)" style="fill: none; stroke: #1f77b4; stroke-width: 1.5"/>
    <path d="M 86.1696 295.488 
L 86.1696 134.017353 
" clip-path="url(#p3c38353719)" style="fill: none; stroke: #1f77b4; stroke-width: 1.5"/>
    <path d="M 100.4544 295.488 
L 100.4544 202.737856 
" clip-path="url(#p3c38353719)" style="fill: none; stroke: #1f77b4; stroke-width: 1.5"/>
    <path d="M 114.7392 295.488 
L 114.7392 295.488 
" clip-path="url(#p3c38353719)" style="fill: none; stroke: #1f77b4; stroke-width: 1.5"/>
    <path d="M 129.024 295.488 
L 129.024 295.488 
" clip-path="url(#p3c38353719)" style="fill: none; stroke: #1f77b4; stroke-width: 1.5"/>
    <path d="M 143.3088 295.488 
L 143.3088 295.488 
" clip-path="url(#p3c38353719)" style="fill: none; stroke: #1f77b4; stroke-width: 1.5"/>
    <path d="M 157.5936 295.488 
L 157.5936 295.488 
" clip-path="url(#p3c38353719)" style="fill: none; stroke: #1f77b4; stroke-width: 1.5"/>
    <path d="M 171.8784 295.488 
L 171.8784 295.488 
" clip-path="url(#p3c38353719)" style="fill: none; stroke: #1f77b4; stroke-width: 1.5"/>
    <path d="M 186.1632 295.488 
L 186.1632 295.488 
" clip-path="url(#p3c38353719)" style="fill: none; stroke: #1f77b4; stroke-width: 1.5"/>
    <path d="M 200.448 295.488 
L 200.448 295.488 
" clip-path="url(#p3c38353719)" style="fill: none; stroke: #1f77b4; stroke-width: 1.5"/>
    <path d="M 214.7328 295.488 
L 214.7328 295.488 
" clip-path="url(#p3c38353719)" style="fill: none; stroke: #1f77b4; stroke-width: 1.5"/>
    <path d="M 229.0176 295.488 
L 229.0176 295.488 
" clip-path="url(#p3c38353719)" style="fill: none; stroke: #1f77b4; stroke-width: 1.5"/>
    <path d="M 243.3024 295.488 
L 243.3024 295.488 
" clip-path="url(#p3c38353719)" style="fill: none; stroke: #1f77b4; stroke-width: 1.5"/>
    <path d="M 257.5872 295.488 
L 257.5872 295.488 
" clip-path="url(#p3c38353719)" style="fill: none; stroke: #1f77b4; stroke-width: 1.5"/>
    <path d="M 271.872 295.488 
L 271.872 295.488 
" clip-path="url(#p3c38353719)" style="fill: none; stroke: #1f77b4; stroke-width: 1.5"/>
    <path d="M 286.1568 295.488 
L 286.1568 295.488 
" clip-path="url(#p3c38353719)" style="fill: none; stroke: #1f77b4; stroke-width: 1.5"/>
    <path d="M 300.4416 295.488 
L 300.4416 295.488 
" clip-path="url(#p3c38353719)" style="fill: none; stroke: #1f77b4; stroke-width: 1.5"/>
    <path d="M 314.7264 295.488 
L 314.7264 295.488 
" clip-path="url(#p3c38353719)" style="fill: none; stroke: #1f77b4; stroke-width: 1.5"/>
    <path d="M 329.0112 295.488 
L 329.0112 295.488 
" clip-path="url(#p3c38353719)" style="fill: none; stroke: #1f77b4; stroke-width: 1.5"/>
    <path d="M 343.296 295.488 
L 343.296 292.046024 
" clip-path="url(#p3c38353719)" style="fill: none; stroke: #1f77b4; stroke-width: 1.5"/>
    <path d="M 357.5808 295.488 
L 357.5808 295.488 
" clip-path="url(#p3c38353719)" style="fill: none; stroke: #1f77b4; stroke-width: 1.5"/>
    <path d="M 371.8656 295.488 
L 371.8656 295.488 
" clip-path="url(#p3c38353719)" style="fill: none; stroke: #1f77b4; stroke-width: 1.5"/>
    <path d="M 386.1504 295.488 
L 386.1504 295.488 
" clip-path="url(#p3c38353719)" style="fill: none; stroke: #1f77b4; stroke-width: 1.5"/>
    <path d="M 400.4352 295.488 
L 400.4352 295.488 
" clip-path="url(#p3c38353719)" style="fill: none; stroke: #1f77b4; stroke-width: 1.5"/>
    <path d="M 414.72 295.488 
L 414.72 295.488 
" clip-path="url(#p3c38353719)" style="fill: none; stroke: #1f77b4; stroke-width: 1.5"/>
   </g>
   <g id="line2d_15">
    <defs>
     <path id="m599a0792a4" d="M 0 3 
C 0.795609 3 1.55874 2.683901 2.12132 2.12132 
C 2.683901 1.55874 3 0.795609 3 0 
C 3 -0.795609 2.683901 -1.55874 2.12132 -2.12132 
C 1.55874 -2.683901 0.795609 -3 0 -3 
C -0.795609 -3 -1.55874 -2.683901 -2.12132 -2.12132 
C -2.683901 -1.55874 -3 -0.795609 -3 0 
C -3 0.795609 -2.683901 1.55874 -2.12132 2.12132 
C -1.55874 2.683901 -0.795609 3 0 3 
z
" style="stroke: #1f77b4"/>
    </defs>
    <g clip-path="url(#p3c38353719)">
     <use xlink:href="#m599a0792a4" x="57.6" y="175.130946" style="fill: #1f77b4; stroke: #1f77b4"/>
     <use xlink:href="#m599a0792a4" x="71.8848" y="53.568" style="fill: #1f77b4; stroke: #1f77b4"/>
     <use xlink:href="#m599a0792a4" x="86.1696" y="134.017353" style="fill: #1f77b4; stroke: #1f77b4"/>
     <use xlink:href="#m599a0792a4" x="100.4544" y="202.737856" style="fill: #1f77b4; stroke: #1f77b4"/>
     <use xlink:href="#m599a0792a4" x="114.7392" y="295.488" style="fill: #1f77b4; stroke: #1f77b4"/>
     <use xlink:href="#m599a0792a4" x="129.024" y="295.488" style="fill: #1f77b4; stroke: #1f77b4"/>
     <use xlink:href="#m599a0792a4" x="143.3088" y="295.488" style="fill: #1f77b4; stroke: #1f77b4"/>
     <use xlink:href="#m599a0792a4" x="157.5936" y="295.488" style="fill: #1f77b4; stroke: #1f77b4"/>
     <use xlink:href="#m599a0792a4" x="171.8784" y="295.488" style="fill: #1f77b4; stroke: #1f77b4"/>
     <use xlink:href="#m599a0792a4" x="186.1632" y="295.488" style="fill: #1f77b4; stroke: #1f77b4"/>
     <use xlink:href="#m599a0792a4" x="200.448" y="295.488" style="fill: #1f77b4; stroke: #1f77b4"/>
     <use xlink:href="#m599a0792a4" x="214.7328" y="295.488" style="fill: #1f77b4; stroke: #1f77b4"/>
     <use xlink:href="#m599a0792a4" x="229.0176" y="295.488" style="fill: #1f77b4; stroke: #1f77b4"/>
     <use xlink:href="#m599a0792a4" x="243.3024" y="295.488" style="fill: #1f77b4; stroke: #1f77b4"/>
     <use xlink:href="#m599a0792a4" x="257.5872" y="295.488" style="fill: #1f77b4; stroke: #1f77b4"/>
     <use xlink:href="#m599a0792a4" x="271.872" y="295.488" style="fill: #1f77b4; stroke: #1f77b4"/>
     <use xlink:href="#m599a0792a4" x="286.1568" y="295.488" style="fill: #1f77b4; stroke: #1f77b4"/>
     <use xlink:href="#m599a0792a4" x="300.4416" y="295.488" style="fill: #1f77b4; stroke: #1f77b4"/>
     <use xlink:href="#m599a0792a4" x="314.7264" y="295.488" style="fill: #1f77b4; stroke: #1f77b4"/>
     <use xlink:href="#m599a0792a4" x="329.0112" y="295.488" style="fill: #1f77b4; stroke: #1f77b4"/>
     <use xlink:href="#m599a0792a4" x="343.296" y="292.046024" style="fill: #1f77b4; stroke: #1f77b4"/>
     <use xlink:href="#m599a0792a4" x="357.5808" y="295.488" style="fill: #1f77b4; stroke: #1f77b4"/>
     <use xlink:href="#m599a0792a4" x="371.8656" y="295.488" style="fill: #1f77b4; stroke: #1f77b4"/>
     <use xlink:href="#m599a0792a4" x="386.1504" y="295.488" style="fill: #1f77b4; stroke: #1f77b4"/>
     <use xlink:href="#m599a0792a4" x="400.4352" y="295.488" style="fill: #1f77b4; stroke: #1f77b4"/>
     <use xlink:href="#m599a0792a4" x="414.72" y="295.488" style="fill: #1f77b4; stroke: #1f77b4"/>
    </g>
   </g>
   <g id="line2d_16">
    <path d="M 57.6 295.488 
L 414.72 295.488 
" clip-path="url(#p3c38353719)" style="fill: none; stroke: #d62728; stroke-width: 1.5; stroke-linecap: square"/>
   </g>
   <g id="LineCollection_2">
    <path d="M 57.6 295.488 
L 57.6 175.130946 
" clip-path="url(#p3c38353719)" style="fill: none; stroke: #ff0000; stroke-width: 1.5"/>
    <path d="M 71.8848 295.488 
L 71.8848 54.773892 
" clip-path="url(#p3c38353719)" style="fill: none; stroke: #ff0000; stroke-width: 1.5"/>
    <path d="M 86.1696 295.488 
L 86.1696 135.011928 
" clip-path="url(#p3c38353719)" style="fill: none; stroke: #ff0000; stroke-width: 1.5"/>
    <path d="M 100.4544 295.488 
L 100.4544 199.202357 
" clip-path="url(#p3c38353719)" style="fill: none; stroke: #ff0000; stroke-width: 1.5"/>
    <path d="M 114.7392 295.488 
L 114.7392 295.488 
" clip-path="url(#p3c38353719)" style="fill: none; stroke: #ff0000; stroke-width: 1.5"/>
    <path d="M 129.024 295.488 
L 129.024 295.488 
" clip-path="url(#p3c38353719)" style="fill: none; stroke: #ff0000; stroke-width: 1.5"/>
    <path d="M 143.3088 295.488 
L 143.3088 295.488 
" clip-path="url(#p3c38353719)" style="fill: none; stroke: #ff0000; stroke-width: 1.5"/>
    <path d="M 157.5936 295.488 
L 157.5936 295.488 
" clip-path="url(#p3c38353719)" style="fill: none; stroke: #ff0000; stroke-width: 1.5"/>
    <path d="M 171.8784 295.488 
L 171.8784 295.488 
" clip-path="url(#p3c38353719)" style="fill: none; stroke: #ff0000; stroke-width: 1.5"/>
    <path d="M 186.1632 295.488 
L 186.1632 295.488 
" clip-path="url(#p3c38353719)" style="fill: none; stroke: #ff0000; stroke-width: 1.5"/>
    <path d="M 200.448 295.488 
L 200.448 295.488 
" clip-path="url(#p3c38353719)" style="fill: none; stroke: #ff0000; stroke-width: 1.5"/>
    <path d="M 214.7328 295.488 
L 214.7328 295.488 
" clip-path="url(#p3c38353719)" style="fill: none; stroke: #ff0000; stroke-width: 1.5"/>
    <path d="M 229.0176 295.488 
L 229.0176 295.488 
" clip-path="url(#p3c38353719)" style="fill: none; stroke: #ff0000; stroke-width: 1.5"/>
    <path d="M 243.3024 295.488 
L 243.3024 295.488 
" clip-path="url(#p3c38353719)" style="fill: none; stroke: #ff0000; stroke-width: 1.5"/>
    <path d="M 257.5872 295.488 
L 257.5872 295.488 
" clip-path="url(#p3c38353719)" style="fill: none; stroke: #ff0000; stroke-width: 1.5"/>
    <path d="M 271.872 295.488 
L 271.872 295.488 
" clip-path="url(#p3c38353719)" style="fill: none; stroke: #ff0000; stroke-width: 1.5"/>
    <path d="M 286.1568 295.488 
L 286.1568 295.488 
" clip-path="url(#p3c38353719)" style="fill: none; stroke: #ff0000; stroke-width: 1.5"/>
    <path d="M 300.4416 295.488 
L 300.4416 295.488 
" clip-path="url(#p3c38353719)" style="fill: none; stroke: #ff0000; stroke-width: 1.5"/>
    <path d="M 314.7264 295.488 
L 314.7264 295.488 
" clip-path="url(#p3c38353719)" style="fill: none; stroke: #ff0000; stroke-width: 1.5"/>
    <path d="M 329.0112 295.488 
L 329.0112 295.488 
" clip-path="url(#p3c38353719)" style="fill: none; stroke: #ff0000; stroke-width: 1.5"/>
    <path d="M 343.296 295.488 
L 343.296 199.202357 
" clip-path="url(#p3c38353719)" style="fill: none; stroke: #ff0000; stroke-width: 1.5"/>
    <path d="M 357.5808 295.488 
L 357.5808 295.488 
" clip-path="url(#p3c38353719)" style="fill: none; stroke: #ff0000; stroke-width: 1.5"/>
    <path d="M 371.8656 295.488 
L 371.8656 295.488 
" clip-path="url(#p3c38353719)" style="fill: none; stroke: #ff0000; stroke-width: 1.5"/>
    <path d="M 386.1504 295.488 
L 386.1504 295.488 
" clip-path="url(#p3c38353719)" style="fill: none; stroke: #ff0000; stroke-width: 1.5"/>
    <path d="M 400.4352 295.488 
L 400.4352 295.488 
" clip-path="url(#p3c38353719)" style="fill: none; stroke: #ff0000; stroke-width: 1.5"/>
    <path d="M 414.72 295.488 
L 414.72 295.488 
" clip-path="url(#p3c38353719)" style="fill: none; stroke: #ff0000; stroke-width: 1.5"/>
   </g>
   <g id="line2d_17">
    <defs>
     <path id="m9143bc3641" d="M 0 -3 
L -0.673542 -0.927051 
L -2.85317 -0.927051 
L -1.089814 0.354102 
L -1.763356 2.427051 
L -0 1.145898 
L 1.763356 2.427051 
L 1.089814 0.354102 
L 2.85317 -0.927051 
L 0.673542 -0.927051 
z
" style="stroke: #ff0000; stroke-linejoin: bevel"/>
    </defs>
    <g clip-path="url(#p3c38353719)">
     <use xlink:href="#m9143bc3641" x="57.6" y="175.130946" style="fill: #ff0000; stroke: #ff0000; stroke-linejoin: bevel"/>
     <use xlink:href="#m9143bc3641" x="71.8848" y="54.773892" style="fill: #ff0000; stroke: #ff0000; stroke-linejoin: bevel"/>
     <use xlink:href="#m9143bc3641" x="86.1696" y="135.011928" style="fill: #ff0000; stroke: #ff0000; stroke-linejoin: bevel"/>
     <use xlink:href="#m9143bc3641" x="100.4544" y="199.202357" style="fill: #ff0000; stroke: #ff0000; stroke-linejoin: bevel"/>
     <use xlink:href="#m9143bc3641" x="114.7392" y="295.488" style="fill: #ff0000; stroke: #ff0000; stroke-linejoin: bevel"/>
     <use xlink:href="#m9143bc3641" x="129.024" y="295.488" style="fill: #ff0000; stroke: #ff0000; stroke-linejoin: bevel"/>
     <use xlink:href="#m9143bc3641" x="143.3088" y="295.488" style="fill: #ff0000; stroke: #ff0000; stroke-linejoin: bevel"/>
     <use xlink:href="#m9143bc3641" x="157.5936" y="295.488" style="fill: #ff0000; stroke: #ff0000; stroke-linejoin: bevel"/>
     <use xlink:href="#m9143bc3641" x="171.8784" y="295.488" style="fill: #ff0000; stroke: #ff0000; stroke-linejoin: bevel"/>
     <use xlink:href="#m9143bc3641" x="186.1632" y="295.488" style="fill: #ff0000; stroke: #ff0000; stroke-linejoin: bevel"/>
     <use xlink:href="#m9143bc3641" x="200.448" y="295.488" style="fill: #ff0000; stroke: #ff0000; stroke-linejoin: bevel"/>
     <use xlink:href="#m9143bc3641" x="214.7328" y="295.488" style="fill: #ff0000; stroke: #ff0000; stroke-linejoin: bevel"/>
     <use xlink:href="#m9143bc3641" x="229.0176" y="295.488" style="fill: #ff0000; stroke: #ff0000; stroke-linejoin: bevel"/>
     <use xlink:href="#m9143bc3641" x="243.3024" y="295.488" style="fill: #ff0000; stroke: #ff0000; stroke-linejoin: bevel"/>
     <use xlink:href="#m9143bc3641" x="257.5872" y="295.488" style="fill: #ff0000; stroke: #ff0000; stroke-linejoin: bevel"/>
     <use xlink:href="#m9143bc3641" x="271.872" y="295.488" style="fill: #ff0000; stroke: #ff0000; stroke-linejoin: bevel"/>
     <use xlink:href="#m9143bc3641" x="286.1568" y="295.488" style="fill: #ff0000; stroke: #ff0000; stroke-linejoin: bevel"/>
     <use xlink:href="#m9143bc3641" x="300.4416" y="295.488" style="fill: #ff0000; stroke: #ff0000; stroke-linejoin: bevel"/>
     <use xlink:href="#m9143bc3641" x="314.7264" y="295.488" style="fill: #ff0000; stroke: #ff0000; stroke-linejoin: bevel"/>
     <use xlink:href="#m9143bc3641" x="329.0112" y="295.488" style="fill: #ff0000; stroke: #ff0000; stroke-linejoin: bevel"/>
     <use xlink:href="#m9143bc3641" x="343.296" y="199.202357" style="fill: #ff0000; stroke: #ff0000; stroke-linejoin: bevel"/>
     <use xlink:href="#m9143bc3641" x="357.5808" y="295.488" style="fill: #ff0000; stroke: #ff0000; stroke-linejoin: bevel"/>
     <use xlink:href="#m9143bc3641" x="371.8656" y="295.488" style="fill: #ff0000; stroke: #ff0000; stroke-linejoin: bevel"/>
     <use xlink:href="#m9143bc3641" x="386.1504" y="295.488" style="fill: #ff0000; stroke: #ff0000; stroke-linejoin: bevel"/>
     <use xlink:href="#m9143bc3641" x="400.4352" y="295.488" style="fill: #ff0000; stroke: #ff0000; stroke-linejoin: bevel"/>
     <use xlink:href="#m9143bc3641" x="414.72" y="295.488" style="fill: #ff0000; stroke: #ff0000; stroke-linejoin: bevel"/>
    </g>
   </g>
   <g id="line2d_18">
    <path d="M 57.6 295.488 
L 414.72 295.488 
" clip-path="url(#p3c38353719)" style="fill: none; stroke: #d62728; stroke-width: 1.5; stroke-linecap: square"/>
   </g>
   <g id="patch_3">
    <path d="M 57.6 307.584 
L 57.6 41.472 
" style="fill: none; stroke: #000000; stroke-width: 0.8; stroke-linejoin: miter; stroke-linecap: square"/>
   </g>
   <g id="patch_4">
    <path d="M 414.72 307.584 
L 414.72 41.472 
" style="fill: none; stroke: #000000; stroke-width: 0.8; stroke-linejoin: miter; stroke-linecap: square"/>
   </g>
   <g id="patch_5">
    <path d="M 57.6 307.584 
L 414.72 307.584 
" style="fill: none; stroke: #000000; stroke-width: 0.8; stroke-linejoin: miter; stroke-linecap: square"/>
   </g>
   <g id="patch_6">
    <path d="M 57.6 41.472 
L 414.72 41.472 
" style="fill: none; stroke: #000000; stroke-width: 0.8; stroke-linejoin: miter; stroke-linecap: square"/>
   </g>
   <g id="text_17">
    <!-- Spectre fréquentiel des signaux dentrée et de sortie -->
    <g transform="translate(79.25625 35.472) scale(0.12 -0.12)">
     <defs>
      <path id="DejaVuSans-53" d="M 3425 4513 
L 3425 3897 
Q 3066 4069 2747 4153 
Q 2428 4238 2131 4238 
Q 1616 4238 1336 4038 
Q 1056 3838 1056 3469 
Q 1056 3159 1242 3001 
Q 1428 2844 1947 2747 
L 2328 2669 
Q 3034 2534 3370 2195 
Q 3706 1856 3706 1288 
Q 3706 609 3251 259 
Q 2797 -91 1919 -91 
Q 1588 -91 1214 -16 
Q 841 59 441 206 
L 441 856 
Q 825 641 1194 531 
Q 1563 422 1919 422 
Q 2459 422 2753 634 
Q 3047 847 3047 1241 
Q 3047 1584 2836 1778 
Q 2625 1972 2144 2069 
L 1759 2144 
Q 1053 2284 737 2584 
Q 422 2884 422 3419 
Q 422 4038 858 4394 
Q 1294 4750 2059 4750 
Q 2388 4750 2728 4690 
Q 3069 4631 3425 4513 
z
" transform="scale(0.015625)"/>
      <path id="DejaVuSans-66" d="M 2375 4863 
L 2375 4384 
L 1825 4384 
Q 1516 4384 1395 4259 
Q 1275 4134 1275 3809 
L 1275 3500 
L 2222 3500 
L 2222 3053 
L 1275 3053 
L 1275 0 
L 697 0 
L 697 3053 
L 147 3053 
L 147 3500 
L 697 3500 
L 697 3744 
Q 697 4328 969 4595 
Q 1241 4863 1831 4863 
L 2375 4863 
z
" transform="scale(0.015625)"/>
      <path id="DejaVuSans-73" d="M 2834 3397 
L 2834 2853 
Q 2591 2978 2328 3040 
Q 2066 3103 1784 3103 
Q 1356 3103 1142 2972 
Q 928 2841 928 2578 
Q 928 2378 1081 2264 
Q 1234 2150 1697 2047 
L 1894 2003 
Q 2506 1872 2764 1633 
Q 3022 1394 3022 966 
Q 3022 478 2636 193 
Q 2250 -91 1575 -91 
Q 1294 -91 989 -36 
Q 684 19 347 128 
L 347 722 
Q 666 556 975 473 
Q 1284 391 1588 391 
Q 1994 391 2212 530 
Q 2431 669 2431 922 
Q 2431 1156 2273 1281 
Q 2116 1406 1581 1522 
L 1381 1569 
Q 847 1681 609 1914 
Q 372 2147 372 2553 
Q 372 3047 722 3315 
Q 1072 3584 1716 3584 
Q 2034 3584 2315 3537 
Q 2597 3491 2834 3397 
z
" transform="scale(0.015625)"/>
      <path id="DejaVuSans-67" d="M 2906 1791 
Q 2906 2416 2648 2759 
Q 2391 3103 1925 3103 
Q 1463 3103 1205 2759 
Q 947 2416 947 1791 
Q 947 1169 1205 825 
Q 1463 481 1925 481 
Q 2391 481 2648 825 
Q 2906 1169 2906 1791 
z
M 3481 434 
Q 3481 -459 3084 -895 
Q 2688 -1331 1869 -1331 
Q 1566 -1331 1297 -1286 
Q 1028 -1241 775 -1147 
L 775 -588 
Q 1028 -725 1275 -790 
Q 1522 -856 1778 -856 
Q 2344 -856 2625 -561 
Q 2906 -266 2906 331 
L 2906 616 
Q 2728 306 2450 153 
Q 2172 0 1784 0 
Q 1141 0 747 490 
Q 353 981 353 1791 
Q 353 2603 747 3093 
Q 1141 3584 1784 3584 
Q 2172 3584 2450 3431 
Q 2728 3278 2906 2969 
L 2906 3500 
L 3481 3500 
L 3481 434 
z
" transform="scale(0.015625)"/>
      <path id="DejaVuSans-61" d="M 2194 1759 
Q 1497 1759 1228 1600 
Q 959 1441 959 1056 
Q 959 750 1161 570 
Q 1363 391 1709 391 
Q 2188 391 2477 730 
Q 2766 1069 2766 1631 
L 2766 1759 
L 2194 1759 
z
M 3341 1997 
L 3341 0 
L 2766 0 
L 2766 531 
Q 2569 213 2275 61 
Q 1981 -91 1556 -91 
Q 1019 -91 701 211 
Q 384 513 384 1019 
Q 384 1609 779 1909 
Q 1175 2209 1959 2209 
L 2766 2209 
L 2766 2266 
Q 2766 2663 2505 2880 
Q 2244 3097 1772 3097 
Q 1472 3097 1187 3025 
Q 903 2953 641 2809 
L 641 3341 
Q 956 3463 1253 3523 
Q 1550 3584 1831 3584 
Q 2591 3584 2966 3190 
Q 3341 2797 3341 1997 
z
" transform="scale(0.015625)"/>
      <path id="DejaVuSans-78" d="M 3513 3500 
L 2247 1797 
L 3578 0 
L 2900 0 
L 1881 1375 
L 863 0 
L 184 0 
L 1544 1831 
L 300 3500 
L 978 3500 
L 1906 2253 
L 2834 3500 
L 3513 3500 
z
" transform="scale(0.015625)"/>
      <path id="DejaVuSans-6f" d="M 1959 3097 
Q 1497 3097 1228 2736 
Q 959 2375 959 1747 
Q 959 1119 1226 758 
Q 1494 397 1959 397 
Q 2419 397 2687 759 
Q 2956 1122 2956 1747 
Q 2956 2369 2687 2733 
Q 2419 3097 1959 3097 
z
M 1959 3584 
Q 2709 3584 3137 3096 
Q 3566 2609 3566 1747 
Q 3566 888 3137 398 
Q 2709 -91 1959 -91 
Q 1206 -91 779 398 
Q 353 888 353 1747 
Q 353 2609 779 3096 
Q 1206 3584 1959 3584 
z
" transform="scale(0.015625)"/>
     </defs>
     <use xlink:href="#DejaVuSans-53"/>
     <use xlink:href="#DejaVuSans-70" transform="translate(63.476562 0)"/>
     <use xlink:href="#DejaVuSans-65" transform="translate(126.953125 0)"/>
     <use xlink:href="#DejaVuSans-63" transform="translate(188.476562 0)"/>
     <use xlink:href="#DejaVuSans-74" transform="translate(243.457031 0)"/>
     <use xlink:href="#DejaVuSans-72" transform="translate(282.666016 0)"/>
     <use xlink:href="#DejaVuSans-65" transform="translate(321.529297 0)"/>
     <use xlink:href="#DejaVuSans-20" transform="translate(383.052734 0)"/>
     <use xlink:href="#DejaVuSans-66" transform="translate(414.839844 0)"/>
     <use xlink:href="#DejaVuSans-72" transform="translate(450.044922 0)"/>
     <use xlink:href="#DejaVuSans-e9" transform="translate(488.908203 0)"/>
     <use xlink:href="#DejaVuSans-71" transform="translate(550.431641 0)"/>
     <use xlink:href="#DejaVuSans-75" transform="translate(613.908203 0)"/>
     <use xlink:href="#DejaVuSans-65" transform="translate(677.287109 0)"/>
     <use xlink:href="#DejaVuSans-6e" transform="translate(738.810547 0)"/>
     <use xlink:href="#DejaVuSans-74" transform="translate(802.189453 0)"/>
     <use xlink:href="#DejaVuSans-69" transform="translate(841.398438 0)"/>
     <use xlink:href="#DejaVuSans-65" transform="translate(869.181641 0)"/>
     <use xlink:href="#DejaVuSans-6c" transform="translate(930.705078 0)"/>
     <use xlink:href="#DejaVuSans-20" transform="translate(958.488281 0)"/>
     <use xlink:href="#DejaVuSans-64" transform="translate(990.275391 0)"/>
     <use xlink:href="#DejaVuSans-65" transform="translate(1053.751953 0)"/>
     <use xlink:href="#DejaVuSans-73" transform="translate(1115.275391 0)"/>
     <use xlink:href="#DejaVuSans-20" transform="translate(1167.375 0)"/>
     <use xlink:href="#DejaVuSans-73" transform="translate(1199.162109 0)"/>
     <use xlink:href="#DejaVuSans-69" transform="translate(1251.261719 0)"/>
     <use xlink:href="#DejaVuSans-67" transform="translate(1279.044922 0)"/>
     <use xlink:href="#DejaVuSans-6e" transform="translate(1342.521484 0)"/>
     <use xlink:href="#DejaVuSans-61" transform="translate(1405.900391 0)"/>
     <use xlink:href="#DejaVuSans-75" transform="translate(1467.179688 0)"/>
     <use xlink:href="#DejaVuSans-78" transform="translate(1530.558594 0)"/>
     <use xlink:href="#DejaVuSans-20" transform="translate(1589.738281 0)"/>
     <use xlink:href="#DejaVuSans-64" transform="translate(1621.525391 0)"/>
     <use xlink:href="#DejaVuSans-65" transform="translate(1685.001953 0)"/>
     <use xlink:href="#DejaVuSans-6e" transform="translate(1746.525391 0)"/>
     <use xlink:href="#DejaVuSans-74" transform="translate(1809.904297 0)"/>
     <use xlink:href="#DejaVuSans-72" transform="translate(1849.113281 0)"/>
     <use xlink:href="#DejaVuSans-e9" transform="translate(1887.976562 0)"/>
     <use xlink:href="#DejaVuSans-65" transform="translate(1949.5 0)"/>
     <use xlink:href="#DejaVuSans-20" transform="translate(2011.023438 0)"/>
     <use xlink:href="#DejaVuSans-65" transform="translate(2042.810547 0)"/>
     <use xlink:href="#DejaVuSans-74" transform="translate(2104.333984 0)"/>
     <use xlink:href="#DejaVuSans-20" transform="translate(2143.542969 0)"/>
     <use xlink:href="#DejaVuSans-64" transform="translate(2175.330078 0)"/>
     <use xlink:href="#DejaVuSans-65" transform="translate(2238.806641 0)"/>
     <use xlink:href="#DejaVuSans-20" transform="translate(2300.330078 0)"/>
     <use xlink:href="#DejaVuSans-73" transform="translate(2332.117188 0)"/>
     <use xlink:href="#DejaVuSans-6f" transform="translate(2384.216797 0)"/>
     <use xlink:href="#DejaVuSans-72" transform="translate(2445.398438 0)"/>
     <use xlink:href="#DejaVuSans-74" transform="translate(2486.511719 0)"/>
     <use xlink:href="#DejaVuSans-69" transform="translate(2525.720703 0)"/>
     <use xlink:href="#DejaVuSans-65" transform="translate(2553.503906 0)"/>
    </g>
   </g>
   <g id="legend_1">
    <g id="patch_7">
     <path d="M 297.852813 79.22825 
L 407.72 79.22825 
Q 409.72 79.22825 409.72 77.22825 
L 409.72 48.472 
Q 409.72 46.472 407.72 46.472 
L 297.852813 46.472 
Q 295.852813 46.472 295.852813 48.472 
L 295.852813 77.22825 
Q 295.852813 79.22825 297.852813 79.22825 
z
" style="fill: #ffffff; opacity: 0.8; stroke: #cccccc; stroke-linejoin: miter"/>
    </g>
    <g id="line2d_19">
     <path d="M 309.852813 58.070438 
L 309.852813 53.257938 
" style="fill: none; stroke: #1f77b4; stroke-width: 1.5"/>
    </g>
    <g id="line2d_20">
     <path d="M 299.852813 58.070438 
L 319.852813 58.070438 
" style="fill: none; stroke: #d62728; stroke-width: 1.5; stroke-linecap: square"/>
    </g>
    <g id="line2d_21">
     <g>
      <use xlink:href="#m599a0792a4" x="309.852813" y="53.257938" style="fill: #1f77b4; stroke: #1f77b4"/>
     </g>
    </g>
    <g id="text_18">
     <!-- Signal de sortie -->
     <g transform="translate(327.852813 58.070438) scale(0.1 -0.1)">
      <use xlink:href="#DejaVuSans-53"/>
      <use xlink:href="#DejaVuSans-69" transform="translate(63.476562 0)"/>
      <use xlink:href="#DejaVuSans-67" transform="translate(91.259766 0)"/>
      <use xlink:href="#DejaVuSans-6e" transform="translate(154.736328 0)"/>
      <use xlink:href="#DejaVuSans-61" transform="translate(218.115234 0)"/>
      <use xlink:href="#DejaVuSans-6c" transform="translate(279.394531 0)"/>
      <use xlink:href="#DejaVuSans-20" transform="translate(307.177734 0)"/>
      <use xlink:href="#DejaVuSans-64" transform="translate(338.964844 0)"/>
      <use xlink:href="#DejaVuSans-65" transform="translate(402.441406 0)"/>
      <use xlink:href="#DejaVuSans-20" transform="translate(463.964844 0)"/>
      <use xlink:href="#DejaVuSans-73" transform="translate(495.751953 0)"/>
      <use xlink:href="#DejaVuSans-6f" transform="translate(547.851562 0)"/>
      <use xlink:href="#DejaVuSans-72" transform="translate(609.033203 0)"/>
      <use xlink:href="#DejaVuSans-74" transform="translate(650.146484 0)"/>
      <use xlink:href="#DejaVuSans-69" transform="translate(689.355469 0)"/>
      <use xlink:href="#DejaVuSans-65" transform="translate(717.138672 0)"/>
     </g>
    </g>
    <g id="line2d_22">
     <path d="M 309.852813 73.148563 
L 309.852813 68.336063 
" style="fill: none; stroke: #ff0000; stroke-width: 1.5"/>
    </g>
    <g id="line2d_23">
     <path d="M 299.852813 73.148563 
L 319.852813 73.148563 
" style="fill: none; stroke: #d62728; stroke-width: 1.5; stroke-linecap: square"/>
    </g>
    <g id="line2d_24">
     <g>
      <use xlink:href="#m9143bc3641" x="309.852813" y="68.336063" style="fill: #ff0000; stroke: #ff0000; stroke-linejoin: bevel"/>
     </g>
    </g>
    <g id="text_19">
     <!-- Signal d'entrée -->
     <g transform="translate(327.852813 73.148563) scale(0.1 -0.1)">
      <defs>
       <path id="DejaVuSans-27" d="M 1147 4666 
L 1147 2931 
L 616 2931 
L 616 4666 
L 1147 4666 
z
" transform="scale(0.015625)"/>
      </defs>
      <use xlink:href="#DejaVuSans-53"/>
      <use xlink:href="#DejaVuSans-69" transform="translate(63.476562 0)"/>
      <use xlink:href="#DejaVuSans-67" transform="translate(91.259766 0)"/>
      <use xlink:href="#DejaVuSans-6e" transform="translate(154.736328 0)"/>
      <use xlink:href="#DejaVuSans-61" transform="translate(218.115234 0)"/>
      <use xlink:href="#DejaVuSans-6c" transform="translate(279.394531 0)"/>
      <use xlink:href="#DejaVuSans-20" transform="translate(307.177734 0)"/>
      <use xlink:href="#DejaVuSans-64" transform="translate(338.964844 0)"/>
      <use xlink:href="#DejaVuSans-27" transform="translate(402.441406 0)"/>
      <use xlink:href="#DejaVuSans-65" transform="translate(429.931641 0)"/>
      <use xlink:href="#DejaVuSans-6e" transform="translate(491.455078 0)"/>
      <use xlink:href="#DejaVuSans-74" transform="translate(554.833984 0)"/>
      <use xlink:href="#DejaVuSans-72" transform="translate(594.042969 0)"/>
      <use xlink:href="#DejaVuSans-e9" transform="translate(632.90625 0)"/>
      <use xlink:href="#DejaVuSans-65" transform="translate(694.429688 0)"/>
     </g>
    </g>
   </g>
  </g>
 </g>
 <defs>
  <clipPath id="p3c38353719">
   <rect x="57.6" y="41.472" width="357.12" height="266.112"/>
  </clipPath>
 </defs>
</svg>
