<?xml version="1.0" encoding="UTF-8" standalone="no"?>
<!-- Created with Inkscape (http://www.inkscape.org/) -->

<svg
   width="71.507301mm"
   height="70.002289mm"
   viewBox="0 0 71.507301 70.002289"
   version="1.1"
   id="svg5"
   inkscape:version="1.1 (c68e22c387, 2021-05-23)"
   sodipodi:docname="if.svg"
   xmlns:inkscape="http://www.inkscape.org/namespaces/inkscape"
   xmlns:sodipodi="http://sodipodi.sourceforge.net/DTD/sodipodi-0.dtd"
   xmlns="http://www.w3.org/2000/svg"
   xmlns:svg="http://www.w3.org/2000/svg">
  <sodipodi:namedview
     id="namedview7"
     pagecolor="#ffffff"
     bordercolor="#666666"
     borderopacity="1.0"
     inkscape:pageshadow="2"
     inkscape:pageopacity="0.0"
     inkscape:pagecheckerboard="0"
     inkscape:document-units="mm"
     showgrid="false"
     fit-margin-top="0"
     fit-margin-left="0"
     fit-margin-right="0"
     fit-margin-bottom="0"
     inkscape:zoom="0.77771465"
     inkscape:cx="5.1432746"
     inkscape:cy="225.01826"
     inkscape:window-width="2560"
     inkscape:window-height="1346"
     inkscape:window-x="-11"
     inkscape:window-y="-11"
     inkscape:window-maximized="1"
     inkscape:current-layer="layer1" />
  <defs
     id="defs2" />
  <g
     inkscape:label="Calque 1"
     inkscape:groupmode="layer"
     id="layer1"
     transform="translate(-66.647632,-88.823145)">
    <g
       id="g854"
       transform="matrix(0.29426958,0,0,-0.29426958,96.961702,90.39503)">
      <g
         id="g856">
        <g
           id="g858">
          <g
             id="g860">
            <g
               id="g862">
              <path
                 d="M 5.1424,0 C 5.1424,2.84009 2.84009,5.1424 0,5.1424 -2.84009,5.1424 -5.1424,2.84009 -5.1424,0 c 0,-2.84009 2.30231,-5.1424 5.1424,-5.1424 2.84009,0 5.1424,2.30231 5.1424,5.1424 z"
                 style="fill:#000000;fill-opacity:1;fill-rule:nonzero;stroke:#403e3b;stroke-width:0.3985;stroke-linecap:butt;stroke-linejoin:miter;stroke-miterlimit:10;stroke-dasharray:none;stroke-opacity:1"
                 id="path864" />
            </g>
            <g
               id="g866">
              <g
                 id="g868" />
            </g>
          </g>
          <g
             id="g870">
            <g
               id="g872">
              <path
                 d="m 47.69696,-17.43758 h -95.39392 c -2.20094,0 -3.98511,-1.78416 -3.98511,-3.9851 v -13.84824 c 0,-2.20094 1.78417,-3.98511 3.98511,-3.98511 h 95.39392 c 2.20094,0 3.98511,1.78417 3.98511,3.98511 v 13.84824 c 0,2.20094 -1.78417,3.9851 -3.98511,3.9851 z"
                 style="fill:none;stroke:#403e3b;stroke-width:0.79701;stroke-linecap:butt;stroke-linejoin:miter;stroke-miterlimit:10;stroke-dasharray:none;stroke-opacity:1"
                 id="path874" />
            </g>
            <g
               id="g876"
               transform="translate(-48.046,-32.135)">
              <g
                 id="g878">
                <g
                   id="g880"
                   transform="translate(-135.037,-222.92)">
                  <text
                     transform="matrix(1,0,0,-1,135.037,222.92)"
                     style="font-variant:normal;font-weight:normal;font-size:10.9091px;-inkscape-font-specification:LMSans10-Regular;writing-mode:lr-tb;fill:#403e3b;fill-opacity:1;fill-rule:nonzero;stroke:none"
                     id="text884"><tspan
                       x="0 5.2418227 14.120739 18.969833 24.606565"
                       y="0"
                       sodipodi:role="line"
                       id="tspan882">afche</tspan></text>
                  <text
                     transform="matrix(1,0,0,-1,168.128,222.92)"
                     style="font-variant:normal;font-weight:normal;font-size:10.9091px;-inkscape-font-specification:LMMono10-Regular;writing-mode:lr-tb;fill:#403e3b;fill-opacity:1;fill-rule:nonzero;stroke:none"
                     id="text888"><tspan
                       x="0 5.7272773 11.454555 17.181833 22.909109 34.363667 40.090942 45.818218 51.545498 57.272774"
                       y="0"
                       sodipodi:role="line"
                       id="tspan886">As-tufaim?</tspan></text>
                  <g
                     id="g890"
                     transform="translate(135.037,222.92)" />
                </g>
              </g>
              <g
                 id="g892"
                 transform="translate(48.046,32.135)" />
            </g>
          </g>
          <g
             id="g894">
            <g
               id="g896">
              <path
                 d="M 98.63101,-45.78438 H -98.63101 c -2.20094,0 -3.98511,-1.78416 -3.98511,-3.98511 v -13.84825 c 0,-2.20094 1.78417,-3.9851 3.98511,-3.9851 H 98.63101 c 2.20094,0 3.98511,1.78416 3.98511,3.9851 v 13.84825 c 0,2.20095 -1.78417,3.98511 -3.98511,3.98511 z"
                 style="fill:none;stroke:#403e3b;stroke-width:0.79701;stroke-linecap:butt;stroke-linejoin:miter;stroke-miterlimit:10;stroke-dasharray:none;stroke-opacity:1"
                 id="path898" />
            </g>
            <g
               id="g900"
               transform="translate(-98.979,-59.421)">
              <g
                 id="g902">
                <g
                   id="g904"
                   transform="translate(-84.104,-195.634)">
                  <text
                     transform="matrix(1,0,0,-1,84.104,195.634)"
                     style="font-variant:normal;font-weight:normal;font-size:10.9091px;-inkscape-font-specification:LMSans10-Regular;writing-mode:lr-tb;fill:#403e3b;fill-opacity:1;fill-rule:nonzero;stroke:none"
                     id="text908"><tspan
                       x="0 8.6661892 13.515284 21.08729 23.693474 32.578938 36.306576 41.15567 47.086948 52.5415 58.17823 62.359688 70.852425 76.489151 84.970978 87.577164 90.607712 96.244446 100.18372 102.7899 105.39609 108.00227 112.18373 117.42555 121.36483 126.21392 131.85066 139.21103 144.84776 150.08958 155.72632"
                       y="0"
                       sodipodi:role="line"
                       id="tspan906">met la réponse de l'utilisateur dans</tspan></text>
                  <text
                     transform="matrix(1,0,0,-1,247.698,195.634)"
                     style="font-variant:normal;font-weight:normal;font-size:10.9091px;-inkscape-font-specification:LMMono10-Regular;writing-mode:lr-tb;fill:#403e3b;fill-opacity:1;fill-rule:nonzero;stroke:none"
                     id="text912"><tspan
                       x="0 5.7272773 11.454555 17.181833 22.909109 28.636387"
                       y="0"
                       sodipodi:role="line"
                       id="tspan910">answer</tspan></text>
                  <g
                     id="g914"
                     transform="translate(84.104,195.634)" />
                </g>
              </g>
              <g
                 id="g916"
                 transform="translate(98.979,59.421)" />
            </g>
          </g>
          <g
             id="g918">
            <g
               id="g920">
              <path
                 d="M -53.03552,-93.52498 H 53.03554 v 16.96912 H -53.03552 Z"
                 style="fill:#ffffff;fill-opacity:1;fill-rule:nonzero;stroke:none"
                 id="path922" />
            </g>
            <g
               id="g924"
               transform="translate(-49.399,-87.767)">
              <g
                 id="g926">
                <g
                   id="g928"
                   transform="translate(-133.684,-167.288)">
                  <text
                     transform="matrix(1,0,0,-1,133.684,167.288)"
                     style="font-variant:normal;font-weight:normal;font-size:10.9091px;-inkscape-font-specification:LMMono10-Regular;writing-mode:lr-tb;fill:#403e3b;fill-opacity:1;fill-rule:nonzero;stroke:none"
                     id="text932"><tspan
                       x="0 5.7272773 11.454555 17.181833 22.909109 28.636387"
                       y="0"
                       sodipodi:role="line"
                       id="tspan930">answer</tspan></text>
                  <text
                     transform="matrix(1,0,0,-1,171.684,167.288)"
                     style="font-variant:normal;font-weight:normal;font-size:10.9091px;-inkscape-font-specification:LMSans10-Regular;writing-mode:lr-tb;fill:#403e3b;fill-opacity:1;fill-rule:nonzero;stroke:none"
                     id="text936"><tspan
                       x="0 4.8490949 10.303645 15.545467 21.784382 30.669844 35.40221 40.856762 46.493492 49.099678 55.642956"
                       y="0"
                       sodipodi:role="line"
                       id="tspan934">égalà&quot;oui&quot;?</tspan></text>
                  <g
                     id="g938"
                     transform="translate(133.684,167.288)" />
                </g>
              </g>
              <g
                 id="g940"
                 transform="translate(49.399,87.767)" />
            </g>
          </g>
          <g
             id="g942">
            <g
               id="g944">
              <path
                 d="M 10.74416,-113.38724 0,-102.64307 -10.74416,-113.38724 0,-124.1314 Z"
                 style="fill:none;stroke:#403e3b;stroke-width:0.79701;stroke-linecap:butt;stroke-linejoin:miter;stroke-miterlimit:10;stroke-dasharray:none;stroke-opacity:1"
                 id="path946" />
            </g>
            <g
               id="g948"
               transform="translate(0,-113.386)">
              <g
                 id="g950" />
              <g
                 id="g952"
                 transform="translate(0,113.386)" />
            </g>
          </g>
          <g
             id="g954" />
          <g
             id="g956">
            <g
               id="g958">
              <path
                 d="m -10.48463,-148.94582 h 20.96927 v 14.42354 h -20.96927 z"
                 style="fill:#ffffff;fill-opacity:1;fill-rule:nonzero;stroke:none"
                 id="path960" />
            </g>
            <g
               id="g962"
               transform="translate(-6.849,-145.308)">
              <g
                 id="g964">
                <g
                   id="g966"
                   transform="translate(-176.234,-109.747)">
                  <text
                     transform="matrix(1,0,0,-1,176.234,109.747)"
                     style="font-variant:normal;font-weight:normal;font-size:10.9091px;-inkscape-font-specification:LMSans10-Regular;writing-mode:lr-tb;fill:#403e3b;fill-opacity:1;fill-rule:nonzero;stroke:none"
                     id="text970"><tspan
                       x="0 5.4545498 11.091282"
                       y="0"
                       sodipodi:role="line"
                       id="tspan968">oui</tspan></text>
                  <g
                     id="g972"
                     transform="translate(176.234,109.747)" />
                </g>
              </g>
              <g
                 id="g974"
                 transform="translate(6.849,145.308)" />
            </g>
          </g>
          <g
             id="g976">
            <g
               id="g978">
              <path
                 d="M 50.56062,-159.17162 H -50.56062 c -2.20095,0 -3.98511,-1.78418 -3.98511,-3.9851 v -13.84825 c 0,-2.20095 1.78416,-3.98511 3.98511,-3.98511 H 50.56062 c 2.20095,0 3.98511,1.78416 3.98511,3.98511 v 13.84825 c 0,2.20092 -1.78416,3.9851 -3.98511,3.9851 z"
                 style="fill:none;stroke:#403e3b;stroke-width:0.79701;stroke-linecap:butt;stroke-linejoin:miter;stroke-miterlimit:10;stroke-dasharray:none;stroke-opacity:1"
                 id="path980" />
            </g>
            <g
               id="g982"
               transform="translate(-50.909,-172.655)">
              <g
                 id="g984">
                <g
                   id="g986"
                   transform="translate(-132.174,-82.4)">
                  <text
                     transform="matrix(1,0,0,-1,132.174,82.4)"
                     style="font-variant:normal;font-weight:normal;font-size:10.9091px;-inkscape-font-specification:LMSans10-Regular;writing-mode:lr-tb;fill:#403e3b;fill-opacity:1;fill-rule:nonzero;stroke:none"
                     id="text990"><tspan
                       x="0 5.2418227 14.120739 18.969833 24.606565"
                       y="0"
                       sodipodi:role="line"
                       id="tspan988">afche</tspan></text>
                  <text
                     transform="matrix(1,0,0,-1,165.265,82.4)"
                     style="font-variant:normal;font-weight:normal;font-size:10.9091px;-inkscape-font-specification:LMMono10-Regular;writing-mode:lr-tb;fill:#403e3b;fill-opacity:1;fill-rule:nonzero;stroke:none"
                     id="text994"><tspan
                       x="0 5.7272773 17.181833 22.909109 28.636387 34.363667 40.090942 45.818218 51.545498 57.272774 63.000053"
                       y="0"
                       sodipodi:role="line"
                       id="tspan992">Vamanger...</tspan></text>
                  <g
                     id="g996"
                     transform="translate(132.174,82.4)" />
                </g>
              </g>
              <g
                 id="g998"
                 transform="translate(50.909,172.655)" />
            </g>
          </g>
          <g
             id="g1000">
            <g
               id="g1002">
              <path
                 d="M 135.60107,-130.82481 H 34.47983 c -2.20095,0 -3.98511,-1.78417 -3.98511,-3.98511 v -13.84824 c 0,-2.20094 1.78416,-3.9851 3.98511,-3.9851 h 101.12124 c 2.20095,0 3.98511,1.78416 3.98511,3.9851 v 13.84824 c 0,2.20094 -1.78416,3.98511 -3.98511,3.98511 z"
                 style="fill:none;stroke:#403e3b;stroke-width:0.79701;stroke-linecap:butt;stroke-linejoin:miter;stroke-miterlimit:10;stroke-dasharray:none;stroke-opacity:1"
                 id="path1004" />
            </g>
            <g
               id="g1006"
               transform="translate(34.13,-145.521)">
              <g
                 id="g1008">
                <g
                   id="g1010"
                   transform="translate(-217.213,-109.534)">
                  <text
                     transform="matrix(1,0,0,-1,217.213,109.534)"
                     style="font-variant:normal;font-weight:normal;font-size:10.9091px;-inkscape-font-specification:LMSans10-Regular;writing-mode:lr-tb;fill:#403e3b;fill-opacity:1;fill-rule:nonzero;stroke:none"
                     id="text1014"><tspan
                       x="0 5.2418227 14.120739 18.969833 24.606565"
                       y="0"
                       sodipodi:role="line"
                       id="tspan1012">afche</tspan></text>
                  <text
                     transform="matrix(1,0,0,-1,250.304,109.534)"
                     style="font-variant:normal;font-weight:normal;font-size:10.9091px;-inkscape-font-specification:LMMono10-Regular;writing-mode:lr-tb;fill:#403e3b;fill-opacity:1;fill-rule:nonzero;stroke:none"
                     id="text1018"><tspan
                       x="0 5.7272773 17.181833 22.909109 28.636387 34.363667 40.090942 45.818218 51.545498 63.000053"
                       y="0"
                       sodipodi:role="line"
                       id="tspan1016">Vaétudier!</tspan></text>
                  <g
                     id="g1020"
                     transform="translate(217.213,109.534)" />
                </g>
              </g>
              <g
                 id="g1022"
                 transform="translate(-34.13,145.521)" />
            </g>
          </g>
          <g
             id="g1024" />
          <g
             id="g1026">
            <path
               d="m 5.5695,-226.77448 c 0,3.07601 -2.49351,5.56952 -5.5695,5.56952 -3.07599,0 -5.5695,-2.49351 -5.5695,-5.56952 0,-3.07598 2.49351,-5.56952 5.5695,-5.56952 3.07599,0 5.5695,2.49354 5.5695,5.56952 z"
               style="fill:none;stroke:#403e3b;stroke-width:0.3985;stroke-linecap:butt;stroke-linejoin:miter;stroke-miterlimit:10;stroke-dasharray:none;stroke-opacity:1"
               id="path1028" />
            <g
               id="g1030"
               transform="translate(-4.243,-229.514)">
              <g
                 id="g1032"
                 transform="translate(-178.84,-25.541)">
                <g
                   id="g1034"
                   transform="translate(187.325,25.541)">
                  <g
                     id="g1036"
                     transform="translate(-8.485)" />
                </g>
              </g>
              <g
                 id="g1038"
                 transform="translate(4.243,229.514)" />
            </g>
          </g>
          <g
             id="g1040">
            <path
               d="m 0,-5.34164 v -11.69742 m 0,-22.61548 v -5.02397"
               style="fill:none;stroke:#403e3b;stroke-width:0.79701;stroke-linecap:butt;stroke-linejoin:miter;stroke-miterlimit:10;stroke-dasharray:none;stroke-opacity:1"
               id="path1042" />
            <g
               id="g1044"
               transform="rotate(-90,-22.339255,-22.339255)">
              <g
                 id="g1046">
                <path
                   d="M -1.55415,2.0722 C -1.42464,1.29512 0,0.1295 0.38852,0 0,-0.1295 -1.42464,-1.29512 -1.55415,-2.0722"
                   style="fill:none;stroke:#403e3b;stroke-width:0.6376;stroke-linecap:round;stroke-linejoin:round;stroke-miterlimit:10;stroke-dasharray:none;stroke-opacity:1"
                   id="path1048" />
              </g>
            </g>
          </g>
          <g
             id="g1050">
            <path
               d="m 0,-68.00134 v -8.35527 m 0,-17.36762 v -7.64689"
               style="fill:none;stroke:#403e3b;stroke-width:0.79701;stroke-linecap:butt;stroke-linejoin:miter;stroke-miterlimit:10;stroke-dasharray:none;stroke-opacity:1"
               id="path1052" />
            <g
               id="g1054"
               transform="rotate(-90,-50.68556,-50.68556)">
              <g
                 id="g1056">
                <path
                   d="M -1.55415,2.0722 C -1.42464,1.29512 0,0.1295 0.38852,0 0,-0.1295 -1.42464,-1.29512 -1.55415,-2.0722"
                   style="fill:none;stroke:#403e3b;stroke-width:0.6376;stroke-linecap:round;stroke-linejoin:round;stroke-miterlimit:10;stroke-dasharray:none;stroke-opacity:1"
                   id="path1058" />
              </g>
            </g>
          </g>
          <g
             id="g1060">
            <path
               d="m 0,-124.69571 v -9.6273 m 0,-14.82206 v -8.92068"
               style="fill:none;stroke:#403e3b;stroke-width:0.79701;stroke-linecap:butt;stroke-linejoin:miter;stroke-miterlimit:10;stroke-dasharray:none;stroke-opacity:1"
               id="path1062" />
            <g
               id="g1064"
               transform="rotate(-90,-79.032875,-79.032875)">
              <g
                 id="g1066">
                <path
                   d="M -1.55415,2.0722 C -1.42464,1.29512 0,0.1295 0.38852,0 0,-0.1295 -1.42464,-1.29512 -1.55415,-2.0722"
                   style="fill:none;stroke:#403e3b;stroke-width:0.6376;stroke-linecap:round;stroke-linejoin:round;stroke-miterlimit:10;stroke-dasharray:none;stroke-opacity:1"
                   id="path1068" />
              </g>
            </g>
          </g>
          <g
             id="g1070">
            <path
               d="m 0,-181.38858 v -13.05397 c 0,-2.20095 0,-5.76927 0,-7.97022 v -17.88557"
               style="fill:none;stroke:#403e3b;stroke-width:0.79701;stroke-linecap:butt;stroke-linejoin:miter;stroke-miterlimit:10;stroke-dasharray:none;stroke-opacity:1"
               id="path1072" />
            <g
               id="g1074"
               transform="rotate(-90,-110.14917,-110.14917)">
              <g
                 id="g1076">
                <path
                   d="M -1.55415,2.0722 C -1.42464,1.29512 0,0.1295 0.38852,0 0,-0.1295 -1.42464,-1.29512 -1.55415,-2.0722"
                   style="fill:none;stroke:#403e3b;stroke-width:0.6376;stroke-linecap:round;stroke-linejoin:round;stroke-miterlimit:10;stroke-dasharray:none;stroke-opacity:1"
                   id="path1078" />
              </g>
            </g>
          </g>
          <g
             id="g1080">
            <path
               d="m 11.30875,-113.38724 h 69.74659 c 2.20095,0 3.98511,-1.78416 3.98511,-3.9851 v -13.05398 m 0,-22.61546 v -41.40077 c 0,-2.20095 -1.78416,-3.98511 -3.98511,-3.98511 H 0.70735"
               style="fill:none;stroke:#403e3b;stroke-width:0.79701;stroke-linecap:butt;stroke-linejoin:miter;stroke-miterlimit:10;stroke-dasharray:none;stroke-opacity:1"
               id="path1082" />
            <g
               id="g1084"
               transform="rotate(180,0.353675,-99.21383)">
              <g
                 id="g1086">
                <path
                   d="M -1.55415,2.0722 C -1.42464,1.29512 0,0.1295 0.38852,0 0,-0.1295 -1.42464,-1.29512 -1.55415,-2.0722"
                   style="fill:none;stroke:#403e3b;stroke-width:0.6376;stroke-linecap:round;stroke-linejoin:round;stroke-miterlimit:10;stroke-dasharray:none;stroke-opacity:1"
                   id="path1088" />
              </g>
            </g>
            <g
               id="g1090">
              <g
                 id="g1092">
                <path
                   d="M 56.18922,-107.34206 H 40.15996 c -2.20095,0 -3.98511,-1.78416 -3.98511,-3.9851 v -4.12014 c 0,-2.20094 1.78416,-3.9851 3.98511,-3.9851 h 16.02926 c 2.20095,0 3.98511,1.78416 3.98511,3.9851 v 4.12014 c 0,2.20094 -1.78416,3.9851 -3.98511,3.9851 z"
                   style="fill:#ffffff;fill-opacity:1;fill-rule:nonzero;stroke:none"
                   id="path1094" />
              </g>
              <g
                 id="g1096"
                 transform="translate(39.81,-115.795)">
                <g
                   id="g1098">
                  <g
                     id="g1100"
                     transform="translate(-222.893,-139.26)">
                    <text
                       transform="matrix(1,0,0,-1,222.893,139.26)"
                       style="font-variant:normal;font-weight:normal;font-size:10.9091px;-inkscape-font-specification:LMSans10-Regular;writing-mode:lr-tb;fill:#403e3b;fill-opacity:1;fill-rule:nonzero;stroke:none"
                       id="text1104"><tspan
                         x="0 5.6367321 11.091282"
                         y="0"
                         sodipodi:role="line"
                         id="tspan1102">non</tspan></text>
                    <g
                       id="g1106"
                       transform="translate(222.893,139.26)" />
                  </g>
                </g>
                <g
                   id="g1108"
                   transform="translate(-39.81,115.795)" />
              </g>
            </g>
          </g>
        </g>
      </g>
      <g
         id="g1110"
         transform="translate(-103.014,-232.541)" />
    </g>
  </g>
</svg>
