<?xml version="1.0" encoding="iso-8859-1"?>
<!-- Generator: Adobe Illustrator 19.0.0, SVG Export Plug-In . SVG Version: 6.00 Build 0)  -->
<svg version="1.1" id="Capa_1" xmlns="http://www.w3.org/2000/svg" xmlns:xlink="http://www.w3.org/1999/xlink" x="0px" y="0px"
	 viewBox="0 0 512 512" style="enable-background:new 0 0 512 512;" xml:space="preserve">
<path style="fill:#455A64;" d="M480,416H32V112c0-17.632,14.368-32,32-32h384c17.664,0,32,14.368,32,32V416z"/>
<rect x="64" y="112" style="fill:#FAFAFA;" width="384" height="256"/>
<path style="fill:#607D8B;" d="M368,304H144c-8.832,0-16-7.136-16-16s7.168-16,16-16h224c8.832,0,16,7.168,16,16
	S376.832,304,368,304z"/>
<rect x="160" y="208" style="fill:#2196F3;" width="32" height="64"/>
<rect x="240" y="176" style="fill:#FFC107;" width="32" height="96"/>
<rect x="320" y="144" style="fill:#4CAF50;" width="32" height="128"/>
<path style="fill:#B0BEC5;" d="M496,432H16c-8.832,0-16-7.168-16-16v-16h512v16C512,424.832,504.832,432,496,432z"/>
<g>
</g>
<g>
</g>
<g>
</g>
<g>
</g>
<g>
</g>
<g>
</g>
<g>
</g>
<g>
</g>
<g>
</g>
<g>
</g>
<g>
</g>
<g>
</g>
<g>
</g>
<g>
</g>
<g>
</g>
</svg>
