<?xml version="1.0" encoding="iso-8859-1"?>
<!-- Generator: Adobe Illustrator 19.0.0, SVG Export Plug-In . SVG Version: 6.00 Build 0)  -->
<svg version="1.1" id="Layer_1" xmlns="http://www.w3.org/2000/svg" xmlns:xlink="http://www.w3.org/1999/xlink" x="0px" y="0px"
	 viewBox="0 0 512 512" style="enable-background:new 0 0 512 512;" xml:space="preserve">
<polygon style="fill:#CCCCCC;" points="280.856,437.545 207.789,437.545 213.907,412.06 219.817,387.474 268.837,387.474 
	274.737,412.06 "/>
<polygon style="fill:#999999;" points="274.737,412.06 213.907,412.06 219.817,387.474 243.057,362.16 268.837,387.474 "/>
<path style="fill:#CCCCCC;" d="M439.168,124.805v236.882c0,14.241-11.546,25.786-25.786,25.786H75.272
	c-14.241,0-25.786-11.546-25.786-25.786V124.805c0-14.241,11.546-25.786,25.786-25.786h338.108
	C427.622,99.018,439.168,110.564,439.168,124.805z"/>
<path style="fill:#E6E6E6;" d="M439.168,124.806v236.882c0,14.241-11.546,25.786-25.786,25.786H206.229l80.877-288.455h126.275
	C427.622,99.019,439.168,110.566,439.168,124.806z"/>
<rect x="49.486" y="134.388" style="fill:#9BD7F4;" width="389.682" height="217.707"/>
<polygon style="fill:#C8EDFC;" points="439.168,134.394 439.168,352.099 216.148,352.099 277.187,134.394 "/>
<path style="fill:#666666;" d="M503.732,67.876v195.64c0,9.777-7.925,17.691-17.691,17.691h-96.889
	c-9.777,0-17.691-7.914-17.691-17.691V67.876c0-9.777,7.914-17.691,17.691-17.691h96.889
	C495.807,50.185,503.732,58.099,503.732,67.876z"/>
<path style="fill:#999999;" d="M503.732,67.876v195.64c0,9.777-7.925,17.691-17.691,17.691h-83.827l64.769-231.023h19.058
	C495.807,50.185,503.732,58.099,503.732,67.876z"/>
<rect x="371.462" y="94.927" style="fill:#F9C573;" width="132.271" height="141.541"/>
<polygon style="fill:#FCD8A9;" points="503.732,94.926 503.732,236.467 414.757,236.467 454.439,94.926 "/>
<path style="fill:#666666;" d="M185.558,247.995v195.64c0,9.766-7.925,17.691-17.691,17.691H25.962
	c-9.777,0-17.691-7.925-17.691-17.691v-195.64c0-9.777,7.914-17.702,17.691-17.702h141.905
	C177.633,230.293,185.558,238.218,185.558,247.995z"/>
<rect x="8.27" y="275.047" style="fill:#F94B54;" width="177.288" height="141.53"/>
<path style="fill:#999999;" d="M185.558,247.995v195.64c0,9.766-7.925,17.691-17.691,17.691H62.931L127.7,230.293h40.166
	C177.633,230.293,185.558,238.218,185.558,247.995z"/>
<polygon style="fill:#F98791;" points="185.558,275.045 185.558,416.575 75.475,416.575 115.156,275.045 "/>
<path d="M437.586,297.264c-4.567,0-8.267,3.701-8.267,8.267v56.517c0,9.597-7.807,17.405-17.405,17.405H212.561
	c-4.567,0-8.267,3.701-8.267,8.267c0,4.566,3.7,8.267,8.267,8.267h0.552l-9.52,39.656c-0.591,2.462-0.021,5.059,1.546,7.048
	s3.96,3.149,6.492,3.149h111.689c4.567,0,8.267-3.701,8.267-8.267c0-4.566-3.7-8.267-8.267-8.267h-32.428l-7.999-33.319h129.022
	c18.714,0,33.939-15.224,33.939-33.939v-56.517C445.853,300.966,442.153,297.264,437.586,297.264z M273.887,429.306h-51.77
	l7.999-33.319h35.772L273.887,429.306z"/>
<path d="M49.603,213.379c4.567,0,8.267-3.701,8.267-8.267l-0.001-78.903c0-9.603,7.813-17.416,17.416-17.416h271.288
	c4.567,0,8.267-3.701,8.267-8.267s-3.7-8.267-8.267-8.267H75.284c-18.72,0-33.95,15.23-33.95,33.95l0.001,78.903
	C41.336,209.678,45.036,213.379,49.603,213.379z"/>
<path d="M210.356,360.77h203.389c4.567,0,8.267-3.701,8.267-8.267s-3.7-8.267-8.267-8.267H210.357c-4.567,0-8.267,3.701-8.267,8.267
	S205.79,360.77,210.356,360.77z"/>
<path d="M354.84,135.743c0-4.566-3.7-8.267-8.267-8.267H73.455c-4.567,0-8.267,3.701-8.267,8.267c0,4.566,3.7,8.267,8.267,8.267
	h273.118C351.139,144.01,354.84,140.309,354.84,135.743z"/>
<path d="M503.733,203.388c4.567,0,8.267-3.701,8.267-8.267v-127c0-14.314-11.644-25.959-25.959-25.959h-96.887
	c-14.314,0-25.959,11.645-25.959,25.959v195.646c0,14.314,11.644,25.959,25.959,25.959h96.887c14.314,0,25.959-11.645,25.959-25.959
	v-43.844c0-4.566-3.7-8.267-8.267-8.267s-8.267,3.701-8.267,8.267v43.844c0,5.197-4.228,9.425-9.425,9.425h-96.887
	c-5.197,0-9.425-4.228-9.425-9.425V68.121c0-5.197,4.228-9.425,9.425-9.425h96.887c5.197,0,9.425,4.228,9.425,9.425v127.001
	C495.466,199.687,499.166,203.388,503.733,203.388z"/>
<path d="M329.575,211.024l-20.532-20.532c-3.228-3.227-8.462-3.229-11.692,0c-3.229,3.229-3.229,8.463,0,11.692l6.42,6.42h-72.136
	c-4.567,0-8.267,3.701-8.267,8.267c0,4.566,3.7,8.267,8.267,8.267h72.136l-6.42,6.42c-3.229,3.229-3.229,8.463,0,11.692
	c1.615,1.614,3.731,2.422,5.846,2.422c2.115,0,4.232-0.807,5.846-2.422l20.532-20.532
	C332.803,219.487,332.803,214.253,329.575,211.024z"/>
<path d="M331.995,275.29c0-4.566-3.7-8.267-8.267-8.267h-72.136l6.42-6.42c3.229-3.229,3.229-8.463,0-11.692
	c-3.229-3.227-8.462-3.229-11.692,0l-20.533,20.532c-1.55,1.551-2.421,3.653-2.421,5.845c0,2.192,0.871,4.296,2.421,5.845
	l20.533,20.532c1.615,1.614,3.731,2.422,5.846,2.422s4.232-0.807,5.846-2.422c3.229-3.229,3.229-8.463,0-11.692l-6.42-6.42h72.136
	C328.295,283.557,331.995,279.855,331.995,275.29z"/>
<path d="M480.126,86.909h-85.058c-4.567,0-8.267,3.701-8.267,8.267c0,4.566,3.7,8.267,8.267,8.267h85.058
	c4.567,0,8.267-3.701,8.267-8.267C488.393,90.61,484.693,86.909,480.126,86.909z"/>
<path d="M488.393,236.71c0-4.566-3.7-8.267-8.267-8.267h-85.058c-4.567,0-8.267,3.701-8.267,8.267c0,4.566,3.7,8.267,8.267,8.267
	h85.058C484.693,244.977,488.393,241.276,488.393,236.71z"/>
<path d="M167.863,222.275H25.959C11.644,222.275,0,233.921,0,248.233v49.213c0,4.566,3.7,8.267,8.267,8.267s8.267-3.701,8.267-8.267
	v-49.213c0-5.197,4.228-9.425,9.425-9.425h141.904c5.197,0,9.425,4.228,9.425,9.425v195.646c0,5.197-4.228,9.425-9.425,9.425H25.959
	c-5.197,0-9.425-4.228-9.425-9.425V322.983c0-4.566-3.7-8.267-8.267-8.267S0,318.418,0,322.983v120.896
	c0,14.314,11.644,25.959,25.959,25.959h141.904c14.314,0,25.959-11.645,25.959-25.959V248.233
	C193.823,233.921,182.177,222.275,167.863,222.275z"/>
<path d="M29.987,283.557h133.847c4.567,0,8.267-3.701,8.267-8.267c0-4.566-3.7-8.267-8.267-8.267H29.987
	c-4.567,0-8.267,3.701-8.267,8.267C21.72,279.855,25.421,283.557,29.987,283.557z"/>
<path d="M29.987,425.091h133.847c4.567,0,8.267-3.701,8.267-8.267s-3.7-8.267-8.267-8.267H29.987c-4.567,0-8.267,3.701-8.267,8.267
	S25.421,425.091,29.987,425.091z"/>
<circle cx="437.597" cy="258.943" r="8.267"/>
<circle cx="96.911" cy="439.526" r="8.267"/>
<g>
</g>
<g>
</g>
<g>
</g>
<g>
</g>
<g>
</g>
<g>
</g>
<g>
</g>
<g>
</g>
<g>
</g>
<g>
</g>
<g>
</g>
<g>
</g>
<g>
</g>
<g>
</g>
<g>
</g>
</svg>
