<?xml version="1.0" encoding="utf-8" standalone="no"?>
<!DOCTYPE svg PUBLIC "-//W3C//DTD SVG 1.1//EN"
  "http://www.w3.org/Graphics/SVG/1.1/DTD/svg11.dtd">
<svg xmlns:xlink="http://www.w3.org/1999/xlink" width="460.8pt" height="345.6pt" viewBox="0 0 460.8 345.6" xmlns="http://www.w3.org/2000/svg" version="1.1">
 <metadata>
  <rdf:RDF xmlns:dc="http://purl.org/dc/elements/1.1/" xmlns:cc="http://creativecommons.org/ns#" xmlns:rdf="http://www.w3.org/1999/02/22-rdf-syntax-ns#">
   <cc:Work>
    <dc:type rdf:resource="http://purl.org/dc/dcmitype/StillImage"/>
    <dc:date>2023-11-23T11:42:53.772426</dc:date>
    <dc:format>image/svg+xml</dc:format>
    <dc:creator>
     <cc:Agent>
      <dc:title>Matplotlib v3.8.2, https://matplotlib.org/</dc:title>
     </cc:Agent>
    </dc:creator>
   </cc:Work>
  </rdf:RDF>
 </metadata>
 <defs>
  <style type="text/css">*{stroke-linejoin: round; stroke-linecap: butt}</style>
 </defs>
 <g id="figure_1">
  <g id="patch_1">
   <path d="M 0 345.6 
L 460.8 345.6 
L 460.8 0 
L 0 0 
z
" style="fill: #ffffff"/>
  </g>
  <g id="axes_1">
   <g id="patch_2">
    <path d="M 57.6 307.584 
L 414.72 307.584 
L 414.72 41.472 
L 57.6 41.472 
z
" style="fill: #ffffff"/>
   </g>
   <g id="PolyCollection_1">
    <path d="M 117.12 234.044963 
L 117.12 234.044963 
L 119.524848 210.238178 
L 121.929697 200.5493 
L 124.334545 193.233331 
L 126.739394 187.165836 
L 129.144242 181.909091 
L 131.549091 177.237576 
L 133.953939 173.016751 
L 136.358788 169.158604 
L 138.763636 165.601776 
L 141.168485 162.301437 
L 143.573333 159.223638 
L 145.978182 156.341931 
L 148.38303 153.63523 
L 150.787879 151.086404 
L 153.192727 148.68131 
L 155.597576 146.408114 
L 158.002424 144.256796 
L 160.407273 142.218791 
L 162.812121 140.286709 
L 165.21697 138.454127 
L 167.621818 136.715424 
L 170.026667 135.065653 
L 172.431515 133.500437 
L 174.836364 132.015883 
L 177.241212 130.608519 
L 179.646061 129.275234 
L 182.050909 128.013233 
L 184.455758 126.819999 
L 186.860606 125.693261 
L 189.265455 124.630964 
L 191.670303 123.631248 
L 194.075152 122.692428 
L 196.48 121.812975 
L 198.884848 120.991504 
L 201.289697 120.226759 
L 203.694545 119.517605 
L 206.099394 118.863014 
L 208.504242 118.26206 
L 210.909091 117.713914 
L 213.313939 117.21783 
L 215.718788 116.773149 
L 218.123636 116.379288 
L 220.528485 116.035738 
L 222.933333 115.74206 
L 225.338182 115.497885 
L 227.74303 115.302906 
L 230.147879 115.156882 
L 232.552727 115.059632 
L 234.957576 115.011037 
L 237.362424 115.011037 
L 239.767273 115.059632 
L 242.172121 115.156882 
L 244.57697 115.302906 
L 246.981818 115.497885 
L 249.386667 115.74206 
L 251.791515 116.035738 
L 254.196364 116.379288 
L 256.601212 116.773149 
L 259.006061 117.21783 
L 261.410909 117.713914 
L 263.815758 118.26206 
L 266.220606 118.863014 
L 268.625455 119.517605 
L 271.030303 120.226759 
L 273.435152 120.991504 
L 275.84 121.812975 
L 278.244848 122.692428 
L 280.649697 123.631248 
L 283.054545 124.630964 
L 285.459394 125.693261 
L 287.864242 126.819999 
L 290.269091 128.013233 
L 292.673939 129.275234 
L 295.078788 130.608519 
L 297.483636 132.015883 
L 299.888485 133.500437 
L 302.293333 135.065653 
L 304.698182 136.715424 
L 307.10303 138.454127 
L 309.507879 140.286709 
L 311.912727 142.218791 
L 314.317576 144.256796 
L 316.722424 146.408114 
L 319.127273 148.68131 
L 321.532121 151.086404 
L 323.93697 153.63523 
L 326.341818 156.341931 
L 328.746667 159.223638 
L 331.151515 162.301437 
L 333.556364 165.601776 
L 335.961212 169.158604 
L 338.366061 173.016751 
L 340.770909 177.237576 
L 343.175758 181.909091 
L 345.580606 187.165836 
L 347.985455 193.233331 
L 350.390303 200.5493 
L 352.795152 210.238178 
L 355.2 234.044963 
L 355.2 234.044963 
L 355.2 234.044963 
L 352.795152 234.044963 
L 350.390303 234.044963 
L 347.985455 234.044963 
L 345.580606 234.044963 
L 343.175758 234.044963 
L 340.770909 234.044963 
L 338.366061 234.044963 
L 335.961212 234.044963 
L 333.556364 234.044963 
L 331.151515 234.044963 
L 328.746667 234.044963 
L 326.341818 234.044963 
L 323.93697 234.044963 
L 321.532121 234.044963 
L 319.127273 234.044963 
L 316.722424 234.044963 
L 314.317576 234.044963 
L 311.912727 234.044963 
L 309.507879 234.044963 
L 307.10303 234.044963 
L 304.698182 234.044963 
L 302.293333 234.044963 
L 299.888485 234.044963 
L 297.483636 234.044963 
L 295.078788 234.044963 
L 292.673939 234.044963 
L 290.269091 234.044963 
L 287.864242 234.044963 
L 285.459394 234.044963 
L 283.054545 234.044963 
L 280.649697 234.044963 
L 278.244848 234.044963 
L 275.84 234.044963 
L 273.435152 234.044963 
L 271.030303 234.044963 
L 268.625455 234.044963 
L 266.220606 234.044963 
L 263.815758 234.044963 
L 261.410909 234.044963 
L 259.006061 234.044963 
L 256.601212 234.044963 
L 254.196364 234.044963 
L 251.791515 234.044963 
L 249.386667 234.044963 
L 246.981818 234.044963 
L 244.57697 234.044963 
L 242.172121 234.044963 
L 239.767273 234.044963 
L 237.362424 234.044963 
L 234.957576 234.044963 
L 232.552727 234.044963 
L 230.147879 234.044963 
L 227.74303 234.044963 
L 225.338182 234.044963 
L 222.933333 234.044963 
L 220.528485 234.044963 
L 218.123636 234.044963 
L 215.718788 234.044963 
L 213.313939 234.044963 
L 210.909091 234.044963 
L 208.504242 234.044963 
L 206.099394 234.044963 
L 203.694545 234.044963 
L 201.289697 234.044963 
L 198.884848 234.044963 
L 196.48 234.044963 
L 194.075152 234.044963 
L 191.670303 234.044963 
L 189.265455 234.044963 
L 186.860606 234.044963 
L 184.455758 234.044963 
L 182.050909 234.044963 
L 179.646061 234.044963 
L 177.241212 234.044963 
L 174.836364 234.044963 
L 172.431515 234.044963 
L 170.026667 234.044963 
L 167.621818 234.044963 
L 165.21697 234.044963 
L 162.812121 234.044963 
L 160.407273 234.044963 
L 158.002424 234.044963 
L 155.597576 234.044963 
L 153.192727 234.044963 
L 150.787879 234.044963 
L 148.38303 234.044963 
L 145.978182 234.044963 
L 143.573333 234.044963 
L 141.168485 234.044963 
L 138.763636 234.044963 
L 136.358788 234.044963 
L 133.953939 234.044963 
L 131.549091 234.044963 
L 129.144242 234.044963 
L 126.739394 234.044963 
L 124.334545 234.044963 
L 121.929697 234.044963 
L 119.524848 234.044963 
L 117.12 234.044963 
z
" clip-path="url(#pa8089af24d)" style="fill: #1f77b4; fill-opacity: 0.5"/>
   </g>
   <g id="matplotlib.axis_1">
    <g id="xtick_1">
     <g id="line2d_1">
      <path d="M 57.6 307.584 
L 57.6 41.472 
" clip-path="url(#pa8089af24d)" style="fill: none; stroke: #b0b0b0; stroke-width: 0.8; stroke-linecap: square"/>
     </g>
     <g id="line2d_2">
      <defs>
       <path id="med6fb466eb" d="M 0 0 
L 0 3.5 
" style="stroke: #000000; stroke-width: 0.8"/>
      </defs>
      <g>
       <use xlink:href="#med6fb466eb" x="57.6" y="307.584" style="stroke: #000000; stroke-width: 0.8"/>
      </g>
     </g>
     <g id="text_1">
      <!-- −1.5 -->
      <g transform="translate(45.458594 322.182437) scale(0.1 -0.1)">
       <defs>
        <path id="DejaVuSans-2212" d="M 678 2272 
L 4684 2272 
L 4684 1741 
L 678 1741 
L 678 2272 
z
" transform="scale(0.015625)"/>
        <path id="DejaVuSans-31" d="M 794 531 
L 1825 531 
L 1825 4091 
L 703 3866 
L 703 4441 
L 1819 4666 
L 2450 4666 
L 2450 531 
L 3481 531 
L 3481 0 
L 794 0 
L 794 531 
z
" transform="scale(0.015625)"/>
        <path id="DejaVuSans-2e" d="M 684 794 
L 1344 794 
L 1344 0 
L 684 0 
L 684 794 
z
" transform="scale(0.015625)"/>
        <path id="DejaVuSans-35" d="M 691 4666 
L 3169 4666 
L 3169 4134 
L 1269 4134 
L 1269 2991 
Q 1406 3038 1543 3061 
Q 1681 3084 1819 3084 
Q 2600 3084 3056 2656 
Q 3513 2228 3513 1497 
Q 3513 744 3044 326 
Q 2575 -91 1722 -91 
Q 1428 -91 1123 -41 
Q 819 9 494 109 
L 494 744 
Q 775 591 1075 516 
Q 1375 441 1709 441 
Q 2250 441 2565 725 
Q 2881 1009 2881 1497 
Q 2881 1984 2565 2268 
Q 2250 2553 1709 2553 
Q 1456 2553 1204 2497 
Q 953 2441 691 2322 
L 691 4666 
z
" transform="scale(0.015625)"/>
       </defs>
       <use xlink:href="#DejaVuSans-2212"/>
       <use xlink:href="#DejaVuSans-31" x="83.789062"/>
       <use xlink:href="#DejaVuSans-2e" x="147.412109"/>
       <use xlink:href="#DejaVuSans-35" x="179.199219"/>
      </g>
     </g>
    </g>
    <g id="xtick_2">
     <g id="line2d_3">
      <path d="M 117.12 307.584 
L 117.12 41.472 
" clip-path="url(#pa8089af24d)" style="fill: none; stroke: #b0b0b0; stroke-width: 0.8; stroke-linecap: square"/>
     </g>
     <g id="line2d_4">
      <g>
       <use xlink:href="#med6fb466eb" x="117.12" y="307.584" style="stroke: #000000; stroke-width: 0.8"/>
      </g>
     </g>
     <g id="text_2">
      <!-- −1.0 -->
      <g transform="translate(104.978594 322.182437) scale(0.1 -0.1)">
       <defs>
        <path id="DejaVuSans-30" d="M 2034 4250 
Q 1547 4250 1301 3770 
Q 1056 3291 1056 2328 
Q 1056 1369 1301 889 
Q 1547 409 2034 409 
Q 2525 409 2770 889 
Q 3016 1369 3016 2328 
Q 3016 3291 2770 3770 
Q 2525 4250 2034 4250 
z
M 2034 4750 
Q 2819 4750 3233 4129 
Q 3647 3509 3647 2328 
Q 3647 1150 3233 529 
Q 2819 -91 2034 -91 
Q 1250 -91 836 529 
Q 422 1150 422 2328 
Q 422 3509 836 4129 
Q 1250 4750 2034 4750 
z
" transform="scale(0.015625)"/>
       </defs>
       <use xlink:href="#DejaVuSans-2212"/>
       <use xlink:href="#DejaVuSans-31" x="83.789062"/>
       <use xlink:href="#DejaVuSans-2e" x="147.412109"/>
       <use xlink:href="#DejaVuSans-30" x="179.199219"/>
      </g>
     </g>
    </g>
    <g id="xtick_3">
     <g id="line2d_5">
      <path d="M 176.64 307.584 
L 176.64 41.472 
" clip-path="url(#pa8089af24d)" style="fill: none; stroke: #b0b0b0; stroke-width: 0.8; stroke-linecap: square"/>
     </g>
     <g id="line2d_6">
      <g>
       <use xlink:href="#med6fb466eb" x="176.64" y="307.584" style="stroke: #000000; stroke-width: 0.8"/>
      </g>
     </g>
     <g id="text_3">
      <!-- −0.5 -->
      <g transform="translate(164.498594 322.182437) scale(0.1 -0.1)">
       <use xlink:href="#DejaVuSans-2212"/>
       <use xlink:href="#DejaVuSans-30" x="83.789062"/>
       <use xlink:href="#DejaVuSans-2e" x="147.412109"/>
       <use xlink:href="#DejaVuSans-35" x="179.199219"/>
      </g>
     </g>
    </g>
    <g id="xtick_4">
     <g id="line2d_7">
      <path d="M 236.16 307.584 
L 236.16 41.472 
" clip-path="url(#pa8089af24d)" style="fill: none; stroke: #b0b0b0; stroke-width: 0.8; stroke-linecap: square"/>
     </g>
     <g id="line2d_8">
      <g>
       <use xlink:href="#med6fb466eb" x="236.16" y="307.584" style="stroke: #000000; stroke-width: 0.8"/>
      </g>
     </g>
     <g id="text_4">
      <!-- 0.0 -->
      <g transform="translate(228.208438 322.182437) scale(0.1 -0.1)">
       <use xlink:href="#DejaVuSans-30"/>
       <use xlink:href="#DejaVuSans-2e" x="63.623047"/>
       <use xlink:href="#DejaVuSans-30" x="95.410156"/>
      </g>
     </g>
    </g>
    <g id="xtick_5">
     <g id="line2d_9">
      <path d="M 295.68 307.584 
L 295.68 41.472 
" clip-path="url(#pa8089af24d)" style="fill: none; stroke: #b0b0b0; stroke-width: 0.8; stroke-linecap: square"/>
     </g>
     <g id="line2d_10">
      <g>
       <use xlink:href="#med6fb466eb" x="295.68" y="307.584" style="stroke: #000000; stroke-width: 0.8"/>
      </g>
     </g>
     <g id="text_5">
      <!-- 0.5 -->
      <g transform="translate(287.728437 322.182437) scale(0.1 -0.1)">
       <use xlink:href="#DejaVuSans-30"/>
       <use xlink:href="#DejaVuSans-2e" x="63.623047"/>
       <use xlink:href="#DejaVuSans-35" x="95.410156"/>
      </g>
     </g>
    </g>
    <g id="xtick_6">
     <g id="line2d_11">
      <path d="M 355.2 307.584 
L 355.2 41.472 
" clip-path="url(#pa8089af24d)" style="fill: none; stroke: #b0b0b0; stroke-width: 0.8; stroke-linecap: square"/>
     </g>
     <g id="line2d_12">
      <g>
       <use xlink:href="#med6fb466eb" x="355.2" y="307.584" style="stroke: #000000; stroke-width: 0.8"/>
      </g>
     </g>
     <g id="text_6">
      <!-- 1.0 -->
      <g transform="translate(347.248437 322.182437) scale(0.1 -0.1)">
       <use xlink:href="#DejaVuSans-31"/>
       <use xlink:href="#DejaVuSans-2e" x="63.623047"/>
       <use xlink:href="#DejaVuSans-30" x="95.410156"/>
      </g>
     </g>
    </g>
    <g id="xtick_7">
     <g id="line2d_13">
      <path d="M 414.72 307.584 
L 414.72 41.472 
" clip-path="url(#pa8089af24d)" style="fill: none; stroke: #b0b0b0; stroke-width: 0.8; stroke-linecap: square"/>
     </g>
     <g id="line2d_14">
      <g>
       <use xlink:href="#med6fb466eb" x="414.72" y="307.584" style="stroke: #000000; stroke-width: 0.8"/>
      </g>
     </g>
     <g id="text_7">
      <!-- 1.5 -->
      <g transform="translate(406.768438 322.182437) scale(0.1 -0.1)">
       <use xlink:href="#DejaVuSans-31"/>
       <use xlink:href="#DejaVuSans-2e" x="63.623047"/>
       <use xlink:href="#DejaVuSans-35" x="95.410156"/>
      </g>
     </g>
    </g>
   </g>
   <g id="matplotlib.axis_2">
    <g id="ytick_1">
     <g id="line2d_15">
      <path d="M 57.6 293.564963 
L 414.72 293.564963 
" clip-path="url(#pa8089af24d)" style="fill: none; stroke: #b0b0b0; stroke-width: 0.8; stroke-linecap: square"/>
     </g>
     <g id="line2d_16">
      <defs>
       <path id="m643d870e46" d="M 0 0 
L -3.5 0 
" style="stroke: #000000; stroke-width: 0.8"/>
      </defs>
      <g>
       <use xlink:href="#m643d870e46" x="57.6" y="293.564963" style="stroke: #000000; stroke-width: 0.8"/>
      </g>
     </g>
     <g id="text_8">
      <!-- −0.50 -->
      <g transform="translate(19.954687 297.364182) scale(0.1 -0.1)">
       <use xlink:href="#DejaVuSans-2212"/>
       <use xlink:href="#DejaVuSans-30" x="83.789062"/>
       <use xlink:href="#DejaVuSans-2e" x="147.412109"/>
       <use xlink:href="#DejaVuSans-35" x="179.199219"/>
       <use xlink:href="#DejaVuSans-30" x="242.822266"/>
      </g>
     </g>
    </g>
    <g id="ytick_2">
     <g id="line2d_17">
      <path d="M 57.6 263.804963 
L 414.72 263.804963 
" clip-path="url(#pa8089af24d)" style="fill: none; stroke: #b0b0b0; stroke-width: 0.8; stroke-linecap: square"/>
     </g>
     <g id="line2d_18">
      <g>
       <use xlink:href="#m643d870e46" x="57.6" y="263.804963" style="stroke: #000000; stroke-width: 0.8"/>
      </g>
     </g>
     <g id="text_9">
      <!-- −0.25 -->
      <g transform="translate(19.954687 267.604182) scale(0.1 -0.1)">
       <defs>
        <path id="DejaVuSans-32" d="M 1228 531 
L 3431 531 
L 3431 0 
L 469 0 
L 469 531 
Q 828 903 1448 1529 
Q 2069 2156 2228 2338 
Q 2531 2678 2651 2914 
Q 2772 3150 2772 3378 
Q 2772 3750 2511 3984 
Q 2250 4219 1831 4219 
Q 1534 4219 1204 4116 
Q 875 4013 500 3803 
L 500 4441 
Q 881 4594 1212 4672 
Q 1544 4750 1819 4750 
Q 2544 4750 2975 4387 
Q 3406 4025 3406 3419 
Q 3406 3131 3298 2873 
Q 3191 2616 2906 2266 
Q 2828 2175 2409 1742 
Q 1991 1309 1228 531 
z
" transform="scale(0.015625)"/>
       </defs>
       <use xlink:href="#DejaVuSans-2212"/>
       <use xlink:href="#DejaVuSans-30" x="83.789062"/>
       <use xlink:href="#DejaVuSans-2e" x="147.412109"/>
       <use xlink:href="#DejaVuSans-32" x="179.199219"/>
       <use xlink:href="#DejaVuSans-35" x="242.822266"/>
      </g>
     </g>
    </g>
    <g id="ytick_3">
     <g id="line2d_19">
      <path d="M 57.6 234.044963 
L 414.72 234.044963 
" clip-path="url(#pa8089af24d)" style="fill: none; stroke: #b0b0b0; stroke-width: 0.8; stroke-linecap: square"/>
     </g>
     <g id="line2d_20">
      <g>
       <use xlink:href="#m643d870e46" x="57.6" y="234.044963" style="stroke: #000000; stroke-width: 0.8"/>
      </g>
     </g>
     <g id="text_10">
      <!-- 0.00 -->
      <g transform="translate(28.334375 237.844182) scale(0.1 -0.1)">
       <use xlink:href="#DejaVuSans-30"/>
       <use xlink:href="#DejaVuSans-2e" x="63.623047"/>
       <use xlink:href="#DejaVuSans-30" x="95.410156"/>
       <use xlink:href="#DejaVuSans-30" x="159.033203"/>
      </g>
     </g>
    </g>
    <g id="ytick_4">
     <g id="line2d_21">
      <path d="M 57.6 204.284963 
L 414.72 204.284963 
" clip-path="url(#pa8089af24d)" style="fill: none; stroke: #b0b0b0; stroke-width: 0.8; stroke-linecap: square"/>
     </g>
     <g id="line2d_22">
      <g>
       <use xlink:href="#m643d870e46" x="57.6" y="204.284963" style="stroke: #000000; stroke-width: 0.8"/>
      </g>
     </g>
     <g id="text_11">
      <!-- 0.25 -->
      <g transform="translate(28.334375 208.084182) scale(0.1 -0.1)">
       <use xlink:href="#DejaVuSans-30"/>
       <use xlink:href="#DejaVuSans-2e" x="63.623047"/>
       <use xlink:href="#DejaVuSans-32" x="95.410156"/>
       <use xlink:href="#DejaVuSans-35" x="159.033203"/>
      </g>
     </g>
    </g>
    <g id="ytick_5">
     <g id="line2d_23">
      <path d="M 57.6 174.524963 
L 414.72 174.524963 
" clip-path="url(#pa8089af24d)" style="fill: none; stroke: #b0b0b0; stroke-width: 0.8; stroke-linecap: square"/>
     </g>
     <g id="line2d_24">
      <g>
       <use xlink:href="#m643d870e46" x="57.6" y="174.524963" style="stroke: #000000; stroke-width: 0.8"/>
      </g>
     </g>
     <g id="text_12">
      <!-- 0.50 -->
      <g transform="translate(28.334375 178.324182) scale(0.1 -0.1)">
       <use xlink:href="#DejaVuSans-30"/>
       <use xlink:href="#DejaVuSans-2e" x="63.623047"/>
       <use xlink:href="#DejaVuSans-35" x="95.410156"/>
       <use xlink:href="#DejaVuSans-30" x="159.033203"/>
      </g>
     </g>
    </g>
    <g id="ytick_6">
     <g id="line2d_25">
      <path d="M 57.6 144.764963 
L 414.72 144.764963 
" clip-path="url(#pa8089af24d)" style="fill: none; stroke: #b0b0b0; stroke-width: 0.8; stroke-linecap: square"/>
     </g>
     <g id="line2d_26">
      <g>
       <use xlink:href="#m643d870e46" x="57.6" y="144.764963" style="stroke: #000000; stroke-width: 0.8"/>
      </g>
     </g>
     <g id="text_13">
      <!-- 0.75 -->
      <g transform="translate(28.334375 148.564182) scale(0.1 -0.1)">
       <defs>
        <path id="DejaVuSans-37" d="M 525 4666 
L 3525 4666 
L 3525 4397 
L 1831 0 
L 1172 0 
L 2766 4134 
L 525 4134 
L 525 4666 
z
" transform="scale(0.015625)"/>
       </defs>
       <use xlink:href="#DejaVuSans-30"/>
       <use xlink:href="#DejaVuSans-2e" x="63.623047"/>
       <use xlink:href="#DejaVuSans-37" x="95.410156"/>
       <use xlink:href="#DejaVuSans-35" x="159.033203"/>
      </g>
     </g>
    </g>
    <g id="ytick_7">
     <g id="line2d_27">
      <path d="M 57.6 115.004963 
L 414.72 115.004963 
" clip-path="url(#pa8089af24d)" style="fill: none; stroke: #b0b0b0; stroke-width: 0.8; stroke-linecap: square"/>
     </g>
     <g id="line2d_28">
      <g>
       <use xlink:href="#m643d870e46" x="57.6" y="115.004963" style="stroke: #000000; stroke-width: 0.8"/>
      </g>
     </g>
     <g id="text_14">
      <!-- 1.00 -->
      <g transform="translate(28.334375 118.804182) scale(0.1 -0.1)">
       <use xlink:href="#DejaVuSans-31"/>
       <use xlink:href="#DejaVuSans-2e" x="63.623047"/>
       <use xlink:href="#DejaVuSans-30" x="95.410156"/>
       <use xlink:href="#DejaVuSans-30" x="159.033203"/>
      </g>
     </g>
    </g>
    <g id="ytick_8">
     <g id="line2d_29">
      <path d="M 57.6 85.244963 
L 414.72 85.244963 
" clip-path="url(#pa8089af24d)" style="fill: none; stroke: #b0b0b0; stroke-width: 0.8; stroke-linecap: square"/>
     </g>
     <g id="line2d_30">
      <g>
       <use xlink:href="#m643d870e46" x="57.6" y="85.244963" style="stroke: #000000; stroke-width: 0.8"/>
      </g>
     </g>
     <g id="text_15">
      <!-- 1.25 -->
      <g transform="translate(28.334375 89.044182) scale(0.1 -0.1)">
       <use xlink:href="#DejaVuSans-31"/>
       <use xlink:href="#DejaVuSans-2e" x="63.623047"/>
       <use xlink:href="#DejaVuSans-32" x="95.410156"/>
       <use xlink:href="#DejaVuSans-35" x="159.033203"/>
      </g>
     </g>
    </g>
    <g id="ytick_9">
     <g id="line2d_31">
      <path d="M 57.6 55.484963 
L 414.72 55.484963 
" clip-path="url(#pa8089af24d)" style="fill: none; stroke: #b0b0b0; stroke-width: 0.8; stroke-linecap: square"/>
     </g>
     <g id="line2d_32">
      <g>
       <use xlink:href="#m643d870e46" x="57.6" y="55.484963" style="stroke: #000000; stroke-width: 0.8"/>
      </g>
     </g>
     <g id="text_16">
      <!-- 1.50 -->
      <g transform="translate(28.334375 59.284182) scale(0.1 -0.1)">
       <use xlink:href="#DejaVuSans-31"/>
       <use xlink:href="#DejaVuSans-2e" x="63.623047"/>
       <use xlink:href="#DejaVuSans-35" x="95.410156"/>
       <use xlink:href="#DejaVuSans-30" x="159.033203"/>
      </g>
     </g>
    </g>
   </g>
   <g id="line2d_33">
    <path d="M 117.12 234.044963 
L 119.524848 210.238178 
L 121.929697 200.5493 
L 124.334545 193.233331 
L 126.739394 187.165836 
L 129.144242 181.909091 
L 131.549091 177.237576 
L 133.953939 173.016751 
L 136.358788 169.158604 
L 138.763636 165.601776 
L 141.168485 162.301437 
L 143.573333 159.223638 
L 145.978182 156.341931 
L 148.38303 153.63523 
L 150.787879 151.086404 
L 153.192727 148.68131 
L 155.597576 146.408114 
L 158.002424 144.256796 
L 160.407273 142.218791 
L 162.812121 140.286709 
L 165.21697 138.454127 
L 167.621818 136.715424 
L 170.026667 135.065653 
L 172.431515 133.500437 
L 174.836364 132.015883 
L 177.241212 130.608519 
L 179.646061 129.275234 
L 182.050909 128.013233 
L 184.455758 126.819999 
L 186.860606 125.693261 
L 189.265455 124.630964 
L 191.670303 123.631248 
L 194.075152 122.692428 
L 196.48 121.812975 
L 198.884848 120.991504 
L 201.289697 120.226759 
L 203.694545 119.517605 
L 206.099394 118.863014 
L 208.504242 118.26206 
L 210.909091 117.713914 
L 213.313939 117.21783 
L 215.718788 116.773149 
L 218.123636 116.379288 
L 220.528485 116.035738 
L 222.933333 115.74206 
L 225.338182 115.497885 
L 227.74303 115.302906 
L 230.147879 115.156882 
L 232.552727 115.059632 
L 234.957576 115.011037 
L 237.362424 115.011037 
L 239.767273 115.059632 
L 242.172121 115.156882 
L 244.57697 115.302906 
L 246.981818 115.497885 
L 249.386667 115.74206 
L 251.791515 116.035738 
L 254.196364 116.379288 
L 256.601212 116.773149 
L 259.006061 117.21783 
L 261.410909 117.713914 
L 263.815758 118.26206 
L 266.220606 118.863014 
L 268.625455 119.517605 
L 271.030303 120.226759 
L 273.435152 120.991504 
L 275.84 121.812975 
L 278.244848 122.692428 
L 280.649697 123.631248 
L 283.054545 124.630964 
L 285.459394 125.693261 
L 287.864242 126.819999 
L 290.269091 128.013233 
L 292.673939 129.275234 
L 295.078788 130.608519 
L 297.483636 132.015883 
L 299.888485 133.500437 
L 302.293333 135.065653 
L 304.698182 136.715424 
L 307.10303 138.454127 
L 309.507879 140.286709 
L 311.912727 142.218791 
L 314.317576 144.256796 
L 316.722424 146.408114 
L 319.127273 148.68131 
L 321.532121 151.086404 
L 323.93697 153.63523 
L 326.341818 156.341931 
L 328.746667 159.223638 
L 331.151515 162.301437 
L 333.556364 165.601776 
L 335.961212 169.158604 
L 338.366061 173.016751 
L 340.770909 177.237576 
L 343.175758 181.909091 
L 345.580606 187.165836 
L 347.985455 193.233331 
L 350.390303 200.5493 
L 352.795152 210.238178 
L 355.2 234.044963 
" clip-path="url(#pa8089af24d)" style="fill: none; stroke: #1f77b4; stroke-width: 1.5; stroke-linecap: square"/>
   </g>
   <g id="line2d_34">
    <path d="M 57.6 234.044963 
L 414.72 234.044963 
" clip-path="url(#pa8089af24d)" style="fill: none; stroke: #000000; stroke-width: 1.5; stroke-linecap: square"/>
   </g>
   <g id="line2d_35">
    <path d="M 236.16 307.584 
L 236.16 41.472 
" clip-path="url(#pa8089af24d)" style="fill: none; stroke: #000000; stroke-width: 1.5; stroke-linecap: square"/>
   </g>
   <g id="patch_3">
    <path d="M 57.6 307.584 
L 57.6 41.472 
" style="fill: none; stroke: #000000; stroke-width: 0.8; stroke-linejoin: miter; stroke-linecap: square"/>
   </g>
   <g id="patch_4">
    <path d="M 414.72 307.584 
L 414.72 41.472 
" style="fill: none; stroke: #000000; stroke-width: 0.8; stroke-linejoin: miter; stroke-linecap: square"/>
   </g>
   <g id="patch_5">
    <path d="M 57.6 307.584 
L 414.72 307.584 
" style="fill: none; stroke: #000000; stroke-width: 0.8; stroke-linejoin: miter; stroke-linecap: square"/>
   </g>
   <g id="patch_6">
    <path d="M 57.6 41.472 
L 414.72 41.472 
" style="fill: none; stroke: #000000; stroke-width: 0.8; stroke-linejoin: miter; stroke-linecap: square"/>
   </g>
   <g id="text_17">
    <!-- 1.5707963267948992 -->
    <g transform="translate(180.489688 186.428963) scale(0.1 -0.1)">
     <defs>
      <path id="DejaVuSans-39" d="M 703 97 
L 703 672 
Q 941 559 1184 500 
Q 1428 441 1663 441 
Q 2288 441 2617 861 
Q 2947 1281 2994 2138 
Q 2813 1869 2534 1725 
Q 2256 1581 1919 1581 
Q 1219 1581 811 2004 
Q 403 2428 403 3163 
Q 403 3881 828 4315 
Q 1253 4750 1959 4750 
Q 2769 4750 3195 4129 
Q 3622 3509 3622 2328 
Q 3622 1225 3098 567 
Q 2575 -91 1691 -91 
Q 1453 -91 1209 -44 
Q 966 3 703 97 
z
M 1959 2075 
Q 2384 2075 2632 2365 
Q 2881 2656 2881 3163 
Q 2881 3666 2632 3958 
Q 2384 4250 1959 4250 
Q 1534 4250 1286 3958 
Q 1038 3666 1038 3163 
Q 1038 2656 1286 2365 
Q 1534 2075 1959 2075 
z
" transform="scale(0.015625)"/>
      <path id="DejaVuSans-36" d="M 2113 2584 
Q 1688 2584 1439 2293 
Q 1191 2003 1191 1497 
Q 1191 994 1439 701 
Q 1688 409 2113 409 
Q 2538 409 2786 701 
Q 3034 994 3034 1497 
Q 3034 2003 2786 2293 
Q 2538 2584 2113 2584 
z
M 3366 4563 
L 3366 3988 
Q 3128 4100 2886 4159 
Q 2644 4219 2406 4219 
Q 1781 4219 1451 3797 
Q 1122 3375 1075 2522 
Q 1259 2794 1537 2939 
Q 1816 3084 2150 3084 
Q 2853 3084 3261 2657 
Q 3669 2231 3669 1497 
Q 3669 778 3244 343 
Q 2819 -91 2113 -91 
Q 1303 -91 875 529 
Q 447 1150 447 2328 
Q 447 3434 972 4092 
Q 1497 4750 2381 4750 
Q 2619 4750 2861 4703 
Q 3103 4656 3366 4563 
z
" transform="scale(0.015625)"/>
      <path id="DejaVuSans-33" d="M 2597 2516 
Q 3050 2419 3304 2112 
Q 3559 1806 3559 1356 
Q 3559 666 3084 287 
Q 2609 -91 1734 -91 
Q 1441 -91 1130 -33 
Q 819 25 488 141 
L 488 750 
Q 750 597 1062 519 
Q 1375 441 1716 441 
Q 2309 441 2620 675 
Q 2931 909 2931 1356 
Q 2931 1769 2642 2001 
Q 2353 2234 1838 2234 
L 1294 2234 
L 1294 2753 
L 1863 2753 
Q 2328 2753 2575 2939 
Q 2822 3125 2822 3475 
Q 2822 3834 2567 4026 
Q 2313 4219 1838 4219 
Q 1578 4219 1281 4162 
Q 984 4106 628 3988 
L 628 4550 
Q 988 4650 1302 4700 
Q 1616 4750 1894 4750 
Q 2613 4750 3031 4423 
Q 3450 4097 3450 3541 
Q 3450 3153 3228 2886 
Q 3006 2619 2597 2516 
z
" transform="scale(0.015625)"/>
      <path id="DejaVuSans-34" d="M 2419 4116 
L 825 1625 
L 2419 1625 
L 2419 4116 
z
M 2253 4666 
L 3047 4666 
L 3047 1625 
L 3713 1625 
L 3713 1100 
L 3047 1100 
L 3047 0 
L 2419 0 
L 2419 1100 
L 313 1100 
L 313 1709 
L 2253 4666 
z
" transform="scale(0.015625)"/>
      <path id="DejaVuSans-38" d="M 2034 2216 
Q 1584 2216 1326 1975 
Q 1069 1734 1069 1313 
Q 1069 891 1326 650 
Q 1584 409 2034 409 
Q 2484 409 2743 651 
Q 3003 894 3003 1313 
Q 3003 1734 2745 1975 
Q 2488 2216 2034 2216 
z
M 1403 2484 
Q 997 2584 770 2862 
Q 544 3141 544 3541 
Q 544 4100 942 4425 
Q 1341 4750 2034 4750 
Q 2731 4750 3128 4425 
Q 3525 4100 3525 3541 
Q 3525 3141 3298 2862 
Q 3072 2584 2669 2484 
Q 3125 2378 3379 2068 
Q 3634 1759 3634 1313 
Q 3634 634 3220 271 
Q 2806 -91 2034 -91 
Q 1263 -91 848 271 
Q 434 634 434 1313 
Q 434 1759 690 2068 
Q 947 2378 1403 2484 
z
M 1172 3481 
Q 1172 3119 1398 2916 
Q 1625 2713 2034 2713 
Q 2441 2713 2670 2916 
Q 2900 3119 2900 3481 
Q 2900 3844 2670 4047 
Q 2441 4250 2034 4250 
Q 1625 4250 1398 4047 
Q 1172 3844 1172 3481 
z
" transform="scale(0.015625)"/>
     </defs>
     <use xlink:href="#DejaVuSans-31"/>
     <use xlink:href="#DejaVuSans-2e" x="63.623047"/>
     <use xlink:href="#DejaVuSans-35" x="95.410156"/>
     <use xlink:href="#DejaVuSans-37" x="159.033203"/>
     <use xlink:href="#DejaVuSans-30" x="222.65625"/>
     <use xlink:href="#DejaVuSans-37" x="286.279297"/>
     <use xlink:href="#DejaVuSans-39" x="349.902344"/>
     <use xlink:href="#DejaVuSans-36" x="413.525391"/>
     <use xlink:href="#DejaVuSans-33" x="477.148438"/>
     <use xlink:href="#DejaVuSans-32" x="540.771484"/>
     <use xlink:href="#DejaVuSans-36" x="604.394531"/>
     <use xlink:href="#DejaVuSans-37" x="668.017578"/>
     <use xlink:href="#DejaVuSans-39" x="731.640625"/>
     <use xlink:href="#DejaVuSans-34" x="795.263672"/>
     <use xlink:href="#DejaVuSans-38" x="858.886719"/>
     <use xlink:href="#DejaVuSans-39" x="922.509766"/>
     <use xlink:href="#DejaVuSans-39" x="986.132812"/>
     <use xlink:href="#DejaVuSans-32" x="1049.755859"/>
    </g>
   </g>
  </g>
 </g>
 <defs>
  <clipPath id="pa8089af24d">
   <rect x="57.6" y="41.472" width="357.12" height="266.112"/>
  </clipPath>
 </defs>
</svg>
