<svg version="1.1" id="Layer_1" xmlns="http://www.w3.org/2000/svg" x="0" y="0" viewBox="0 0 384 336" style="enable-background:new 0 0 384 336" xml:space="preserve"><style>.st1{fill-rule:evenodd;clip-rule:evenodd;fill-opacity:0}.st7{fill:#434343}</style><path style="fill:none" d="M0 0h384v336H0z"/><path class="st1" d="M0 0h384v336H0V0z"/><path class="st1" d="M48 28h288v33.6H48V28z"/><path d="M144.3 52.8c-.5-.8-1-1.7-1.3-2.7-.3-1.1-.5-2.2-.5-3.4 0-1.6.4-3.2 1.1-4.7.8-1.5 1.8-2.8 3.1-3.9l1 1c-1.2 1.1-2.1 2.3-2.7 3.5-.6 1.2-.9 2.6-.9 4.1 0 1 .1 1.9.4 2.8.2.8.6 1.6 1 2.4l-1.2.9zm5.2-13.6h1.8l-2 11.5h-1.7l1.9-11.5zm5 4.4c.3-.4.7-.8 1.1-1 .5-.2 1-.4 1.6-.4.8 0 1.5.2 1.9.7.5.4.7 1 .7 1.8 0 .4 0 .8-.1 1.1l-.9 4.9h-1.7l.8-4.8c.1-.3.1-.5.1-.7 0-.4-.1-.7-.4-1-.3-.2-.6-.4-1.1-.4-.6 0-1.2.2-1.6.7-.5.4-.7 1-.9 1.8l-.8 4.4h-1.7l1.5-8.2h1.6l-.1 1.1zm9.3 7.2c-.6 0-1.1-.2-1.5-.5-.4-.4-.6-.8-.6-1.5 0-.2 0-.4.1-.8l.7-4H161l.3-1.5h1.4l.4-2.3h1.7l-.4 2.3h2l-.3 1.5h-2l-.7 3.9v.5c0 .2.1.4.2.6.2.1.4.2.6.2.4 0 .7-.1 1.1-.3l-.3 1.7c-.3.1-.7.2-1.2.2zm6.5.1c-.7 0-1.4-.2-2-.5-.6-.3-1-.8-1.3-1.4-.3-.6-.5-1.2-.5-1.9 0-.8.2-1.6.6-2.4s.9-1.3 1.7-1.8c.7-.5 1.5-.7 2.5-.7.7 0 1.3.2 1.9.5.5.3.9.7 1.2 1.2.3.5.4 1.1.4 1.7 0 .5-.1.9-.2 1.2h-6.3v.4c0 .6.2 1.1.6 1.5s.9.6 1.5.6 1.1-.1 1.5-.3c.4-.2.7-.6 1-1l1.3.7c-.4.7-1 1.3-1.6 1.6-.6.4-1.3.6-2.3.6zm2.9-5.3v-.1c0-.5-.2-.9-.6-1.2-.4-.4-.9-.5-1.5-.5s-1.2.2-1.6.6c-.5.4-.8.8-.9 1.4h4.6zm3.9-3.1h1.6l-.2 1.1h.1c.2-.4.6-.7 1.1-1 .5-.2 1-.4 1.5-.4.4 0 .7.1 1 .2l-.3 1.8c-.3-.2-.7-.3-1.2-.3-.6 0-1.2.2-1.7.7-.5.5-.8 1-.9 1.7l-.8 4.3h-1.7l1.5-8.1zm7.3 8.4c-.5 0-.9-.1-1.3-.3s-.7-.5-1-.9c-.2-.4-.4-.8-.4-1.3 0-.9.3-1.6 1-2.2.6-.5 1.6-.8 2.7-.8.4 0 .8 0 1.2.1.4.1.7.2 1 .3l.1-.4V45c0-.4-.2-.7-.5-1-.3-.3-.8-.4-1.3-.4-.9 0-1.6.3-2.1 1l-1.2-.9c.4-.5.9-.9 1.5-1.2.6-.3 1.3-.4 2-.4 1 0 1.8.2 2.4.8.6.5.9 1.1.9 2 0 .2 0 .5-.1.8l-.9 4.9h-1.7l.2-1h-.1c-.3.4-.6.7-1 .9-.3.3-.8.4-1.4.4zm.5-1.4c.7 0 1.2-.2 1.7-.6.5-.4.8-1 .9-1.6-.3-.2-.6-.3-.9-.4-.3-.1-.7-.1-1.1-.1-.6 0-1.1.1-1.4.4-.4.3-.5.6-.5 1.1 0 .4.1.7.4.9.2.2.5.3.9.3zm9.4 1.4c-.7 0-1.4-.2-1.9-.5-.6-.3-1-.8-1.3-1.4-.3-.6-.5-1.2-.5-1.9 0-.9.2-1.7.6-2.4.4-.8 1-1.3 1.7-1.8.7-.4 1.6-.7 2.5-.7.9 0 1.6.2 2.2.7.6.4 1 1 1.2 1.6l-1.6.6c-.2-.4-.4-.7-.8-1-.3-.2-.8-.4-1.2-.4-.5 0-1 .1-1.5.4-.4.3-.8.6-1 1.1-.3.5-.4 1-.4 1.6 0 .7.2 1.3.6 1.7.4.4.9.7 1.6.7.5 0 1-.1 1.4-.4.4-.2.7-.6.9-1l1.4.7c-.8 1.6-2.1 2.4-3.9 2.4zm8.3-.1c-.6 0-1.1-.2-1.5-.5-.4-.4-.6-.8-.6-1.5 0-.2 0-.4.1-.8l.7-4h-1.4l.3-1.5h1.4l.4-2.3h1.7l-.4 2.3h2L205 44h-2l-.7 3.9v.5c0 .2.1.4.2.6.2.1.4.2.6.2.4 0 .7-.1 1.1-.3l-.3 1.7c-.4.1-.8.2-1.3.2zm5.9-9.5c-.3 0-.6-.1-.8-.3-.2-.2-.3-.5-.3-.8 0-.3.1-.6.3-.8.2-.2.5-.3.8-.3.3 0 .6.1.8.3.2.2.3.5.3.8 0 .3-.1.6-.3.8-.3.2-.5.3-.8.3zm-1.3 1.2h1.7l-1.4 8.2h-1.7l1.4-8.2zm2.9 0h1.9l1.2 5.9h.1l3.4-5.9h1.9l-4.8 8.2H212l-1.9-8.2zm11.1-1.2c-.3 0-.6-.1-.8-.3-.2-.2-.3-.5-.3-.8 0-.3.1-.6.3-.8.2-.2.5-.3.8-.3.3 0 .6.1.8.3.2.2.3.5.3.8 0 .3-.1.6-.3.8-.2.2-.5.3-.8.3zm-1.3 1.2h1.7l-1.4 8.2h-1.7l1.4-8.2zm5.7 8.3c-.6 0-1.1-.2-1.5-.5-.4-.4-.6-.8-.6-1.5 0-.2 0-.4.1-.8l.7-4h-1.4l.3-1.5h1.4l.4-2.3h1.7l-.4 2.3h2L228 44h-2l-.7 3.9v.5c0 .2.1.4.2.6.2.1.4.2.6.2.4 0 .7-.1 1.1-.3l-.3 1.7c-.4.1-.8.2-1.3.2zm5.6-.7-2-7.7h1.9l1.4 5.6h.1l3.3-5.6h1.9L230.7 54h-1.9l2.4-3.9zm5.3 1.8c1.2-1.1 2.1-2.3 2.7-3.6.6-1.2.9-2.6.9-4.1 0-1-.1-1.9-.4-2.8-.2-.8-.6-1.6-1-2.4l1.3-.9c.5.8 1 1.7 1.3 2.7.4 1.1.5 2.2.5 3.4 0 1.6-.4 3.2-1.1 4.7-.8 1.5-1.8 2.8-3.1 3.8l-1.1-.8z" style="fill:#999"/><path d="M126.5 83.7h11.9v63h-11.9v-63zm26.3 63v-63h13.8l25.3 42.2h.7l-.7-12.1V83.7h11.8v63h-12.5l-26.8-44.6h-.7l.7 12.1v32.5h-11.6zM259 93.2c-1.9-3-4.5-5.3-7.7-7-3.2-1.7-6.8-2.5-10.9-2.5h-22.2v63H230v-23.2h10.4c4 0 7.7-.8 10.9-2.5 6.6-3.3 10.7-10 10.6-17.4 0-4-1-7.4-2.9-10.4m-9.9 14.7c-.7 1.3-1.9 2.5-3.2 3.2-1.4.8-3.1 1.2-5.2 1.2H230V95h10.7c2.1 0 3.8.3 5.2 1.2s2.5 1.9 3.2 3.2c1.5 2.7 1.5 5.9 0 8.5" style="fill:#2979ff"/><path d="M43.2 220.8h96v38.4h-96v-38.4z" style="fill-rule:evenodd;clip-rule:evenodd;fill:#0cce6b"/><path d="M77.2 244.7c-.6 0-1.2-.1-1.8-.3-.5-.2-1-.5-1.4-.9s-.7-.9-1-1.4c-.4-1.2-.4-2.4 0-3.6.2-.6.6-1 1-1.4s.9-.7 1.4-.9 1.1-.3 1.8-.3 1.3.1 1.8.3c.6.2 1 .6 1.4 1l-.9.9c-.2-.2-.4-.4-.6-.5s-.5-.3-.8-.3c-.3-.1-.6-.1-.9-.1-.4 0-.8.1-1.2.2-.4.1-.7.4-1 .6-.6.6-1 1.4-.9 2.3 0 .5.1.9.2 1.3.4.7 1 1.3 1.7 1.7.4.1.8.2 1.2.2s.8-.1 1.1-.2.6-.3.9-.5.5-.5.6-.8c.2-.3.3-.6.3-1h-2.9v-1.2h4.2v.7c.1 1.7-.9 3.2-2.5 3.8-.5.3-1.1.4-1.7.4m9.5 0c-.6 0-1.2-.1-1.8-.3-.5-.2-1-.5-1.4-1-.4-.4-.7-.9-.9-1.4-.4-1.2-.4-2.4 0-3.6.2-.5.5-1 .9-1.4s.9-.7 1.4-1c1.2-.4 2.4-.4 3.6 0 1 .5 1.9 1.3 2.3 2.4.4 1.2.4 2.4 0 3.6-.2.5-.5 1-.9 1.4s-.9.7-1.4 1c-.5.2-1.1.3-1.8.3m0-1.2c.6 0 1.1-.1 1.6-.4.5-.3.8-.7 1.1-1.1.3-.5.4-1.1.4-1.7s-.1-1.2-.4-1.7-.7-.9-1.1-1.1c-.5-.3-1-.4-1.6-.4s-1.1.1-1.6.4-.8.7-1.1 1.1c-.3.5-.4 1-.4 1.7 0 .6.1 1.2.4 1.7s.7.9 1.1 1.1c.5.3 1 .4 1.6.4m9.9 1.2c-.6 0-1.2-.1-1.8-.3-.5-.2-1-.5-1.4-1-.4-.4-.7-.9-.9-1.4-.4-1.2-.4-2.4 0-3.6.2-.5.5-1 .9-1.4s.9-.7 1.4-1c1.2-.4 2.4-.4 3.6 0 1 .5 1.9 1.3 2.3 2.4.4 1.2.4 2.4 0 3.6-.2.5-.5 1-.9 1.4s-.9.7-1.4 1c-.6.2-1.2.3-1.8.3m0-1.2c.6 0 1.1-.1 1.6-.4.5-.3.8-.7 1.1-1.1.3-.5.4-1.1.4-1.7s-.1-1.2-.4-1.7-.7-.9-1.1-1.1c-.5-.3-1-.4-1.6-.4s-1.1.1-1.6.4-.8.7-1.1 1.1c-.3.5-.4 1-.4 1.7 0 .6.1 1.2.4 1.7s.7.9 1.1 1.1c.5.3 1 .4 1.6.4m6 1.1V236h2.8c.9 0 1.7.2 2.3.5 1.3.8 2.1 2.2 2 3.7 0 .8-.2 1.6-.5 2.2-.4.6-.9 1.2-1.5 1.5-.6.4-1.4.5-2.3.5h-2.8v.2zm1.3-1.3h1.4c.6 0 1.2-.1 1.7-.4s.8-.6 1.1-1c.2-.5.4-1 .4-1.6s-.1-1.2-.4-1.6c-.2-.5-.6-.8-1.1-1-.5-.3-1-.4-1.7-.4h-1.4v6z"/><path d="M139.2 220.8h105.6v38.4H139.2v-38.4z" style="fill-rule:evenodd;clip-rule:evenodd;fill:#ffa400"/><path d="M174 237.6V229h1.6l3.9 6.3h.1l-.1-1.7v-4.7h1.3v8.6h-1.4l-4.1-6.6h-.1l.1 1.7v5H174zm13.9-7.4V229h-5.2v8.5h5.2v-1.2H184v-2.4h3.5v-1.2H184v-2.5h3.9zm6.9 0V229h-5.2v8.5h5.2v-1.2h-3.9v-2.4h3.5v-1.2h-3.5v-2.5h3.9zm8.2.8c-.3-.6-.8-1.1-1.5-1.5-.6-.3-1.4-.5-2.3-.5h-2.8v8.4h2.8c.9 0 1.7-.1 2.3-.5.6-.3 1.1-.9 1.5-1.5.3-.6.5-1.4.5-2.2s-.1-1.6-.5-2.2m-1.1 3.9c-.3.4-.6.8-1.1 1-.5.3-1.1.4-1.7.4h-1.4v-6h1.4c.7 0 1.2.2 1.7.4s.9.5 1.1 1c.3.4.4 1 .4 1.6s-.2 1.1-.4 1.6m5.7 2.8c-.5 0-.9-.1-1.3-.3-.4-.2-.8-.4-1.1-.8-.3-.4-.5-.8-.7-1.3l1.2-.5c.1.5.3.9.7 1.2.3.3.7.5 1.2.5.3 0 .5 0 .8-.1.2-.1.4-.2.6-.4.2-.2.2-.4.2-.7s-.1-.5-.2-.7c-.1-.2-.3-.3-.6-.5s-.6-.3-1-.5l-.5-.2c-.2-.1-.5-.2-.7-.3s-.5-.3-.7-.5-.4-.4-.5-.7-.2-.6-.2-.9c0-.4.1-.8.3-1.2s.5-.6.9-.8.9-.3 1.4-.3c.6 0 1 .1 1.4.3s.7.4.9.7.4.5.4.8l-1.2.5c0-.2-.1-.3-.2-.5s-.3-.3-.5-.4c-.2-.1-.4-.2-.8-.2-.2 0-.5.1-.7.2s-.4.2-.5.4-.2.3-.2.6.1.6.4.8c.3.2.6.4 1.1.5l.6.2c.3.1.6.2.8.3.3.1.5.3.7.5s.4.4.5.7.2.6.2 1-.1.8-.3 1.2c-.2.3-.4.6-.7.8s-.6.3-.9.4c-.3.1-.5.2-.8.2m-57.4 5.3h1.3v8.6h-1.3V243zm3.2 8.6V243h1.8l2.5 6.5h.1l2.5-6.5h1.8v8.6h-1.3v-4.9l.1-1.5h-.1l-2.5 6.4h-1l-2.5-6.4h-.1l.1 1.5v4.9h-1.4zm16-7.4c-.2-.4-.6-.7-1-.9s-.9-.3-1.4-.3h-3v8.5h1.4v-3.3h1.6c.5 0 1-.1 1.4-.3s.8-.5 1-.9c.3-.4.4-.9.4-1.4s-.1-1-.4-1.4m-1 2.1c-.1.2-.3.4-.5.5s-.5.2-.8.2h-1.7v-2.8h1.7c.3 0 .6.1.8.2.2.1.4.3.5.5.1.3.2.5.2.7 0 .3-.1.5-.2.7m6.6 1.7h.2c.4-.2.7-.4 1-.6s.5-.5.6-.8.2-.7.2-1c0-.6-.2-1-.4-1.4-.3-.4-.6-.7-1-.9s-.9-.3-1.4-.3h-3v8.6h1.2v-3.4h1.2l2.3 3.4h1.5v-.1L175 248zm-2.6-3.8h1.7c.3 0 .6.1.8.2s.4.3.5.5.2.5.2.7-.1.5-.2.7c-.1.2-.3.4-.5.5s-.4.2-.7.2h-1.8v-2.8zm14.2 1.2c-.4-1.1-1.3-1.9-2.3-2.4-1.2-.4-2.4-.4-3.6 0-.5.3-1 .6-1.4 1s-.7.9-.9 1.4c-.2.6-.3 1.1-.3 1.8s.1 1.3.3 1.8.5 1 .9 1.4c.4.5.9.8 1.4 1 1.2.4 2.4.4 3.6 0 .5-.3 1-.6 1.4-1s.7-.9.9-1.4c.2-.6.3-1.1.3-1.8s-.1-1.3-.3-1.8m-1.4 3.6c-.3.4-.6.8-1.1 1.1s-1 .4-1.6.4-1.1-.1-1.6-.4c-.4-.2-.8-.6-1.1-1.1s-.4-1.1-.4-1.7c0-.7.1-1.2.4-1.7.3-.4.6-.8 1.1-1.1s1-.4 1.6-.4 1.1.1 1.6.4c.4.2.8.6 1.1 1.1s.4 1.1.4 1.7c0 .6-.1 1.2-.4 1.7m5.2 2.6-3-8.6h1.4l1.9 5.7.3 1h.1l.3-1 2-5.7h1.4l-3.1 8.6h-1.3zm10.8-7.4V243H196v8.5h5.2v-1.2h-3.9v-2.4h3.5v-1.2h-3.5v-2.5h3.9zm1.7 7.4V243h1.8l2.5 6.5h.1l2.5-6.5h1.8v8.6h-1.4v-4.9l.1-1.5h-.1l-2.5 6.4h-1l-2.5-6.4h-.1l.1 1.5v4.9h-1.3zm15.8-7.4V243h-5.2v8.5h5.2v-1.2h-3.9v-2.4h3.5v-1.2h-3.5v-2.5h3.9zm1.6 7.4V243h1.6l3.9 6.3h.1l-.1-1.7v-4.7h1.3v8.6h-1.4l-4.1-6.6h-.1l.1 1.7v5h-1.3zm14.2-8.6h-6.1v1.2h2.4v7.4h1.3v-7.4h2.4V243z"/><path d="M244.8 220.8h95v38.4h-95v-38.4z" style="fill-rule:evenodd;clip-rule:evenodd;fill:#ff4e42"/><path d="M281.1 237.2c-.2-.4-.6-.7-1-.9s-.9-.3-1.4-.3h-3v8.5h1.4v-3.3h1.6c.5 0 1-.1 1.4-.3s.8-.5 1-.9c.3-.4.4-.9.4-1.4s-.1-1-.4-1.4m-1 2.1c-.1.2-.3.4-.5.5s-.5.2-.8.2h-1.7v-2.8h1.7c.3 0 .6.1.8.2.2.1.4.3.5.5.1.3.2.5.2.7 0 .3-.1.5-.2.7m10.7-.9c-.4-1.1-1.3-1.9-2.3-2.4-1.2-.4-2.4-.4-3.6 0-.5.3-1 .6-1.4 1s-.7.9-.9 1.4c-.2.6-.3 1.1-.3 1.8s.1 1.3.3 1.8c.2.5.5 1 .9 1.4.4.5.9.8 1.4 1 1.2.4 2.4.4 3.6 0 .5-.3 1-.6 1.4-1s.7-.9.9-1.4c.2-.6.3-1.1.3-1.8s-.1-1.3-.3-1.8m-1.4 3.6c-.3.4-.6.8-1.1 1.1-1 .5-2.2.5-3.2 0-.4-.2-.8-.6-1.1-1.1s-.4-1.1-.4-1.7c0-.7.1-1.2.4-1.7.3-.4.6-.8 1.1-1.1s1-.4 1.6-.4 1.1.1 1.6.4c.4.2.8.6 1.1 1.1s.4 1.1.4 1.7c0 .6-.1 1.2-.4 1.7m11.3-3.6c-.4-1.1-1.3-1.9-2.3-2.4-1.2-.4-2.4-.4-3.6 0-.5.3-1 .6-1.4 1s-.7.9-.9 1.4c-.2.6-.3 1.1-.3 1.8s.1 1.3.3 1.8c.2.5.5 1 .9 1.4.4.5.9.8 1.4 1 1.2.4 2.4.4 3.6 0 .5-.3 1-.6 1.4-1s.7-.9.9-1.4c.2-.6.3-1.1.3-1.8s-.1-1.3-.3-1.8m-1.4 3.6c-.3.4-.6.8-1.1 1.1s-1 .4-1.6.4-1.1-.1-1.6-.4c-.4-.2-.8-.6-1.1-1.1-.3-.5-.4-1.1-.4-1.7 0-.7.1-1.2.4-1.7.3-.4.6-.8 1.1-1.1s1-.4 1.6-.4 1.1.1 1.6.4c.4.2.8.6 1.1 1.1s.4 1.1.4 1.7c0 .6-.1 1.2-.4 1.7m7.1-1h.2c.4-.2.7-.4 1-.6s.5-.5.6-.8.2-.7.2-1c0-.6-.2-1-.4-1.4-.3-.4-.6-.7-1-.9s-.9-.3-1.4-.3h-3v8.6h1.2v-3.4h1.2l2.2 3.4h1.6v-.1l-2.4-3.5zm-2.6-3.8h1.7c.3 0 .6.1.8.2.2.1.4.3.5.5s.2.5.2.7-.1.5-.2.7-.3.4-.5.5-.4.2-.7.2h-1.8v-2.8z"/><path class="st7" d="M221.3 303.6c-.5 0-1-.1-1.5-.3-.5-.2-1-.5-1.4-1-.4-.4-.7-1-.8-1.7l1.5-.6c.1.6.4 1 .8 1.4.4.4.9.5 1.4.5 1.1 0 2.1-.9 2.1-2v-.1c0-1.1-.9-2.1-2-2.1h-.1c-.4 0-.7.1-1 .2-.3.1-.5.4-.7.6l-1.7-.8.7-5.5h5.9v1.6H220l-.4 2.9h.1c.2-.2.5-.3.8-.5 1-.3 2-.2 2.9.3.5.3 1 .7 1.3 1.3.7 1.2.7 2.6 0 3.8-.3.6-.8 1-1.3 1.3-.7.5-1.4.7-2.1.7m14.1-7.8c-.2-.7-.5-1.3-.9-1.8s-.8-.9-1.4-1.2c-.6-.3-1.2-.5-1.9-.5s-1.3.2-1.9.5c-.5.3-1 .7-1.4 1.2s-.7 1.1-.9 1.8c-.2.6-.3 1.4-.3 2.2 0 .8.1 1.5.3 2.2.2.7.5 1.3.9 1.8s.9.9 1.4 1.2c.6.3 1.2.4 1.9.4s1.3-.2 1.9-.4c.5-.3 1-.7 1.4-1.2s.7-1.1.9-1.8c.2-.6.3-1.4.3-2.2 0-.8-.1-1.5-.3-2.2m-1.6 4.1c-.3.6-.6 1.1-1 1.5-.5.3-.9.5-1.5.5s-1.1-.2-1.5-.5c-.4-.4-.7-.9-.9-1.5s-.3-1.3-.3-2.1.1-1.5.3-2.1c.2-.7.5-1.1.9-1.5.4-.3.9-.5 1.5-.5s1.1.1 1.5.5c.5.4.8.9 1 1.5s.3 1.3.3 2.1-.1 1.5-.3 2.1m12.2-4.1c-.2-.7-.5-1.3-.9-1.8s-.8-.9-1.4-1.2c-.6-.3-1.2-.5-1.9-.5s-1.3.2-1.9.5c-.5.3-1 .7-1.4 1.2s-.7 1.1-.9 1.8c-.2.6-.3 1.4-.3 2.2 0 .8.1 1.5.3 2.2.2.7.5 1.3.9 1.8s.9.9 1.4 1.2c.6.3 1.2.4 1.9.4s1.3-.2 1.9-.4c.5-.3 1-.7 1.4-1.2s.7-1.1.9-1.8c.2-.6.3-1.4.3-2.2 0-.8-.1-1.5-.3-2.2m-1.7 4.1c-.3.6-.6 1.1-1 1.5-.5.3-.9.5-1.5.5s-1.1-.2-1.5-.5c-.4-.4-.7-.9-.9-1.5s-.3-1.3-.3-2.1.1-1.5.3-2.1c.2-.7.5-1.1.9-1.5.4-.3.9-.5 1.5-.5s1.1.1 1.5.5c.5.4.8.9 1 1.5s.3 1.3.3 2.1-.1 1.5-.3 2.1m7.5 3.4v-8.2h1.6v1.1h.1c.2-.3.4-.5.6-.7.3-.2.6-.4.9-.5.3-.1.7-.2 1-.2.6 0 1.1.1 1.5.4.4.3.7.7.9 1.1.3-.4.6-.8 1.1-1.1.5-.3 1-.5 1.7-.5 1 0 1.7.3 2.1.9.5.6.7 1.4.7 2.3v5.2h-1.7v-4.9c0-.7-.1-1.1-.4-1.4s-.7-.5-1.2-.5c-.4 0-.7.1-1 .3-.3.2-.5.5-.7.9s-.2.8-.2 1.2v4.4h-1.7v-4.9c0-.7-.1-1.1-.4-1.4s-.7-.5-1.2-.5c-.4 0-.7.1-1 .3-.3.2-.5.5-.7.9s-.2.8-.2 1.2v4.4h-1.8v.2zm17.2.3c-.6 0-1.2-.1-1.7-.3-.5-.2-.9-.5-1.2-.8-.3-.3-.5-.7-.7-1.1l1.5-.7c.2.4.5.8.8 1 .4.2.8.3 1.2.3.4 0 .8-.1 1.1-.2.3-.2.5-.4.5-.8 0-.2-.1-.4-.2-.6-.1-.1-.3-.3-.6-.4-.2-.1-.5-.2-.8-.2l-1-.2c-.4-.1-.8-.3-1.1-.5-.3-.2-.6-.5-.8-.8-.2-.3-.3-.7-.3-1.1 0-.5.1-.9.4-1.3.3-.4.7-.6 1.1-.8.5-.2 1-.3 1.6-.3.5 0 1 .1 1.4.2s.8.3 1.1.6c.3.3.6.6.8 1l-1.5.7c-.2-.4-.4-.6-.7-.8-.3-.1-.6-.2-1-.2s-.7.1-1 .2c-.3.2-.4.4-.4.6 0 .3.1.5.4.7.2.2.5.3.9.4l1.2.3c.8.2 1.4.5 1.8.9s.6.9.6 1.5c0 .5-.2 1-.5 1.4s-.7.7-1.2.9c-.6.2-1.1.4-1.7.4m-156.8.1v-1.6s.2-.1.4-.4c.2-.2.5-.5.8-.9l1.1-1.1 1-1c.3-.3.5-.6.7-.8.3-.3.5-.6.7-.8.2-.2.3-.5.4-.7.1-.2.1-.5.1-.8 0-.3-.1-.5-.2-.8-.1-.3-.3-.4-.6-.6-.3-.1-.6-.2-1-.2s-.7.1-1 .2c-.3.1-.5.3-.6.6-.1.2-.3.4-.3.7l-1.5-.6c.1-.3.2-.5.4-.8.2-.3.4-.5.7-.8.3-.3.6-.5 1-.6.4-.2.9-.3 1.4-.2.7 0 1.3.2 1.9.5.5.3.9.7 1.2 1.2.3.5.4 1 .4 1.6 0 .5-.1.9-.2 1.3-.2.4-.4.8-.7 1.2-.3.4-.5.7-.8 1l-.5.5c-.2.2-.4.5-.7.7l-.7.7-.6.6-.4.4h4.8v1.6l-7.2-.1zm17.4-7.6c-.2-.7-.5-1.3-.9-1.8s-.8-.9-1.4-1.2c-.6-.3-1.2-.5-1.9-.5s-1.3.2-1.9.5c-.5.3-1 .7-1.4 1.2s-.7 1.1-.9 1.8c-.2.6-.3 1.4-.3 2.2 0 .8.1 1.5.3 2.2.2.7.5 1.3.9 1.8s.9.9 1.4 1.2c.6.3 1.2.4 1.9.4s1.3-.1 1.9-.4c.5-.3 1-.7 1.4-1.2s.7-1.1.9-1.8c.2-.6.3-1.4.3-2.2 0-.8-.1-1.5-.3-2.2m-1.7 4.2c-.3.6-.6 1.1-1 1.5-.5.3-.9.5-1.5.5s-1.1-.2-1.5-.5c-.4-.4-.7-.9-.9-1.5-.2-.6-.3-1.3-.3-2.1s.1-1.5.3-2.1c.2-.7.5-1.1.9-1.5.4-.3.9-.5 1.5-.5s1.1.1 1.5.5c.5.4.8.9 1 1.5s.3 1.3.3 2.1-.1 1.5-.3 2.1m12.2-4.2c-.2-.7-.5-1.3-.9-1.8s-.8-.9-1.4-1.2c-.6-.3-1.2-.5-1.9-.5s-1.3.2-1.9.5c-.5.3-1 .7-1.4 1.2s-.7 1.1-.9 1.8c-.2.6-.3 1.4-.3 2.2 0 .8.1 1.5.3 2.2.2.7.5 1.3.9 1.8s.9.9 1.4 1.2c.6.3 1.2.4 1.9.4s1.3-.1 1.9-.4c.5-.3 1-.7 1.4-1.2s.7-1.1.9-1.8c.2-.6.3-1.4.3-2.2 0-.8-.1-1.5-.3-2.2m-1.7 4.2c-.3.6-.6 1.1-1 1.5-.5.3-.9.5-1.5.5-.5 0-1-.2-1.5-.5-.4-.4-.7-.9-.9-1.5s-.3-1.3-.3-2.1.1-1.5.3-2.1c.2-.7.5-1.1.9-1.5.4-.3.9-.5 1.5-.5s1.1.1 1.5.5c.5.4.8.9 1 1.5s.3 1.3.3 2.1-.1 1.5-.3 2.1m7.5 3.4v-8.2h1.6v1.1h.1c.2-.3.4-.5.6-.7.3-.2.6-.4.9-.5s.7-.2 1-.2c.6 0 1.1.1 1.5.4s.7.7.9 1.1c.3-.4.6-.8 1.1-1.1.5-.3 1-.5 1.7-.5 1 0 1.7.3 2.1.9.5.6.7 1.4.7 2.3v5.2h-1.7v-4.9c0-.7-.1-1.1-.4-1.4-.3-.3-.7-.5-1.2-.5-.4 0-.7.1-1 .3-.3.2-.5.5-.7.9s-.2.8-.2 1.2v4.4h-1.7v-4.9c0-.7-.1-1.1-.4-1.4-.3-.3-.7-.5-1.2-.5-.4 0-.7.1-1 .3-.3.2-.5.5-.7.9s-.2.8-.2 1.2v4.4h-1.8v.2zm17.2.2c-.6 0-1.2-.1-1.7-.3-.5-.2-.9-.5-1.2-.8-.3-.3-.5-.7-.7-1.1l1.5-.7c.2.4.5.8.8 1 .4.2.8.3 1.2.3s.8-.1 1.1-.2c.3-.2.5-.4.5-.8 0-.2-.1-.4-.2-.6-.1-.1-.3-.3-.6-.4-.2-.1-.5-.2-.8-.2l-1-.2c-.4-.1-.8-.3-1.1-.5-.3-.2-.6-.5-.8-.8-.2-.3-.3-.7-.3-1.1 0-.5.1-.9.4-1.3.3-.4.7-.6 1.1-.8.5-.2 1-.3 1.6-.3.5 0 1 .1 1.4.2.4.1.8.3 1.1.6.3.3.6.6.8 1l-1.5.7c-.2-.4-.4-.6-.7-.8-.3-.1-.6-.2-1-.2s-.7.1-1 .2c-.3.2-.4.4-.4.6 0 .3.1.5.4.7.2.2.5.3.9.4l1.2.3c.8.2 1.4.5 1.8.9s.6.9.6 1.5c0 .5-.2 1-.5 1.4s-.7.7-1.2.9c-.5.3-1.1.4-1.7.4"/><path d="M85.6 165.7h1.7V180h-1.7v-14.3zm4.6 14.3v-10.2h1.6v1.5h.1c.3-.5.7-.9 1.3-1.3.6-.4 1.3-.5 2-.5 1.2 0 2.2.4 2.8 1.1s1 1.7 1 2.9v6.5h-1.7v-6.3c0-1-.2-1.7-.7-2.1-.5-.4-1.1-.6-1.8-.6-.6 0-1.1.2-1.5.5s-.8.7-1 1.2-.4 1-.4 1.6v5.7h-1.7zm16-8.7v-1.5h-2.5V167H102v2.8h-1.8v1.5h1.8v6c0 .9.2 1.6.7 2.2.6.6 1.2.8 2.1.8.3 0 .6 0 .8-.1.2-.1.4-.1.6-.2v-1.7c-.1 0-.3.1-.5.2s-.4.1-.6.1c-.5 0-.9-.1-1.1-.4-.2-.3-.3-.7-.3-1.2v-5.7h2.5zm10.9 3.3c0-1-.2-1.9-.6-2.7-.4-.7-1-1.4-1.7-1.8-.7-.5-1.6-.7-2.6-.7s-1.9.3-2.6.8c-1.5 1.1-2.4 2.8-2.3 4.7 0 1.1.2 2 .6 2.8s1 1.4 1.8 1.9c.7.5 1.6.7 2.6.7 1.9.1 3.7-1 4.6-2.7l-1.4-.7c-.3.5-.7.9-1.2 1.3-.4.3-1 .5-1.8.5-1.2 0-2.4-.6-3-1.7-.3-.5-.4-1.1-.5-1.9h8.1v-.5zm-8-.9.3-.9c.3-.6.6-1.1 1.1-1.4s1-.5 1.7-.5c.6 0 1 .1 1.4.3.3.2.7.4.9.7.2.3.4.6.5.9s.2.6.2.9h-6.1zm9.9 6.3v-10.2h1.6v1.6h.1c.1-.4.4-.7.7-1 .3-.3.7-.5 1.1-.7s.8-.2 1.2-.2h.7c.2 0 .3.1.5.2v1.8c-.2-.1-.5-.2-.7-.2-.2-.1-.5-.1-.7-.1-.5 0-1 .1-1.4.4s-.7.7-1 1.1c-.2.5-.4 1-.4 1.5v5.7l-1.7.1zm14.2-9.4c-.7-.7-1.8-1.1-3.2-1.1-.5 0-1.1 0-1.6.2s-1 .4-1.4.7c-.4.3-.7.6-1 1l1.3 1c.2-.4.6-.8 1.1-1 .5-.3 1-.4 1.6-.4.8 0 1.5.2 2 .7.5.4.8 1 .8 1.8v.6c-.2-.1-.4-.2-.7-.3l-1-.3c-.3-.1-.8-.1-1.2-.1-.8 0-1.5.1-2.2.4-.6.3-1.1.7-1.5 1.2s-.6 1.1-.6 1.9c0 .7.2 1.3.5 1.8s.7.9 1.3 1.2c.6.3 1.2.4 2 .4.5 0 1 0 1.5-.2.4-.2.8-.5 1.1-.7s.5-.5.7-.8h.1v1.5h1.6v-6.5c0-1.3-.4-2.3-1.2-3m-.9 6.6c-.3.5-.7.9-1.2 1.2-.5.3-1 .4-1.6.4s-1.2 0-1.6-.4c-.4-.4-.6-.8-.6-1.4 0-.6.3-1.1.7-1.5.4-.4 1.1-.6 2.1-.6.5 0 1 .1 1.5.2s.9.3 1.2.5c0 .6-.2 1.1-.5 1.6m9 3.1c-1.9.1-3.6-1-4.5-2.6-.4-.8-.7-1.7-.7-2.8 0-1 .2-2 .7-2.8.9-1.6 2.6-2.7 4.5-2.6 1.9-.1 3.7 1 4.4 2.8l-1.5.6c-.2-.6-.6-1.1-1.1-1.4s-1.1-.5-1.8-.5c-.6 0-1.2.2-1.7.5s-.9.8-1.2 1.4c-1 1.8-.5 4.1 1.2 5.4.5.3 1.1.5 1.7.5.7 0 1.3-.2 1.9-.5.6-.3.9-.8 1.2-1.4l1.5.6c-.3.8-.9 1.5-1.6 2-.7.5-1.9.8-3 .8m11.5-9v-1.5h-2.6V167h-1.7v2.8h-1.7v1.5h1.7v6c0 .9.1 1.6.7 2.2s1.2.8 2.1.8c.3 0 .6 0 .8-.1s.4-.1.6-.2v-1.7c-.1 0-.3.1-.5.2s-.4.1-.6.1c-.5 0-.9-.1-1.1-.4-.2-.3-.3-.7-.3-1.2v-5.7h2.6zm2.2-1.5h1.7V180H155v-10.2zm.9-1.8c-.3 0-.6-.1-.9-.4-.3-.3-.4-.5-.4-.9 0-.3.1-.6.4-.9.2-.2.5-.4.9-.4.3 0 .6.1.9.4.2.2.4.5.4.9 0 .3-.1.6-.4.9-.3.2-.6.4-.9.4m12.7 4.1c-.5-.9-1.1-1.5-1.9-2s-1.7-.7-2.7-.7-1.9.2-2.7.7c-1.6 1.1-2.5 2.9-2.5 4.8 0 1.1.3 2 .7 2.8.4.8 1 1.4 1.8 1.9s1.7.7 2.7.7 1.9-.2 2.7-.8c.8-.4 1.5-1.1 1.9-1.9.5-.9.7-1.8.7-2.8s-.2-1.8-.7-2.7M167 177c-.3.5-.8 1-1.3 1.3s-1.1.5-1.7.5-1.2-.1-1.7-.5c-.5-.3-1-.7-1.3-1.3-.7-1.3-.7-2.9 0-4.2.3-.6.8-1 1.3-1.3s1.1-.5 1.7-.5 1.2.2 1.7.5 1 .7 1.3 1.3c.7 1.4.7 2.9 0 4.2m4 3v-10.2h1.6v1.5h.1c.3-.5.7-.9 1.3-1.3.6-.4 1.3-.5 2-.5 1.2 0 2.2.4 2.8 1.1s1 1.7 1 2.9v6.5h-1.7v-6.3c0-1-.2-1.7-.7-2.1-.5-.4-1.1-.6-1.8-.6-.6 0-1.1.2-1.5.5s-.8.7-1 1.2-.4 1-.4 1.6v5.7H171zm21.2-8.7v-1.5h-2.6V167h-1.7v2.8h-1.7v1.5h1.7v6c0 .9.3 1.6.7 2.2.6.6 1.2.8 2.1.8.3 0 .6 0 .8-.1s.4-.1.6-.2v-1.7c-.1 0-.3.1-.5.2s-.4.1-.6.1c-.5 0-.9-.1-1.1-.4-.2-.3-.3-.7-.3-1.2v-5.7h2.6zm10.8.8c-.5-.9-1.1-1.5-1.9-2-.8-.5-1.7-.7-2.7-.7s-1.9.2-2.7.7c-1.6 1.1-2.5 2.9-2.5 4.8 0 1.1.3 2 .7 2.8s1 1.4 1.8 1.9 1.7.7 2.7.7 1.9-.2 2.7-.8c.8-.4 1.5-1.1 1.9-1.9.5-.9.7-1.8.7-2.8s-.3-1.9-.7-2.7m-1.6 4.9c-.3.5-.8 1-1.3 1.3s-1.1.5-1.7.5-1.2-.1-1.7-.5c-.5-.3-1-.7-1.3-1.3-.7-1.3-.7-2.9 0-4.2.3-.6.8-1 1.3-1.3s1.1-.5 1.7-.5c.6 0 1.2.2 1.7.5s1 .7 1.3 1.3c.7 1.4.7 2.9 0 4.2m9.2 3v-14.3h2.1l7.2 11.4h.1l-.1-2.8v-8.6h1.7V180h-1.8l-7.5-11.9h-.1l.1 2.8v9.2h-1.7v-.1zm23-5.4c0-1-.2-1.9-.6-2.7-.4-.7-1-1.4-1.7-1.8-.7-.5-1.6-.7-2.6-.7s-1.9.3-2.6.8c-1.5 1.1-2.4 2.8-2.3 4.7 0 1.1.2 2 .6 2.8.4.8 1 1.4 1.8 1.9.7.5 1.6.7 2.6.7 1.1 0 2-.2 3-.8.7-.5 1.3-1.1 1.7-1.9l-1.4-.7c-.3.5-.7.9-1.2 1.3-.4.3-1 .5-1.8.5-1.2 0-2.4-.6-3-1.7-.3-.5-.4-1.1-.5-1.9h8v-.5zm-7.9-.9.3-.9c.3-.6.6-1.1 1.1-1.4s1-.5 1.7-.5c.6 0 1 .1 1.4.3.3.2.7.4.9.7.2.3.4.6.5.9s.2.6.2.9h-6.1zm17.9 6.3-3.7-5.2 3.6-5h-2l-2.5 3.8-2.7-3.8h-1.9l3.6 4.9-3.7 5.3h2l2.7-4 2.6 4h2zm6.2-1.5c-.2.1-.4.1-.6.1-.5 0-.9-.1-1.1-.4-.2-.3-.3-.7-.3-1.2v-5.7h2.5v-1.5h-2.5V167h-1.7v2.8h-1.8v1.5h1.8v6c0 .9.3 1.6.7 2.2.6.6 1.2.8 2.1.8.3 0 .6 0 .8-.1s.4-.1.6-.2v-1.7c-.1 0-.3.1-.5.2m16.1-10.8c-.4-.7-.9-1.1-1.6-1.5-.7-.3-1.4-.5-2.2-.5h-4.8V180h1.7v-5.9h3.1c1.5.1 3-.7 3.8-2 .4-.6.6-1.4.6-2.2 0-.8-.2-1.6-.6-2.2m-1.4 3.4c-.2.4-.5.7-.9 1s-.8.4-1.4.4H259v-5.2h3.2c.5 0 1 .1 1.4.4s.7.6.9 1c.2.4.3.8.3 1.2s-.1.8-.3 1.2m10.7-.5c-.7-.7-1.8-1.1-3.2-1.1-.5 0-1.1 0-1.6.2s-1 .4-1.4.7-.7.6-1 1l1.3 1c.2-.4.6-.8 1.1-1 .5-.3 1-.4 1.6-.4.8 0 1.5.2 2 .7.5.4.8 1 .8 1.8v.6c-.2-.1-.4-.2-.7-.3l-1-.3c-.3-.1-.8-.1-1.2-.1-.8 0-1.5.1-2.2.4-.6.3-1.1.7-1.5 1.2s-.6 1.1-.6 1.9c0 .7.2 1.3.5 1.8s.7.9 1.3 1.2 1.2.4 2 .4c.5 0 .9 0 1.5-.2.4-.2.8-.5 1.1-.7.3-.2.5-.5.7-.8h.1v1.5h1.6v-6.5c0-1.3-.4-2.3-1.2-3m-.9 6.6c-.3.5-.7.9-1.2 1.2-.5.3-1 .4-1.6.4s-1.2 0-1.6-.4c-.4-.4-.6-.8-.6-1.4 0-.6.3-1.1.7-1.5.4-.4 1.1-.6 2.1-.6.5 0 1 .1 1.5.2s.9.3 1.2.5c0 .6-.2 1.1-.5 1.6m4.6-7.4h1.7V180h-1.7v-10.2zm.8-1.8c-.3 0-.6-.1-.9-.4s-.4-.5-.4-.9c0-.3.1-.6.4-.9.2-.2.5-.4.9-.4.3 0 .6.1.9.4.2.2.4.5.4.9 0 .3-.1.6-.4.9-.2.2-.5.4-.9.4m3.5 12v-10.2h1.6v1.5h.1c.3-.5.7-.9 1.3-1.3.6-.4 1.3-.5 2-.5 1.2 0 2.2.4 2.8 1.1.6.7 1 1.7 1 2.9v6.5h-1.7v-6.3c0-1-.2-1.7-.7-2.1-.5-.4-1.1-.6-1.8-.6-.6 0-1.1.2-1.5.5s-.8.7-1 1.2-.4 1-.4 1.6v5.7h-1.7zm16.1-8.7v-1.5h-2.6V167H295v2.8h-1.7v1.5h1.7v6c0 .9.1 1.6.7 2.2.6.6 1.2.8 2.1.8.3 0 .6 0 .8-.1.2-.1.4-.1.6-.2v-1.7c-.1 0-.3.1-.5.2s-.4.1-.6.1c-.5 0-.9-.1-1.1-.4-.2-.3-.3-.7-.3-1.2v-5.7h2.6z" style="fill:#666"/><path class="st7" d="M139.2 256.5c-2.4 0-4.3 1.9-4.3 4.3 0 2 1.4 3.7 3.3 4.2v20.1h2V265c1.9-.5 3.3-2.2 3.3-4.2 0-2.3-1.9-4.3-4.3-4.3m105.6-.2c-2.4 0-4.3 1.9-4.3 4.3 0 2 1.4 3.7 3.3 4.2v19.8h2v-19.8c1.9-.5 3.3-2.2 3.3-4.2 0-2.4-1.9-4.3-4.3-4.3"/></svg>