<?xml version="1.0" encoding="UTF-8" standalone="no"?>
<!DOCTYPE svg PUBLIC "-//W3C//DTD SVG 1.1//EN" "http://www.w3.org/Graphics/SVG/1.1/DTD/svg11.dtd">
<svg width="100%" height="100%" viewBox="0 0 947 767" version="1.1" xmlns="http://www.w3.org/2000/svg" xmlns:xlink="http://www.w3.org/1999/xlink" xml:space="preserve" xmlns:serif="http://www.serif.com/" style="fill-rule:evenodd;clip-rule:evenodd;stroke-linecap:square;stroke-miterlimit:1.5;">
    <g transform="matrix(1,0,0,1,0,-1252)">
        <g id="Tangent-Frame" serif:id="Tangent Frame" transform="matrix(0.561621,0,0,0.890088,-1063.85,1252.8)">
            <rect x="1894.26" y="0" width="1685.92" height="860.161" style="fill:none;"/>
            <g transform="matrix(1.78056,0,0,1.12348,493.386,-435.522)">
                <path d="M1183.54,758.295L1208.78,772.642L1194.65,797.327" style="fill:none;stroke:black;stroke-width:4.17px;"/>
            </g>
            <g transform="matrix(0.053773,1.12297,-1.77975,0.0339293,3990.73,-983.545)">
                <path d="M1183.54,758.295L1208.78,772.642L1191.75,795.105" style="fill:none;stroke:black;stroke-width:4.17px;"/>
            </g>
            <g transform="matrix(0.053773,1.12297,-1.77975,0.0339293,3990.73,-983.545)">
                <path d="M1183.54,758.295L1208.78,772.642L1191.75,795.105" style="fill:none;stroke:black;stroke-width:4.17px;"/>
            </g>
            <g transform="matrix(-1.62112,0.464685,-0.736459,-1.02288,5264.11,639.87)">
                <path d="M1183.54,758.295L1208.78,772.642L1186.29,788.778" style="fill:none;stroke:black;stroke-width:4.17px;"/>
            </g>
            <g id="Surface" transform="matrix(4.66319,0,0,2.94234,-2942.93,-1770.04)">
                <path d="M1082.84,860.598C1101.04,780.525 1149.26,709.684 1204.41,652.908C1290.42,635.67 1332.06,650.542 1364.76,658.536C1292.1,731.687 1267.24,764.863 1245.69,855.392C1161.53,838.606 1082.53,861.972 1082.84,860.598Z" style="fill:none;stroke:black;stroke-width:1.59px;stroke-linecap:round;"/>
            </g>
            <g transform="matrix(3.90018,0,0,2.46091,-2067.16,-1441.25)">
                <circle cx="1218.3" cy="758.295" r="5.502"/>
            </g>
            <g transform="matrix(1.78056,0,0,1.12348,522.323,-427.086)">
                <g transform="matrix(1,-0,-0,1,770.507,379.346)">
                    <path d="M236.495,265.19L214.253,226.392L258.637,231.877C244.773,234.67 233.702,251.326 236.495,265.19Z"/>
                    <path d="M443.773,378.949C443.773,378.949 301.375,284.3 240.903,244.105" style="fill:none;stroke:black;stroke-width:8.33px;stroke-linecap:round;stroke-linejoin:round;"/>
                </g>
            </g>
            <g transform="matrix(0.151469,1.11941,-1.77411,0.0955727,3845.79,-1006.91)">
                <g transform="matrix(0.0850681,-0.996375,0.996375,0.0850681,798.954,1168.22)">
                    <path d="M539.487,162.744L576.253,137.283L574.562,181.972C570.6,168.397 553.063,158.783 539.487,162.744Z"/>
                    <path d="M443.773,378.949C443.773,378.949 525.966,229.016 560.87,165.343" style="fill:none;stroke:black;stroke-width:8.33px;stroke-linecap:round;stroke-linejoin:round;"/>
                </g>
            </g>
            <g transform="matrix(-1.5592,0.542529,-0.85983,-0.983809,5229.73,512.082)">
                <g transform="matrix(-0.875676,-0.482898,0.482898,-0.875676,1419.89,1304.43)">
                    <path d="M680.216,378.47L718.428,401.705L676.913,418.334C687.705,409.193 689.356,389.262 680.216,378.47Z"/>
                    <path d="M443.773,378.949C443.773,378.949 614.173,393.067 686.537,399.062" style="fill:none;stroke:black;stroke-width:8.33px;stroke-linecap:round;stroke-linejoin:round;"/>
                </g>
            </g>
            <g transform="matrix(1.78056,0,0,1.12348,522.323,-427.086)">
                <g transform="matrix(1,0,0,1,208.464,167.46)">
                    <text x="727.363px" y="441.028px" style="font-size:45px;">N</text>
                </g>
                <g transform="matrix(1,0,0,1,0,33.2969)">
                    <g transform="matrix(1,-0,-0,1,770.507,346.049)">
                        <path d="M185.349,177.216L195.43,182.049L185.515,187.214C187.973,184.673 187.89,179.674 185.349,177.216Z"/>
                        <path d="M168.705,182.492C168.705,182.492 179.558,182.312 187.431,182.182" style="fill:none;stroke:black;stroke-width:3.33px;stroke-linecap:butt;stroke-linejoin:round;"/>
                    </g>
                </g>
            </g>
            <g transform="matrix(1.78056,0,0,1.12348,1537.39,-218.357)">
                <g transform="matrix(1,0,0,1,208.464,167.46)">
                    <text x="727.363px" y="441.028px" style="font-size:45px;">T</text>
                </g>
                <g transform="matrix(1,0,0,1,0,33.2969)">
                    <g transform="matrix(1,-0,-0,1,200.425,160.262)">
                        <path d="M755.43,363.003L765.512,367.836L755.596,373.002C758.054,370.46 757.971,365.461 755.43,363.003Z"/>
                        <path d="M738.786,368.28C738.786,368.28 749.639,368.1 757.513,367.969" style="fill:none;stroke:black;stroke-width:3.33px;stroke-linecap:butt;stroke-linejoin:round;"/>
                    </g>
                </g>
            </g>
            <g transform="matrix(1.78056,0,0,1.12348,1197.71,-561.81)">
                <g transform="matrix(1,0,0,1,208.464,167.46)">
                    <text x="727.363px" y="441.028px" style="font-size:45px;">B</text>
                </g>
                <g transform="matrix(1,0,0,1,0,33.2969)">
                    <g transform="matrix(1,-0,-0,1,391.198,465.965)">
                        <path d="M564.657,57.299L574.739,62.133L564.823,67.298C567.282,64.757 567.199,59.758 564.657,57.299Z"/>
                        <path d="M548.014,62.576C548.014,62.576 558.866,62.396 566.74,62.265" style="fill:none;stroke:black;stroke-width:3.33px;stroke-linecap:butt;stroke-linejoin:round;"/>
                    </g>
                </g>
            </g>
            <g transform="matrix(1.78056,0,0,1.12348,2085.9,-1407.5)">
                <g transform="matrix(1,-0,-0,1,-107.632,1252)">
                    <path d="M615.686,124.672L636.205,119.218L633.348,140.257L615.686,124.672Z" style="fill:none;stroke:black;stroke-width:2.08px;stroke-linecap:butt;stroke-linejoin:miter;stroke-miterlimit:10;"/>
                    <path d="M325.228,650.071C378.439,456.296 488.164,288.306 624.517,132.464" style="fill:none;stroke:black;stroke-width:2.08px;stroke-dasharray:8.72,8.44,0,0;"/>
                </g>
            </g>
            <g transform="matrix(1.78056,0,0,1.12348,2085.9,-1407.5)">
                <g transform="matrix(1,-0,-0,1,-107.632,1252)">
                    <path d="M619.706,399.128L634.075,414.759L614.12,422.01L619.706,399.128Z" style="fill:none;stroke:black;stroke-width:2.08px;stroke-linecap:butt;stroke-linejoin:miter;stroke-miterlimit:10;"/>
                    <path d="M256.351,365.418C391.051,367.345 508.633,384.751 616.913,410.569" style="fill:none;stroke:black;stroke-width:2.08px;stroke-dasharray:8.72,8.44,0,0;"/>
                </g>
            </g>
            <g transform="matrix(1.78056,0,0,1.12348,1948.1,-1392.52)">
                <text x="260.079px" y="1869.2px" style="font-size:45px;">v</text>
            </g>
            <g transform="matrix(1.78056,0,0,1.12348,2077.12,-1409.7)">
                <text x="156.275px" y="1659.5px" style="font-size:45px;">u</text>
            </g>
        </g>
    </g>
</svg>
