<?xml version="1.0" encoding="utf-8" standalone="no"?>
<!DOCTYPE svg PUBLIC "-//W3C//DTD SVG 1.1//EN"
  "http://www.w3.org/Graphics/SVG/1.1/DTD/svg11.dtd">
<svg xmlns:xlink="http://www.w3.org/1999/xlink" width="460.8pt" height="345.6pt" viewBox="0 0 460.8 345.6" xmlns="http://www.w3.org/2000/svg" version="1.1">
 <metadata>
  <rdf:RDF xmlns:dc="http://purl.org/dc/elements/1.1/" xmlns:cc="http://creativecommons.org/ns#" xmlns:rdf="http://www.w3.org/1999/02/22-rdf-syntax-ns#">
   <cc:Work>
    <dc:type rdf:resource="http://purl.org/dc/dcmitype/StillImage"/>
    <dc:date>2025-11-01T23:55:17.157751</dc:date>
    <dc:format>image/svg+xml</dc:format>
    <dc:creator>
     <cc:Agent>
      <dc:title>Matplotlib v3.10.7, https://matplotlib.org/</dc:title>
     </cc:Agent>
    </dc:creator>
   </cc:Work>
  </rdf:RDF>
 </metadata>
 <defs>
  <style type="text/css">*{stroke-linejoin: round; stroke-linecap: butt}</style>
 </defs>
 <g id="figure_1">
  <g id="patch_1">
   <path d="M 0 345.6 
L 460.8 345.6 
L 460.8 0 
L 0 0 
z
" style="fill: #ffffff"/>
  </g>
  <g id="axes_1">
   <g id="patch_2">
    <path d="M 57.6 307.584 
L 414.72 307.584 
L 414.72 41.472 
L 57.6 41.472 
z
" style="fill: #ffffff"/>
   </g>
   <g id="matplotlib.axis_1">
    <g id="xtick_1">
     <g id="line2d_1">
      <defs>
       <path id="meac1e20243" d="M 0 0 
L 0 3.5 
" style="stroke: #000000; stroke-width: 0.8"/>
      </defs>
      <g>
       <use xlink:href="#meac1e20243" x="73.832727" y="307.584" style="stroke: #000000; stroke-width: 0.8"/>
      </g>
     </g>
     <g id="text_1">
      <!-- 0 -->
      <g transform="translate(70.651477 322.182437) scale(0.1 -0.1)">
       <defs>
        <path id="DejaVuSans-30" d="M 2034 4250 
Q 1547 4250 1301 3770 
Q 1056 3291 1056 2328 
Q 1056 1369 1301 889 
Q 1547 409 2034 409 
Q 2525 409 2770 889 
Q 3016 1369 3016 2328 
Q 3016 3291 2770 3770 
Q 2525 4250 2034 4250 
z
M 2034 4750 
Q 2819 4750 3233 4129 
Q 3647 3509 3647 2328 
Q 3647 1150 3233 529 
Q 2819 -91 2034 -91 
Q 1250 -91 836 529 
Q 422 1150 422 2328 
Q 422 3509 836 4129 
Q 1250 4750 2034 4750 
z
" transform="scale(0.015625)"/>
       </defs>
       <use xlink:href="#DejaVuSans-30"/>
      </g>
     </g>
    </g>
    <g id="xtick_2">
     <g id="line2d_2">
      <g>
       <use xlink:href="#meac1e20243" x="138.763636" y="307.584" style="stroke: #000000; stroke-width: 0.8"/>
      </g>
     </g>
     <g id="text_2">
      <!-- 200 -->
      <g transform="translate(129.219886 322.182437) scale(0.1 -0.1)">
       <defs>
        <path id="DejaVuSans-32" d="M 1228 531 
L 3431 531 
L 3431 0 
L 469 0 
L 469 531 
Q 828 903 1448 1529 
Q 2069 2156 2228 2338 
Q 2531 2678 2651 2914 
Q 2772 3150 2772 3378 
Q 2772 3750 2511 3984 
Q 2250 4219 1831 4219 
Q 1534 4219 1204 4116 
Q 875 4013 500 3803 
L 500 4441 
Q 881 4594 1212 4672 
Q 1544 4750 1819 4750 
Q 2544 4750 2975 4387 
Q 3406 4025 3406 3419 
Q 3406 3131 3298 2873 
Q 3191 2616 2906 2266 
Q 2828 2175 2409 1742 
Q 1991 1309 1228 531 
z
" transform="scale(0.015625)"/>
       </defs>
       <use xlink:href="#DejaVuSans-32"/>
       <use xlink:href="#DejaVuSans-30" transform="translate(63.623047 0)"/>
       <use xlink:href="#DejaVuSans-30" transform="translate(127.246094 0)"/>
      </g>
     </g>
    </g>
    <g id="xtick_3">
     <g id="line2d_3">
      <g>
       <use xlink:href="#meac1e20243" x="203.694545" y="307.584" style="stroke: #000000; stroke-width: 0.8"/>
      </g>
     </g>
     <g id="text_3">
      <!-- 400 -->
      <g transform="translate(194.150795 322.182437) scale(0.1 -0.1)">
       <defs>
        <path id="DejaVuSans-34" d="M 2419 4116 
L 825 1625 
L 2419 1625 
L 2419 4116 
z
M 2253 4666 
L 3047 4666 
L 3047 1625 
L 3713 1625 
L 3713 1100 
L 3047 1100 
L 3047 0 
L 2419 0 
L 2419 1100 
L 313 1100 
L 313 1709 
L 2253 4666 
z
" transform="scale(0.015625)"/>
       </defs>
       <use xlink:href="#DejaVuSans-34"/>
       <use xlink:href="#DejaVuSans-30" transform="translate(63.623047 0)"/>
       <use xlink:href="#DejaVuSans-30" transform="translate(127.246094 0)"/>
      </g>
     </g>
    </g>
    <g id="xtick_4">
     <g id="line2d_4">
      <g>
       <use xlink:href="#meac1e20243" x="268.625455" y="307.584" style="stroke: #000000; stroke-width: 0.8"/>
      </g>
     </g>
     <g id="text_4">
      <!-- 600 -->
      <g transform="translate(259.081705 322.182437) scale(0.1 -0.1)">
       <defs>
        <path id="DejaVuSans-36" d="M 2113 2584 
Q 1688 2584 1439 2293 
Q 1191 2003 1191 1497 
Q 1191 994 1439 701 
Q 1688 409 2113 409 
Q 2538 409 2786 701 
Q 3034 994 3034 1497 
Q 3034 2003 2786 2293 
Q 2538 2584 2113 2584 
z
M 3366 4563 
L 3366 3988 
Q 3128 4100 2886 4159 
Q 2644 4219 2406 4219 
Q 1781 4219 1451 3797 
Q 1122 3375 1075 2522 
Q 1259 2794 1537 2939 
Q 1816 3084 2150 3084 
Q 2853 3084 3261 2657 
Q 3669 2231 3669 1497 
Q 3669 778 3244 343 
Q 2819 -91 2113 -91 
Q 1303 -91 875 529 
Q 447 1150 447 2328 
Q 447 3434 972 4092 
Q 1497 4750 2381 4750 
Q 2619 4750 2861 4703 
Q 3103 4656 3366 4563 
z
" transform="scale(0.015625)"/>
       </defs>
       <use xlink:href="#DejaVuSans-36"/>
       <use xlink:href="#DejaVuSans-30" transform="translate(63.623047 0)"/>
       <use xlink:href="#DejaVuSans-30" transform="translate(127.246094 0)"/>
      </g>
     </g>
    </g>
    <g id="xtick_5">
     <g id="line2d_5">
      <g>
       <use xlink:href="#meac1e20243" x="333.556364" y="307.584" style="stroke: #000000; stroke-width: 0.8"/>
      </g>
     </g>
     <g id="text_5">
      <!-- 800 -->
      <g transform="translate(324.012614 322.182437) scale(0.1 -0.1)">
       <defs>
        <path id="DejaVuSans-38" d="M 2034 2216 
Q 1584 2216 1326 1975 
Q 1069 1734 1069 1313 
Q 1069 891 1326 650 
Q 1584 409 2034 409 
Q 2484 409 2743 651 
Q 3003 894 3003 1313 
Q 3003 1734 2745 1975 
Q 2488 2216 2034 2216 
z
M 1403 2484 
Q 997 2584 770 2862 
Q 544 3141 544 3541 
Q 544 4100 942 4425 
Q 1341 4750 2034 4750 
Q 2731 4750 3128 4425 
Q 3525 4100 3525 3541 
Q 3525 3141 3298 2862 
Q 3072 2584 2669 2484 
Q 3125 2378 3379 2068 
Q 3634 1759 3634 1313 
Q 3634 634 3220 271 
Q 2806 -91 2034 -91 
Q 1263 -91 848 271 
Q 434 634 434 1313 
Q 434 1759 690 2068 
Q 947 2378 1403 2484 
z
M 1172 3481 
Q 1172 3119 1398 2916 
Q 1625 2713 2034 2713 
Q 2441 2713 2670 2916 
Q 2900 3119 2900 3481 
Q 2900 3844 2670 4047 
Q 2441 4250 2034 4250 
Q 1625 4250 1398 4047 
Q 1172 3844 1172 3481 
z
" transform="scale(0.015625)"/>
       </defs>
       <use xlink:href="#DejaVuSans-38"/>
       <use xlink:href="#DejaVuSans-30" transform="translate(63.623047 0)"/>
       <use xlink:href="#DejaVuSans-30" transform="translate(127.246094 0)"/>
      </g>
     </g>
    </g>
    <g id="xtick_6">
     <g id="line2d_6">
      <g>
       <use xlink:href="#meac1e20243" x="398.487273" y="307.584" style="stroke: #000000; stroke-width: 0.8"/>
      </g>
     </g>
     <g id="text_6">
      <!-- 1000 -->
      <g transform="translate(385.762273 322.182437) scale(0.1 -0.1)">
       <defs>
        <path id="DejaVuSans-31" d="M 794 531 
L 1825 531 
L 1825 4091 
L 703 3866 
L 703 4441 
L 1819 4666 
L 2450 4666 
L 2450 531 
L 3481 531 
L 3481 0 
L 794 0 
L 794 531 
z
" transform="scale(0.015625)"/>
       </defs>
       <use xlink:href="#DejaVuSans-31"/>
       <use xlink:href="#DejaVuSans-30" transform="translate(63.623047 0)"/>
       <use xlink:href="#DejaVuSans-30" transform="translate(127.246094 0)"/>
       <use xlink:href="#DejaVuSans-30" transform="translate(190.869141 0)"/>
      </g>
     </g>
    </g>
    <g id="text_7">
     <!-- Frequency [Hz] -->
     <g transform="translate(198.455312 335.860562) scale(0.1 -0.1)">
      <defs>
       <path id="DejaVuSans-46" d="M 628 4666 
L 3309 4666 
L 3309 4134 
L 1259 4134 
L 1259 2759 
L 3109 2759 
L 3109 2228 
L 1259 2228 
L 1259 0 
L 628 0 
L 628 4666 
z
" transform="scale(0.015625)"/>
       <path id="DejaVuSans-72" d="M 2631 2963 
Q 2534 3019 2420 3045 
Q 2306 3072 2169 3072 
Q 1681 3072 1420 2755 
Q 1159 2438 1159 1844 
L 1159 0 
L 581 0 
L 581 3500 
L 1159 3500 
L 1159 2956 
Q 1341 3275 1631 3429 
Q 1922 3584 2338 3584 
Q 2397 3584 2469 3576 
Q 2541 3569 2628 3553 
L 2631 2963 
z
" transform="scale(0.015625)"/>
       <path id="DejaVuSans-65" d="M 3597 1894 
L 3597 1613 
L 953 1613 
Q 991 1019 1311 708 
Q 1631 397 2203 397 
Q 2534 397 2845 478 
Q 3156 559 3463 722 
L 3463 178 
Q 3153 47 2828 -22 
Q 2503 -91 2169 -91 
Q 1331 -91 842 396 
Q 353 884 353 1716 
Q 353 2575 817 3079 
Q 1281 3584 2069 3584 
Q 2775 3584 3186 3129 
Q 3597 2675 3597 1894 
z
M 3022 2063 
Q 3016 2534 2758 2815 
Q 2500 3097 2075 3097 
Q 1594 3097 1305 2825 
Q 1016 2553 972 2059 
L 3022 2063 
z
" transform="scale(0.015625)"/>
       <path id="DejaVuSans-71" d="M 947 1747 
Q 947 1113 1208 752 
Q 1469 391 1925 391 
Q 2381 391 2643 752 
Q 2906 1113 2906 1747 
Q 2906 2381 2643 2742 
Q 2381 3103 1925 3103 
Q 1469 3103 1208 2742 
Q 947 2381 947 1747 
z
M 2906 525 
Q 2725 213 2448 61 
Q 2172 -91 1784 -91 
Q 1150 -91 751 415 
Q 353 922 353 1747 
Q 353 2572 751 3078 
Q 1150 3584 1784 3584 
Q 2172 3584 2448 3432 
Q 2725 3281 2906 2969 
L 2906 3500 
L 3481 3500 
L 3481 -1331 
L 2906 -1331 
L 2906 525 
z
" transform="scale(0.015625)"/>
       <path id="DejaVuSans-75" d="M 544 1381 
L 544 3500 
L 1119 3500 
L 1119 1403 
Q 1119 906 1312 657 
Q 1506 409 1894 409 
Q 2359 409 2629 706 
Q 2900 1003 2900 1516 
L 2900 3500 
L 3475 3500 
L 3475 0 
L 2900 0 
L 2900 538 
Q 2691 219 2414 64 
Q 2138 -91 1772 -91 
Q 1169 -91 856 284 
Q 544 659 544 1381 
z
M 1991 3584 
L 1991 3584 
z
" transform="scale(0.015625)"/>
       <path id="DejaVuSans-6e" d="M 3513 2113 
L 3513 0 
L 2938 0 
L 2938 2094 
Q 2938 2591 2744 2837 
Q 2550 3084 2163 3084 
Q 1697 3084 1428 2787 
Q 1159 2491 1159 1978 
L 1159 0 
L 581 0 
L 581 3500 
L 1159 3500 
L 1159 2956 
Q 1366 3272 1645 3428 
Q 1925 3584 2291 3584 
Q 2894 3584 3203 3211 
Q 3513 2838 3513 2113 
z
" transform="scale(0.015625)"/>
       <path id="DejaVuSans-63" d="M 3122 3366 
L 3122 2828 
Q 2878 2963 2633 3030 
Q 2388 3097 2138 3097 
Q 1578 3097 1268 2742 
Q 959 2388 959 1747 
Q 959 1106 1268 751 
Q 1578 397 2138 397 
Q 2388 397 2633 464 
Q 2878 531 3122 666 
L 3122 134 
Q 2881 22 2623 -34 
Q 2366 -91 2075 -91 
Q 1284 -91 818 406 
Q 353 903 353 1747 
Q 353 2603 823 3093 
Q 1294 3584 2113 3584 
Q 2378 3584 2631 3529 
Q 2884 3475 3122 3366 
z
" transform="scale(0.015625)"/>
       <path id="DejaVuSans-79" d="M 2059 -325 
Q 1816 -950 1584 -1140 
Q 1353 -1331 966 -1331 
L 506 -1331 
L 506 -850 
L 844 -850 
Q 1081 -850 1212 -737 
Q 1344 -625 1503 -206 
L 1606 56 
L 191 3500 
L 800 3500 
L 1894 763 
L 2988 3500 
L 3597 3500 
L 2059 -325 
z
" transform="scale(0.015625)"/>
       <path id="DejaVuSans-20" transform="scale(0.015625)"/>
       <path id="DejaVuSans-5b" d="M 550 4863 
L 1875 4863 
L 1875 4416 
L 1125 4416 
L 1125 -397 
L 1875 -397 
L 1875 -844 
L 550 -844 
L 550 4863 
z
" transform="scale(0.015625)"/>
       <path id="DejaVuSans-48" d="M 628 4666 
L 1259 4666 
L 1259 2753 
L 3553 2753 
L 3553 4666 
L 4184 4666 
L 4184 0 
L 3553 0 
L 3553 2222 
L 1259 2222 
L 1259 0 
L 628 0 
L 628 4666 
z
" transform="scale(0.015625)"/>
       <path id="DejaVuSans-7a" d="M 353 3500 
L 3084 3500 
L 3084 2975 
L 922 459 
L 3084 459 
L 3084 0 
L 275 0 
L 275 525 
L 2438 3041 
L 353 3041 
L 353 3500 
z
" transform="scale(0.015625)"/>
       <path id="DejaVuSans-5d" d="M 1947 4863 
L 1947 -844 
L 622 -844 
L 622 -397 
L 1369 -397 
L 1369 4416 
L 622 4416 
L 622 4863 
L 1947 4863 
z
" transform="scale(0.015625)"/>
      </defs>
      <use xlink:href="#DejaVuSans-46"/>
      <use xlink:href="#DejaVuSans-72" transform="translate(50.269531 0)"/>
      <use xlink:href="#DejaVuSans-65" transform="translate(89.132812 0)"/>
      <use xlink:href="#DejaVuSans-71" transform="translate(150.65625 0)"/>
      <use xlink:href="#DejaVuSans-75" transform="translate(214.132812 0)"/>
      <use xlink:href="#DejaVuSans-65" transform="translate(277.511719 0)"/>
      <use xlink:href="#DejaVuSans-6e" transform="translate(339.035156 0)"/>
      <use xlink:href="#DejaVuSans-63" transform="translate(402.414062 0)"/>
      <use xlink:href="#DejaVuSans-79" transform="translate(457.394531 0)"/>
      <use xlink:href="#DejaVuSans-20" transform="translate(516.574219 0)"/>
      <use xlink:href="#DejaVuSans-5b" transform="translate(548.361328 0)"/>
      <use xlink:href="#DejaVuSans-48" transform="translate(587.375 0)"/>
      <use xlink:href="#DejaVuSans-7a" transform="translate(662.570312 0)"/>
      <use xlink:href="#DejaVuSans-5d" transform="translate(715.060547 0)"/>
     </g>
    </g>
   </g>
   <g id="matplotlib.axis_2">
    <g id="ytick_1">
     <g id="line2d_7">
      <defs>
       <path id="mf25cd9d004" d="M 0 0 
L -3.5 0 
" style="stroke: #000000; stroke-width: 0.8"/>
      </defs>
      <g>
       <use xlink:href="#mf25cd9d004" x="57.6" y="295.488" style="stroke: #000000; stroke-width: 0.8"/>
      </g>
     </g>
     <g id="text_8">
      <!-- 0 -->
      <g transform="translate(44.2375 299.287219) scale(0.1 -0.1)">
       <use xlink:href="#DejaVuSans-30"/>
      </g>
     </g>
    </g>
    <g id="ytick_2">
     <g id="line2d_8">
      <g>
       <use xlink:href="#mf25cd9d004" x="57.6" y="265.248" style="stroke: #000000; stroke-width: 0.8"/>
      </g>
     </g>
     <g id="text_9">
      <!-- 25 -->
      <g transform="translate(37.875 269.047219) scale(0.1 -0.1)">
       <defs>
        <path id="DejaVuSans-35" d="M 691 4666 
L 3169 4666 
L 3169 4134 
L 1269 4134 
L 1269 2991 
Q 1406 3038 1543 3061 
Q 1681 3084 1819 3084 
Q 2600 3084 3056 2656 
Q 3513 2228 3513 1497 
Q 3513 744 3044 326 
Q 2575 -91 1722 -91 
Q 1428 -91 1123 -41 
Q 819 9 494 109 
L 494 744 
Q 775 591 1075 516 
Q 1375 441 1709 441 
Q 2250 441 2565 725 
Q 2881 1009 2881 1497 
Q 2881 1984 2565 2268 
Q 2250 2553 1709 2553 
Q 1456 2553 1204 2497 
Q 953 2441 691 2322 
L 691 4666 
z
" transform="scale(0.015625)"/>
       </defs>
       <use xlink:href="#DejaVuSans-32"/>
       <use xlink:href="#DejaVuSans-35" transform="translate(63.623047 0)"/>
      </g>
     </g>
    </g>
    <g id="ytick_3">
     <g id="line2d_9">
      <g>
       <use xlink:href="#mf25cd9d004" x="57.6" y="235.008" style="stroke: #000000; stroke-width: 0.8"/>
      </g>
     </g>
     <g id="text_10">
      <!-- 50 -->
      <g transform="translate(37.875 238.807219) scale(0.1 -0.1)">
       <use xlink:href="#DejaVuSans-35"/>
       <use xlink:href="#DejaVuSans-30" transform="translate(63.623047 0)"/>
      </g>
     </g>
    </g>
    <g id="ytick_4">
     <g id="line2d_10">
      <g>
       <use xlink:href="#mf25cd9d004" x="57.6" y="204.768" style="stroke: #000000; stroke-width: 0.8"/>
      </g>
     </g>
     <g id="text_11">
      <!-- 75 -->
      <g transform="translate(37.875 208.567219) scale(0.1 -0.1)">
       <defs>
        <path id="DejaVuSans-37" d="M 525 4666 
L 3525 4666 
L 3525 4397 
L 1831 0 
L 1172 0 
L 2766 4134 
L 525 4134 
L 525 4666 
z
" transform="scale(0.015625)"/>
       </defs>
       <use xlink:href="#DejaVuSans-37"/>
       <use xlink:href="#DejaVuSans-35" transform="translate(63.623047 0)"/>
      </g>
     </g>
    </g>
    <g id="ytick_5">
     <g id="line2d_11">
      <g>
       <use xlink:href="#mf25cd9d004" x="57.6" y="174.528" style="stroke: #000000; stroke-width: 0.8"/>
      </g>
     </g>
     <g id="text_12">
      <!-- 100 -->
      <g transform="translate(31.5125 178.327219) scale(0.1 -0.1)">
       <use xlink:href="#DejaVuSans-31"/>
       <use xlink:href="#DejaVuSans-30" transform="translate(63.623047 0)"/>
       <use xlink:href="#DejaVuSans-30" transform="translate(127.246094 0)"/>
      </g>
     </g>
    </g>
    <g id="ytick_6">
     <g id="line2d_12">
      <g>
       <use xlink:href="#mf25cd9d004" x="57.6" y="144.288" style="stroke: #000000; stroke-width: 0.8"/>
      </g>
     </g>
     <g id="text_13">
      <!-- 125 -->
      <g transform="translate(31.5125 148.087219) scale(0.1 -0.1)">
       <use xlink:href="#DejaVuSans-31"/>
       <use xlink:href="#DejaVuSans-32" transform="translate(63.623047 0)"/>
       <use xlink:href="#DejaVuSans-35" transform="translate(127.246094 0)"/>
      </g>
     </g>
    </g>
    <g id="ytick_7">
     <g id="line2d_13">
      <g>
       <use xlink:href="#mf25cd9d004" x="57.6" y="114.048" style="stroke: #000000; stroke-width: 0.8"/>
      </g>
     </g>
     <g id="text_14">
      <!-- 150 -->
      <g transform="translate(31.5125 117.847219) scale(0.1 -0.1)">
       <use xlink:href="#DejaVuSans-31"/>
       <use xlink:href="#DejaVuSans-35" transform="translate(63.623047 0)"/>
       <use xlink:href="#DejaVuSans-30" transform="translate(127.246094 0)"/>
      </g>
     </g>
    </g>
    <g id="ytick_8">
     <g id="line2d_14">
      <g>
       <use xlink:href="#mf25cd9d004" x="57.6" y="83.808" style="stroke: #000000; stroke-width: 0.8"/>
      </g>
     </g>
     <g id="text_15">
      <!-- 175 -->
      <g transform="translate(31.5125 87.607219) scale(0.1 -0.1)">
       <use xlink:href="#DejaVuSans-31"/>
       <use xlink:href="#DejaVuSans-37" transform="translate(63.623047 0)"/>
       <use xlink:href="#DejaVuSans-35" transform="translate(127.246094 0)"/>
      </g>
     </g>
    </g>
    <g id="ytick_9">
     <g id="line2d_15">
      <g>
       <use xlink:href="#mf25cd9d004" x="57.6" y="53.568" style="stroke: #000000; stroke-width: 0.8"/>
      </g>
     </g>
     <g id="text_16">
      <!-- 200 -->
      <g transform="translate(31.5125 57.367219) scale(0.1 -0.1)">
       <use xlink:href="#DejaVuSans-32"/>
       <use xlink:href="#DejaVuSans-30" transform="translate(63.623047 0)"/>
       <use xlink:href="#DejaVuSans-30" transform="translate(127.246094 0)"/>
      </g>
     </g>
    </g>
   </g>
   <g id="LineCollection_1">
    <path d="M 73.832727 295.488 
L 73.832727 289.44 
" clip-path="url(#padcf2384d9)" style="fill: none; stroke: #1f77b4; stroke-width: 1.5"/>
    <path d="M 81.949091 295.488 
L 81.949091 295.488 
" clip-path="url(#padcf2384d9)" style="fill: none; stroke: #1f77b4; stroke-width: 1.5"/>
    <path d="M 90.065455 295.488 
L 90.065455 53.568 
" clip-path="url(#padcf2384d9)" style="fill: none; stroke: #1f77b4; stroke-width: 1.5"/>
    <path d="M 98.181818 295.488 
L 98.181818 295.488 
" clip-path="url(#padcf2384d9)" style="fill: none; stroke: #1f77b4; stroke-width: 1.5"/>
    <path d="M 106.298182 295.488 
L 106.298182 295.488 
" clip-path="url(#padcf2384d9)" style="fill: none; stroke: #1f77b4; stroke-width: 1.5"/>
    <path d="M 114.414545 295.488 
L 114.414545 295.488 
" clip-path="url(#padcf2384d9)" style="fill: none; stroke: #1f77b4; stroke-width: 1.5"/>
    <path d="M 122.530909 295.488 
L 122.530909 235.008 
" clip-path="url(#padcf2384d9)" style="fill: none; stroke: #1f77b4; stroke-width: 1.5"/>
    <path d="M 130.647273 295.488 
L 130.647273 295.488 
" clip-path="url(#padcf2384d9)" style="fill: none; stroke: #1f77b4; stroke-width: 1.5"/>
    <path d="M 138.763636 295.488 
L 138.763636 295.488 
" clip-path="url(#padcf2384d9)" style="fill: none; stroke: #1f77b4; stroke-width: 1.5"/>
    <path d="M 146.88 295.488 
L 146.88 295.488 
" clip-path="url(#padcf2384d9)" style="fill: none; stroke: #1f77b4; stroke-width: 1.5"/>
    <path d="M 154.996364 295.488 
L 154.996364 174.528 
" clip-path="url(#padcf2384d9)" style="fill: none; stroke: #1f77b4; stroke-width: 1.5"/>
    <path d="M 163.112727 295.488 
L 163.112727 295.488 
" clip-path="url(#padcf2384d9)" style="fill: none; stroke: #1f77b4; stroke-width: 1.5"/>
    <path d="M 171.229091 295.488 
L 171.229091 295.488 
" clip-path="url(#padcf2384d9)" style="fill: none; stroke: #1f77b4; stroke-width: 1.5"/>
    <path d="M 179.345455 295.488 
L 179.345455 295.488 
" clip-path="url(#padcf2384d9)" style="fill: none; stroke: #1f77b4; stroke-width: 1.5"/>
    <path d="M 187.461818 295.488 
L 187.461818 235.008 
" clip-path="url(#padcf2384d9)" style="fill: none; stroke: #1f77b4; stroke-width: 1.5"/>
    <path d="M 195.578182 295.488 
L 195.578182 295.488 
" clip-path="url(#padcf2384d9)" style="fill: none; stroke: #1f77b4; stroke-width: 1.5"/>
    <path d="M 203.694545 295.488 
L 203.694545 295.488 
" clip-path="url(#padcf2384d9)" style="fill: none; stroke: #1f77b4; stroke-width: 1.5"/>
    <path d="M 211.810909 295.488 
L 211.810909 295.488 
" clip-path="url(#padcf2384d9)" style="fill: none; stroke: #1f77b4; stroke-width: 1.5"/>
    <path d="M 219.927273 295.488 
L 219.927273 295.488 
" clip-path="url(#padcf2384d9)" style="fill: none; stroke: #1f77b4; stroke-width: 1.5"/>
    <path d="M 228.043636 295.488 
L 228.043636 295.488 
" clip-path="url(#padcf2384d9)" style="fill: none; stroke: #1f77b4; stroke-width: 1.5"/>
    <path d="M 236.16 295.488 
L 236.16 295.488 
" clip-path="url(#padcf2384d9)" style="fill: none; stroke: #1f77b4; stroke-width: 1.5"/>
    <path d="M 244.276364 295.488 
L 244.276364 295.488 
" clip-path="url(#padcf2384d9)" style="fill: none; stroke: #1f77b4; stroke-width: 1.5"/>
    <path d="M 252.392727 295.488 
L 252.392727 283.392 
" clip-path="url(#padcf2384d9)" style="fill: none; stroke: #1f77b4; stroke-width: 1.5"/>
    <path d="M 260.509091 295.488 
L 260.509091 295.488 
" clip-path="url(#padcf2384d9)" style="fill: none; stroke: #1f77b4; stroke-width: 1.5"/>
    <path d="M 268.625455 295.488 
L 268.625455 295.488 
" clip-path="url(#padcf2384d9)" style="fill: none; stroke: #1f77b4; stroke-width: 1.5"/>
    <path d="M 276.741818 295.488 
L 276.741818 295.488 
" clip-path="url(#padcf2384d9)" style="fill: none; stroke: #1f77b4; stroke-width: 1.5"/>
    <path d="M 284.858182 295.488 
L 284.858182 295.488 
" clip-path="url(#padcf2384d9)" style="fill: none; stroke: #1f77b4; stroke-width: 1.5"/>
    <path d="M 292.974545 295.488 
L 292.974545 295.488 
" clip-path="url(#padcf2384d9)" style="fill: none; stroke: #1f77b4; stroke-width: 1.5"/>
    <path d="M 301.090909 295.488 
L 301.090909 295.488 
" clip-path="url(#padcf2384d9)" style="fill: none; stroke: #1f77b4; stroke-width: 1.5"/>
    <path d="M 309.207273 295.488 
L 309.207273 295.488 
" clip-path="url(#padcf2384d9)" style="fill: none; stroke: #1f77b4; stroke-width: 1.5"/>
    <path d="M 317.323636 295.488 
L 317.323636 295.488 
" clip-path="url(#padcf2384d9)" style="fill: none; stroke: #1f77b4; stroke-width: 1.5"/>
    <path d="M 325.44 295.488 
L 325.44 295.488 
" clip-path="url(#padcf2384d9)" style="fill: none; stroke: #1f77b4; stroke-width: 1.5"/>
    <path d="M 333.556364 295.488 
L 333.556364 295.488 
" clip-path="url(#padcf2384d9)" style="fill: none; stroke: #1f77b4; stroke-width: 1.5"/>
    <path d="M 341.672727 295.488 
L 341.672727 295.488 
" clip-path="url(#padcf2384d9)" style="fill: none; stroke: #1f77b4; stroke-width: 1.5"/>
    <path d="M 349.789091 295.488 
L 349.789091 295.488 
" clip-path="url(#padcf2384d9)" style="fill: none; stroke: #1f77b4; stroke-width: 1.5"/>
    <path d="M 357.905455 295.488 
L 357.905455 295.488 
" clip-path="url(#padcf2384d9)" style="fill: none; stroke: #1f77b4; stroke-width: 1.5"/>
    <path d="M 366.021818 295.488 
L 366.021818 295.488 
" clip-path="url(#padcf2384d9)" style="fill: none; stroke: #1f77b4; stroke-width: 1.5"/>
    <path d="M 374.138182 295.488 
L 374.138182 295.488 
" clip-path="url(#padcf2384d9)" style="fill: none; stroke: #1f77b4; stroke-width: 1.5"/>
    <path d="M 382.254545 295.488 
L 382.254545 295.488 
" clip-path="url(#padcf2384d9)" style="fill: none; stroke: #1f77b4; stroke-width: 1.5"/>
    <path d="M 390.370909 295.488 
L 390.370909 295.488 
" clip-path="url(#padcf2384d9)" style="fill: none; stroke: #1f77b4; stroke-width: 1.5"/>
    <path d="M 398.487273 295.488 
L 398.487273 295.488 
" clip-path="url(#padcf2384d9)" style="fill: none; stroke: #1f77b4; stroke-width: 1.5"/>
   </g>
   <g id="line2d_16">
    <defs>
     <path id="me186cb66b0" d="M 0 3 
C 0.795609 3 1.55874 2.683901 2.12132 2.12132 
C 2.683901 1.55874 3 0.795609 3 0 
C 3 -0.795609 2.683901 -1.55874 2.12132 -2.12132 
C 1.55874 -2.683901 0.795609 -3 0 -3 
C -0.795609 -3 -1.55874 -2.683901 -2.12132 -2.12132 
C -2.683901 -1.55874 -3 -0.795609 -3 0 
C -3 0.795609 -2.683901 1.55874 -2.12132 2.12132 
C -1.55874 2.683901 -0.795609 3 0 3 
z
" style="stroke: #1f77b4"/>
    </defs>
    <g clip-path="url(#padcf2384d9)">
     <use xlink:href="#me186cb66b0" x="73.832727" y="289.44" style="fill: #1f77b4; stroke: #1f77b4"/>
     <use xlink:href="#me186cb66b0" x="81.949091" y="295.488" style="fill: #1f77b4; stroke: #1f77b4"/>
     <use xlink:href="#me186cb66b0" x="90.065455" y="53.568" style="fill: #1f77b4; stroke: #1f77b4"/>
     <use xlink:href="#me186cb66b0" x="98.181818" y="295.488" style="fill: #1f77b4; stroke: #1f77b4"/>
     <use xlink:href="#me186cb66b0" x="106.298182" y="295.488" style="fill: #1f77b4; stroke: #1f77b4"/>
     <use xlink:href="#me186cb66b0" x="114.414545" y="295.488" style="fill: #1f77b4; stroke: #1f77b4"/>
     <use xlink:href="#me186cb66b0" x="122.530909" y="235.008" style="fill: #1f77b4; stroke: #1f77b4"/>
     <use xlink:href="#me186cb66b0" x="130.647273" y="295.488" style="fill: #1f77b4; stroke: #1f77b4"/>
     <use xlink:href="#me186cb66b0" x="138.763636" y="295.488" style="fill: #1f77b4; stroke: #1f77b4"/>
     <use xlink:href="#me186cb66b0" x="146.88" y="295.488" style="fill: #1f77b4; stroke: #1f77b4"/>
     <use xlink:href="#me186cb66b0" x="154.996364" y="174.528" style="fill: #1f77b4; stroke: #1f77b4"/>
     <use xlink:href="#me186cb66b0" x="163.112727" y="295.488" style="fill: #1f77b4; stroke: #1f77b4"/>
     <use xlink:href="#me186cb66b0" x="171.229091" y="295.488" style="fill: #1f77b4; stroke: #1f77b4"/>
     <use xlink:href="#me186cb66b0" x="179.345455" y="295.488" style="fill: #1f77b4; stroke: #1f77b4"/>
     <use xlink:href="#me186cb66b0" x="187.461818" y="235.008" style="fill: #1f77b4; stroke: #1f77b4"/>
     <use xlink:href="#me186cb66b0" x="195.578182" y="295.488" style="fill: #1f77b4; stroke: #1f77b4"/>
     <use xlink:href="#me186cb66b0" x="203.694545" y="295.488" style="fill: #1f77b4; stroke: #1f77b4"/>
     <use xlink:href="#me186cb66b0" x="211.810909" y="295.488" style="fill: #1f77b4; stroke: #1f77b4"/>
     <use xlink:href="#me186cb66b0" x="219.927273" y="295.488" style="fill: #1f77b4; stroke: #1f77b4"/>
     <use xlink:href="#me186cb66b0" x="228.043636" y="295.488" style="fill: #1f77b4; stroke: #1f77b4"/>
     <use xlink:href="#me186cb66b0" x="236.16" y="295.488" style="fill: #1f77b4; stroke: #1f77b4"/>
     <use xlink:href="#me186cb66b0" x="244.276364" y="295.488" style="fill: #1f77b4; stroke: #1f77b4"/>
     <use xlink:href="#me186cb66b0" x="252.392727" y="283.392" style="fill: #1f77b4; stroke: #1f77b4"/>
     <use xlink:href="#me186cb66b0" x="260.509091" y="295.488" style="fill: #1f77b4; stroke: #1f77b4"/>
     <use xlink:href="#me186cb66b0" x="268.625455" y="295.488" style="fill: #1f77b4; stroke: #1f77b4"/>
     <use xlink:href="#me186cb66b0" x="276.741818" y="295.488" style="fill: #1f77b4; stroke: #1f77b4"/>
     <use xlink:href="#me186cb66b0" x="284.858182" y="295.488" style="fill: #1f77b4; stroke: #1f77b4"/>
     <use xlink:href="#me186cb66b0" x="292.974545" y="295.488" style="fill: #1f77b4; stroke: #1f77b4"/>
     <use xlink:href="#me186cb66b0" x="301.090909" y="295.488" style="fill: #1f77b4; stroke: #1f77b4"/>
     <use xlink:href="#me186cb66b0" x="309.207273" y="295.488" style="fill: #1f77b4; stroke: #1f77b4"/>
     <use xlink:href="#me186cb66b0" x="317.323636" y="295.488" style="fill: #1f77b4; stroke: #1f77b4"/>
     <use xlink:href="#me186cb66b0" x="325.44" y="295.488" style="fill: #1f77b4; stroke: #1f77b4"/>
     <use xlink:href="#me186cb66b0" x="333.556364" y="295.488" style="fill: #1f77b4; stroke: #1f77b4"/>
     <use xlink:href="#me186cb66b0" x="341.672727" y="295.488" style="fill: #1f77b4; stroke: #1f77b4"/>
     <use xlink:href="#me186cb66b0" x="349.789091" y="295.488" style="fill: #1f77b4; stroke: #1f77b4"/>
     <use xlink:href="#me186cb66b0" x="357.905455" y="295.488" style="fill: #1f77b4; stroke: #1f77b4"/>
     <use xlink:href="#me186cb66b0" x="366.021818" y="295.488" style="fill: #1f77b4; stroke: #1f77b4"/>
     <use xlink:href="#me186cb66b0" x="374.138182" y="295.488" style="fill: #1f77b4; stroke: #1f77b4"/>
     <use xlink:href="#me186cb66b0" x="382.254545" y="295.488" style="fill: #1f77b4; stroke: #1f77b4"/>
     <use xlink:href="#me186cb66b0" x="390.370909" y="295.488" style="fill: #1f77b4; stroke: #1f77b4"/>
     <use xlink:href="#me186cb66b0" x="398.487273" y="295.488" style="fill: #1f77b4; stroke: #1f77b4"/>
    </g>
   </g>
   <g id="line2d_17">
    <path d="M 73.832727 295.488 
L 398.487273 295.488 
" clip-path="url(#padcf2384d9)" style="fill: none; stroke: #d62728; stroke-width: 1.5; stroke-linecap: square"/>
   </g>
   <g id="patch_3">
    <path d="M 57.6 307.584 
L 57.6 41.472 
" style="fill: none; stroke: #000000; stroke-width: 0.8; stroke-linejoin: miter; stroke-linecap: square"/>
   </g>
   <g id="patch_4">
    <path d="M 414.72 307.584 
L 414.72 41.472 
" style="fill: none; stroke: #000000; stroke-width: 0.8; stroke-linejoin: miter; stroke-linecap: square"/>
   </g>
   <g id="patch_5">
    <path d="M 57.6 307.584 
L 414.72 307.584 
" style="fill: none; stroke: #000000; stroke-width: 0.8; stroke-linejoin: miter; stroke-linecap: square"/>
   </g>
   <g id="patch_6">
    <path d="M 57.6 41.472 
L 414.72 41.472 
" style="fill: none; stroke: #000000; stroke-width: 0.8; stroke-linejoin: miter; stroke-linecap: square"/>
   </g>
  </g>
 </g>
 <defs>
  <clipPath id="padcf2384d9">
   <rect x="57.6" y="41.472" width="357.12" height="266.112"/>
  </clipPath>
 </defs>
</svg>
