<?xml version="1.0" encoding="utf-8" standalone="no"?>
<!DOCTYPE svg PUBLIC "-//W3C//DTD SVG 1.1//EN"
  "http://www.w3.org/Graphics/SVG/1.1/DTD/svg11.dtd">
<svg xmlns:xlink="http://www.w3.org/1999/xlink" width="460.8pt" height="345.6pt" viewBox="0 0 460.8 345.6" xmlns="http://www.w3.org/2000/svg" version="1.1">
 <metadata>
  <rdf:RDF xmlns:dc="http://purl.org/dc/elements/1.1/" xmlns:cc="http://creativecommons.org/ns#" xmlns:rdf="http://www.w3.org/1999/02/22-rdf-syntax-ns#">
   <cc:Work>
    <dc:type rdf:resource="http://purl.org/dc/dcmitype/StillImage"/>
    <dc:date>2025-11-01T22:26:00.865265</dc:date>
    <dc:format>image/svg+xml</dc:format>
    <dc:creator>
     <cc:Agent>
      <dc:title>Matplotlib v3.10.7, https://matplotlib.org/</dc:title>
     </cc:Agent>
    </dc:creator>
   </cc:Work>
  </rdf:RDF>
 </metadata>
 <defs>
  <style type="text/css">*{stroke-linejoin: round; stroke-linecap: butt}</style>
 </defs>
 <g id="figure_1">
  <g id="patch_1">
   <path d="M 0 345.6 
L 460.8 345.6 
L 460.8 0 
L 0 0 
z
" style="fill: #ffffff"/>
  </g>
  <g id="axes_1">
   <g id="patch_2">
    <path d="M 57.6 307.584 
L 414.72 307.584 
L 414.72 41.472 
L 57.6 41.472 
z
" style="fill: #ffffff"/>
   </g>
   <g id="matplotlib.axis_1">
    <g id="xtick_1">
     <g id="line2d_1">
      <path d="M 73.832727 307.584 
L 73.832727 41.472 
" clip-path="url(#p8bdfa0972f)" style="fill: none; stroke: #b0b0b0; stroke-width: 0.8; stroke-linecap: square"/>
     </g>
     <g id="line2d_2">
      <defs>
       <path id="m2af680c160" d="M 0 0 
L 0 3.5 
" style="stroke: #000000; stroke-width: 0.8"/>
      </defs>
      <g>
       <use xlink:href="#m2af680c160" x="73.832727" y="307.584" style="stroke: #000000; stroke-width: 0.8"/>
      </g>
     </g>
     <g id="text_1">
      <!-- 0.00 -->
      <g transform="translate(62.699915 322.182437) scale(0.1 -0.1)">
       <defs>
        <path id="DejaVuSans-30" d="M 2034 4250 
Q 1547 4250 1301 3770 
Q 1056 3291 1056 2328 
Q 1056 1369 1301 889 
Q 1547 409 2034 409 
Q 2525 409 2770 889 
Q 3016 1369 3016 2328 
Q 3016 3291 2770 3770 
Q 2525 4250 2034 4250 
z
M 2034 4750 
Q 2819 4750 3233 4129 
Q 3647 3509 3647 2328 
Q 3647 1150 3233 529 
Q 2819 -91 2034 -91 
Q 1250 -91 836 529 
Q 422 1150 422 2328 
Q 422 3509 836 4129 
Q 1250 4750 2034 4750 
z
" transform="scale(0.015625)"/>
        <path id="DejaVuSans-2e" d="M 684 794 
L 1344 794 
L 1344 0 
L 684 0 
L 684 794 
z
" transform="scale(0.015625)"/>
       </defs>
       <use xlink:href="#DejaVuSans-30"/>
       <use xlink:href="#DejaVuSans-2e" transform="translate(63.623047 0)"/>
       <use xlink:href="#DejaVuSans-30" transform="translate(95.410156 0)"/>
       <use xlink:href="#DejaVuSans-30" transform="translate(159.033203 0)"/>
      </g>
     </g>
    </g>
    <g id="xtick_2">
     <g id="line2d_3">
      <path d="M 138.893758 307.584 
L 138.893758 41.472 
" clip-path="url(#p8bdfa0972f)" style="fill: none; stroke: #b0b0b0; stroke-width: 0.8; stroke-linecap: square"/>
     </g>
     <g id="line2d_4">
      <g>
       <use xlink:href="#m2af680c160" x="138.893758" y="307.584" style="stroke: #000000; stroke-width: 0.8"/>
      </g>
     </g>
     <g id="text_2">
      <!-- 0.01 -->
      <g transform="translate(127.760946 322.182437) scale(0.1 -0.1)">
       <defs>
        <path id="DejaVuSans-31" d="M 794 531 
L 1825 531 
L 1825 4091 
L 703 3866 
L 703 4441 
L 1819 4666 
L 2450 4666 
L 2450 531 
L 3481 531 
L 3481 0 
L 794 0 
L 794 531 
z
" transform="scale(0.015625)"/>
       </defs>
       <use xlink:href="#DejaVuSans-30"/>
       <use xlink:href="#DejaVuSans-2e" transform="translate(63.623047 0)"/>
       <use xlink:href="#DejaVuSans-30" transform="translate(95.410156 0)"/>
       <use xlink:href="#DejaVuSans-31" transform="translate(159.033203 0)"/>
      </g>
     </g>
    </g>
    <g id="xtick_3">
     <g id="line2d_5">
      <path d="M 203.95479 307.584 
L 203.95479 41.472 
" clip-path="url(#p8bdfa0972f)" style="fill: none; stroke: #b0b0b0; stroke-width: 0.8; stroke-linecap: square"/>
     </g>
     <g id="line2d_6">
      <g>
       <use xlink:href="#m2af680c160" x="203.95479" y="307.584" style="stroke: #000000; stroke-width: 0.8"/>
      </g>
     </g>
     <g id="text_3">
      <!-- 0.02 -->
      <g transform="translate(192.821977 322.182437) scale(0.1 -0.1)">
       <defs>
        <path id="DejaVuSans-32" d="M 1228 531 
L 3431 531 
L 3431 0 
L 469 0 
L 469 531 
Q 828 903 1448 1529 
Q 2069 2156 2228 2338 
Q 2531 2678 2651 2914 
Q 2772 3150 2772 3378 
Q 2772 3750 2511 3984 
Q 2250 4219 1831 4219 
Q 1534 4219 1204 4116 
Q 875 4013 500 3803 
L 500 4441 
Q 881 4594 1212 4672 
Q 1544 4750 1819 4750 
Q 2544 4750 2975 4387 
Q 3406 4025 3406 3419 
Q 3406 3131 3298 2873 
Q 3191 2616 2906 2266 
Q 2828 2175 2409 1742 
Q 1991 1309 1228 531 
z
" transform="scale(0.015625)"/>
       </defs>
       <use xlink:href="#DejaVuSans-30"/>
       <use xlink:href="#DejaVuSans-2e" transform="translate(63.623047 0)"/>
       <use xlink:href="#DejaVuSans-30" transform="translate(95.410156 0)"/>
       <use xlink:href="#DejaVuSans-32" transform="translate(159.033203 0)"/>
      </g>
     </g>
    </g>
    <g id="xtick_4">
     <g id="line2d_7">
      <path d="M 269.015821 307.584 
L 269.015821 41.472 
" clip-path="url(#p8bdfa0972f)" style="fill: none; stroke: #b0b0b0; stroke-width: 0.8; stroke-linecap: square"/>
     </g>
     <g id="line2d_8">
      <g>
       <use xlink:href="#m2af680c160" x="269.015821" y="307.584" style="stroke: #000000; stroke-width: 0.8"/>
      </g>
     </g>
     <g id="text_4">
      <!-- 0.03 -->
      <g transform="translate(257.883008 322.182437) scale(0.1 -0.1)">
       <defs>
        <path id="DejaVuSans-33" d="M 2597 2516 
Q 3050 2419 3304 2112 
Q 3559 1806 3559 1356 
Q 3559 666 3084 287 
Q 2609 -91 1734 -91 
Q 1441 -91 1130 -33 
Q 819 25 488 141 
L 488 750 
Q 750 597 1062 519 
Q 1375 441 1716 441 
Q 2309 441 2620 675 
Q 2931 909 2931 1356 
Q 2931 1769 2642 2001 
Q 2353 2234 1838 2234 
L 1294 2234 
L 1294 2753 
L 1863 2753 
Q 2328 2753 2575 2939 
Q 2822 3125 2822 3475 
Q 2822 3834 2567 4026 
Q 2313 4219 1838 4219 
Q 1578 4219 1281 4162 
Q 984 4106 628 3988 
L 628 4550 
Q 988 4650 1302 4700 
Q 1616 4750 1894 4750 
Q 2613 4750 3031 4423 
Q 3450 4097 3450 3541 
Q 3450 3153 3228 2886 
Q 3006 2619 2597 2516 
z
" transform="scale(0.015625)"/>
       </defs>
       <use xlink:href="#DejaVuSans-30"/>
       <use xlink:href="#DejaVuSans-2e" transform="translate(63.623047 0)"/>
       <use xlink:href="#DejaVuSans-30" transform="translate(95.410156 0)"/>
       <use xlink:href="#DejaVuSans-33" transform="translate(159.033203 0)"/>
      </g>
     </g>
    </g>
    <g id="xtick_5">
     <g id="line2d_9">
      <path d="M 334.076852 307.584 
L 334.076852 41.472 
" clip-path="url(#p8bdfa0972f)" style="fill: none; stroke: #b0b0b0; stroke-width: 0.8; stroke-linecap: square"/>
     </g>
     <g id="line2d_10">
      <g>
       <use xlink:href="#m2af680c160" x="334.076852" y="307.584" style="stroke: #000000; stroke-width: 0.8"/>
      </g>
     </g>
     <g id="text_5">
      <!-- 0.04 -->
      <g transform="translate(322.944039 322.182437) scale(0.1 -0.1)">
       <defs>
        <path id="DejaVuSans-34" d="M 2419 4116 
L 825 1625 
L 2419 1625 
L 2419 4116 
z
M 2253 4666 
L 3047 4666 
L 3047 1625 
L 3713 1625 
L 3713 1100 
L 3047 1100 
L 3047 0 
L 2419 0 
L 2419 1100 
L 313 1100 
L 313 1709 
L 2253 4666 
z
" transform="scale(0.015625)"/>
       </defs>
       <use xlink:href="#DejaVuSans-30"/>
       <use xlink:href="#DejaVuSans-2e" transform="translate(63.623047 0)"/>
       <use xlink:href="#DejaVuSans-30" transform="translate(95.410156 0)"/>
       <use xlink:href="#DejaVuSans-34" transform="translate(159.033203 0)"/>
      </g>
     </g>
    </g>
    <g id="xtick_6">
     <g id="line2d_11">
      <path d="M 399.137883 307.584 
L 399.137883 41.472 
" clip-path="url(#p8bdfa0972f)" style="fill: none; stroke: #b0b0b0; stroke-width: 0.8; stroke-linecap: square"/>
     </g>
     <g id="line2d_12">
      <g>
       <use xlink:href="#m2af680c160" x="399.137883" y="307.584" style="stroke: #000000; stroke-width: 0.8"/>
      </g>
     </g>
     <g id="text_6">
      <!-- 0.05 -->
      <g transform="translate(388.005071 322.182437) scale(0.1 -0.1)">
       <defs>
        <path id="DejaVuSans-35" d="M 691 4666 
L 3169 4666 
L 3169 4134 
L 1269 4134 
L 1269 2991 
Q 1406 3038 1543 3061 
Q 1681 3084 1819 3084 
Q 2600 3084 3056 2656 
Q 3513 2228 3513 1497 
Q 3513 744 3044 326 
Q 2575 -91 1722 -91 
Q 1428 -91 1123 -41 
Q 819 9 494 109 
L 494 744 
Q 775 591 1075 516 
Q 1375 441 1709 441 
Q 2250 441 2565 725 
Q 2881 1009 2881 1497 
Q 2881 1984 2565 2268 
Q 2250 2553 1709 2553 
Q 1456 2553 1204 2497 
Q 953 2441 691 2322 
L 691 4666 
z
" transform="scale(0.015625)"/>
       </defs>
       <use xlink:href="#DejaVuSans-30"/>
       <use xlink:href="#DejaVuSans-2e" transform="translate(63.623047 0)"/>
       <use xlink:href="#DejaVuSans-30" transform="translate(95.410156 0)"/>
       <use xlink:href="#DejaVuSans-35" transform="translate(159.033203 0)"/>
      </g>
     </g>
    </g>
   </g>
   <g id="matplotlib.axis_2">
    <g id="ytick_1">
     <g id="line2d_13">
      <path d="M 57.6 278.01404 
L 414.72 278.01404 
" clip-path="url(#p8bdfa0972f)" style="fill: none; stroke: #b0b0b0; stroke-width: 0.8; stroke-linecap: square"/>
     </g>
     <g id="line2d_14">
      <defs>
       <path id="ma8aab578a5" d="M 0 0 
L -3.5 0 
" style="stroke: #000000; stroke-width: 0.8"/>
      </defs>
      <g>
       <use xlink:href="#ma8aab578a5" x="57.6" y="278.01404" style="stroke: #000000; stroke-width: 0.8"/>
      </g>
     </g>
     <g id="text_7">
      <!-- −200 -->
      <g transform="translate(23.132812 281.813258) scale(0.1 -0.1)">
       <defs>
        <path id="DejaVuSans-2212" d="M 678 2272 
L 4684 2272 
L 4684 1741 
L 678 1741 
L 678 2272 
z
" transform="scale(0.015625)"/>
       </defs>
       <use xlink:href="#DejaVuSans-2212"/>
       <use xlink:href="#DejaVuSans-32" transform="translate(83.789062 0)"/>
       <use xlink:href="#DejaVuSans-30" transform="translate(147.412109 0)"/>
       <use xlink:href="#DejaVuSans-30" transform="translate(211.035156 0)"/>
      </g>
     </g>
    </g>
    <g id="ytick_2">
     <g id="line2d_15">
      <path d="M 57.6 227.533045 
L 414.72 227.533045 
" clip-path="url(#p8bdfa0972f)" style="fill: none; stroke: #b0b0b0; stroke-width: 0.8; stroke-linecap: square"/>
     </g>
     <g id="line2d_16">
      <g>
       <use xlink:href="#ma8aab578a5" x="57.6" y="227.533045" style="stroke: #000000; stroke-width: 0.8"/>
      </g>
     </g>
     <g id="text_8">
      <!-- −100 -->
      <g transform="translate(23.132812 231.332263) scale(0.1 -0.1)">
       <use xlink:href="#DejaVuSans-2212"/>
       <use xlink:href="#DejaVuSans-31" transform="translate(83.789062 0)"/>
       <use xlink:href="#DejaVuSans-30" transform="translate(147.412109 0)"/>
       <use xlink:href="#DejaVuSans-30" transform="translate(211.035156 0)"/>
      </g>
     </g>
    </g>
    <g id="ytick_3">
     <g id="line2d_17">
      <path d="M 57.6 177.05205 
L 414.72 177.05205 
" clip-path="url(#p8bdfa0972f)" style="fill: none; stroke: #b0b0b0; stroke-width: 0.8; stroke-linecap: square"/>
     </g>
     <g id="line2d_18">
      <g>
       <use xlink:href="#ma8aab578a5" x="57.6" y="177.05205" style="stroke: #000000; stroke-width: 0.8"/>
      </g>
     </g>
     <g id="text_9">
      <!-- 0 -->
      <g transform="translate(44.2375 180.851268) scale(0.1 -0.1)">
       <use xlink:href="#DejaVuSans-30"/>
      </g>
     </g>
    </g>
    <g id="ytick_4">
     <g id="line2d_19">
      <path d="M 57.6 126.571055 
L 414.72 126.571055 
" clip-path="url(#p8bdfa0972f)" style="fill: none; stroke: #b0b0b0; stroke-width: 0.8; stroke-linecap: square"/>
     </g>
     <g id="line2d_20">
      <g>
       <use xlink:href="#ma8aab578a5" x="57.6" y="126.571055" style="stroke: #000000; stroke-width: 0.8"/>
      </g>
     </g>
     <g id="text_10">
      <!-- 100 -->
      <g transform="translate(31.5125 130.370274) scale(0.1 -0.1)">
       <use xlink:href="#DejaVuSans-31"/>
       <use xlink:href="#DejaVuSans-30" transform="translate(63.623047 0)"/>
       <use xlink:href="#DejaVuSans-30" transform="translate(127.246094 0)"/>
      </g>
     </g>
    </g>
    <g id="ytick_5">
     <g id="line2d_21">
      <path d="M 57.6 76.09006 
L 414.72 76.09006 
" clip-path="url(#p8bdfa0972f)" style="fill: none; stroke: #b0b0b0; stroke-width: 0.8; stroke-linecap: square"/>
     </g>
     <g id="line2d_22">
      <g>
       <use xlink:href="#ma8aab578a5" x="57.6" y="76.09006" style="stroke: #000000; stroke-width: 0.8"/>
      </g>
     </g>
     <g id="text_11">
      <!-- 200 -->
      <g transform="translate(31.5125 79.889279) scale(0.1 -0.1)">
       <use xlink:href="#DejaVuSans-32"/>
       <use xlink:href="#DejaVuSans-30" transform="translate(63.623047 0)"/>
       <use xlink:href="#DejaVuSans-30" transform="translate(127.246094 0)"/>
      </g>
     </g>
    </g>
   </g>
   <g id="line2d_23">
    <path d="M 73.832727 174.528 
L 75.784558 115.251681 
L 77.085779 84.104268 
L 77.736389 72.373888 
L 78.386999 63.488438 
L 79.03761 57.479437 
L 79.68822 54.244688 
L 80.33883 53.568 
L 80.989441 55.145474 
L 81.640051 58.615397 
L 82.290661 63.588615 
L 83.591882 76.51339 
L 86.844934 112.216833 
L 88.146154 123.805439 
L 88.796764 128.525208 
L 89.447375 132.382209 
L 90.097985 135.263001 
L 90.748595 137.05612 
L 91.399206 137.661771 
L 92.049816 137.004911 
L 92.700426 135.04977 
L 93.351037 131.813542 
L 94.001647 127.376945 
L 95.302868 115.568836 
L 98.555919 82.178959 
L 99.206529 77.358274 
L 99.85714 73.706414 
L 100.50775 71.299893 
L 101.15836 70.11476 
L 101.808971 70.029703 
L 102.459581 70.838713 
L 103.110191 72.272263 
L 105.062022 77.276288 
L 105.712633 78.267102 
L 106.363243 78.61411 
L 107.013853 78.267102 
L 107.664463 77.276288 
L 108.965684 74.024982 
L 110.266905 70.838713 
L 110.917515 70.029703 
L 111.568125 70.11476 
L 112.218736 71.299893 
L 112.869346 73.706414 
L 113.519956 77.358274 
L 114.170567 82.178959 
L 115.471787 94.565905 
L 118.074228 121.889607 
L 118.724839 127.376945 
L 119.375449 131.813542 
L 120.026059 135.04977 
L 120.67667 137.004911 
L 121.32728 137.661771 
L 121.97789 137.05612 
L 122.628501 135.263001 
L 123.279111 132.382209 
L 123.929721 128.525208 
L 125.230942 118.333363 
L 126.532163 105.566534 
L 130.435824 63.588615 
L 131.086435 58.615397 
L 131.737045 55.145474 
L 132.387655 53.568 
L 133.038266 54.244688 
L 133.688876 57.479437 
L 134.339486 63.488438 
L 134.990097 72.373888 
L 135.640707 84.104268 
L 136.941927 115.251681 
L 138.243148 153.868372 
L 140.845589 233.804319 
L 142.14681 264.951732 
L 142.79742 276.682112 
L 143.448031 285.567562 
L 144.098641 291.576563 
L 144.749251 294.811312 
L 145.399862 295.488 
L 146.050472 293.910526 
L 146.701082 290.440603 
L 147.351692 285.467385 
L 148.652913 272.54261 
L 151.905965 236.839167 
L 153.207185 225.250561 
L 153.857796 220.530792 
L 154.508406 216.673791 
L 155.159016 213.792999 
L 155.809627 211.99988 
L 156.460237 211.394229 
L 157.110847 212.051089 
L 157.761457 214.00623 
L 158.412068 217.242458 
L 159.062678 221.679055 
L 160.363899 233.487164 
L 163.61695 266.877041 
L 164.267561 271.697726 
L 164.918171 275.349586 
L 165.568781 277.756107 
L 166.219392 278.94124 
L 166.870002 279.026297 
L 167.520612 278.217287 
L 168.171222 276.783737 
L 170.123053 271.779712 
L 170.773664 270.788898 
L 171.424274 270.44189 
L 172.074884 270.788898 
L 172.725495 271.779712 
L 174.026715 275.031018 
L 175.327936 278.217287 
L 175.978546 279.026297 
L 176.629156 278.94124 
L 177.279767 277.756107 
L 177.930377 275.349586 
L 178.580987 271.697726 
L 179.231598 266.877041 
L 180.532818 254.490095 
L 183.13526 227.166393 
L 183.78587 221.679055 
L 184.43648 217.242458 
L 185.087091 214.00623 
L 185.737701 212.051089 
L 186.388311 211.394229 
L 187.038921 211.99988 
L 187.689532 213.792999 
L 188.340142 216.673791 
L 188.990752 220.530792 
L 190.291973 230.722637 
L 191.593194 243.489466 
L 195.496856 285.467385 
L 196.147466 290.440603 
L 196.798076 293.910526 
L 197.448686 295.488 
L 198.099297 294.811312 
L 198.749907 291.576563 
L 199.400517 285.567562 
L 200.051128 276.682112 
L 200.701738 264.951732 
L 202.002959 233.804319 
L 203.304179 195.187628 
L 205.906621 115.251681 
L 207.207841 84.104268 
L 207.858451 72.373888 
L 208.509062 63.488438 
L 209.159672 57.479437 
L 209.810282 54.244688 
L 210.460893 53.568 
L 211.111503 55.145474 
L 211.762113 58.615397 
L 212.412724 63.588615 
L 213.713944 76.51339 
L 216.966996 112.216833 
L 218.268216 123.805439 
L 218.918827 128.525208 
L 219.569437 132.382209 
L 220.220047 135.263001 
L 220.870658 137.05612 
L 221.521268 137.661771 
L 222.171878 137.004911 
L 222.822489 135.04977 
L 223.473099 131.813542 
L 224.123709 127.376945 
L 225.42493 115.568836 
L 228.677981 82.178959 
L 229.328592 77.358274 
L 229.979202 73.706414 
L 230.629812 71.299893 
L 231.280423 70.11476 
L 231.931033 70.029703 
L 232.581643 70.838713 
L 233.232254 72.272263 
L 235.184085 77.276288 
L 235.834695 78.267102 
L 236.485305 78.61411 
L 237.135915 78.267102 
L 237.786526 77.276288 
L 239.087746 74.024982 
L 240.388967 70.838713 
L 241.039577 70.029703 
L 241.690188 70.11476 
L 242.340798 71.299893 
L 242.991408 73.706414 
L 243.642019 77.358274 
L 244.292629 82.178959 
L 245.59385 94.565905 
L 248.196291 121.889607 
L 248.846901 127.376945 
L 249.497511 131.813542 
L 250.148122 135.04977 
L 250.798732 137.004911 
L 251.449342 137.661771 
L 252.099953 137.05612 
L 252.750563 135.263001 
L 253.401173 132.382209 
L 254.051784 128.525208 
L 255.353004 118.333363 
L 256.654225 105.566534 
L 260.557887 63.588615 
L 261.208497 58.615397 
L 261.859107 55.145474 
L 262.509718 53.568 
L 263.160328 54.244688 
L 263.810938 57.479437 
L 264.461549 63.488438 
L 265.112159 72.373888 
L 265.762769 84.104268 
L 267.06399 115.251681 
L 268.36521 153.868372 
L 270.967652 233.804319 
L 272.268872 264.951732 
L 272.919483 276.682112 
L 273.570093 285.567562 
L 274.220703 291.576563 
L 274.871314 294.811312 
L 275.521924 295.488 
L 276.172534 293.910526 
L 276.823144 290.440603 
L 277.473755 285.467385 
L 278.774975 272.54261 
L 282.028027 236.839167 
L 283.329248 225.250561 
L 283.979858 220.530792 
L 284.630468 216.673791 
L 285.281079 213.792999 
L 285.931689 211.99988 
L 286.582299 211.394229 
L 287.232909 212.051089 
L 287.88352 214.00623 
L 288.53413 217.242458 
L 289.18474 221.679055 
L 290.485961 233.487164 
L 293.739013 266.877041 
L 294.389623 271.697726 
L 295.040233 275.349586 
L 295.690844 277.756107 
L 296.341454 278.94124 
L 296.992064 279.026297 
L 297.642674 278.217287 
L 298.293285 276.783737 
L 300.245116 271.779712 
L 300.895726 270.788898 
L 301.546336 270.44189 
L 302.196947 270.788898 
L 302.847557 271.779712 
L 304.148778 275.031018 
L 305.449998 278.217287 
L 306.100608 279.026297 
L 306.751219 278.94124 
L 307.401829 277.756107 
L 308.052439 275.349586 
L 308.70305 271.697726 
L 309.35366 266.877041 
L 310.654881 254.490095 
L 313.257322 227.166393 
L 313.907932 221.679055 
L 314.558543 217.242458 
L 315.209153 214.00623 
L 315.859763 212.051089 
L 316.510373 211.394229 
L 317.160984 211.99988 
L 317.811594 213.792999 
L 318.462204 216.673791 
L 319.112815 220.530792 
L 320.414035 230.722637 
L 321.715256 243.489466 
L 325.618918 285.467385 
L 326.269528 290.440603 
L 326.920138 293.910526 
L 327.570749 295.488 
L 328.221359 294.811312 
L 328.871969 291.576563 
L 329.52258 285.567562 
L 330.17319 276.682112 
L 330.8238 264.951732 
L 332.125021 233.804319 
L 333.426242 195.187628 
L 336.028683 115.251681 
L 337.329903 84.104268 
L 337.980514 72.373888 
L 338.631124 63.488438 
L 339.281734 57.479437 
L 339.932345 54.244688 
L 340.582955 53.568 
L 341.233565 55.145474 
L 341.884176 58.615397 
L 342.534786 63.588615 
L 343.836007 76.51339 
L 347.089058 112.216833 
L 348.390279 123.805439 
L 349.040889 128.525208 
L 349.691499 132.382209 
L 350.34211 135.263001 
L 350.99272 137.05612 
L 351.64333 137.661771 
L 352.293941 137.004911 
L 352.944551 135.04977 
L 353.595161 131.813542 
L 354.245772 127.376945 
L 355.546992 115.568836 
L 358.800044 82.178959 
L 359.450654 77.358274 
L 360.101264 73.706414 
L 360.751875 71.299893 
L 361.402485 70.11476 
L 362.053095 70.029703 
L 362.703706 70.838713 
L 363.354316 72.272263 
L 365.306147 77.276288 
L 365.956757 78.267102 
L 366.607367 78.61411 
L 367.257978 78.267102 
L 367.908588 77.276288 
L 369.209809 74.024982 
L 370.511029 70.838713 
L 371.16164 70.029703 
L 371.81225 70.11476 
L 372.46286 71.299893 
L 373.113471 73.706414 
L 373.764081 77.358274 
L 374.414691 82.178959 
L 375.715912 94.565905 
L 378.318353 121.889607 
L 378.968963 127.376945 
L 379.619574 131.813542 
L 380.270184 135.04977 
L 380.920794 137.004911 
L 381.571405 137.661771 
L 382.222015 137.05612 
L 382.872625 135.263001 
L 383.523236 132.382209 
L 384.173846 128.525208 
L 385.475066 118.333363 
L 386.776287 105.566534 
L 390.679949 63.588615 
L 391.330559 58.615397 
L 391.98117 55.145474 
L 392.63178 53.568 
L 393.28239 54.244688 
L 393.933001 57.479437 
L 394.583611 63.488438 
L 395.234221 72.373888 
L 395.884831 84.104268 
L 397.186052 115.251681 
L 398.487273 153.868372 
L 398.487273 153.868372 
" clip-path="url(#p8bdfa0972f)" style="fill: none; stroke: #1f77b4; stroke-width: 1.5; stroke-linecap: square"/>
   </g>
   <g id="patch_3">
    <path d="M 57.6 307.584 
L 57.6 41.472 
" style="fill: none; stroke: #000000; stroke-width: 0.8; stroke-linejoin: miter; stroke-linecap: square"/>
   </g>
   <g id="patch_4">
    <path d="M 414.72 307.584 
L 414.72 41.472 
" style="fill: none; stroke: #000000; stroke-width: 0.8; stroke-linejoin: miter; stroke-linecap: square"/>
   </g>
   <g id="patch_5">
    <path d="M 57.6 307.584 
L 414.72 307.584 
" style="fill: none; stroke: #000000; stroke-width: 0.8; stroke-linejoin: miter; stroke-linecap: square"/>
   </g>
   <g id="patch_6">
    <path d="M 57.6 41.472 
L 414.72 41.472 
" style="fill: none; stroke: #000000; stroke-width: 0.8; stroke-linejoin: miter; stroke-linecap: square"/>
   </g>
  </g>
 </g>
 <defs>
  <clipPath id="p8bdfa0972f">
   <rect x="57.6" y="41.472" width="357.12" height="266.112"/>
  </clipPath>
 </defs>
</svg>
