<?xml version="1.0" encoding="utf-8" standalone="no"?>
<!DOCTYPE svg PUBLIC "-//W3C//DTD SVG 1.1//EN"
  "http://www.w3.org/Graphics/SVG/1.1/DTD/svg11.dtd">
<svg xmlns:xlink="http://www.w3.org/1999/xlink" width="460.8pt" height="345.6pt" viewBox="0 0 460.8 345.6" xmlns="http://www.w3.org/2000/svg" version="1.1">
 <metadata>
  <rdf:RDF xmlns:dc="http://purl.org/dc/elements/1.1/" xmlns:cc="http://creativecommons.org/ns#" xmlns:rdf="http://www.w3.org/1999/02/22-rdf-syntax-ns#">
   <cc:Work>
    <dc:type rdf:resource="http://purl.org/dc/dcmitype/StillImage"/>
    <dc:date>2025-11-02T21:53:54.653539</dc:date>
    <dc:format>image/svg+xml</dc:format>
    <dc:creator>
     <cc:Agent>
      <dc:title>Matplotlib v3.10.7, https://matplotlib.org/</dc:title>
     </cc:Agent>
    </dc:creator>
   </cc:Work>
  </rdf:RDF>
 </metadata>
 <defs>
  <style type="text/css">*{stroke-linejoin: round; stroke-linecap: butt}</style>
 </defs>
 <g id="figure_1">
  <g id="patch_1">
   <path d="M 0 345.6 
L 460.8 345.6 
L 460.8 0 
L 0 0 
z
" style="fill: #ffffff"/>
  </g>
  <g id="axes_1">
   <g id="patch_2">
    <path d="M 57.6 307.584 
L 414.72 307.584 
L 414.72 41.472 
L 57.6 41.472 
z
" style="fill: #ffffff"/>
   </g>
   <g id="matplotlib.axis_1">
    <g id="xtick_1">
     <g id="line2d_1">
      <path d="M 73.832727 307.584 
L 73.832727 41.472 
" clip-path="url(#p0d9a89bfba)" style="fill: none; stroke: #b0b0b0; stroke-width: 0.8; stroke-linecap: square"/>
     </g>
     <g id="line2d_2">
      <defs>
       <path id="m39d39fec96" d="M 0 0 
L 0 3.5 
" style="stroke: #000000; stroke-width: 0.8"/>
      </defs>
      <g>
       <use xlink:href="#m39d39fec96" x="73.832727" y="307.584" style="stroke: #000000; stroke-width: 0.8"/>
      </g>
     </g>
     <g id="text_1">
      <!-- 0.0000 -->
      <g transform="translate(56.337415 322.182437) scale(0.1 -0.1)">
       <defs>
        <path id="DejaVuSans-30" d="M 2034 4250 
Q 1547 4250 1301 3770 
Q 1056 3291 1056 2328 
Q 1056 1369 1301 889 
Q 1547 409 2034 409 
Q 2525 409 2770 889 
Q 3016 1369 3016 2328 
Q 3016 3291 2770 3770 
Q 2525 4250 2034 4250 
z
M 2034 4750 
Q 2819 4750 3233 4129 
Q 3647 3509 3647 2328 
Q 3647 1150 3233 529 
Q 2819 -91 2034 -91 
Q 1250 -91 836 529 
Q 422 1150 422 2328 
Q 422 3509 836 4129 
Q 1250 4750 2034 4750 
z
" transform="scale(0.015625)"/>
        <path id="DejaVuSans-2e" d="M 684 794 
L 1344 794 
L 1344 0 
L 684 0 
L 684 794 
z
" transform="scale(0.015625)"/>
       </defs>
       <use xlink:href="#DejaVuSans-30"/>
       <use xlink:href="#DejaVuSans-2e" transform="translate(63.623047 0)"/>
       <use xlink:href="#DejaVuSans-30" transform="translate(95.410156 0)"/>
       <use xlink:href="#DejaVuSans-30" transform="translate(159.033203 0)"/>
       <use xlink:href="#DejaVuSans-30" transform="translate(222.65625 0)"/>
       <use xlink:href="#DejaVuSans-30" transform="translate(286.279297 0)"/>
      </g>
     </g>
    </g>
    <g id="xtick_2">
     <g id="line2d_3">
      <path d="M 114.495872 307.584 
L 114.495872 41.472 
" clip-path="url(#p0d9a89bfba)" style="fill: none; stroke: #b0b0b0; stroke-width: 0.8; stroke-linecap: square"/>
     </g>
     <g id="line2d_4">
      <g>
       <use xlink:href="#m39d39fec96" x="114.495872" y="307.584" style="stroke: #000000; stroke-width: 0.8"/>
      </g>
     </g>
     <g id="text_2">
      <!-- 0.0025 -->
      <g transform="translate(97.000559 322.182437) scale(0.1 -0.1)">
       <defs>
        <path id="DejaVuSans-32" d="M 1228 531 
L 3431 531 
L 3431 0 
L 469 0 
L 469 531 
Q 828 903 1448 1529 
Q 2069 2156 2228 2338 
Q 2531 2678 2651 2914 
Q 2772 3150 2772 3378 
Q 2772 3750 2511 3984 
Q 2250 4219 1831 4219 
Q 1534 4219 1204 4116 
Q 875 4013 500 3803 
L 500 4441 
Q 881 4594 1212 4672 
Q 1544 4750 1819 4750 
Q 2544 4750 2975 4387 
Q 3406 4025 3406 3419 
Q 3406 3131 3298 2873 
Q 3191 2616 2906 2266 
Q 2828 2175 2409 1742 
Q 1991 1309 1228 531 
z
" transform="scale(0.015625)"/>
        <path id="DejaVuSans-35" d="M 691 4666 
L 3169 4666 
L 3169 4134 
L 1269 4134 
L 1269 2991 
Q 1406 3038 1543 3061 
Q 1681 3084 1819 3084 
Q 2600 3084 3056 2656 
Q 3513 2228 3513 1497 
Q 3513 744 3044 326 
Q 2575 -91 1722 -91 
Q 1428 -91 1123 -41 
Q 819 9 494 109 
L 494 744 
Q 775 591 1075 516 
Q 1375 441 1709 441 
Q 2250 441 2565 725 
Q 2881 1009 2881 1497 
Q 2881 1984 2565 2268 
Q 2250 2553 1709 2553 
Q 1456 2553 1204 2497 
Q 953 2441 691 2322 
L 691 4666 
z
" transform="scale(0.015625)"/>
       </defs>
       <use xlink:href="#DejaVuSans-30"/>
       <use xlink:href="#DejaVuSans-2e" transform="translate(63.623047 0)"/>
       <use xlink:href="#DejaVuSans-30" transform="translate(95.410156 0)"/>
       <use xlink:href="#DejaVuSans-30" transform="translate(159.033203 0)"/>
       <use xlink:href="#DejaVuSans-32" transform="translate(222.65625 0)"/>
       <use xlink:href="#DejaVuSans-35" transform="translate(286.279297 0)"/>
      </g>
     </g>
    </g>
    <g id="xtick_3">
     <g id="line2d_5">
      <path d="M 155.159016 307.584 
L 155.159016 41.472 
" clip-path="url(#p0d9a89bfba)" style="fill: none; stroke: #b0b0b0; stroke-width: 0.8; stroke-linecap: square"/>
     </g>
     <g id="line2d_6">
      <g>
       <use xlink:href="#m39d39fec96" x="155.159016" y="307.584" style="stroke: #000000; stroke-width: 0.8"/>
      </g>
     </g>
     <g id="text_3">
      <!-- 0.0050 -->
      <g transform="translate(137.663704 322.182437) scale(0.1 -0.1)">
       <use xlink:href="#DejaVuSans-30"/>
       <use xlink:href="#DejaVuSans-2e" transform="translate(63.623047 0)"/>
       <use xlink:href="#DejaVuSans-30" transform="translate(95.410156 0)"/>
       <use xlink:href="#DejaVuSans-30" transform="translate(159.033203 0)"/>
       <use xlink:href="#DejaVuSans-35" transform="translate(222.65625 0)"/>
       <use xlink:href="#DejaVuSans-30" transform="translate(286.279297 0)"/>
      </g>
     </g>
    </g>
    <g id="xtick_4">
     <g id="line2d_7">
      <path d="M 195.822161 307.584 
L 195.822161 41.472 
" clip-path="url(#p0d9a89bfba)" style="fill: none; stroke: #b0b0b0; stroke-width: 0.8; stroke-linecap: square"/>
     </g>
     <g id="line2d_8">
      <g>
       <use xlink:href="#m39d39fec96" x="195.822161" y="307.584" style="stroke: #000000; stroke-width: 0.8"/>
      </g>
     </g>
     <g id="text_4">
      <!-- 0.0075 -->
      <g transform="translate(178.326848 322.182437) scale(0.1 -0.1)">
       <defs>
        <path id="DejaVuSans-37" d="M 525 4666 
L 3525 4666 
L 3525 4397 
L 1831 0 
L 1172 0 
L 2766 4134 
L 525 4134 
L 525 4666 
z
" transform="scale(0.015625)"/>
       </defs>
       <use xlink:href="#DejaVuSans-30"/>
       <use xlink:href="#DejaVuSans-2e" transform="translate(63.623047 0)"/>
       <use xlink:href="#DejaVuSans-30" transform="translate(95.410156 0)"/>
       <use xlink:href="#DejaVuSans-30" transform="translate(159.033203 0)"/>
       <use xlink:href="#DejaVuSans-37" transform="translate(222.65625 0)"/>
       <use xlink:href="#DejaVuSans-35" transform="translate(286.279297 0)"/>
      </g>
     </g>
    </g>
    <g id="xtick_5">
     <g id="line2d_9">
      <path d="M 236.485305 307.584 
L 236.485305 41.472 
" clip-path="url(#p0d9a89bfba)" style="fill: none; stroke: #b0b0b0; stroke-width: 0.8; stroke-linecap: square"/>
     </g>
     <g id="line2d_10">
      <g>
       <use xlink:href="#m39d39fec96" x="236.485305" y="307.584" style="stroke: #000000; stroke-width: 0.8"/>
      </g>
     </g>
     <g id="text_5">
      <!-- 0.0100 -->
      <g transform="translate(218.989993 322.182437) scale(0.1 -0.1)">
       <defs>
        <path id="DejaVuSans-31" d="M 794 531 
L 1825 531 
L 1825 4091 
L 703 3866 
L 703 4441 
L 1819 4666 
L 2450 4666 
L 2450 531 
L 3481 531 
L 3481 0 
L 794 0 
L 794 531 
z
" transform="scale(0.015625)"/>
       </defs>
       <use xlink:href="#DejaVuSans-30"/>
       <use xlink:href="#DejaVuSans-2e" transform="translate(63.623047 0)"/>
       <use xlink:href="#DejaVuSans-30" transform="translate(95.410156 0)"/>
       <use xlink:href="#DejaVuSans-31" transform="translate(159.033203 0)"/>
       <use xlink:href="#DejaVuSans-30" transform="translate(222.65625 0)"/>
       <use xlink:href="#DejaVuSans-30" transform="translate(286.279297 0)"/>
      </g>
     </g>
    </g>
    <g id="xtick_6">
     <g id="line2d_11">
      <path d="M 277.14845 307.584 
L 277.14845 41.472 
" clip-path="url(#p0d9a89bfba)" style="fill: none; stroke: #b0b0b0; stroke-width: 0.8; stroke-linecap: square"/>
     </g>
     <g id="line2d_12">
      <g>
       <use xlink:href="#m39d39fec96" x="277.14845" y="307.584" style="stroke: #000000; stroke-width: 0.8"/>
      </g>
     </g>
     <g id="text_6">
      <!-- 0.0125 -->
      <g transform="translate(259.653137 322.182437) scale(0.1 -0.1)">
       <use xlink:href="#DejaVuSans-30"/>
       <use xlink:href="#DejaVuSans-2e" transform="translate(63.623047 0)"/>
       <use xlink:href="#DejaVuSans-30" transform="translate(95.410156 0)"/>
       <use xlink:href="#DejaVuSans-31" transform="translate(159.033203 0)"/>
       <use xlink:href="#DejaVuSans-32" transform="translate(222.65625 0)"/>
       <use xlink:href="#DejaVuSans-35" transform="translate(286.279297 0)"/>
      </g>
     </g>
    </g>
    <g id="xtick_7">
     <g id="line2d_13">
      <path d="M 317.811594 307.584 
L 317.811594 41.472 
" clip-path="url(#p0d9a89bfba)" style="fill: none; stroke: #b0b0b0; stroke-width: 0.8; stroke-linecap: square"/>
     </g>
     <g id="line2d_14">
      <g>
       <use xlink:href="#m39d39fec96" x="317.811594" y="307.584" style="stroke: #000000; stroke-width: 0.8"/>
      </g>
     </g>
     <g id="text_7">
      <!-- 0.0150 -->
      <g transform="translate(300.316282 322.182437) scale(0.1 -0.1)">
       <use xlink:href="#DejaVuSans-30"/>
       <use xlink:href="#DejaVuSans-2e" transform="translate(63.623047 0)"/>
       <use xlink:href="#DejaVuSans-30" transform="translate(95.410156 0)"/>
       <use xlink:href="#DejaVuSans-31" transform="translate(159.033203 0)"/>
       <use xlink:href="#DejaVuSans-35" transform="translate(222.65625 0)"/>
       <use xlink:href="#DejaVuSans-30" transform="translate(286.279297 0)"/>
      </g>
     </g>
    </g>
    <g id="xtick_8">
     <g id="line2d_15">
      <path d="M 358.474739 307.584 
L 358.474739 41.472 
" clip-path="url(#p0d9a89bfba)" style="fill: none; stroke: #b0b0b0; stroke-width: 0.8; stroke-linecap: square"/>
     </g>
     <g id="line2d_16">
      <g>
       <use xlink:href="#m39d39fec96" x="358.474739" y="307.584" style="stroke: #000000; stroke-width: 0.8"/>
      </g>
     </g>
     <g id="text_8">
      <!-- 0.0175 -->
      <g transform="translate(340.979426 322.182437) scale(0.1 -0.1)">
       <use xlink:href="#DejaVuSans-30"/>
       <use xlink:href="#DejaVuSans-2e" transform="translate(63.623047 0)"/>
       <use xlink:href="#DejaVuSans-30" transform="translate(95.410156 0)"/>
       <use xlink:href="#DejaVuSans-31" transform="translate(159.033203 0)"/>
       <use xlink:href="#DejaVuSans-37" transform="translate(222.65625 0)"/>
       <use xlink:href="#DejaVuSans-35" transform="translate(286.279297 0)"/>
      </g>
     </g>
    </g>
    <g id="xtick_9">
     <g id="line2d_17">
      <path d="M 399.137883 307.584 
L 399.137883 41.472 
" clip-path="url(#p0d9a89bfba)" style="fill: none; stroke: #b0b0b0; stroke-width: 0.8; stroke-linecap: square"/>
     </g>
     <g id="line2d_18">
      <g>
       <use xlink:href="#m39d39fec96" x="399.137883" y="307.584" style="stroke: #000000; stroke-width: 0.8"/>
      </g>
     </g>
     <g id="text_9">
      <!-- 0.0200 -->
      <g transform="translate(381.642571 322.182437) scale(0.1 -0.1)">
       <use xlink:href="#DejaVuSans-30"/>
       <use xlink:href="#DejaVuSans-2e" transform="translate(63.623047 0)"/>
       <use xlink:href="#DejaVuSans-30" transform="translate(95.410156 0)"/>
       <use xlink:href="#DejaVuSans-32" transform="translate(159.033203 0)"/>
       <use xlink:href="#DejaVuSans-30" transform="translate(222.65625 0)"/>
       <use xlink:href="#DejaVuSans-30" transform="translate(286.279297 0)"/>
      </g>
     </g>
    </g>
   </g>
   <g id="matplotlib.axis_2">
    <g id="ytick_1">
     <g id="line2d_19">
      <path d="M 57.6 283.150943 
L 414.72 283.150943 
" clip-path="url(#p0d9a89bfba)" style="fill: none; stroke: #b0b0b0; stroke-width: 0.8; stroke-linecap: square"/>
     </g>
     <g id="line2d_20">
      <defs>
       <path id="m7c474e6471" d="M 0 0 
L -3.5 0 
" style="stroke: #000000; stroke-width: 0.8"/>
      </defs>
      <g>
       <use xlink:href="#m7c474e6471" x="57.6" y="283.150943" style="stroke: #000000; stroke-width: 0.8"/>
      </g>
     </g>
     <g id="text_10">
      <!-- −300 -->
      <g transform="translate(23.132812 286.950162) scale(0.1 -0.1)">
       <defs>
        <path id="DejaVuSans-2212" d="M 678 2272 
L 4684 2272 
L 4684 1741 
L 678 1741 
L 678 2272 
z
" transform="scale(0.015625)"/>
        <path id="DejaVuSans-33" d="M 2597 2516 
Q 3050 2419 3304 2112 
Q 3559 1806 3559 1356 
Q 3559 666 3084 287 
Q 2609 -91 1734 -91 
Q 1441 -91 1130 -33 
Q 819 25 488 141 
L 488 750 
Q 750 597 1062 519 
Q 1375 441 1716 441 
Q 2309 441 2620 675 
Q 2931 909 2931 1356 
Q 2931 1769 2642 2001 
Q 2353 2234 1838 2234 
L 1294 2234 
L 1294 2753 
L 1863 2753 
Q 2328 2753 2575 2939 
Q 2822 3125 2822 3475 
Q 2822 3834 2567 4026 
Q 2313 4219 1838 4219 
Q 1578 4219 1281 4162 
Q 984 4106 628 3988 
L 628 4550 
Q 988 4650 1302 4700 
Q 1616 4750 1894 4750 
Q 2613 4750 3031 4423 
Q 3450 4097 3450 3541 
Q 3450 3153 3228 2886 
Q 3006 2619 2597 2516 
z
" transform="scale(0.015625)"/>
       </defs>
       <use xlink:href="#DejaVuSans-2212"/>
       <use xlink:href="#DejaVuSans-33" transform="translate(83.789062 0)"/>
       <use xlink:href="#DejaVuSans-30" transform="translate(147.412109 0)"/>
       <use xlink:href="#DejaVuSans-30" transform="translate(211.035156 0)"/>
      </g>
     </g>
    </g>
    <g id="ytick_2">
     <g id="line2d_21">
      <path d="M 57.6 247.196475 
L 414.72 247.196475 
" clip-path="url(#p0d9a89bfba)" style="fill: none; stroke: #b0b0b0; stroke-width: 0.8; stroke-linecap: square"/>
     </g>
     <g id="line2d_22">
      <g>
       <use xlink:href="#m7c474e6471" x="57.6" y="247.196475" style="stroke: #000000; stroke-width: 0.8"/>
      </g>
     </g>
     <g id="text_11">
      <!-- −200 -->
      <g transform="translate(23.132812 250.995694) scale(0.1 -0.1)">
       <use xlink:href="#DejaVuSans-2212"/>
       <use xlink:href="#DejaVuSans-32" transform="translate(83.789062 0)"/>
       <use xlink:href="#DejaVuSans-30" transform="translate(147.412109 0)"/>
       <use xlink:href="#DejaVuSans-30" transform="translate(211.035156 0)"/>
      </g>
     </g>
    </g>
    <g id="ytick_3">
     <g id="line2d_23">
      <path d="M 57.6 211.242007 
L 414.72 211.242007 
" clip-path="url(#p0d9a89bfba)" style="fill: none; stroke: #b0b0b0; stroke-width: 0.8; stroke-linecap: square"/>
     </g>
     <g id="line2d_24">
      <g>
       <use xlink:href="#m7c474e6471" x="57.6" y="211.242007" style="stroke: #000000; stroke-width: 0.8"/>
      </g>
     </g>
     <g id="text_12">
      <!-- −100 -->
      <g transform="translate(23.132812 215.041225) scale(0.1 -0.1)">
       <use xlink:href="#DejaVuSans-2212"/>
       <use xlink:href="#DejaVuSans-31" transform="translate(83.789062 0)"/>
       <use xlink:href="#DejaVuSans-30" transform="translate(147.412109 0)"/>
       <use xlink:href="#DejaVuSans-30" transform="translate(211.035156 0)"/>
      </g>
     </g>
    </g>
    <g id="ytick_4">
     <g id="line2d_25">
      <path d="M 57.6 175.287538 
L 414.72 175.287538 
" clip-path="url(#p0d9a89bfba)" style="fill: none; stroke: #b0b0b0; stroke-width: 0.8; stroke-linecap: square"/>
     </g>
     <g id="line2d_26">
      <g>
       <use xlink:href="#m7c474e6471" x="57.6" y="175.287538" style="stroke: #000000; stroke-width: 0.8"/>
      </g>
     </g>
     <g id="text_13">
      <!-- 0 -->
      <g transform="translate(44.2375 179.086757) scale(0.1 -0.1)">
       <use xlink:href="#DejaVuSans-30"/>
      </g>
     </g>
    </g>
    <g id="ytick_5">
     <g id="line2d_27">
      <path d="M 57.6 139.33307 
L 414.72 139.33307 
" clip-path="url(#p0d9a89bfba)" style="fill: none; stroke: #b0b0b0; stroke-width: 0.8; stroke-linecap: square"/>
     </g>
     <g id="line2d_28">
      <g>
       <use xlink:href="#m7c474e6471" x="57.6" y="139.33307" style="stroke: #000000; stroke-width: 0.8"/>
      </g>
     </g>
     <g id="text_14">
      <!-- 100 -->
      <g transform="translate(31.5125 143.132289) scale(0.1 -0.1)">
       <use xlink:href="#DejaVuSans-31"/>
       <use xlink:href="#DejaVuSans-30" transform="translate(63.623047 0)"/>
       <use xlink:href="#DejaVuSans-30" transform="translate(127.246094 0)"/>
      </g>
     </g>
    </g>
    <g id="ytick_6">
     <g id="line2d_29">
      <path d="M 57.6 103.378601 
L 414.72 103.378601 
" clip-path="url(#p0d9a89bfba)" style="fill: none; stroke: #b0b0b0; stroke-width: 0.8; stroke-linecap: square"/>
     </g>
     <g id="line2d_30">
      <g>
       <use xlink:href="#m7c474e6471" x="57.6" y="103.378601" style="stroke: #000000; stroke-width: 0.8"/>
      </g>
     </g>
     <g id="text_15">
      <!-- 200 -->
      <g transform="translate(31.5125 107.17782) scale(0.1 -0.1)">
       <use xlink:href="#DejaVuSans-32"/>
       <use xlink:href="#DejaVuSans-30" transform="translate(63.623047 0)"/>
       <use xlink:href="#DejaVuSans-30" transform="translate(127.246094 0)"/>
      </g>
     </g>
    </g>
    <g id="ytick_7">
     <g id="line2d_31">
      <path d="M 57.6 67.424133 
L 414.72 67.424133 
" clip-path="url(#p0d9a89bfba)" style="fill: none; stroke: #b0b0b0; stroke-width: 0.8; stroke-linecap: square"/>
     </g>
     <g id="line2d_32">
      <g>
       <use xlink:href="#m7c474e6471" x="57.6" y="67.424133" style="stroke: #000000; stroke-width: 0.8"/>
      </g>
     </g>
     <g id="text_16">
      <!-- 300 -->
      <g transform="translate(31.5125 71.223352) scale(0.1 -0.1)">
       <use xlink:href="#DejaVuSans-33"/>
       <use xlink:href="#DejaVuSans-30" transform="translate(63.623047 0)"/>
       <use xlink:href="#DejaVuSans-30" transform="translate(127.246094 0)"/>
      </g>
     </g>
    </g>
    <g id="text_17">
     <!-- Voltage [V] -->
     <g transform="translate(17.053125 202.195188) rotate(-90) scale(0.1 -0.1)">
      <defs>
       <path id="DejaVuSans-56" d="M 1831 0 
L 50 4666 
L 709 4666 
L 2188 738 
L 3669 4666 
L 4325 4666 
L 2547 0 
L 1831 0 
z
" transform="scale(0.015625)"/>
       <path id="DejaVuSans-6f" d="M 1959 3097 
Q 1497 3097 1228 2736 
Q 959 2375 959 1747 
Q 959 1119 1226 758 
Q 1494 397 1959 397 
Q 2419 397 2687 759 
Q 2956 1122 2956 1747 
Q 2956 2369 2687 2733 
Q 2419 3097 1959 3097 
z
M 1959 3584 
Q 2709 3584 3137 3096 
Q 3566 2609 3566 1747 
Q 3566 888 3137 398 
Q 2709 -91 1959 -91 
Q 1206 -91 779 398 
Q 353 888 353 1747 
Q 353 2609 779 3096 
Q 1206 3584 1959 3584 
z
" transform="scale(0.015625)"/>
       <path id="DejaVuSans-6c" d="M 603 4863 
L 1178 4863 
L 1178 0 
L 603 0 
L 603 4863 
z
" transform="scale(0.015625)"/>
       <path id="DejaVuSans-74" d="M 1172 4494 
L 1172 3500 
L 2356 3500 
L 2356 3053 
L 1172 3053 
L 1172 1153 
Q 1172 725 1289 603 
Q 1406 481 1766 481 
L 2356 481 
L 2356 0 
L 1766 0 
Q 1100 0 847 248 
Q 594 497 594 1153 
L 594 3053 
L 172 3053 
L 172 3500 
L 594 3500 
L 594 4494 
L 1172 4494 
z
" transform="scale(0.015625)"/>
       <path id="DejaVuSans-61" d="M 2194 1759 
Q 1497 1759 1228 1600 
Q 959 1441 959 1056 
Q 959 750 1161 570 
Q 1363 391 1709 391 
Q 2188 391 2477 730 
Q 2766 1069 2766 1631 
L 2766 1759 
L 2194 1759 
z
M 3341 1997 
L 3341 0 
L 2766 0 
L 2766 531 
Q 2569 213 2275 61 
Q 1981 -91 1556 -91 
Q 1019 -91 701 211 
Q 384 513 384 1019 
Q 384 1609 779 1909 
Q 1175 2209 1959 2209 
L 2766 2209 
L 2766 2266 
Q 2766 2663 2505 2880 
Q 2244 3097 1772 3097 
Q 1472 3097 1187 3025 
Q 903 2953 641 2809 
L 641 3341 
Q 956 3463 1253 3523 
Q 1550 3584 1831 3584 
Q 2591 3584 2966 3190 
Q 3341 2797 3341 1997 
z
" transform="scale(0.015625)"/>
       <path id="DejaVuSans-67" d="M 2906 1791 
Q 2906 2416 2648 2759 
Q 2391 3103 1925 3103 
Q 1463 3103 1205 2759 
Q 947 2416 947 1791 
Q 947 1169 1205 825 
Q 1463 481 1925 481 
Q 2391 481 2648 825 
Q 2906 1169 2906 1791 
z
M 3481 434 
Q 3481 -459 3084 -895 
Q 2688 -1331 1869 -1331 
Q 1566 -1331 1297 -1286 
Q 1028 -1241 775 -1147 
L 775 -588 
Q 1028 -725 1275 -790 
Q 1522 -856 1778 -856 
Q 2344 -856 2625 -561 
Q 2906 -266 2906 331 
L 2906 616 
Q 2728 306 2450 153 
Q 2172 0 1784 0 
Q 1141 0 747 490 
Q 353 981 353 1791 
Q 353 2603 747 3093 
Q 1141 3584 1784 3584 
Q 2172 3584 2450 3431 
Q 2728 3278 2906 2969 
L 2906 3500 
L 3481 3500 
L 3481 434 
z
" transform="scale(0.015625)"/>
       <path id="DejaVuSans-65" d="M 3597 1894 
L 3597 1613 
L 953 1613 
Q 991 1019 1311 708 
Q 1631 397 2203 397 
Q 2534 397 2845 478 
Q 3156 559 3463 722 
L 3463 178 
Q 3153 47 2828 -22 
Q 2503 -91 2169 -91 
Q 1331 -91 842 396 
Q 353 884 353 1716 
Q 353 2575 817 3079 
Q 1281 3584 2069 3584 
Q 2775 3584 3186 3129 
Q 3597 2675 3597 1894 
z
M 3022 2063 
Q 3016 2534 2758 2815 
Q 2500 3097 2075 3097 
Q 1594 3097 1305 2825 
Q 1016 2553 972 2059 
L 3022 2063 
z
" transform="scale(0.015625)"/>
       <path id="DejaVuSans-20" transform="scale(0.015625)"/>
       <path id="DejaVuSans-5b" d="M 550 4863 
L 1875 4863 
L 1875 4416 
L 1125 4416 
L 1125 -397 
L 1875 -397 
L 1875 -844 
L 550 -844 
L 550 4863 
z
" transform="scale(0.015625)"/>
       <path id="DejaVuSans-5d" d="M 1947 4863 
L 1947 -844 
L 622 -844 
L 622 -397 
L 1369 -397 
L 1369 4416 
L 622 4416 
L 622 4863 
L 1947 4863 
z
" transform="scale(0.015625)"/>
      </defs>
      <use xlink:href="#DejaVuSans-56"/>
      <use xlink:href="#DejaVuSans-6f" transform="translate(60.658203 0)"/>
      <use xlink:href="#DejaVuSans-6c" transform="translate(121.839844 0)"/>
      <use xlink:href="#DejaVuSans-74" transform="translate(149.623047 0)"/>
      <use xlink:href="#DejaVuSans-61" transform="translate(188.832031 0)"/>
      <use xlink:href="#DejaVuSans-67" transform="translate(250.111328 0)"/>
      <use xlink:href="#DejaVuSans-65" transform="translate(313.587891 0)"/>
      <use xlink:href="#DejaVuSans-20" transform="translate(375.111328 0)"/>
      <use xlink:href="#DejaVuSans-5b" transform="translate(406.898438 0)"/>
      <use xlink:href="#DejaVuSans-56" transform="translate(445.912109 0)"/>
      <use xlink:href="#DejaVuSans-5d" transform="translate(514.320312 0)"/>
     </g>
    </g>
   </g>
   <g id="line2d_33">
    <path d="M 73.832727 208.327717 
L 74.483338 209.095812 
L 75.133948 207.125148 
L 75.784558 205.948898 
L 76.435169 209.02998 
L 77.085779 206.440467 
L 77.736389 207.076861 
L 78.386999 208.068773 
L 79.03761 207.757156 
L 79.68822 207.577204 
L 80.33883 209.016784 
L 80.989441 208.064387 
L 81.640051 208.485737 
L 82.290661 207.186594 
L 82.941272 207.90198 
L 83.591882 207.370933 
L 84.242492 207.73961 
L 84.893103 208.555956 
L 85.543713 209.126518 
L 86.194323 207.506984 
L 86.844934 208.00294 
L 87.495544 208.354072 
L 88.796764 207.173435 
L 89.447375 209.486422 
L 90.097985 207.384092 
L 90.748595 208.279466 
L 91.399206 208.463769 
L 92.049816 209.381075 
L 92.700426 210.899684 
L 93.351037 208.081932 
L 94.001647 211.3736 
L 94.652257 208.749067 
L 95.302868 211.505193 
L 95.953478 208.086319 
L 96.604088 208.775386 
L 97.254699 210.829429 
L 97.905309 209.964832 
L 98.555919 210.157943 
L 99.206529 210.750437 
L 99.85714 212.097723 
L 100.50775 212.080465 
L 101.15836 210.074529 
L 101.808971 212.304102 
L 102.459581 210.847011 
L 103.110191 211.496564 
L 103.760802 211.575664 
L 105.062022 212.677309 
L 105.712633 210.574871 
L 106.363243 210.710923 
L 107.013853 212.39183 
L 107.664464 210.785565 
L 108.315074 211.571349 
L 109.616294 211.242007 
L 110.266905 212.440369 
L 110.917515 213.274153 
L 111.568125 213.195053 
L 112.218736 211.048895 
L 112.869346 213.735089 
L 113.519956 211.72056 
L 114.170567 212.304102 
L 114.821177 211.843165 
L 116.122398 211.487935 
L 117.423618 210.298381 
L 119.375449 206.348316 
L 120.026059 204.030906 
L 120.67667 200.401231 
L 121.32728 197.623029 
L 121.97789 194.164497 
L 123.929721 179.176158 
L 124.580332 175.691325 
L 125.230942 170.938054 
L 126.532163 158.306602 
L 127.182773 145.065075 
L 127.833383 125.722865 
L 129.134604 80.117139 
L 129.785214 72.449489 
L 130.435824 103.848167 
L 131.737045 111.901968 
L 132.387655 117.331092 
L 133.038266 124.766117 
L 133.688876 128.316621 
L 134.339486 128.272756 
L 134.990097 125.516487 
L 135.640707 121.3206 
L 136.291317 119.705525 
L 136.941928 120.793867 
L 137.592538 123.137739 
L 138.243148 124.783735 
L 139.544369 124.164599 
L 140.194979 124.318484 
L 140.845589 123.704022 
L 141.4962 124.893396 
L 142.14681 124.752814 
L 142.79742 125.915941 
L 143.448031 125.924929 
L 144.098641 126.534717 
L 145.399862 126.126634 
L 146.050472 125.683315 
L 146.701082 126.398809 
L 147.351693 128.71176 
L 148.002303 127.162482 
L 148.652913 127.188729 
L 149.303524 127.85137 
L 149.954134 128.98825 
L 150.604744 127.820809 
L 151.905965 130.603325 
L 152.556575 128.132534 
L 153.207185 130.712986 
L 153.857796 129.22519 
L 154.508406 130.787771 
L 155.159016 130.116142 
L 155.809627 130.168995 
L 156.460237 130.396946 
L 157.110847 133.074475 
L 157.761458 130.515596 
L 158.412068 133.241304 
L 159.713289 133.004005 
L 161.014509 130.8755 
L 161.665119 133.482559 
L 162.31573 133.90826 
L 162.96634 135.08469 
L 163.61695 134.057471 
L 164.267561 134.448296 
L 164.918171 134.110324 
L 165.568781 132.859468 
L 166.219392 135.383112 
L 166.870002 136.805111 
L 167.520612 135.304012 
L 168.171223 137.042051 
L 168.821833 136.230199 
L 169.472443 136.519633 
L 170.123054 135.769263 
L 170.773664 135.492773 
L 171.424274 135.071387 
L 172.074884 137.875835 
L 172.725495 135.194351 
L 173.376105 137.099219 
L 174.026715 136.037124 
L 174.677326 136.256446 
L 175.327936 136.26076 
L 175.978546 139.556922 
L 176.629157 137.586402 
L 177.279767 137.599345 
L 177.930377 137.906756 
L 178.580988 137.063983 
L 179.231598 137.766174 
L 179.882208 139.442803 
L 180.532819 137.915385 
L 181.183429 138.051653 
L 181.834039 140.048456 
L 182.484649 139.052265 
L 183.13526 138.915998 
L 183.78587 139.420835 
L 184.43648 139.324441 
L 185.087091 137.9197 
L 185.737701 138.512229 
L 186.388311 137.542537 
L 187.038922 141.501232 
L 188.340142 139.995818 
L 188.990753 140.531252 
L 189.641363 140.676113 
L 190.291973 139.065209 
L 190.942584 138.911683 
L 191.593194 140.18893 
L 192.243804 142.049861 
L 192.894414 138.964536 
L 193.545025 141.593383 
L 194.195635 141.479264 
L 194.846245 141.571451 
L 195.496856 141.417818 
L 196.147466 139.758807 
L 196.798076 140.873611 
L 197.448687 141.74263 
L 198.099297 139.850958 
L 198.749907 142.225391 
L 199.400518 142.242973 
L 200.051128 142.945199 
L 200.701738 141.830395 
L 201.352349 140.276695 
L 202.002959 141.852327 
L 202.653569 141.760176 
L 203.304179 142.128853 
L 203.95479 143.16463 
L 204.6054 142.418502 
L 205.25601 143.239271 
L 205.906621 142.791566 
L 206.557231 141.251061 
L 207.207841 140.360073 
L 207.858452 140.224021 
L 208.509062 143.511374 
L 209.159672 142.975905 
L 209.810283 143.406028 
L 210.460893 142.725733 
L 211.111503 143.331422 
L 212.412724 141.413431 
L 213.063334 141.505619 
L 213.713944 143.796673 
L 214.364555 143.217303 
L 216.316386 143.638653 
L 216.966996 142.861821 
L 217.617606 141.32128 
L 218.268217 142.221005 
L 218.918827 143.80106 
L 219.569437 142.128853 
L 220.220048 143.58598 
L 220.870658 143.54208 
L 221.521268 143.20853 
L 222.171879 143.327036 
L 222.822489 141.299312 
L 223.473099 143.155857 
L 224.123709 144.07755 
L 224.77432 142.49753 
L 225.42493 143.787864 
L 226.07554 143.68694 
L 226.726151 143.375323 
L 227.376761 143.765932 
L 228.027371 141.896228 
L 228.677982 142.023507 
L 229.328592 141.299312 
L 229.979202 143.335809 
L 230.629813 144.731489 
L 231.280423 143.818605 
L 232.581644 143.116379 
L 233.232254 142.515076 
L 233.882864 141.444172 
L 234.533474 141.869909 
L 235.184085 144.529605 
L 235.834695 142.01912 
L 236.485305 144.081936 
L 237.135916 143.401641 
L 237.786526 143.370936 
L 238.437136 142.967132 
L 239.087747 140.772651 
L 239.738356 142.953972 
L 240.388967 142.374638 
L 241.039577 143.621108 
L 241.690187 143.480633 
L 242.991408 143.537693 
L 243.642018 142.813534 
L 244.292629 142.633582 
L 244.943239 140.983308 
L 245.593849 141.387113 
L 246.24446 143.454315 
L 246.89507 140.750719 
L 247.54568 141.290539 
L 248.196291 140.531252 
L 248.846901 140.281081 
L 249.497511 140.82971 
L 250.148121 142.558977 
L 250.798732 142.607227 
L 251.449342 139.429643 
L 252.099952 142.721347 
L 252.750563 141.821622 
L 253.401173 142.251746 
L 254.051783 142.286837 
L 254.702394 141.847941 
L 255.353004 141.663602 
L 256.654225 139.5964 
L 257.304835 140.500547 
L 257.955445 139.166241 
L 258.606056 142.041052 
L 259.256666 141.518778 
L 259.907276 140.127484 
L 261.208497 138.89874 
L 261.859107 138.942604 
L 262.509717 138.14801 
L 263.160328 141.268607 
L 263.810938 138.731911 
L 264.461548 140.329368 
L 265.112159 140.215249 
L 265.762769 139.833412 
L 266.413379 139.153297 
L 267.06399 137.235127 
L 267.7146 138.086528 
L 268.36521 137.20888 
L 269.015821 140.096743 
L 269.666431 138.599958 
L 270.317041 139.39013 
L 270.967651 138.301536 
L 272.268872 137.520245 
L 272.919482 136.712708 
L 273.570093 139.210105 
L 274.220703 137.88015 
L 274.871313 139.122377 
L 275.521924 139.315452 
L 276.172534 138.14801 
L 277.473755 139.074198 
L 278.124365 138.749169 
L 278.774975 138.955548 
L 279.425586 139.003727 
L 280.076196 141.158874 
L 280.726806 141.58461 
L 282.028027 145.2538 
L 282.678637 145.648796 
L 284.630468 155.480114 
L 285.931689 163.235421 
L 286.582299 169.410708 
L 287.88352 178.434431 
L 289.18474 190.798152 
L 289.835351 203.982656 
L 290.485961 222.245152 
L 291.787181 265.998864 
L 292.437792 282.834903 
L 293.088402 282.562728 
L 293.739012 253.76248 
L 294.389623 215.152414 
L 295.040233 202.898556 
L 295.690843 207.937108 
L 296.341454 216.24543 
L 297.642674 237.255424 
L 298.293285 240.98606 
L 298.943895 235.447274 
L 299.594505 226.238975 
L 300.245116 221.578197 
L 300.895726 222.745639 
L 301.546336 225.707927 
L 302.196946 226.436724 
L 303.498167 227.033569 
L 304.148777 225.506223 
L 304.799388 224.869829 
L 305.449998 223.825351 
L 306.100608 223.746252 
L 306.751219 224.878458 
L 307.401829 225.690669 
L 308.052439 223.531244 
L 308.70305 223.17134 
L 309.35366 221.130204 
L 310.00427 221.428986 
L 310.654881 223.259068 
L 311.305491 221.757969 
L 311.956101 221.16544 
L 312.606711 222.363802 
L 313.257322 222.81575 
L 313.907932 220.142895 
L 314.558542 221.262157 
L 315.209153 218.68566 
L 315.859763 219.458322 
L 316.510373 218.993071 
L 317.160984 219.102732 
L 317.811594 221.169754 
L 318.462204 218.202792 
L 319.112815 218.229398 
L 319.763425 218.988397 
L 320.414035 218.444406 
L 321.715256 218.852489 
L 322.365866 218.782378 
L 323.016476 216.082916 
L 323.667087 216.359406 
L 324.317697 215.34585 
L 324.968307 215.459825 
L 325.618918 215.973255 
L 326.269528 215.889841 
L 326.920138 216.227813 
L 327.570749 217.347075 
L 328.221359 214.691838 
L 328.871969 215.143785 
L 329.52258 215.200953 
L 330.17319 215.451196 
L 331.474411 215.257761 
L 332.125021 215.850291 
L 332.775631 213.344264 
L 333.426241 213.572575 
L 334.076852 212.743106 
L 334.727462 213.686551 
L 335.378072 213.344264 
L 336.028683 212.703556 
L 337.329903 214.09032 
L 337.980514 213.963041 
L 338.631124 211.975118 
L 339.281734 212.681623 
L 339.932345 211.558046 
L 340.582955 211.904647 
L 341.233565 210.579258 
L 341.884176 211.737819 
L 343.185396 210.680218 
L 343.836006 211.628158 
L 344.486617 214.16079 
L 345.137227 211.202493 
L 345.787837 211.417464 
L 346.438448 211.228847 
L 347.739668 209.705852 
L 348.390279 209.68392 
L 349.040889 211.040122 
L 350.34211 209.934091 
L 350.99272 210.074529 
L 351.64333 211.377914 
L 352.293941 210.750437 
L 352.944551 210.715345 
L 353.595161 208.358458 
L 354.245771 208.810514 
L 354.896382 209.126518 
L 355.546992 208.376004 
L 356.197602 209.021171 
L 356.848213 209.29331 
L 357.498823 209.29331 
L 358.149433 209.442521 
L 358.800044 210.75921 
L 359.450654 209.916545 
L 360.101264 209.62686 
L 360.751875 208.854414 
L 361.402485 207.230495 
L 362.053095 209.258183 
L 362.703706 208.275044 
L 363.354316 208.17412 
L 364.004926 207.726451 
L 364.655536 208.222406 
L 365.306147 207.937108 
L 366.607367 207.954654 
L 367.257978 209.359143 
L 367.908588 208.340912 
L 368.559198 208.569115 
L 369.209809 209.209896 
L 369.860419 209.547868 
L 370.511029 210.096497 
L 371.16164 206.774017 
L 371.81225 207.62549 
L 372.46286 207.291941 
L 373.113471 206.721379 
L 373.764081 209.495195 
L 374.414691 206.422921 
L 375.065301 207.730837 
L 375.715912 207.95904 
L 376.366522 207.182208 
L 377.017132 207.129534 
L 377.667743 207.564044 
L 378.318353 209.758525 
L 378.968963 207.68255 
L 379.619574 208.441837 
L 380.270184 208.138992 
L 381.571405 209.091426 
L 382.222015 205.979639 
L 382.872625 207.059315 
L 383.523236 207.331419 
L 384.173846 206.585292 
L 384.824456 207.024188 
L 385.475066 208.986079 
L 386.125677 208.077546 
L 386.776287 206.624806 
L 387.426897 205.874292 
L 388.728118 206.414148 
L 390.029339 206.33512 
L 390.679949 208.042454 
L 391.330559 209.223091 
L 391.98117 207.151467 
L 392.63178 207.621104 
L 393.933001 209.034366 
L 394.583611 208.411131 
L 395.234221 206.554587 
L 395.884831 209.218705 
L 396.535442 206.01473 
L 397.186052 206.058631 
L 397.836662 206.357089 
L 398.487273 206.102531 
L 398.487273 206.102531 
" clip-path="url(#p0d9a89bfba)" style="fill: none; stroke: #1f77b4; stroke-width: 1.5; stroke-linecap: square"/>
   </g>
   <g id="line2d_34">
    <path d="M 73.832727 180.685958 
L 75.133948 177.79803 
L 75.784558 176.542784 
L 77.085779 173.207166 
L 77.736389 171.929973 
L 78.386999 169.906664 
L 80.989441 164.556496 
L 82.941272 160.979493 
L 83.591882 159.114176 
L 84.893103 154.935871 
L 85.543713 153.215378 
L 86.194323 152.355167 
L 86.844934 150.36257 
L 88.796764 146.530975 
L 90.097985 143.647426 
L 90.748595 142.835466 
L 91.399206 141.211547 
L 92.049816 140.430328 
L 94.001647 135.729713 
L 94.652257 134.693865 
L 95.302868 134.294411 
L 95.953478 133.008679 
L 97.254699 129.637947 
L 97.905309 128.926768 
L 98.555919 127.741709 
L 99.206529 126.297777 
L 99.85714 124.533491 
L 100.50775 123.664472 
L 101.15836 121.579832 
L 102.459581 118.397502 
L 103.760802 115.742264 
L 104.411412 114.697787 
L 105.712633 111.836171 
L 107.013853 108.763862 
L 107.664464 107.631655 
L 108.965684 104.774354 
L 110.266905 102.307518 
L 110.917515 100.82871 
L 111.568125 100.301978 
L 112.218736 99.49444 
L 112.869346 98.103002 
L 113.519956 96.250988 
L 114.170567 95.908701 
L 114.821177 94.368052 
L 115.471787 93.174364 
L 116.122398 91.484504 
L 116.773008 90.685595 
L 120.026059 83.474567 
L 120.67667 83.02262 
L 121.32728 82.078815 
L 122.628501 79.875525 
L 123.279111 79.651888 
L 123.929721 78.85298 
L 124.580332 77.54963 
L 125.230942 76.500479 
L 125.881552 75.912264 
L 126.532163 75.66238 
L 127.182773 74.626532 
L 127.833383 74.253325 
L 128.483994 72.879505 
L 129.134604 72.247784 
L 130.435824 70.11892 
L 131.086435 69.877666 
L 131.737045 68.850447 
L 132.387655 68.793639 
L 133.688876 67.876081 
L 134.339486 67.393572 
L 134.990097 67.090476 
L 135.640707 66.480328 
L 136.291317 65.374369 
L 136.941928 64.514338 
L 138.243148 62.517427 
L 138.893759 62.938454 
L 140.194979 61.152236 
L 140.845589 61.345311 
L 141.4962 60.95916 
L 142.14681 60.370945 
L 144.098641 59.743539 
L 144.749251 59.177257 
L 145.399862 58.887464 
L 146.050472 58.83497 
L 146.701082 59.089528 
L 147.351693 58.821667 
L 148.002303 58.918384 
L 149.303524 58.088915 
L 149.954134 58.501313 
L 150.604744 58.413584 
L 151.255354 58.075612 
L 151.905965 58.764859 
L 152.556575 58.374034 
L 153.207185 58.325855 
L 153.857796 58.610974 
L 154.508406 58.690074 
L 155.159016 59.216807 
L 155.809627 59.093842 
L 156.460237 58.417898 
L 157.110847 58.668141 
L 157.761458 58.777802 
L 159.062678 59.286918 
L 159.713289 59.07191 
L 160.363899 58.549492 
L 161.014509 59.295906 
L 161.665119 59.019416 
L 162.31573 59.563408 
L 162.96634 59.844212 
L 163.61695 59.567722 
L 164.267561 60.401866 
L 164.918171 59.954233 
L 165.568781 60.085826 
L 166.219392 60.410495 
L 166.870002 60.511527 
L 167.520612 60.292205 
L 168.171223 60.401866 
L 169.472443 61.47259 
L 170.123054 61.806247 
L 170.773664 61.43304 
L 171.424274 62.108984 
L 172.725495 62.069434 
L 173.376105 62.894589 
L 174.026715 62.798231 
L 175.327936 63.987605 
L 175.978546 64.272724 
L 176.629157 64.742649 
L 177.279767 64.685481 
L 178.580988 65.501648 
L 179.231598 65.817687 
L 179.882208 66.884456 
L 181.183429 67.599591 
L 181.834039 68.293153 
L 182.484649 68.433734 
L 183.78587 70.285749 
L 184.43648 70.535992 
L 185.737701 71.892195 
L 186.388311 73.063951 
L 187.689532 74.450715 
L 188.340142 75.052233 
L 188.990753 76.008981 
L 189.641363 76.193428 
L 190.291973 77.343252 
L 190.942584 78.177036 
L 191.593194 79.6429 
L 192.243804 80.648186 
L 193.545025 82.991699 
L 196.147466 86.318566 
L 196.798076 87.139406 
L 197.448687 88.376959 
L 198.099297 89.368943 
L 198.749907 90.84811 
L 200.051128 92.516037 
L 200.701738 93.916104 
L 201.352349 94.508634 
L 202.002959 96.141326 
L 202.653569 96.900325 
L 203.304179 97.984712 
L 205.25601 102.904722 
L 207.207841 107.644599 
L 207.858452 108.667144 
L 209.810283 113.719107 
L 210.460893 115.7775 
L 213.063334 121.891198 
L 213.713944 122.554198 
L 215.015165 125.670372 
L 215.665775 126.929857 
L 216.316386 127.746023 
L 217.617606 130.743907 
L 218.268217 131.108126 
L 219.569437 133.947809 
L 220.220048 134.786268 
L 220.870658 135.83506 
L 221.521268 137.88015 
L 222.171879 139.126691 
L 222.822489 140.84287 
L 223.473099 142.199072 
L 224.123709 144.209215 
L 225.42493 146.390536 
L 226.07554 147.922305 
L 226.726151 149.041495 
L 227.376761 151.380801 
L 228.027371 152.956434 
L 228.677982 153.702561 
L 229.328592 155.70393 
L 229.979202 156.858248 
L 230.629813 158.670893 
L 231.280423 159.987582 
L 231.931033 160.961912 
L 235.834695 168.989358 
L 236.485305 171.109233 
L 237.786526 173.545116 
L 238.437136 175.120757 
L 240.388967 178.930373 
L 241.039577 180.852751 
L 242.340798 182.906793 
L 242.991408 184.175195 
L 246.24446 191.882251 
L 246.89507 193.993354 
L 248.196291 197.311412 
L 248.846901 198.408634 
L 249.497511 199.764837 
L 250.798732 202.889784 
L 252.099952 205.308117 
L 252.750563 206.848658 
L 255.353004 211.509867 
L 256.003614 212.558659 
L 257.955445 216.460438 
L 258.606056 218.593617 
L 259.256666 219.409783 
L 260.557886 222.109245 
L 261.208497 223.320551 
L 262.509717 226.03727 
L 263.160328 227.029254 
L 263.810938 229.241173 
L 264.461548 230.816698 
L 265.112159 232.045621 
L 267.06399 237.058034 
L 268.36521 240.143287 
L 269.015821 241.130956 
L 269.666431 242.724099 
L 270.317041 243.996887 
L 270.967651 244.848289 
L 271.618262 246.309838 
L 272.919482 249.689558 
L 273.570093 250.378445 
L 274.871313 252.941639 
L 277.473755 257.155144 
L 278.774975 259.235469 
L 279.425586 260.740883 
L 280.076196 261.307166 
L 280.726806 262.312093 
L 281.377416 263.992964 
L 282.028027 265.336223 
L 282.678637 266.012167 
L 283.979858 268.254647 
L 284.630468 270.036551 
L 285.281078 270.914559 
L 285.931689 271.116264 
L 287.232909 272.621677 
L 287.88352 273.850601 
L 288.53413 274.035047 
L 289.18474 275.009413 
L 291.787181 277.765683 
L 292.437792 279.473161 
L 293.088402 280.469459 
L 293.739012 281.057315 
L 295.040233 282.944565 
L 295.690843 282.9007 
L 296.341454 283.063214 
L 296.992064 283.484601 
L 297.642674 284.125309 
L 298.293285 285.823798 
L 298.943895 286.390081 
L 299.594505 287.175686 
L 301.546336 289.133048 
L 302.196946 289.19453 
L 302.847557 289.835238 
L 303.498167 290.164581 
L 304.799388 291.340652 
L 306.100608 292.310704 
L 306.751219 292.222975 
L 307.401829 292.464229 
L 308.052439 292.284457 
L 308.70305 291.928867 
L 309.35366 292.060461 
L 310.00427 292.828808 
L 310.654881 292.319333 
L 311.305491 292.670608 
L 311.956101 292.174796 
L 312.606711 292.982333 
L 313.257322 292.833122 
L 313.907932 293.241205 
L 314.558542 292.683911 
L 315.209153 292.846066 
L 315.859763 292.872672 
L 317.160984 292.517082 
L 318.462204 292.938469 
L 319.112815 292.745393 
L 319.763425 292.96903 
L 320.414035 292.609126 
L 321.715256 292.714472 
L 322.365866 292.372186 
L 323.016476 292.3765 
L 323.667087 291.889317 
L 324.317697 291.955114 
L 325.618918 291.827835 
L 326.269528 292.271154 
L 326.920138 291.845453 
L 327.570749 291.841138 
L 328.221359 291.968417 
L 328.871969 291.165194 
L 330.17319 291.445999 
L 330.8238 290.875401 
L 331.474411 290.827222 
L 332.125021 290.572665 
L 332.775631 290.673697 
L 333.426241 290.313792 
L 334.076852 289.576366 
L 334.727462 290.21276 
L 335.378072 289.690342 
L 336.028683 288.650179 
L 336.679293 288.062324 
L 337.329903 288.031403 
L 337.980514 287.061351 
L 339.932345 286.956005 
L 341.233565 284.836489 
L 341.884176 284.928532 
L 342.534786 284.015648 
L 343.185396 283.475612 
L 343.836006 282.659446 
L 344.486617 283.396872 
L 345.137227 282.259992 
L 345.787837 281.492004 
L 347.089058 279.183368 
L 347.739668 278.748678 
L 349.040889 277.546361 
L 349.691499 276.615859 
L 350.34211 276.374245 
L 350.99272 276.729835 
L 351.64333 275.15431 
L 352.293941 274.833956 
L 352.944551 273.407282 
L 353.595161 272.757945 
L 354.245771 270.888312 
L 354.896382 270.019293 
L 355.546992 268.829559 
L 356.197602 268.114425 
L 358.149433 265.296673 
L 358.800044 264.115929 
L 360.101264 262.263914 
L 360.751875 260.824297 
L 361.402485 259.788449 
L 362.053095 259.156369 
L 363.354316 257.659944 
L 366.607367 251.615998 
L 367.257978 250.6197 
L 367.908588 249.333968 
L 368.559198 247.767072 
L 369.209809 245.642882 
L 369.860419 244.56317 
L 371.16164 241.306414 
L 371.81225 238.567762 
L 372.46286 237.602025 
L 373.113471 234.982023 
L 373.764081 233.116705 
L 375.065301 231.523563 
L 375.715912 229.715053 
L 376.366522 228.688193 
L 380.270184 220.213006 
L 382.872625 216.517606 
L 383.523236 214.709455 
L 384.173846 213.550643 
L 385.475066 210.430047 
L 386.125677 208.564729 
L 386.776287 207.037383 
L 387.426897 205.953284 
L 388.077508 205.31689 
L 388.728118 202.758118 
L 390.029339 200.010622 
L 390.679949 198.268196 
L 391.330559 196.96028 
L 391.98117 195.094963 
L 392.63178 193.725601 
L 393.28239 192.66347 
L 393.933001 190.964945 
L 394.583611 189.898427 
L 395.234221 188.55542 
L 395.884831 187.54154 
L 397.186052 184.271769 
L 397.836662 183.306176 
L 398.487273 182.081674 
L 398.487273 182.081674 
" clip-path="url(#p0d9a89bfba)" style="fill: none; stroke: #ff7f0e; stroke-width: 1.5; stroke-linecap: square"/>
   </g>
   <g id="line2d_35">
    <path d="M 73.832727 146.728329 
L 74.483338 145.481859 
L 75.133948 145.490632 
L 75.784558 144.656704 
L 76.435169 140.40818 
L 77.085779 141.571271 
L 77.736389 139.92542 
L 78.386999 137.709006 
L 79.68822 134.834087 
L 80.33883 131.34938 
L 80.989441 132.047256 
L 81.640051 129.901134 
L 82.290661 129.979874 
L 83.591882 125.437387 
L 84.242492 123.471037 
L 84.893103 120.359537 
L 85.543713 118.344649 
L 86.194323 119.016278 
L 86.844934 117.216757 
L 87.495544 115.750894 
L 88.146154 115.311889 
L 88.796764 114.438555 
L 89.447375 111.269888 
L 90.097985 110.703605 
L 90.748595 108.956937 
L 91.399206 107.938707 
L 92.700426 102.790386 
L 93.351037 104.528425 
L 94.001647 100.060364 
L 94.652257 101.048033 
L 95.302868 99.085997 
L 95.953478 99.445902 
L 96.604088 98.23891 
L 97.254699 95.100804 
L 97.905309 95.083186 
L 99.206529 90.624113 
L 99.85714 87.477019 
L 100.50775 86.924039 
L 101.15836 87.244393 
L 101.808971 83.325356 
L 102.459581 83.176145 
L 103.760802 78.405347 
L 104.411412 77.452913 
L 105.062022 74.757766 
L 105.712633 76.390458 
L 106.363243 74.858798 
L 107.013853 70.162785 
L 107.664464 71.202948 
L 108.315074 68.986355 
L 109.616294 66.866479 
L 110.266905 65.378683 
L 110.917515 63.605409 
L 111.568125 62.288756 
L 112.218736 63.403704 
L 112.869346 60.199802 
L 113.519956 60.774714 
L 114.170567 59.686372 
L 114.821177 57.684787 
L 115.471787 57.649551 
L 116.122398 55.578214 
L 117.423618 54.156215 
L 118.074229 53.681976 
L 118.724839 53.568 
L 119.375449 54.441334 
L 120.026059 54.638724 
L 121.32728 59.159639 
L 121.97789 61.876359 
L 123.929721 74.498894 
L 124.580332 76.974359 
L 125.881552 84.808838 
L 126.532163 91.865981 
L 127.182773 103.931581 
L 127.833383 121.939377 
L 129.134604 165.982737 
L 129.785214 172.750537 
L 130.435824 140.864658 
L 131.737045 132.328061 
L 132.387655 126.288789 
L 133.038266 118.41512 
L 133.688876 114.728348 
L 134.339486 114.052404 
L 134.990097 116.510252 
L 135.640707 120.398728 
L 136.291317 120.583174 
L 138.243148 112.648023 
L 138.893759 112.775302 
L 139.544369 113.222935 
L 140.194979 111.849115 
L 140.845589 112.810178 
L 141.4962 110.479609 
L 142.14681 110.124379 
L 142.79742 108.193264 
L 143.448031 108.320543 
L 144.098641 107.153101 
L 144.749251 106.683177 
L 145.399862 106.643986 
L 146.050472 107.302313 
L 146.701082 106.876612 
L 147.351693 104.304429 
L 148.002303 105.362209 
L 149.954134 103.984075 
L 150.604744 104.664333 
L 151.255354 103.001079 
L 151.905965 101.657821 
L 152.556575 104.080792 
L 153.207185 101.609642 
L 153.857796 103.167908 
L 154.508406 102.697983 
L 155.159016 102.711286 
L 155.809627 102.974473 
L 156.460237 102.40855 
L 157.110847 100.578108 
L 157.761458 102.066263 
L 158.412068 99.65228 
L 159.062678 100.635275 
L 159.713289 100.24481 
L 160.363899 100.209575 
L 161.014509 101.319849 
L 161.665119 99.775245 
L 162.31573 99.340555 
L 162.96634 98.55495 
L 163.61695 100.121846 
L 164.267561 100.79779 
L 164.918171 100.494693 
L 165.568781 100.723004 
L 166.219392 99.217591 
L 166.870002 98.177428 
L 167.520612 99.906838 
L 168.171223 98.528703 
L 168.821833 99.099301 
L 169.472443 98.958719 
L 170.123054 100.740622 
L 170.773664 100.591411 
L 171.424274 100.262428 
L 172.074884 98.348571 
L 172.725495 101.284973 
L 173.376105 100.297303 
L 174.026715 101.530542 
L 174.677326 100.990865 
L 175.327936 102.860498 
L 175.978546 100.00787 
L 176.629157 101.925681 
L 177.279767 102.140689 
L 177.930377 101.517598 
L 178.580988 103.040629 
L 179.231598 103.11937 
L 179.882208 101.767841 
L 180.532819 103.694282 
L 181.183429 104.361597 
L 181.834039 103.101752 
L 182.484649 103.593609 
L 183.13526 105.208684 
L 183.78587 104.370226 
L 184.43648 105.972357 
L 185.087091 108.548494 
L 185.737701 107.943021 
L 186.388311 110.435744 
L 187.038922 107.376738 
L 187.689532 108.58373 
L 188.340142 109.162956 
L 188.990753 109.918 
L 189.641363 110.220737 
L 190.942584 114.017169 
L 191.593194 115.237464 
L 192.243804 113.336911 
L 192.894414 118.353637 
L 193.545025 115.948284 
L 194.195635 117.26961 
L 194.846245 118.055215 
L 195.496856 119.121625 
L 196.147466 122.000859 
L 196.798076 120.758632 
L 197.448687 120.34192 
L 198.099297 123.620248 
L 198.749907 122.567142 
L 199.400518 124.651782 
L 200.051128 124.5112 
L 200.701738 126.271171 
L 201.352349 128.834365 
L 202.002959 128.316621 
L 202.653569 128.873915 
L 203.304179 130.295914 
L 203.95479 130.853568 
L 204.6054 133.131284 
L 205.906621 136.019146 
L 206.557231 138.389265 
L 207.207841 139.934193 
L 207.858452 142.738749 
L 208.509062 141.013869 
L 209.810283 144.863011 
L 211.762114 150.69594 
L 212.412724 153.447823 
L 213.063334 154.395835 
L 213.713944 153.588261 
L 214.364555 155.343882 
L 215.665775 157.727088 
L 216.316386 158.977944 
L 217.617606 163.428352 
L 218.268217 163.222081 
L 218.918827 162.616392 
L 219.569437 166.088084 
L 220.220048 165.227837 
L 221.521268 167.668103 
L 222.171879 170.31464 
L 222.822489 173.623943 
L 223.473099 172.785646 
L 224.123709 173.338659 
L 224.77432 176.884948 
L 225.42493 176.349493 
L 227.376761 182.037594 
L 228.027371 185.066003 
L 228.677982 186.373919 
L 229.328592 188.884403 
L 229.979202 187.089305 
L 233.232254 195.555647 
L 233.882864 197.965172 
L 234.533474 198.329463 
L 235.184085 198.066132 
L 235.834695 202.450708 
L 236.485305 201.322744 
L 237.135916 203.126616 
L 237.786526 204.000022 
L 238.437136 205.790734 
L 239.087747 209.745186 
L 239.738356 209.319449 
L 240.388967 210.75903 
L 241.039577 211.417464 
L 241.690187 212.343292 
L 242.991408 215.402658 
L 243.642018 217.19319 
L 244.292629 220.050492 
L 244.943239 222.385375 
L 245.593849 222.5389 
L 246.24446 223.030758 
L 246.89507 227.919846 
L 247.54568 228.266807 
L 248.196291 230.544522 
L 248.846901 231.861175 
L 249.497511 233.686943 
L 250.148121 233.274545 
L 250.798732 233.836154 
L 251.449342 238.672749 
L 252.099952 236.807431 
L 252.750563 239.01971 
L 253.401173 239.994076 
L 254.051783 241.446636 
L 254.702394 242.482485 
L 256.003614 245.572412 
L 256.654225 248.881661 
L 257.304835 249.386462 
L 257.955445 252.66479 
L 258.606056 250.957672 
L 259.907276 255.074458 
L 261.208497 258.480425 
L 262.509717 261.385906 
L 263.160328 260.639851 
L 263.810938 264.080693 
L 264.461548 264.023526 
L 265.112159 266.639573 
L 265.762769 268.026337 
L 266.413379 270.172459 
L 267.06399 273.200904 
L 267.7146 274.570409 
L 268.36521 276.448671 
L 269.015821 274.982807 
L 269.666431 278.353539 
L 270.317041 279.40269 
L 271.618262 282.049298 
L 272.919482 285.647981 
L 273.570093 284.651683 
L 274.220703 286.824411 
L 274.871313 286.727694 
L 275.521924 288.64155 
L 276.172534 290.958816 
L 276.823144 291.31872 
L 277.473755 292.683551 
L 278.774975 294.882527 
L 279.425586 295.150388 
L 280.076196 294.627969 
L 281.377416 295.488 
L 282.028027 294.154089 
L 282.678637 294.439208 
L 283.329247 292.859009 
L 283.979858 291.897946 
L 284.630468 289.422481 
L 285.281078 285.937774 
L 285.931689 281.794741 
L 287.232909 272.80145 
L 287.88352 270.150527 
L 289.18474 258.989541 
L 289.835351 247.284204 
L 290.485961 230.08826 
L 292.437792 170.248807 
L 293.088402 171.732296 
L 293.739012 202.046939 
L 294.389623 241.894269 
L 295.040233 254.723543 
L 295.690843 249.733063 
L 296.341454 241.257875 
L 297.642674 221.266112 
L 298.293285 218.852489 
L 298.943895 225.685995 
L 299.594505 235.583182 
L 300.245116 240.555685 
L 300.895726 239.607925 
L 301.546336 237.83465 
L 302.196946 236.57948 
L 302.847557 237.356096 
L 303.498167 237.070978 
L 304.799388 240.98606 
L 305.449998 241.657329 
L 306.100608 241.503804 
L 306.751219 240.718199 
L 307.401829 240.476944 
L 308.052439 243.588444 
L 308.70305 242.026222 
L 309.35366 244.993185 
L 310.00427 245.783105 
L 310.654881 243.105935 
L 311.305491 245.199204 
L 311.956101 246.160627 
L 312.606711 244.914085 
L 313.257322 244.905097 
L 313.907932 247.674669 
L 314.558542 246.002427 
L 315.209153 248.008327 
L 315.859763 247.595569 
L 316.510373 248.161852 
L 317.160984 247.960148 
L 317.811594 246.577339 
L 318.462204 248.728135 
L 319.112815 248.934154 
L 319.763425 248.214705 
L 320.414035 248.842111 
L 321.064646 249.267812 
L 321.715256 248.609485 
L 322.365866 248.49551 
L 323.016476 251.572134 
L 323.667087 250.259796 
L 324.317697 250.6197 
L 324.968307 250.334581 
L 325.618918 250.804146 
L 326.269528 250.891875 
L 326.920138 250.053417 
L 327.570749 248.903593 
L 328.221359 251.642245 
L 328.871969 250.307975 
L 329.52258 250.808461 
L 330.17319 249.838409 
L 331.474411 250.000923 
L 332.125021 249.627716 
L 332.775631 252.177607 
L 333.426241 251.523955 
L 334.076852 252.195225 
L 334.727462 251.102568 
L 335.378072 250.922436 
L 336.028683 250.295031 
L 336.679293 250.277413 
L 337.329903 247.595569 
L 337.980514 247.977406 
L 338.631124 249.921824 
L 339.281734 248.679597 
L 339.932345 249.215318 
L 340.582955 248.464589 
L 341.233565 248.982693 
L 341.884176 246.590642 
L 342.534786 247.727522 
L 343.185396 247.341012 
L 343.836006 245.81834 
L 344.486617 243.73334 
L 345.137227 245.712994 
L 345.787837 244.979882 
L 346.438448 244.540878 
L 347.089058 243.162743 
L 347.739668 243.746644 
L 348.390279 243.89154 
L 349.040889 241.139585 
L 349.691499 241.7278 
L 350.34211 241.490501 
L 350.99272 240.775366 
L 351.64333 238.488662 
L 352.944551 238.290913 
L 353.595161 237.852268 
L 354.896382 235.082695 
L 355.546992 234.446301 
L 356.197602 233.142952 
L 357.498823 231.843557 
L 358.149433 230.548837 
L 358.800044 228.402715 
L 359.450654 228.819787 
L 360.101264 227.57756 
L 360.751875 227.283452 
L 361.402485 227.151859 
L 362.053095 224.689697 
L 362.703706 225.514852 
L 363.354316 223.84261 
L 364.004926 222.925411 
L 366.607367 218.097445 
L 367.257978 215.380725 
L 367.908588 214.678535 
L 370.511029 207.243474 
L 371.16164 208.647964 
L 371.81225 205.681001 
L 373.113471 203.596253 
L 373.764081 198.298757 
L 374.414691 199.795398 
L 375.715912 196.499272 
L 376.366522 195.428368 
L 377.017132 194.085325 
L 377.667743 192.32974 
L 378.318353 188.335774 
L 378.968963 189.327686 
L 379.619574 186.817201 
L 380.270184 186.185194 
L 380.920794 185.127449 
L 381.571405 183.086566 
L 382.222015 185.118676 
L 383.523236 182.384339 
L 384.173846 181.67769 
L 384.824456 180.106444 
L 385.475066 176.222214 
L 386.125677 175.704315 
L 386.776287 175.686759 
L 387.426897 174.962578 
L 388.728118 170.929102 
L 389.378728 169.691405 
L 390.029339 168.106999 
L 391.330559 160.895935 
L 391.98117 161.874652 
L 392.63178 159.544119 
L 393.933001 156.998507 
L 394.583611 156.35334 
L 395.234221 157.05118 
L 395.884831 153.355672 
L 396.535442 154.422189 
L 397.186052 152.311087 
L 397.836662 150.867119 
L 398.487273 150.020032 
L 398.487273 150.020032 
" clip-path="url(#p0d9a89bfba)" style="fill: none; stroke: #2ca02c; stroke-width: 1.5; stroke-linecap: square"/>
   </g>
   <g id="patch_3">
    <path d="M 57.6 307.584 
L 57.6 41.472 
" style="fill: none; stroke: #000000; stroke-width: 0.8; stroke-linejoin: miter; stroke-linecap: square"/>
   </g>
   <g id="patch_4">
    <path d="M 414.72 307.584 
L 414.72 41.472 
" style="fill: none; stroke: #000000; stroke-width: 0.8; stroke-linejoin: miter; stroke-linecap: square"/>
   </g>
   <g id="patch_5">
    <path d="M 57.6 307.584 
L 414.72 307.584 
" style="fill: none; stroke: #000000; stroke-width: 0.8; stroke-linejoin: miter; stroke-linecap: square"/>
   </g>
   <g id="patch_6">
    <path d="M 57.6 41.472 
L 414.72 41.472 
" style="fill: none; stroke: #000000; stroke-width: 0.8; stroke-linejoin: miter; stroke-linecap: square"/>
   </g>
   <g id="legend_1">
    <g id="patch_7">
     <path d="M 64.6 302.584 
L 139.40625 302.584 
Q 141.40625 302.584 141.40625 300.584 
L 141.40625 257.549625 
Q 141.40625 255.549625 139.40625 255.549625 
L 64.6 255.549625 
Q 62.6 255.549625 62.6 257.549625 
L 62.6 300.584 
Q 62.6 302.584 64.6 302.584 
z
" style="fill: #ffffff; opacity: 0.8; stroke: #cccccc; stroke-linejoin: miter"/>
    </g>
    <g id="line2d_36">
     <path d="M 66.6 263.648062 
L 76.6 263.648062 
L 86.6 263.648062 
" style="fill: none; stroke: #1f77b4; stroke-width: 1.5; stroke-linecap: square"/>
    </g>
    <g id="text_18">
     <!-- u tube -->
     <g transform="translate(94.6 267.148062) scale(0.1 -0.1)">
      <defs>
       <path id="DejaVuSans-75" d="M 544 1381 
L 544 3500 
L 1119 3500 
L 1119 1403 
Q 1119 906 1312 657 
Q 1506 409 1894 409 
Q 2359 409 2629 706 
Q 2900 1003 2900 1516 
L 2900 3500 
L 3475 3500 
L 3475 0 
L 2900 0 
L 2900 538 
Q 2691 219 2414 64 
Q 2138 -91 1772 -91 
Q 1169 -91 856 284 
Q 544 659 544 1381 
z
M 1991 3584 
L 1991 3584 
z
" transform="scale(0.015625)"/>
       <path id="DejaVuSans-62" d="M 3116 1747 
Q 3116 2381 2855 2742 
Q 2594 3103 2138 3103 
Q 1681 3103 1420 2742 
Q 1159 2381 1159 1747 
Q 1159 1113 1420 752 
Q 1681 391 2138 391 
Q 2594 391 2855 752 
Q 3116 1113 3116 1747 
z
M 1159 2969 
Q 1341 3281 1617 3432 
Q 1894 3584 2278 3584 
Q 2916 3584 3314 3078 
Q 3713 2572 3713 1747 
Q 3713 922 3314 415 
Q 2916 -91 2278 -91 
Q 1894 -91 1617 61 
Q 1341 213 1159 525 
L 1159 0 
L 581 0 
L 581 4863 
L 1159 4863 
L 1159 2969 
z
" transform="scale(0.015625)"/>
      </defs>
      <use xlink:href="#DejaVuSans-75"/>
      <use xlink:href="#DejaVuSans-20" transform="translate(63.378906 0)"/>
      <use xlink:href="#DejaVuSans-74" transform="translate(95.166016 0)"/>
      <use xlink:href="#DejaVuSans-75" transform="translate(134.375 0)"/>
      <use xlink:href="#DejaVuSans-62" transform="translate(197.753906 0)"/>
      <use xlink:href="#DejaVuSans-65" transform="translate(261.230469 0)"/>
     </g>
    </g>
    <g id="line2d_37">
     <path d="M 66.6 278.326188 
L 76.6 278.326188 
L 86.6 278.326188 
" style="fill: none; stroke: #ff7f0e; stroke-width: 1.5; stroke-linecap: square"/>
    </g>
    <g id="text_19">
     <!-- u ligne -->
     <g transform="translate(94.6 281.826188) scale(0.1 -0.1)">
      <defs>
       <path id="DejaVuSans-69" d="M 603 3500 
L 1178 3500 
L 1178 0 
L 603 0 
L 603 3500 
z
M 603 4863 
L 1178 4863 
L 1178 4134 
L 603 4134 
L 603 4863 
z
" transform="scale(0.015625)"/>
       <path id="DejaVuSans-6e" d="M 3513 2113 
L 3513 0 
L 2938 0 
L 2938 2094 
Q 2938 2591 2744 2837 
Q 2550 3084 2163 3084 
Q 1697 3084 1428 2787 
Q 1159 2491 1159 1978 
L 1159 0 
L 581 0 
L 581 3500 
L 1159 3500 
L 1159 2956 
Q 1366 3272 1645 3428 
Q 1925 3584 2291 3584 
Q 2894 3584 3203 3211 
Q 3513 2838 3513 2113 
z
" transform="scale(0.015625)"/>
      </defs>
      <use xlink:href="#DejaVuSans-75"/>
      <use xlink:href="#DejaVuSans-20" transform="translate(63.378906 0)"/>
      <use xlink:href="#DejaVuSans-6c" transform="translate(95.166016 0)"/>
      <use xlink:href="#DejaVuSans-69" transform="translate(122.949219 0)"/>
      <use xlink:href="#DejaVuSans-67" transform="translate(150.732422 0)"/>
      <use xlink:href="#DejaVuSans-6e" transform="translate(214.208984 0)"/>
      <use xlink:href="#DejaVuSans-65" transform="translate(277.587891 0)"/>
     </g>
    </g>
    <g id="line2d_38">
     <path d="M 66.6 293.004312 
L 76.6 293.004312 
L 86.6 293.004312 
" style="fill: none; stroke: #2ca02c; stroke-width: 1.5; stroke-linecap: square"/>
    </g>
    <g id="text_20">
     <!-- u ballast -->
     <g transform="translate(94.6 296.504312) scale(0.1 -0.1)">
      <defs>
       <path id="DejaVuSans-73" d="M 2834 3397 
L 2834 2853 
Q 2591 2978 2328 3040 
Q 2066 3103 1784 3103 
Q 1356 3103 1142 2972 
Q 928 2841 928 2578 
Q 928 2378 1081 2264 
Q 1234 2150 1697 2047 
L 1894 2003 
Q 2506 1872 2764 1633 
Q 3022 1394 3022 966 
Q 3022 478 2636 193 
Q 2250 -91 1575 -91 
Q 1294 -91 989 -36 
Q 684 19 347 128 
L 347 722 
Q 666 556 975 473 
Q 1284 391 1588 391 
Q 1994 391 2212 530 
Q 2431 669 2431 922 
Q 2431 1156 2273 1281 
Q 2116 1406 1581 1522 
L 1381 1569 
Q 847 1681 609 1914 
Q 372 2147 372 2553 
Q 372 3047 722 3315 
Q 1072 3584 1716 3584 
Q 2034 3584 2315 3537 
Q 2597 3491 2834 3397 
z
" transform="scale(0.015625)"/>
      </defs>
      <use xlink:href="#DejaVuSans-75"/>
      <use xlink:href="#DejaVuSans-20" transform="translate(63.378906 0)"/>
      <use xlink:href="#DejaVuSans-62" transform="translate(95.166016 0)"/>
      <use xlink:href="#DejaVuSans-61" transform="translate(158.642578 0)"/>
      <use xlink:href="#DejaVuSans-6c" transform="translate(219.921875 0)"/>
      <use xlink:href="#DejaVuSans-6c" transform="translate(247.705078 0)"/>
      <use xlink:href="#DejaVuSans-61" transform="translate(275.488281 0)"/>
      <use xlink:href="#DejaVuSans-73" transform="translate(336.767578 0)"/>
      <use xlink:href="#DejaVuSans-74" transform="translate(388.867188 0)"/>
     </g>
    </g>
   </g>
  </g>
  <g id="axes_2">
   <g id="matplotlib.axis_3">
    <g id="ytick_8">
     <g id="line2d_39">
      <defs>
       <path id="mbfb40d6013" d="M 0 0 
L 3.5 0 
" style="stroke: #000000; stroke-width: 0.8"/>
      </defs>
      <g>
       <use xlink:href="#mbfb40d6013" x="414.72" y="302.159135" style="stroke: #000000; stroke-width: 0.8"/>
      </g>
     </g>
     <g id="text_21">
      <!-- −0.6 -->
      <g style="fill: #ff0000" transform="translate(421.72 305.958354) scale(0.1 -0.1)">
       <defs>
        <path id="DejaVuSans-36" d="M 2113 2584 
Q 1688 2584 1439 2293 
Q 1191 2003 1191 1497 
Q 1191 994 1439 701 
Q 1688 409 2113 409 
Q 2538 409 2786 701 
Q 3034 994 3034 1497 
Q 3034 2003 2786 2293 
Q 2538 2584 2113 2584 
z
M 3366 4563 
L 3366 3988 
Q 3128 4100 2886 4159 
Q 2644 4219 2406 4219 
Q 1781 4219 1451 3797 
Q 1122 3375 1075 2522 
Q 1259 2794 1537 2939 
Q 1816 3084 2150 3084 
Q 2853 3084 3261 2657 
Q 3669 2231 3669 1497 
Q 3669 778 3244 343 
Q 2819 -91 2113 -91 
Q 1303 -91 875 529 
Q 447 1150 447 2328 
Q 447 3434 972 4092 
Q 1497 4750 2381 4750 
Q 2619 4750 2861 4703 
Q 3103 4656 3366 4563 
z
" transform="scale(0.015625)"/>
       </defs>
       <use xlink:href="#DejaVuSans-2212"/>
       <use xlink:href="#DejaVuSans-30" transform="translate(83.789062 0)"/>
       <use xlink:href="#DejaVuSans-2e" transform="translate(147.412109 0)"/>
       <use xlink:href="#DejaVuSans-36" transform="translate(179.199219 0)"/>
      </g>
     </g>
    </g>
    <g id="ytick_9">
     <g id="line2d_40">
      <g>
       <use xlink:href="#mbfb40d6013" x="414.72" y="259.853484" style="stroke: #000000; stroke-width: 0.8"/>
      </g>
     </g>
     <g id="text_22">
      <!-- −0.4 -->
      <g style="fill: #ff0000" transform="translate(421.72 263.652703) scale(0.1 -0.1)">
       <defs>
        <path id="DejaVuSans-34" d="M 2419 4116 
L 825 1625 
L 2419 1625 
L 2419 4116 
z
M 2253 4666 
L 3047 4666 
L 3047 1625 
L 3713 1625 
L 3713 1100 
L 3047 1100 
L 3047 0 
L 2419 0 
L 2419 1100 
L 313 1100 
L 313 1709 
L 2253 4666 
z
" transform="scale(0.015625)"/>
       </defs>
       <use xlink:href="#DejaVuSans-2212"/>
       <use xlink:href="#DejaVuSans-30" transform="translate(83.789062 0)"/>
       <use xlink:href="#DejaVuSans-2e" transform="translate(147.412109 0)"/>
       <use xlink:href="#DejaVuSans-34" transform="translate(179.199219 0)"/>
      </g>
     </g>
    </g>
    <g id="ytick_10">
     <g id="line2d_41">
      <g>
       <use xlink:href="#mbfb40d6013" x="414.72" y="217.547833" style="stroke: #000000; stroke-width: 0.8"/>
      </g>
     </g>
     <g id="text_23">
      <!-- −0.2 -->
      <g style="fill: #ff0000" transform="translate(421.72 221.347052) scale(0.1 -0.1)">
       <use xlink:href="#DejaVuSans-2212"/>
       <use xlink:href="#DejaVuSans-30" transform="translate(83.789062 0)"/>
       <use xlink:href="#DejaVuSans-2e" transform="translate(147.412109 0)"/>
       <use xlink:href="#DejaVuSans-32" transform="translate(179.199219 0)"/>
      </g>
     </g>
    </g>
    <g id="ytick_11">
     <g id="line2d_42">
      <g>
       <use xlink:href="#mbfb40d6013" x="414.72" y="175.242182" style="stroke: #000000; stroke-width: 0.8"/>
      </g>
     </g>
     <g id="text_24">
      <!-- 0.0 -->
      <g style="fill: #ff0000" transform="translate(421.72 179.041401) scale(0.1 -0.1)">
       <use xlink:href="#DejaVuSans-30"/>
       <use xlink:href="#DejaVuSans-2e" transform="translate(63.623047 0)"/>
       <use xlink:href="#DejaVuSans-30" transform="translate(95.410156 0)"/>
      </g>
     </g>
    </g>
    <g id="ytick_12">
     <g id="line2d_43">
      <g>
       <use xlink:href="#mbfb40d6013" x="414.72" y="132.936531" style="stroke: #000000; stroke-width: 0.8"/>
      </g>
     </g>
     <g id="text_25">
      <!-- 0.2 -->
      <g style="fill: #ff0000" transform="translate(421.72 136.73575) scale(0.1 -0.1)">
       <use xlink:href="#DejaVuSans-30"/>
       <use xlink:href="#DejaVuSans-2e" transform="translate(63.623047 0)"/>
       <use xlink:href="#DejaVuSans-32" transform="translate(95.410156 0)"/>
      </g>
     </g>
    </g>
    <g id="ytick_13">
     <g id="line2d_44">
      <g>
       <use xlink:href="#mbfb40d6013" x="414.72" y="90.63088" style="stroke: #000000; stroke-width: 0.8"/>
      </g>
     </g>
     <g id="text_26">
      <!-- 0.4 -->
      <g style="fill: #ff0000" transform="translate(421.72 94.430099) scale(0.1 -0.1)">
       <use xlink:href="#DejaVuSans-30"/>
       <use xlink:href="#DejaVuSans-2e" transform="translate(63.623047 0)"/>
       <use xlink:href="#DejaVuSans-34" transform="translate(95.410156 0)"/>
      </g>
     </g>
    </g>
    <g id="ytick_14">
     <g id="line2d_45">
      <g>
       <use xlink:href="#mbfb40d6013" x="414.72" y="48.325229" style="stroke: #000000; stroke-width: 0.8"/>
      </g>
     </g>
     <g id="text_27">
      <!-- 0.6 -->
      <g style="fill: #ff0000" transform="translate(421.72 52.124448) scale(0.1 -0.1)">
       <use xlink:href="#DejaVuSans-30"/>
       <use xlink:href="#DejaVuSans-2e" transform="translate(63.623047 0)"/>
       <use xlink:href="#DejaVuSans-36" transform="translate(95.410156 0)"/>
      </g>
     </g>
    </g>
    <g id="text_28">
     <!-- Current [A] -->
     <g style="fill: #ff0000" transform="translate(457.60125 202.2155) rotate(-90) scale(0.1 -0.1)">
      <defs>
       <path id="DejaVuSans-43" d="M 4122 4306 
L 4122 3641 
Q 3803 3938 3442 4084 
Q 3081 4231 2675 4231 
Q 1875 4231 1450 3742 
Q 1025 3253 1025 2328 
Q 1025 1406 1450 917 
Q 1875 428 2675 428 
Q 3081 428 3442 575 
Q 3803 722 4122 1019 
L 4122 359 
Q 3791 134 3420 21 
Q 3050 -91 2638 -91 
Q 1578 -91 968 557 
Q 359 1206 359 2328 
Q 359 3453 968 4101 
Q 1578 4750 2638 4750 
Q 3056 4750 3426 4639 
Q 3797 4528 4122 4306 
z
" transform="scale(0.015625)"/>
       <path id="DejaVuSans-72" d="M 2631 2963 
Q 2534 3019 2420 3045 
Q 2306 3072 2169 3072 
Q 1681 3072 1420 2755 
Q 1159 2438 1159 1844 
L 1159 0 
L 581 0 
L 581 3500 
L 1159 3500 
L 1159 2956 
Q 1341 3275 1631 3429 
Q 1922 3584 2338 3584 
Q 2397 3584 2469 3576 
Q 2541 3569 2628 3553 
L 2631 2963 
z
" transform="scale(0.015625)"/>
       <path id="DejaVuSans-41" d="M 2188 4044 
L 1331 1722 
L 3047 1722 
L 2188 4044 
z
M 1831 4666 
L 2547 4666 
L 4325 0 
L 3669 0 
L 3244 1197 
L 1141 1197 
L 716 0 
L 50 0 
L 1831 4666 
z
" transform="scale(0.015625)"/>
      </defs>
      <use xlink:href="#DejaVuSans-43"/>
      <use xlink:href="#DejaVuSans-75" transform="translate(69.824219 0)"/>
      <use xlink:href="#DejaVuSans-72" transform="translate(133.203125 0)"/>
      <use xlink:href="#DejaVuSans-72" transform="translate(172.566406 0)"/>
      <use xlink:href="#DejaVuSans-65" transform="translate(211.429688 0)"/>
      <use xlink:href="#DejaVuSans-6e" transform="translate(272.953125 0)"/>
      <use xlink:href="#DejaVuSans-74" transform="translate(336.332031 0)"/>
      <use xlink:href="#DejaVuSans-20" transform="translate(375.541016 0)"/>
      <use xlink:href="#DejaVuSans-5b" transform="translate(407.328125 0)"/>
      <use xlink:href="#DejaVuSans-41" transform="translate(446.341797 0)"/>
      <use xlink:href="#DejaVuSans-5d" transform="translate(514.75 0)"/>
     </g>
    </g>
   </g>
   <g id="line2d_46">
    <path d="M 73.832727 281.239668 
L 74.483338 281.213862 
L 75.133948 279.793661 
L 75.784558 279.003603 
L 76.435169 277.903656 
L 77.085779 277.268437 
L 77.736389 276.380018 
L 78.386999 275.827506 
L 79.03761 274.62941 
L 79.68822 273.74628 
L 80.33883 272.253948 
L 80.989441 272.093821 
L 81.640051 270.446439 
L 82.290661 269.423911 
L 82.941272 268.757597 
L 83.591882 268.344483 
L 84.242492 266.846863 
L 84.893103 264.579703 
L 85.543713 264.523013 
L 86.194323 263.350724 
L 86.844934 262.488323 
L 88.146154 258.929995 
L 88.796764 258.682084 
L 89.447375 256.683565 
L 90.097985 255.351148 
L 90.748595 254.917515 
L 91.399206 253.455855 
L 92.049816 251.126929 
L 92.700426 250.23851 
L 93.351037 248.710007 
L 94.001647 247.61006 
L 95.302868 244.878173 
L 95.953478 243.989754 
L 96.604088 242.435444 
L 97.254699 241.635022 
L 98.555919 238.717201 
L 101.15836 233.222331 
L 101.808971 231.239254 
L 103.760802 227.087166 
L 104.411412 226.013025 
L 105.062022 223.807843 
L 105.712633 222.744068 
L 106.363243 220.559615 
L 107.013853 219.253005 
L 107.664464 217.342271 
L 108.315074 216.046026 
L 108.965684 213.985529 
L 110.917515 209.110437 
L 111.568125 207.091188 
L 112.218736 205.872363 
L 112.869346 204.400549 
L 113.519956 202.572522 
L 114.170567 200.109064 
L 114.821177 199.107266 
L 115.471787 196.809223 
L 116.122398 195.233972 
L 116.773008 193.121862 
L 119.375449 186.831774 
L 120.026059 184.585322 
L 120.67667 183.728062 
L 121.32728 181.192409 
L 122.628501 179.002753 
L 123.279111 177.272727 
L 125.230942 173.36855 
L 125.881552 171.338989 
L 127.833383 169.944637 
L 128.483994 168.550286 
L 129.134604 168.090666 
L 129.785214 169.335254 
L 130.435824 167.925399 
L 131.086435 167.971889 
L 131.737045 166.866743 
L 132.387655 166.556875 
L 133.038266 165.75641 
L 133.688876 164.424036 
L 134.339486 163.840471 
L 134.990097 162.931577 
L 135.640707 162.471947 
L 136.291317 162.34283 
L 136.941928 160.473386 
L 138.243148 159.228796 
L 138.893759 159.053206 
L 139.544369 156.946195 
L 140.194979 156.460737 
L 140.845589 156.233514 
L 141.4962 154.312414 
L 142.79742 153.44481 
L 143.448031 152.417121 
L 144.098641 151.621838 
L 144.749251 150.191336 
L 145.399862 149.390871 
L 146.050472 148.373483 
L 146.701082 147.981098 
L 148.652913 144.474383 
L 149.303524 143.302305 
L 149.954134 143.627635 
L 150.604744 141.732342 
L 151.255354 141.040222 
L 153.207185 137.151486 
L 153.857796 137.063702 
L 154.508406 135.581523 
L 155.159016 134.553919 
L 155.809627 133.846357 
L 156.460237 132.539959 
L 157.110847 131.765131 
L 157.761458 130.252069 
L 159.062678 128.48602 
L 159.713289 127.143238 
L 160.363899 125.516375 
L 161.014509 125.216851 
L 161.665119 123.543662 
L 162.31573 123.734884 
L 162.96634 122.201092 
L 163.61695 120.109501 
L 164.267561 119.531183 
L 164.918171 118.276185 
L 166.870002 116.102098 
L 167.520612 114.867831 
L 168.171223 114.129174 
L 168.821833 112.533616 
L 170.123054 111.273331 
L 171.424274 108.448583 
L 172.725495 106.888985 
L 173.376105 106.047102 
L 174.677326 103.361751 
L 175.327936 102.995173 
L 175.978546 101.321984 
L 176.629157 100.609134 
L 177.279767 99.049536 
L 177.930377 98.879256 
L 181.183429 93.14684 
L 181.834039 92.382589 
L 182.484649 90.724842 
L 183.13526 90.17233 
L 183.78587 88.901891 
L 184.43648 88.30792 
L 185.737701 85.483172 
L 186.388311 84.723997 
L 187.038922 83.298719 
L 187.689532 82.307075 
L 188.340142 80.892162 
L 189.641363 79.905595 
L 190.291973 78.36165 
L 190.942584 77.406177 
L 191.593194 77.106653 
L 192.243804 75.831137 
L 192.894414 75.288779 
L 194.195635 72.417494 
L 194.846245 72.179948 
L 196.147466 69.577093 
L 196.798076 69.819927 
L 197.448687 68.378997 
L 198.099297 67.480425 
L 198.749907 67.051869 
L 199.400518 65.946633 
L 200.051128 65.094598 
L 200.701738 64.005016 
L 202.002959 62.729289 
L 202.653569 61.696396 
L 203.304179 62.156047 
L 205.25601 59.42416 
L 205.906621 58.866571 
L 206.557231 57.859485 
L 208.509062 56.960913 
L 209.159672 56.743885 
L 209.810283 55.886773 
L 210.460893 55.473658 
L 211.111503 55.25663 
L 211.762114 54.864245 
L 212.412724 54.337328 
L 213.063334 54.920935 
L 213.713944 54.404594 
L 214.364555 54.420036 
L 215.015165 53.691956 
L 215.665775 53.728127 
L 216.316386 53.568 
L 216.966996 53.676302 
L 217.617606 53.578365 
L 218.268217 54.420036 
L 218.918827 54.177413 
L 219.569437 54.879687 
L 220.220048 54.972548 
L 220.870658 55.292801 
L 221.521268 55.46837 
L 222.171879 54.998354 
L 222.822489 55.406392 
L 223.473099 55.44764 
L 224.123709 56.181009 
L 224.77432 56.284446 
L 225.42493 57.436006 
L 226.07554 57.704435 
L 226.726151 58.427439 
L 227.376761 58.732251 
L 228.677982 60.250601 
L 229.328592 60.606814 
L 229.979202 60.266042 
L 230.629813 62.156047 
L 231.280423 62.078628 
L 233.232254 64.294175 
L 233.882864 64.815803 
L 234.533474 66.070589 
L 235.184085 66.695444 
L 235.834695 67.563132 
L 237.135916 69.690684 
L 237.786526 70.341556 
L 238.437136 70.81136 
L 239.738356 72.897875 
L 240.388967 73.502 
L 241.039577 74.534892 
L 241.690187 76.61083 
L 242.340798 77.271856 
L 242.991408 77.736795 
L 243.642018 79.105172 
L 244.292629 79.792004 
L 244.943239 81.253664 
L 246.24446 83.479364 
L 248.196291 86.144197 
L 248.846901 87.621088 
L 249.497511 89.480209 
L 250.148121 89.769369 
L 250.798732 90.905487 
L 251.449342 92.516909 
L 252.099952 94.505063 
L 253.401173 95.553397 
L 254.051783 98.528119 
L 256.003614 101.321984 
L 256.654225 102.809239 
L 257.304835 103.594221 
L 257.955445 104.988615 
L 259.256666 108.443506 
L 259.907276 109.032189 
L 260.557886 110.736261 
L 261.859107 112.879465 
L 262.509717 114.506329 
L 263.160328 115.208603 
L 263.810938 117.155509 
L 264.461548 117.847629 
L 265.112159 120.439908 
L 265.762769 121.209448 
L 270.317041 133.128642 
L 270.967651 134.440329 
L 271.618262 135.354342 
L 272.919482 139.52716 
L 273.570093 141.148736 
L 274.220703 143.173061 
L 274.871313 144.567455 
L 275.521924 146.793156 
L 276.823144 149.762695 
L 278.124365 153.109135 
L 278.774975 154.834 
L 280.076196 157.6795 
L 280.726806 159.610943 
L 281.377416 161.914211 
L 282.028027 163.029684 
L 283.329247 166.928699 
L 283.979858 167.832454 
L 285.281078 171.617858 
L 285.931689 173.327239 
L 286.582299 174.556324 
L 287.232909 176.14691 
L 288.53413 178.501833 
L 289.18474 179.183504 
L 289.835351 180.438417 
L 290.485961 181.419633 
L 291.136571 182.070336 
L 291.787181 181.378321 
L 292.437792 182.065175 
L 293.088402 180.965186 
L 293.739012 182.189109 
L 294.389623 183.144498 
L 295.040233 184.781578 
L 295.690843 185.385788 
L 296.341454 186.227564 
L 296.992064 186.449627 
L 297.642674 186.919579 
L 298.293285 188.20548 
L 298.943895 188.479177 
L 299.594505 190.116257 
L 302.196946 193.039155 
L 302.847557 194.206368 
L 303.498167 195.796849 
L 304.148777 195.931169 
L 304.799388 195.915728 
L 305.449998 197.955706 
L 306.100608 198.265383 
L 306.751219 199.489497 
L 308.70305 201.97855 
L 309.35366 202.365859 
L 310.00427 204.157926 
L 310.654881 204.343859 
L 311.305491 206.042854 
L 311.956101 206.920697 
L 312.606711 208.160252 
L 313.257322 208.723129 
L 313.907932 210.14333 
L 314.558542 210.85068 
L 315.209153 212.245074 
L 315.859763 212.710013 
L 317.160984 215.209431 
L 317.811594 216.45914 
L 318.462204 216.88262 
L 319.763425 219.14978 
L 320.414035 219.991451 
L 321.064646 221.545972 
L 321.715256 222.387643 
L 322.365866 223.993777 
L 323.016476 224.789123 
L 323.667087 225.827092 
L 324.317697 225.630794 
L 325.618918 229.65385 
L 326.269528 230.092771 
L 326.920138 230.877752 
L 327.570749 232.78341 
L 328.221359 233.289597 
L 328.871969 234.193246 
L 329.52258 234.337931 
L 330.17319 236.625609 
L 330.8238 236.568708 
L 331.474411 238.226455 
L 334.727462 243.47849 
L 335.378072 244.485576 
L 336.028683 245.115719 
L 336.679293 246.664952 
L 337.980514 248.78235 
L 338.631124 248.508632 
L 339.281734 250.79631 
L 340.582955 252.619261 
L 341.884176 254.63851 
L 342.534786 256.24972 
L 343.836006 258.351677 
L 345.137227 260.066113 
L 346.438448 262.534648 
L 347.089058 263.459026 
L 348.390279 266.010269 
L 349.040889 266.800327 
L 350.99272 270.02296 
L 351.64333 270.34829 
L 352.293941 271.814815 
L 352.944551 272.450035 
L 353.595161 273.622324 
L 354.245771 273.942578 
L 354.896382 275.352414 
L 355.546992 276.462726 
L 356.197602 277.206459 
L 356.848213 278.151567 
L 357.498823 278.440726 
L 358.149433 279.938346 
L 358.800044 280.955586 
L 359.450654 280.774941 
L 360.101264 282.422323 
L 360.751875 283.072984 
L 361.402485 283.134961 
L 362.053095 284.550085 
L 362.703706 284.859763 
L 363.354316 285.618938 
L 364.004926 286.688002 
L 364.655536 286.677637 
L 365.306147 287.695088 
L 365.956757 288.386996 
L 366.607367 288.758863 
L 367.257978 289.740143 
L 367.908588 290.4733 
L 368.559198 290.287578 
L 369.209809 291.480386 
L 369.860419 291.857329 
L 370.511029 291.852252 
L 371.16164 292.012379 
L 371.81225 292.89551 
L 372.46286 293.014177 
L 373.113471 293.597784 
L 373.764081 293.897308 
L 375.065301 295.126498 
L 375.715912 295.183188 
L 376.366522 294.656482 
L 377.017132 295.265895 
L 377.667743 294.940565 
L 378.318353 295.488 
L 378.968963 294.992178 
L 379.619574 294.940565 
L 380.270184 295.043791 
L 380.920794 295.364044 
L 381.571405 295.116133 
L 382.222015 295.281337 
L 382.872625 294.594505 
L 383.523236 294.904394 
L 384.173846 294.79588 
L 384.824456 294.873299 
L 385.475066 294.692654 
L 386.125677 293.566689 
L 386.776287 293.494558 
L 387.426897 293.303336 
L 388.077508 292.590697 
L 388.728118 292.311903 
L 389.378728 291.70249 
L 390.029339 291.444214 
L 391.330559 290.060185 
L 391.98117 289.094558 
L 393.933001 287.695088 
L 394.583611 286.44009 
L 395.234221 286.636389 
L 395.884831 285.737817 
L 396.535442 284.420842 
L 397.186052 283.527558 
L 397.836662 282.897415 
L 398.487273 282.923222 
L 398.487273 282.923222 
" clip-path="url(#p0d9a89bfba)" style="fill: none; stroke: #ff0000; stroke-width: 1.5; stroke-linecap: square"/>
   </g>
   <g id="patch_8">
    <path d="M 57.6 307.584 
L 57.6 41.472 
" style="fill: none; stroke: #000000; stroke-width: 0.8; stroke-linejoin: miter; stroke-linecap: square"/>
   </g>
   <g id="patch_9">
    <path d="M 414.72 307.584 
L 414.72 41.472 
" style="fill: none; stroke: #000000; stroke-width: 0.8; stroke-linejoin: miter; stroke-linecap: square"/>
   </g>
   <g id="patch_10">
    <path d="M 57.6 307.584 
L 414.72 307.584 
" style="fill: none; stroke: #000000; stroke-width: 0.8; stroke-linejoin: miter; stroke-linecap: square"/>
   </g>
   <g id="patch_11">
    <path d="M 57.6 41.472 
L 414.72 41.472 
" style="fill: none; stroke: #000000; stroke-width: 0.8; stroke-linejoin: miter; stroke-linecap: square"/>
   </g>
   <g id="text_29">
    <!-- Windowed signals on one period -->
    <g transform="translate(138.75 35.472) scale(0.12 -0.12)">
     <defs>
      <path id="DejaVuSans-57" d="M 213 4666 
L 850 4666 
L 1831 722 
L 2809 4666 
L 3519 4666 
L 4500 722 
L 5478 4666 
L 6119 4666 
L 4947 0 
L 4153 0 
L 3169 4050 
L 2175 0 
L 1381 0 
L 213 4666 
z
" transform="scale(0.015625)"/>
      <path id="DejaVuSans-64" d="M 2906 2969 
L 2906 4863 
L 3481 4863 
L 3481 0 
L 2906 0 
L 2906 525 
Q 2725 213 2448 61 
Q 2172 -91 1784 -91 
Q 1150 -91 751 415 
Q 353 922 353 1747 
Q 353 2572 751 3078 
Q 1150 3584 1784 3584 
Q 2172 3584 2448 3432 
Q 2725 3281 2906 2969 
z
M 947 1747 
Q 947 1113 1208 752 
Q 1469 391 1925 391 
Q 2381 391 2643 752 
Q 2906 1113 2906 1747 
Q 2906 2381 2643 2742 
Q 2381 3103 1925 3103 
Q 1469 3103 1208 2742 
Q 947 2381 947 1747 
z
" transform="scale(0.015625)"/>
      <path id="DejaVuSans-77" d="M 269 3500 
L 844 3500 
L 1563 769 
L 2278 3500 
L 2956 3500 
L 3675 769 
L 4391 3500 
L 4966 3500 
L 4050 0 
L 3372 0 
L 2619 2869 
L 1863 0 
L 1184 0 
L 269 3500 
z
" transform="scale(0.015625)"/>
      <path id="DejaVuSans-70" d="M 1159 525 
L 1159 -1331 
L 581 -1331 
L 581 3500 
L 1159 3500 
L 1159 2969 
Q 1341 3281 1617 3432 
Q 1894 3584 2278 3584 
Q 2916 3584 3314 3078 
Q 3713 2572 3713 1747 
Q 3713 922 3314 415 
Q 2916 -91 2278 -91 
Q 1894 -91 1617 61 
Q 1341 213 1159 525 
z
M 3116 1747 
Q 3116 2381 2855 2742 
Q 2594 3103 2138 3103 
Q 1681 3103 1420 2742 
Q 1159 2381 1159 1747 
Q 1159 1113 1420 752 
Q 1681 391 2138 391 
Q 2594 391 2855 752 
Q 3116 1113 3116 1747 
z
" transform="scale(0.015625)"/>
     </defs>
     <use xlink:href="#DejaVuSans-57"/>
     <use xlink:href="#DejaVuSans-69" transform="translate(96.626953 0)"/>
     <use xlink:href="#DejaVuSans-6e" transform="translate(124.410156 0)"/>
     <use xlink:href="#DejaVuSans-64" transform="translate(187.789062 0)"/>
     <use xlink:href="#DejaVuSans-6f" transform="translate(251.265625 0)"/>
     <use xlink:href="#DejaVuSans-77" transform="translate(312.447266 0)"/>
     <use xlink:href="#DejaVuSans-65" transform="translate(394.234375 0)"/>
     <use xlink:href="#DejaVuSans-64" transform="translate(455.757812 0)"/>
     <use xlink:href="#DejaVuSans-20" transform="translate(519.234375 0)"/>
     <use xlink:href="#DejaVuSans-73" transform="translate(551.021484 0)"/>
     <use xlink:href="#DejaVuSans-69" transform="translate(603.121094 0)"/>
     <use xlink:href="#DejaVuSans-67" transform="translate(630.904297 0)"/>
     <use xlink:href="#DejaVuSans-6e" transform="translate(694.380859 0)"/>
     <use xlink:href="#DejaVuSans-61" transform="translate(757.759766 0)"/>
     <use xlink:href="#DejaVuSans-6c" transform="translate(819.039062 0)"/>
     <use xlink:href="#DejaVuSans-73" transform="translate(846.822266 0)"/>
     <use xlink:href="#DejaVuSans-20" transform="translate(898.921875 0)"/>
     <use xlink:href="#DejaVuSans-6f" transform="translate(930.708984 0)"/>
     <use xlink:href="#DejaVuSans-6e" transform="translate(991.890625 0)"/>
     <use xlink:href="#DejaVuSans-20" transform="translate(1055.269531 0)"/>
     <use xlink:href="#DejaVuSans-6f" transform="translate(1087.056641 0)"/>
     <use xlink:href="#DejaVuSans-6e" transform="translate(1148.238281 0)"/>
     <use xlink:href="#DejaVuSans-65" transform="translate(1211.617188 0)"/>
     <use xlink:href="#DejaVuSans-20" transform="translate(1273.140625 0)"/>
     <use xlink:href="#DejaVuSans-70" transform="translate(1304.927734 0)"/>
     <use xlink:href="#DejaVuSans-65" transform="translate(1368.404297 0)"/>
     <use xlink:href="#DejaVuSans-72" transform="translate(1429.927734 0)"/>
     <use xlink:href="#DejaVuSans-69" transform="translate(1471.041016 0)"/>
     <use xlink:href="#DejaVuSans-6f" transform="translate(1498.824219 0)"/>
     <use xlink:href="#DejaVuSans-64" transform="translate(1560.005859 0)"/>
    </g>
   </g>
   <g id="legend_2">
    <g id="patch_12">
     <path d="M 372.941875 64.150125 
L 407.72 64.150125 
Q 409.72 64.150125 409.72 62.150125 
L 409.72 48.472 
Q 409.72 46.472 407.72 46.472 
L 372.941875 46.472 
Q 370.941875 46.472 370.941875 48.472 
L 370.941875 62.150125 
Q 370.941875 64.150125 372.941875 64.150125 
z
" style="fill: #ffffff; opacity: 0.8; stroke: #cccccc; stroke-linejoin: miter"/>
    </g>
    <g id="line2d_47">
     <path d="M 374.941875 54.570438 
L 384.941875 54.570438 
L 394.941875 54.570438 
" style="fill: none; stroke: #ff0000; stroke-width: 1.5; stroke-linecap: square"/>
    </g>
    <g id="text_30">
     <!-- i -->
     <g transform="translate(402.941875 58.070438) scale(0.1 -0.1)">
      <use xlink:href="#DejaVuSans-69"/>
     </g>
    </g>
   </g>
  </g>
 </g>
 <defs>
  <clipPath id="p0d9a89bfba">
   <rect x="57.6" y="41.472" width="357.12" height="266.112"/>
  </clipPath>
 </defs>
</svg>
