<svg version="1.1" viewBox="0.0 0.0 126.41994750656168 168.59317585301838" fill="none" stroke="none" stroke-linecap="square" stroke-miterlimit="10" xmlns:xlink="http://www.w3.org/1999/xlink" xmlns="http://www.w3.org/2000/svg"><clipPath id="p.0"><path d="m0 0l126.419945 0l0 168.59317l-126.419945 0l0 -168.59317z" clip-rule="nonzero"/></clipPath><g clip-path="url(#p.0)"><path fill="#000000" fill-opacity="0.0" d="m0 0l126.419945 0l0 168.59317l-126.419945 0z" fill-rule="evenodd"/><path fill="#b6d7a8" d="m8.448819 8.490813l105.79527 0l0 105.79527l-105.79527 0z" fill-rule="evenodd"/><path stroke="#000000" stroke-width="4.0" stroke-linejoin="round" stroke-linecap="butt" d="m8.448819 8.490813l105.79527 0l0 105.79527l-105.79527 0z" fill-rule="evenodd"/><path fill="#000000" d="m60.307392 70.14783l-4.34375 0l0 5.640625l-3.484375 0l0 -5.640625l-12.28125 0l0 -3.0l10.875 -16.890625l4.890625 0l0 16.890625l4.34375 0l0 3.0zm-7.828125 -16.609375l-8.890625 13.609375l8.890625 0l0 -13.609375zm28.554691 22.25l-16.8125 0l0 -3.046875l6.59375 -6.5625q1.625 -1.609375 2.640625 -2.78125q1.015625 -1.171875 1.578125 -2.125q0.578125 -0.96875 0.765625 -1.828125q0.203125 -0.859375 0.203125 -1.859375q0 -0.9375 -0.265625 -1.78125q-0.25 -0.859375 -0.78125 -1.5q-0.515625 -0.640625 -1.359375 -1.015625q-0.84375 -0.375 -2.015625 -0.375q-1.625 0 -2.953125 0.734375q-1.328125 0.71875 -2.4375 1.859375l-1.875 -2.234375q1.453125 -1.53125 3.328125 -2.4375q1.890625 -0.921875 4.390625 -0.921875q1.703125 0 3.09375 0.515625q1.390625 0.5 2.40625 1.453125q1.015625 0.953125 1.578125 2.34375q0.5625 1.390625 0.5625 3.125q0 1.46875 -0.390625 2.71875q-0.390625 1.25 -1.1875 2.484375q-0.796875 1.234375 -2.0 2.5625q-1.1875 1.328125 -2.828125 2.921875l-4.640625 4.5l12.40625 0l0 3.25z" fill-rule="nonzero"/><path fill="#000000" fill-opacity="0.0" d="m11.251968 114.28609l100.18898 0l0 64.598434l-100.18898 0z" fill-rule="evenodd"/><path fill="#000000" d="m35.987083 138.31859l3.09375 0l3.84375 10.375l0.828125 2.53125l0.859375 -2.59375l3.8125 -10.3125l2.984375 0l-6.15625 15.6875l-3.125 0l-6.140625 -15.6875zm29.140625 15.6875l-0.0625 -2.109375q-1.28125 1.265625 -2.609375 1.828125q-1.3125 0.5625 -2.765625 0.5625q-1.34375 0 -2.296875 -0.34375q-0.953125 -0.34375 -1.578125 -0.9375q-0.609375 -0.609375 -0.90625 -1.421875q-0.28125 -0.8125 -0.28125 -1.765625q0 -2.359375 1.75 -3.6875q1.765625 -1.34375 5.203125 -1.34375l3.25 0l0 -1.375q0 -1.390625 -0.890625 -2.21875q-0.890625 -0.84375 -2.71875 -0.84375q-1.328125 0 -2.625 0.296875q-1.28125 0.296875 -2.65625 0.84375l0 -2.453125q0.515625 -0.1875 1.140625 -0.359375q0.640625 -0.1875 1.34375 -0.328125q0.703125 -0.140625 1.46875 -0.21875q0.765625 -0.09375 1.546875 -0.09375q1.421875 0 2.5625 0.3125q1.140625 0.3125 1.921875 0.953125q0.796875 0.640625 1.21875 1.609375q0.421875 0.96875 0.421875 2.28125l0 10.8125l-2.4375 0zm-0.296875 -7.140625l-3.453125 0q-1.015625 0 -1.75 0.203125q-0.734375 0.203125 -1.203125 0.578125q-0.46875 0.375 -0.703125 0.90625q-0.21875 0.515625 -0.21875 1.171875q0 0.453125 0.140625 0.875q0.140625 0.40625 0.453125 0.734375q0.3125 0.3125 0.8125 0.5q0.5 0.1875 1.21875 0.1875q0.9375 0 2.140625 -0.5625q1.21875 -0.578125 2.5625 -1.8125l0 -2.78125zm8.453125 -8.546875l2.484375 0l0.078125 2.890625q1.390625 -1.671875 2.734375 -2.421875q1.359375 -0.75 2.734375 -0.75q2.4375 0 3.6875 1.578125q1.265625 1.578125 1.171875 4.6875l-2.75 0q0.046875 -2.0625 -0.609375 -2.984375q-0.640625 -0.9375 -1.890625 -0.9375q-0.546875 0 -1.109375 0.203125q-0.546875 0.1875 -1.140625 0.625q-0.578125 0.421875 -1.234375 1.09375q-0.65625 0.671875 -1.40625 1.625l0 10.078125l-2.75 0l0 -15.6875z" fill-rule="nonzero"/></g></svg>