<svg version="1.1" xmlns="http://www.w3.org/2000/svg" xmlns:xlink="http://www.w3.org/1999/xlink" width="547"
    height="660">
    <defs />
    <g>
        <g transform="translate(-54,-30) scale(1,1)">
            <rect fill="#C0C0C0" stroke="none" x="103" y="47" width="71.736328125" height="39" opacity="0.2" />
        </g>
        <g transform="translate(-54,-30) scale(1,1)">
            <rect fill="#ffffff" stroke="none" x="96" y="40" width="71.736328125" height="39" />
        </g>
        <g transform="translate(-54,-30) scale(1,1)">
            <path fill="none" stroke="#000000" d="M 96 40 L 167.736328125 40 L 167.736328125 79 L 96 79 L 96 40 Z Z"
                stroke-miterlimit="10" />
        </g>
        <g transform="translate(-54,-30) scale(1,1)">
            <g>
                <path fill="none" stroke="none" /><text fill="#000000" stroke="none" font-family="Arial"
                    font-size="13px" font-style="normal" font-weight="bold" text-decoration="none" x="109.11181640625"
                    y="59.5">PC Prof</text>
            </g>
        </g>
        <g transform="translate(-54,-30) scale(1,1)">
            <path fill="none" stroke="#000000" d="M 132.5 80 L 132.5 680" stroke-miterlimit="10" stroke-dasharray="3" />
        </g>
        <g transform="translate(-54,-30) scale(1,1)">
            <rect fill="#C0C0C0" stroke="none" x="295" y="47" width="113.0654296875" height="39" opacity="0.2" />
        </g>
        <g transform="translate(-54,-30) scale(1,1)">
            <rect fill="#ffffff" stroke="none" x="288" y="40" width="113.0654296875" height="39" />
        </g>
        <g transform="translate(-54,-30) scale(1,1)">
            <path fill="none" stroke="#000000"
                d="M 288 40 L 401.0654296875 40 L 401.0654296875 79 L 288 79 L 288 40 Z Z" stroke-miterlimit="10" />
        </g>
        <g transform="translate(-54,-30) scale(1,1)">
            <g>
                <path fill="none" stroke="none" /><text fill="#000000" stroke="none" font-family="Arial"
                    font-size="13px" font-style="normal" font-weight="bold" text-decoration="none" x="309.369873046875"
                    y="59.5">Etudiant·e 1</text>
            </g>
        </g>
        <g transform="translate(-54,-30) scale(1,1)">
            <path fill="none" stroke="#000000" d="M 345.5 80 L 345.5 680" stroke-miterlimit="10" stroke-dasharray="3" />
        </g>
        <g transform="translate(-54,-30) scale(1,1)">
            <rect fill="#C0C0C0" stroke="none" x="487" y="47" width="104" height="39" opacity="0.2" />
        </g>
        <g transform="translate(-54,-30) scale(1,1)">
            <rect fill="#ffffff" stroke="none" x="480" y="40" width="104" height="39" />
        </g>
        <g transform="translate(-54,-30) scale(1,1)">
            <path fill="none" stroke="#000000" d="M 480 40 L 584 40 L 584 79 L 480 79 L 480 40 Z Z"
                stroke-miterlimit="10" />
        </g>
        <g transform="translate(-54,-30) scale(1,1)">
            <g>
                <path fill="none" stroke="none" /><text fill="#000000" stroke="none" font-family="Arial"
                    font-size="13px" font-style="normal" font-weight="bold" text-decoration="none" x="496.837158203125"
                    y="59.5">Etudiant·e 2</text>
            </g>
        </g>
        <g transform="translate(-54,-30) scale(1,1)">
            <path fill="none" stroke="#000000" d="M 533.5 80 L 533.5 680" stroke-miterlimit="10" stroke-dasharray="3" />
        </g>
        <g transform="translate(-54,-30) scale(1,1)">
            <path fill="none" stroke="#000000" d="M 345 112 L 138 112" stroke-miterlimit="10" />
        </g>
        <g transform="translate(-54,-30) scale(1,1)">
            <path fill="#000000" stroke="none"
                d="M 148.16267485762415 107.79048224398402 L 138 112 L 148.16267485762415 116.20951775601598" />
        </g>
        <g transform="translate(-54,-30) scale(1,1)">
            <path fill="none" stroke="#000000"
                d="M 148.16267485762415 107.79048224398402 L 138 112 L 148.16267485762415 116.20951775601598 L 148.16267485762415 107.79048224398402"
                stroke-miterlimit="10" />
        </g>
        <g transform="translate(-54,-30) scale(1,1)">
            <g>
                <path fill="none" stroke="none" /><text fill="#000000" stroke="none" font-family="Arial"
                    font-size="13px" font-style="normal" font-weight="normal" text-decoration="none"
                    x="200.864990234375" y="128.5">1 : Inscription</text>
            </g>
        </g>
        <g transform="translate(-54,-30) scale(1,1)">
            <rect fill="#ffffff" stroke="none" x="125" y="112" width="13" height="88" />
        </g>
        <g transform="translate(-54,-30) scale(1,1)">
            <path fill="none" stroke="#000000" d="M 125 112 L 138 112 L 138 200 L 125 200 L 125 112 Z Z"
                stroke-miterlimit="10" />
        </g>
        <g transform="translate(-54,-30) scale(1,1)">
            <path fill="none" stroke="#000000" d="M 138 160 L 338 160" stroke-miterlimit="10" />
        </g>
        <g transform="translate(-54,-30) scale(1,1)">
            <path fill="#000000" stroke="none"
                d="M 327.83732514237585 164.209517756016 L 338 160 L 327.83732514237585 155.790482243984" />
        </g>
        <g transform="translate(-54,-30) scale(1,1)">
            <path fill="none" stroke="#000000"
                d="M 327.83732514237585 164.209517756016 L 338 160 L 327.83732514237585 155.790482243984 L 327.83732514237585 164.209517756016"
                stroke-miterlimit="10" />
        </g>
        <g transform="translate(-54,-30) scale(1,1)">
            <g>
                <path fill="none" stroke="none" /><text fill="#000000" stroke="none" font-family="Arial"
                    font-size="13px" font-style="normal" font-weight="normal" text-decoration="none" x="221.62451171875"
                    y="156.5">2 : ok</text>
            </g>
        </g>
        <g transform="translate(-54,-30) scale(1,1)">
            <rect fill="#ffffff" stroke="none" x="338" y="160" width="13" height="28" />
        </g>
        <g transform="translate(-54,-30) scale(1,1)">
            <path fill="none" stroke="#000000" d="M 338 160 L 351 160 L 351 188 L 338 188 L 338 160 Z Z"
                stroke-miterlimit="10" />
        </g>
        <g transform="translate(-54,-30) scale(1,1)">
            <path fill="none" stroke="#000000" d="M 132 200 L 338 200" stroke-miterlimit="10" />
        </g>
        <g transform="translate(-54,-30) scale(1,1)">
            <path fill="#000000" stroke="none"
                d="M 327.83732514237585 204.209517756016 L 338 200 L 327.83732514237585 195.790482243984" />
        </g>
        <g transform="translate(-54,-30) scale(1,1)">
            <path fill="none" stroke="#000000"
                d="M 327.83732514237585 204.209517756016 L 338 200 L 327.83732514237585 195.790482243984 L 327.83732514237585 204.209517756016"
                stroke-miterlimit="10" />
        </g>
        <g transform="translate(-54,-30) scale(1,1)">
            <g>
                <path fill="none" stroke="none" /><text fill="#000000" stroke="none" font-family="Arial"
                    font-size="13px" font-style="normal" font-weight="normal" text-decoration="none"
                    x="213.200439453125" y="196.5">3 : ping</text>
            </g>
        </g>
        <g transform="translate(-54,-30) scale(1,1)">
            <rect fill="#ffffff" stroke="none" x="338" y="200" width="13" height="28" />
        </g>
        <g transform="translate(-54,-30) scale(1,1)">
            <path fill="none" stroke="#000000" d="M 338 200 L 351 200 L 351 228 L 338 228 L 338 200 Z Z"
                stroke-miterlimit="10" />
        </g>
        <g transform="translate(-54,-30) scale(1,1)">
            <path fill="none" stroke="#000000" d="M 338 224 L 138 224" stroke-miterlimit="10" />
        </g>
        <g transform="translate(-54,-30) scale(1,1)">
            <path fill="#000000" stroke="none"
                d="M 148.16267485762415 219.790482243984 L 138 224 L 148.16267485762415 228.209517756016" />
        </g>
        <g transform="translate(-54,-30) scale(1,1)">
            <path fill="none" stroke="#000000"
                d="M 148.16267485762415 219.790482243984 L 138 224 L 148.16267485762415 228.209517756016 L 148.16267485762415 219.790482243984"
                stroke-miterlimit="10" />
        </g>
        <g transform="translate(-54,-30) scale(1,1)">
            <g>
                <path fill="none" stroke="none" /><text fill="#000000" stroke="none" font-family="Arial"
                    font-size="13px" font-style="normal" font-weight="normal" text-decoration="none"
                    x="213.029541015625" y="240.5">4 : pong</text>
            </g>
        </g>
        <g transform="translate(-54,-30) scale(1,1)">
            <rect fill="#ffffff" stroke="none" x="125" y="224" width="13" height="28" />
        </g>
        <g transform="translate(-54,-30) scale(1,1)">
            <path fill="none" stroke="#000000" d="M 125 224 L 138 224 L 138 252 L 125 252 L 125 224 Z Z"
                stroke-miterlimit="10" />
        </g>
        <g transform="translate(-54,-30) scale(1,1)">
            <path fill="none" stroke="#000000" d="M 533 272 L 138 272" stroke-miterlimit="10" />
        </g>
        <g transform="translate(-54,-30) scale(1,1)">
            <path fill="#000000" stroke="none"
                d="M 148.16267485762415 267.790482243984 L 138 272 L 148.16267485762415 276.209517756016" />
        </g>
        <g transform="translate(-54,-30) scale(1,1)">
            <path fill="none" stroke="#000000"
                d="M 148.16267485762415 267.790482243984 L 138 272 L 148.16267485762415 276.209517756016 L 148.16267485762415 267.790482243984"
                stroke-miterlimit="10" />
        </g>
        <g transform="translate(-54,-30) scale(1,1)">
            <g>
                <path fill="none" stroke="none" /><text fill="#000000" stroke="none" font-family="Arial"
                    font-size="13px" font-style="normal" font-weight="normal" text-decoration="none"
                    x="382.864990234375" y="287.5">5 : Inscription</text>
            </g>
        </g>
        <g transform="translate(-54,-30) scale(1,1)">
            <rect fill="#ffffff" stroke="none" x="125" y="272" width="13" height="88" />
        </g>
        <g transform="translate(-54,-30) scale(1,1)">
            <path fill="none" stroke="#000000" d="M 125 272 L 138 272 L 138 360 L 125 360 L 125 272 Z Z"
                stroke-miterlimit="10" />
        </g>
        <g transform="translate(-54,-30) scale(1,1)">
            <path fill="none" stroke="#000000" d="M 138 320 L 526 320" stroke-miterlimit="10" />
        </g>
        <g transform="translate(-54,-30) scale(1,1)">
            <path fill="#000000" stroke="none"
                d="M 515.8373251423759 324.209517756016 L 526 320 L 515.8373251423758 315.790482243984" />
        </g>
        <g transform="translate(-54,-30) scale(1,1)">
            <path fill="none" stroke="#000000"
                d="M 515.8373251423759 324.209517756016 L 526 320 L 515.8373251423758 315.790482243984 L 515.8373251423759 324.209517756016"
                stroke-miterlimit="10" />
        </g>
        <g transform="translate(-54,-30) scale(1,1)">
            <g>
                <path fill="none" stroke="none" /><text fill="#000000" stroke="none" font-family="Arial"
                    font-size="13px" font-style="normal" font-weight="normal" text-decoration="none" x="405.62451171875"
                    y="316.5">6 : ok</text>
            </g>
        </g>
        <g transform="translate(-54,-30) scale(1,1)">
            <rect fill="#ffffff" stroke="none" x="526" y="320" width="13" height="28" />
        </g>
        <g transform="translate(-54,-30) scale(1,1)">
            <path fill="none" stroke="#000000" d="M 526 320 L 539 320 L 539 348 L 526 348 L 526 320 Z Z"
                stroke-miterlimit="10" />
        </g>
        <g transform="translate(-54,-30) scale(1,1)">
            <path fill="none" stroke="#000000" d="M 132 360 L 526 360" stroke-miterlimit="10" />
        </g>
        <g transform="translate(-54,-30) scale(1,1)">
            <path fill="#000000" stroke="none"
                d="M 515.8373251423759 364.209517756016 L 526 360 L 515.8373251423758 355.790482243984" />
        </g>
        <g transform="translate(-54,-30) scale(1,1)">
            <path fill="none" stroke="#000000"
                d="M 515.8373251423759 364.209517756016 L 526 360 L 515.8373251423758 355.790482243984 L 515.8373251423759 364.209517756016"
                stroke-miterlimit="10" />
        </g>
        <g transform="translate(-54,-30) scale(1,1)">
            <g>
                <path fill="none" stroke="none" /><text fill="#000000" stroke="none" font-family="Arial"
                    font-size="13px" font-style="normal" font-weight="normal" text-decoration="none"
                    x="400.200439453125" y="356.5">7 : ping</text>
            </g>
        </g>
        <g transform="translate(-54,-30) scale(1,1)">
            <rect fill="#ffffff" stroke="none" x="526" y="360" width="13" height="28" />
        </g>
        <g transform="translate(-54,-30) scale(1,1)">
            <path fill="none" stroke="#000000" d="M 526 360 L 539 360 L 539 388 L 526 388 L 526 360 Z Z"
                stroke-miterlimit="10" />
        </g>
        <g transform="translate(-54,-30) scale(1,1)">
            <path fill="none" stroke="#000000" d="M 526 384 L 138 384" stroke-miterlimit="10" />
        </g>
        <g transform="translate(-54,-30) scale(1,1)">
            <path fill="#000000" stroke="none"
                d="M 148.16267485762415 379.790482243984 L 138 384 L 148.16267485762415 388.209517756016" />
        </g>
        <g transform="translate(-54,-30) scale(1,1)">
            <path fill="none" stroke="#000000"
                d="M 148.16267485762415 379.790482243984 L 138 384 L 148.16267485762415 388.209517756016 L 148.16267485762415 379.790482243984"
                stroke-miterlimit="10" />
        </g>
        <g transform="translate(-54,-30) scale(1,1)">
            <g>
                <path fill="none" stroke="none" /><text fill="#000000" stroke="none" font-family="Arial"
                    font-size="13px" font-style="normal" font-weight="normal" text-decoration="none"
                    x="398.029541015625" y="403.5">8 : pong</text>
            </g>
        </g>
        <g transform="translate(-54,-30) scale(1,1)">
            <rect fill="#ffffff" stroke="none" x="125" y="384" width="13" height="28" />
        </g>
        <g transform="translate(-54,-30) scale(1,1)">
            <path fill="none" stroke="#000000" d="M 125 384 L 138 384 L 138 412 L 125 412 L 125 384 Z Z"
                stroke-miterlimit="10" />
        </g>
        <g transform="translate(-54,-30) scale(1,1)">
            <path fill="none" stroke="#000000" d="M 132 464 L 526 464" stroke-miterlimit="10" />
        </g>
        <g transform="translate(-54,-30) scale(1,1)">
            <path fill="#000000" stroke="none"
                d="M 515.8373251423759 468.209517756016 L 526 464 L 515.8373251423758 459.790482243984" />
        </g>
        <g transform="translate(-54,-30) scale(1,1)">
            <path fill="none" stroke="#000000"
                d="M 515.8373251423759 468.209517756016 L 526 464 L 515.8373251423758 459.790482243984 L 515.8373251423759 468.209517756016"
                stroke-miterlimit="10" />
        </g>
        <g transform="translate(-54,-30) scale(1,1)">
            <g>
                <path fill="none" stroke="none" /><text fill="#000000" stroke="none" font-family="Arial"
                    font-size="13px" font-style="normal" font-weight="normal" text-decoration="none" x="408.5654296875"
                    y="459.5">9 : play</text>
            </g>
        </g>
        <g transform="translate(-54,-30) scale(1,1)">
            <rect fill="#ffffff" stroke="none" x="526" y="464" width="13" height="48" />
        </g>
        <g transform="translate(-54,-30) scale(1,1)">
            <path fill="none" stroke="#000000" d="M 526 464 L 539 464 L 539 512 L 526 512 L 526 464 Z Z"
                stroke-miterlimit="10" />
        </g>
        <g transform="translate(-54,-30) scale(1,1)">
            <path fill="none" stroke="#000000" d="M 526 506 L 138 506" stroke-miterlimit="10" />
        </g>
        <g transform="translate(-54,-30) scale(1,1)">
            <path fill="#000000" stroke="none"
                d="M 148.16267485762415 501.790482243984 L 138 506 L 148.16267485762415 510.209517756016" />
        </g>
        <g transform="translate(-54,-30) scale(1,1)">
            <path fill="none" stroke="#000000"
                d="M 148.16267485762415 501.790482243984 L 138 506 L 148.16267485762415 510.209517756016 L 148.16267485762415 501.790482243984"
                stroke-miterlimit="10" />
        </g>
        <g transform="translate(-54,-30) scale(1,1)">
            <g>
                <path fill="none" stroke="none" /><text fill="#000000" stroke="none" font-family="Arial"
                    font-size="13px" font-style="normal" font-weight="normal" text-decoration="none" x="400.97998046875"
                    y="523.5">10 : move</text>
            </g>
        </g>
        <g transform="translate(-54,-30) scale(1,1)">
            <rect fill="#ffffff" stroke="none" x="125" y="506" width="13" height="54" />
        </g>
        <g transform="translate(-54,-30) scale(1,1)">
            <path fill="none" stroke="#000000" d="M 125 506 L 138 506 L 138 560 L 125 560 L 125 506 Z Z"
                stroke-miterlimit="10" />
        </g>
        <g transform="translate(-54,-30) scale(1,1)">
            <path fill="none" stroke="#000000" d="M 132 560 L 338 560" stroke-miterlimit="10" />
        </g>
        <g transform="translate(-54,-30) scale(1,1)">
            <path fill="#000000" stroke="none"
                d="M 327.83732514237585 564.209517756016 L 338 560 L 327.83732514237585 555.790482243984" />
        </g>
        <g transform="translate(-54,-30) scale(1,1)">
            <path fill="none" stroke="#000000"
                d="M 327.83732514237585 564.209517756016 L 338 560 L 327.83732514237585 555.790482243984 L 327.83732514237585 564.209517756016"
                stroke-miterlimit="10" />
        </g>
        <g transform="translate(-54,-30) scale(1,1)">
            <g>
                <path fill="none" stroke="none" /><text fill="#000000" stroke="none" font-family="Arial"
                    font-size="13px" font-style="normal" font-weight="normal" text-decoration="none"
                    x="210.432861328125" y="556.5">11 : play</text>
            </g>
        </g>
        <g transform="translate(-54,-30) scale(1,1)">
            <rect fill="#ffffff" stroke="none" x="338" y="560" width="13" height="48" />
        </g>
        <g transform="translate(-54,-30) scale(1,1)">
            <path fill="none" stroke="#000000" d="M 338 560 L 351 560 L 351 608 L 338 608 L 338 560 Z Z"
                stroke-miterlimit="10" />
        </g>
        <g transform="translate(-54,-30) scale(1,1)">
            <path fill="none" stroke="#000000" d="M 338 601 L 138 601" stroke-miterlimit="10" />
        </g>
        <g transform="translate(-54,-30) scale(1,1)">
            <path fill="#000000" stroke="none"
                d="M 148.16267485762415 596.790482243984 L 138 601 L 148.16267485762415 605.209517756016" />
        </g>
        <g transform="translate(-54,-30) scale(1,1)">
            <path fill="none" stroke="#000000"
                d="M 148.16267485762415 596.790482243984 L 138 601 L 148.16267485762415 605.209517756016 L 148.16267485762415 596.790482243984"
                stroke-miterlimit="10" />
        </g>
        <g transform="translate(-54,-30) scale(1,1)">
            <g>
                <path fill="none" stroke="none" /><text fill="#000000" stroke="none" font-family="Arial"
                    font-size="13px" font-style="normal" font-weight="normal" text-decoration="none"
                    x="208.594970703125" y="617.5">12 : move</text>
            </g>
        </g>
        <g transform="translate(-54,-30) scale(1,1)">
            <rect fill="#ffffff" stroke="none" x="125" y="601" width="13" height="28" />
        </g>
        <g transform="translate(-54,-30) scale(1,1)">
            <path fill="none" stroke="#000000" d="M 125 601 L 138 601 L 138 629 L 125 629 L 125 601 Z Z"
                stroke-miterlimit="10" />
        </g>
        <g transform="translate(-54,-30) scale(1,1)">
            <path fill="none" stroke="#000000" d="M 64 432 L 591 432 L 591 647 L 64 647 L 64 432"
                stroke-miterlimit="10" />
        </g>
        <g transform="translate(-54,-30) scale(1,1)">
            <path fill="#ffffff" stroke="none"
                d="M 64 432 L 64 454 L 104.578125 454 L 115.578125 443 L 115.578125 432 L 64 432" />
        </g>
        <g transform="translate(-54,-30) scale(1,1)">
            <path fill="none" stroke="#000000"
                d="M 64 432 L 64 454 L 104.578125 454 L 115.578125 443 L 115.578125 432 L 64 432 L 64 432"
                stroke-miterlimit="10" />
        </g>
        <g transform="translate(-54,-30) scale(1,1)">
            <g>
                <path fill="none" stroke="none" /><text fill="#000000" stroke="none" font-family="Arial"
                    font-size="13px" font-style="normal" font-weight="bold" text-decoration="none" x="69"
                    y="449.5">loop</text>
            </g>
        </g>
    </g>
</svg>