<svg version="1.1" xmlns="http://www.w3.org/2000/svg" xmlns:xlink="http://www.w3.org/1999/xlink" width="806" height="679"><defs><clipPath id="AmMDuwtiZqpX"><path fill="none" stroke="none" d=" M 0 0 L 806 0 L 806 679 L 0 679 L 0 0 Z"/></clipPath></defs><g transform="scale(1,1)" clip-path="url(#AmMDuwtiZqpX)"><g><rect fill="rgb(255,255,255)" stroke="none" x="0" y="0" width="806" height="679" fill-opacity="1"/><path fill="none" stroke="rgb(28,28,31)" paint-order="fill stroke markers" d=" M 402.5 2.5 L 402.5 679.5" stroke-opacity="1" stroke-miterlimit="10"/><path fill="none" stroke="rgb(28,28,31)" paint-order="fill stroke markers" d=" M 402.5 1.5 L 398.5 5.5" stroke-opacity="1" stroke-miterlimit="10"/><path fill="none" stroke="rgb(28,28,31)" paint-order="fill stroke markers" d=" M 402.5 1.5 L 406.5 5.5" stroke-opacity="1" stroke-miterlimit="10"/><path fill="none" stroke="rgb(28,28,31)" paint-order="fill stroke markers" d=" M 0.5 339.5 L 804.5 339.5" stroke-opacity="1" stroke-miterlimit="10"/><path fill="none" stroke="rgb(28,28,31)" paint-order="fill stroke markers" d=" M 805.5 339.5 L 801.5 335.5" stroke-opacity="1" stroke-miterlimit="10"/><path fill="none" stroke="rgb(28,28,31)" paint-order="fill stroke markers" d=" M 805.5 339.5 L 801.5 343.5" stroke-opacity="1" stroke-miterlimit="10"/><path fill="none" stroke="rgb(0,0,0)" paint-order="fill stroke markers" d=" M 702.9999999999994 339.5 C 702.9999999999994 505.1854249492379 568.6854249492376 639.4999999999999 402.99999999999966 639.4999999999999 C 237.3145750507618 639.4999999999999 102.99999999999989 505.1854249492379 102.99999999999989 339.5 C 102.99999999999989 173.81457505076207 237.3145750507618 39.500000000000114 402.99999999999966 39.500000000000114 C 568.6854249492376 39.500000000000114 702.9999999999994 173.81457505076207 702.9999999999994 339.5 Z" stroke-opacity="0.6980392156862745" stroke-linecap="round" stroke-linejoin="round" stroke-miterlimit="10" stroke-width="2.5"/><path fill="rgb(0,100,0)" stroke="none" paint-order="stroke fill markers" d=" M 502.99999999999966 339.5 C 502.99999999999966 296.1773738356125 475.10396535415407 257.78177609623316 433.9016994374944 244.39434837048464 L 402.99999999999966 339.5 Z" fill-opacity="0.09803921568627451"/><path fill="none" stroke="rgb(0,100,0)" paint-order="fill stroke markers" d=" M 502.99999999999966 339.5 C 502.99999999999966 296.1773738356125 475.10396535415407 257.78177609623316 433.9016994374944 244.39434837048464 L 402.99999999999966 339.5 Z" stroke-opacity="0.6980392156862745" stroke-linecap="round" stroke-linejoin="round" stroke-miterlimit="10" stroke-width="2.5"/><path fill="rgb(0,100,0)" stroke="none" paint-order="stroke fill markers" fill-rule="evenodd" d=" M 433.9016994374944 244.39434837048464 L 448.80430850390286 245.47531692405113 L 445.1752055584813 254.2006886531829 Z" fill-opacity="0.6980392156862745"/><text fill="rgb(0,100,0)" stroke="none" font-family="geogebra-sans-serif, sans-serif" font-size="16px" font-style="normal" font-weight="normal" text-decoration="normal" x="494" y="266" text-anchor="start" dominant-baseline="alphabetic" fill-opacity="1">360° / n</text><path fill="none" stroke="rgb(0,0,0)" paint-order="fill stroke markers" d=" M 402.99999999999966 339.5 L 495.7050983124838 54.18304511145408" stroke-opacity="0.6980392156862745" stroke-linejoin="round" stroke-miterlimit="10" stroke-width="2.5" stroke-dasharray="10.5,8"/><path fill="none" stroke="rgb(0,0,0)" paint-order="fill stroke markers" d=" M 402.99999999999966 339.5 L 160.29490168751565 163.16442431225812" stroke-opacity="0.6980392156862745" stroke-linejoin="round" stroke-miterlimit="10" stroke-width="2.5" stroke-dasharray="10.5,8"/><path fill="none" stroke="rgb(0,0,0)" paint-order="fill stroke markers" d=" M 402.99999999999966 339.5 L 160.2949016875156 515.8355756877418" stroke-opacity="0.6980392156862745" stroke-linejoin="round" stroke-miterlimit="10" stroke-width="2.5" stroke-dasharray="10.5,8"/><path fill="none" stroke="rgb(0,0,0)" paint-order="fill stroke markers" d=" M 402.99999999999966 339.5 L 495.70509831248376 624.816954888546" stroke-opacity="0.6980392156862745" stroke-linejoin="round" stroke-miterlimit="10" stroke-width="2.5" stroke-dasharray="10.5,8"/><path fill="none" stroke="rgb(0,0,0)" paint-order="fill stroke markers" d=" M 402.99999999999966 339.5 L 702.9999999999994 339.5" stroke-opacity="0.6980392156862745" stroke-linejoin="round" stroke-miterlimit="10" stroke-width="2.5" stroke-dasharray="10.5,8"/><path fill="none" stroke="rgb(255,0,0)" paint-order="fill stroke markers" d=" M 702.9999999999994 339.5 L 495.7050983124838 54.18304511145408" stroke-opacity="0.6980392156862745" stroke-linecap="round" stroke-linejoin="round" stroke-miterlimit="10" stroke-width="2.5"/><path fill="none" stroke="rgb(255,0,0)" paint-order="fill stroke markers" d=" M 495.7050983124838 54.18304511145408 L 160.29490168751565 163.16442431225812" stroke-opacity="0.6980392156862745" stroke-linecap="round" stroke-linejoin="round" stroke-miterlimit="10" stroke-width="2.5"/><path fill="none" stroke="rgb(255,0,0)" paint-order="fill stroke markers" d=" M 160.29490168751565 163.16442431225812 L 160.2949016875156 515.8355756877418" stroke-opacity="0.6980392156862745" stroke-linecap="round" stroke-linejoin="round" stroke-miterlimit="10" stroke-width="2.5"/><path fill="none" stroke="rgb(255,0,0)" paint-order="fill stroke markers" d=" M 160.2949016875156 515.8355756877418 L 495.70509831248376 624.816954888546" stroke-opacity="0.6980392156862745" stroke-linecap="round" stroke-linejoin="round" stroke-miterlimit="10" stroke-width="2.5"/><path fill="none" stroke="rgb(255,0,0)" paint-order="fill stroke markers" d=" M 495.70509831248376 624.816954888546 L 702.9999999999994 339.5" stroke-opacity="0.6980392156862745" stroke-linecap="round" stroke-linejoin="round" stroke-miterlimit="10" stroke-width="2.5"/><path fill="rgb(110,109,115)" stroke="none" paint-order="stroke fill markers" d=" M 406.99999999999966 339.5 C 406.99999999999966 341.70913899932316 405.2091389993228 343.5 402.99999999999966 343.5 C 400.7908610006765 343.5 398.99999999999966 341.70913899932316 398.99999999999966 339.5 C 398.99999999999966 337.29086100067684 400.7908610006765 335.5 402.99999999999966 335.5 C 405.2091389993228 335.5 406.99999999999966 337.29086100067684 406.99999999999966 339.5 Z" fill-opacity="1"/><path fill="none" stroke="rgb(0,0,0)" paint-order="fill stroke markers" d=" M 406.99999999999966 339.5 C 406.99999999999966 341.70913899932316 405.2091389993228 343.5 402.99999999999966 343.5 C 400.7908610006765 343.5 398.99999999999966 341.70913899932316 398.99999999999966 339.5 C 398.99999999999966 337.29086100067684 400.7908610006765 335.5 402.99999999999966 335.5 C 405.2091389993228 335.5 406.99999999999966 337.29086100067684 406.99999999999966 339.5 Z" stroke-opacity="1" stroke-linecap="round" stroke-linejoin="round" stroke-miterlimit="10"/><text fill="rgb(110,109,115)" stroke="none" font-family="geogebra-sans-serif, sans-serif" font-size="16px" font-style="normal" font-weight="normal" text-decoration="normal" x="414" y="360" text-anchor="start" dominant-baseline="alphabetic" fill-opacity="1">O</text><path fill="rgb(110,109,115)" stroke="none" paint-order="stroke fill markers" d=" M 706.9999999999994 339.5 C 706.9999999999994 341.70913899932316 705.2091389993226 343.5 702.9999999999994 343.5 C 700.7908610006763 343.5 698.9999999999994 341.70913899932316 698.9999999999994 339.5 C 698.9999999999994 337.29086100067684 700.7908610006763 335.5 702.9999999999994 335.5 C 705.2091389993226 335.5 706.9999999999994 337.29086100067684 706.9999999999994 339.5 Z" fill-opacity="1"/><path fill="none" stroke="rgb(0,0,0)" paint-order="fill stroke markers" d=" M 706.9999999999994 339.5 C 706.9999999999994 341.70913899932316 705.2091389993226 343.5 702.9999999999994 343.5 C 700.7908610006763 343.5 698.9999999999994 341.70913899932316 698.9999999999994 339.5 C 698.9999999999994 337.29086100067684 700.7908610006763 335.5 702.9999999999994 335.5 C 705.2091389993226 335.5 706.9999999999994 337.29086100067684 706.9999999999994 339.5 Z" stroke-opacity="1" stroke-linecap="round" stroke-linejoin="round" stroke-miterlimit="10"/><text fill="rgb(110,109,115)" stroke="none" font-family="geogebra-sans-serif, sans-serif" font-size="16px" font-style="normal" font-weight="normal" text-decoration="normal" x="707" y="332" text-anchor="start" dominant-baseline="alphabetic" fill-opacity="1">A</text><path fill="rgb(110,109,115)" stroke="none" paint-order="stroke fill markers" d=" M 499.7050983124838 54.18304511145408 C 499.7050983124838 56.39218411077725 497.91423731180697 58.18304511145408 495.7050983124838 58.18304511145408 C 493.49595931316065 58.18304511145408 491.7050983124838 56.39218411077725 491.7050983124838 54.18304511145408 C 491.7050983124838 51.973906112130905 493.49595931316065 50.18304511145408 495.7050983124838 50.18304511145408 C 497.91423731180697 50.18304511145408 499.7050983124838 51.973906112130905 499.7050983124838 54.18304511145408 Z" fill-opacity="1"/><path fill="none" stroke="rgb(0,0,0)" paint-order="fill stroke markers" d=" M 499.7050983124838 54.18304511145408 C 499.7050983124838 56.39218411077725 497.91423731180697 58.18304511145408 495.7050983124838 58.18304511145408 C 493.49595931316065 58.18304511145408 491.7050983124838 56.39218411077725 491.7050983124838 54.18304511145408 C 491.7050983124838 51.973906112130905 493.49595931316065 50.18304511145408 495.7050983124838 50.18304511145408 C 497.91423731180697 50.18304511145408 499.7050983124838 51.973906112130905 499.7050983124838 54.18304511145408 Z" stroke-opacity="1" stroke-linecap="round" stroke-linejoin="round" stroke-miterlimit="10"/><text fill="rgb(110,109,115)" stroke="none" font-family="geogebra-sans-serif, sans-serif" font-size="16px" font-style="normal" font-weight="normal" text-decoration="normal" x="500" y="46" text-anchor="start" dominant-baseline="alphabetic" fill-opacity="1">B</text><path fill="rgb(110,109,115)" stroke="none" paint-order="stroke fill markers" d=" M 164.29490168751565 163.16442431225812 C 164.29490168751565 165.37356331158128 162.50404068683883 167.16442431225812 160.29490168751565 167.16442431225812 C 158.08576268819246 167.16442431225812 156.29490168751565 165.37356331158128 156.29490168751565 163.16442431225812 C 156.29490168751565 160.95528531293493 158.08576268819246 159.16442431225812 160.29490168751565 159.16442431225812 C 162.50404068683883 159.16442431225812 164.29490168751565 160.95528531293493 164.29490168751565 163.16442431225812 Z" fill-opacity="1"/><path fill="none" stroke="rgb(0,0,0)" paint-order="fill stroke markers" d=" M 164.29490168751565 163.16442431225812 C 164.29490168751565 165.37356331158128 162.50404068683883 167.16442431225812 160.29490168751565 167.16442431225812 C 158.08576268819246 167.16442431225812 156.29490168751565 165.37356331158128 156.29490168751565 163.16442431225812 C 156.29490168751565 160.95528531293493 158.08576268819246 159.16442431225812 160.29490168751565 159.16442431225812 C 162.50404068683883 159.16442431225812 164.29490168751565 160.95528531293493 164.29490168751565 163.16442431225812 Z" stroke-opacity="1" stroke-linecap="round" stroke-linejoin="round" stroke-miterlimit="10"/><text fill="rgb(110,109,115)" stroke="none" font-family="geogebra-sans-serif, sans-serif" font-size="16px" font-style="normal" font-weight="normal" text-decoration="normal" x="145" y="154" text-anchor="start" dominant-baseline="alphabetic" fill-opacity="1">C</text><path fill="rgb(110,109,115)" stroke="none" paint-order="stroke fill markers" d=" M 164.2949016875156 515.8355756877418 C 164.2949016875156 518.0447146870649 162.50404068683878 519.8355756877418 160.2949016875156 519.8355756877418 C 158.0857626881924 519.8355756877418 156.2949016875156 518.0447146870649 156.2949016875156 515.8355756877418 C 156.2949016875156 513.6264366884186 158.0857626881924 511.83557568774177 160.2949016875156 511.83557568774177 C 162.50404068683878 511.83557568774177 164.2949016875156 513.6264366884186 164.2949016875156 515.8355756877418 Z" fill-opacity="1"/><path fill="none" stroke="rgb(0,0,0)" paint-order="fill stroke markers" d=" M 164.2949016875156 515.8355756877418 C 164.2949016875156 518.0447146870649 162.50404068683878 519.8355756877418 160.2949016875156 519.8355756877418 C 158.0857626881924 519.8355756877418 156.2949016875156 518.0447146870649 156.2949016875156 515.8355756877418 C 156.2949016875156 513.6264366884186 158.0857626881924 511.83557568774177 160.2949016875156 511.83557568774177 C 162.50404068683878 511.83557568774177 164.2949016875156 513.6264366884186 164.2949016875156 515.8355756877418 Z" stroke-opacity="1" stroke-linecap="round" stroke-linejoin="round" stroke-miterlimit="10"/><text fill="rgb(110,109,115)" stroke="none" font-family="geogebra-sans-serif, sans-serif" font-size="16px" font-style="normal" font-weight="normal" text-decoration="normal" x="143" y="535" text-anchor="start" dominant-baseline="alphabetic" fill-opacity="1">D</text><path fill="rgb(110,109,115)" stroke="none" paint-order="stroke fill markers" d=" M 499.70509831248376 624.816954888546 C 499.70509831248376 627.0260938878691 497.9142373118069 628.816954888546 495.70509831248376 628.816954888546 C 493.4959593131606 628.816954888546 491.70509831248376 627.0260938878691 491.70509831248376 624.816954888546 C 491.70509831248376 622.6078158892228 493.4959593131606 620.816954888546 495.70509831248376 620.816954888546 C 497.9142373118069 620.816954888546 499.70509831248376 622.6078158892228 499.70509831248376 624.816954888546 Z" fill-opacity="1"/><path fill="none" stroke="rgb(0,0,0)" paint-order="fill stroke markers" d=" M 499.70509831248376 624.816954888546 C 499.70509831248376 627.0260938878691 497.9142373118069 628.816954888546 495.70509831248376 628.816954888546 C 493.4959593131606 628.816954888546 491.70509831248376 627.0260938878691 491.70509831248376 624.816954888546 C 491.70509831248376 622.6078158892228 493.4959593131606 620.816954888546 495.70509831248376 620.816954888546 C 497.9142373118069 620.816954888546 499.70509831248376 622.6078158892228 499.70509831248376 624.816954888546 Z" stroke-opacity="1" stroke-linecap="round" stroke-linejoin="round" stroke-miterlimit="10"/><text fill="rgb(110,109,115)" stroke="none" font-family="geogebra-sans-serif, sans-serif" font-size="16px" font-style="normal" font-weight="normal" text-decoration="normal" x="501" y="644" text-anchor="start" dominant-baseline="alphabetic" fill-opacity="1">E</text><text fill="rgb(0,0,0)" stroke="none" font-family="geogebra-sans-serif, sans-serif" font-size="16px" font-style="normal" font-weight="normal" text-decoration="normal" x="533" y="363" text-anchor="start" dominant-baseline="alphabetic" fill-opacity="1">rayon</text></g></g></svg>