<svg version="1.1" viewBox="0.0 0.0 118.6745406824147 100.0" fill="none" stroke="none" stroke-linecap="square" stroke-miterlimit="10" xmlns:xlink="http://www.w3.org/1999/xlink" xmlns="http://www.w3.org/2000/svg"><clipPath id="p.0"><path d="m0 0l118.67454 0l0 100.0l-118.67454 0l0 -100.0z" clip-rule="nonzero"/></clipPath><g clip-path="url(#p.0)"><path fill="#000000" fill-opacity="0.0" d="m0 0l118.67454 0l0 100.0l-118.67454 0z" fill-rule="evenodd"/><path fill="#000000" fill-opacity="0.0" d="m19.845652 37.2385l68.55058 -16.965693" fill-rule="evenodd"/><path stroke="#000000" stroke-width="1.0" stroke-linejoin="round" stroke-linecap="butt" d="m19.845652 37.2385l68.55058 -16.965693" fill-rule="evenodd"/><path fill="#000000" fill-opacity="0.0" d="m89.70018 20.263252l8.482849 59.418144" fill-rule="evenodd"/><path stroke="#000000" stroke-width="1.0" stroke-linejoin="round" stroke-linecap="butt" d="m89.70018 20.263252l8.482849 59.418144" fill-rule="evenodd"/><path fill="#000000" fill-opacity="0.0" d="m21.803967 37.891273l77.683014 43.082924" fill-rule="evenodd"/><path stroke="#000000" stroke-width="1.0" stroke-linejoin="round" stroke-linecap="butt" d="m21.803967 37.891273l77.683014 43.082924" fill-rule="evenodd"/><path fill="#0000ff" d="m17.070578 37.2385l0 0c0 -1.983715 1.60812 -3.591835 3.591835 -3.591835l0 0c0.95261383 0 1.8662128 0.3784256 2.539812 1.0520248c0.67359924 0.67359924 1.0520248 1.5871964 1.0520248 2.5398102l0 0c0 1.9837189 -1.60812 3.5918388 -3.591837 3.5918388l0 0c-1.983715 0 -3.591835 -1.60812 -3.591835 -3.5918388z" fill-rule="evenodd"/><path stroke="#000000" stroke-width="1.0" stroke-linejoin="round" stroke-linecap="butt" d="m17.070578 37.2385l0 0c0 -1.983715 1.60812 -3.591835 3.591835 -3.591835l0 0c0.95261383 0 1.8662128 0.3784256 2.539812 1.0520248c0.67359924 0.67359924 1.0520248 1.5871964 1.0520248 2.5398102l0 0c0 1.9837189 -1.60812 3.5918388 -3.591837 3.5918388l0 0c-1.983715 0 -3.591835 -1.60812 -3.591835 -3.5918388z" fill-rule="evenodd"/><path fill="#0000ff" d="m85.20561 20.339676l0 0c0 -1.983717 1.6081161 -3.591837 3.591835 -3.591837l0 0c0.95261383 0 1.8662109 0.3784237 2.5398102 1.0520248c0.67359924 0.67359924 1.0520248 1.5871964 1.0520248 2.539812l0 0c0 1.983715 -1.6081238 3.591835 -3.591835 3.591835l0 0c-1.9837189 0 -3.591835 -1.60812 -3.591835 -3.591835z" fill-rule="evenodd"/><path stroke="#000000" stroke-width="1.0" stroke-linejoin="round" stroke-linecap="butt" d="m85.20561 20.339676l0 0c0 -1.983717 1.6081161 -3.591837 3.591835 -3.591837l0 0c0.95261383 0 1.8662109 0.3784237 2.5398102 1.0520248c0.67359924 0.67359924 1.0520248 1.5871964 1.0520248 2.539812l0 0c0 1.983715 -1.6081238 3.591835 -3.591835 3.591835l0 0c-1.9837189 0 -3.591835 -1.60812 -3.591835 -3.591835z" fill-rule="evenodd"/><path fill="#0000ff" d="m94.422424 79.66229l0 0c0 -1.9837189 1.6081238 -3.5918427 3.591835 -3.5918427l0 0c0.95261383 0 1.8662109 0.3784256 2.5398178 1.0520248c0.67359924 0.67359924 1.0520172 1.587204 1.0520172 2.5398178l0 0c0 1.9837112 -1.6081161 3.591835 -3.591835 3.591835l0 0c-1.9837112 0 -3.591835 -1.6081238 -3.591835 -3.591835z" fill-rule="evenodd"/><path stroke="#000000" stroke-width="1.0" stroke-linejoin="round" stroke-linecap="butt" d="m94.422424 79.66229l0 0c0 -1.9837189 1.6081238 -3.5918427 3.591835 -3.5918427l0 0c0.95261383 0 1.8662109 0.3784256 2.5398178 1.0520248c0.67359924 0.67359924 1.0520172 1.587204 1.0520172 2.5398178l0 0c0 1.9837112 -1.6081161 3.591835 -3.591835 3.591835l0 0c-1.9837112 0 -3.591835 -1.6081238 -3.591835 -3.591835z" fill-rule="evenodd"/></g></svg>